G04 #@! TF.GenerationSoftware,KiCad,Pcbnew,(5.0.0)*
G04 #@! TF.CreationDate,2020-08-04T09:55:42-04:00*
G04 #@! TF.ProjectId,Lighting,4C69676874696E672E6B696361645F70,1*
G04 #@! TF.SameCoordinates,Original*
G04 #@! TF.FileFunction,Legend,Top*
G04 #@! TF.FilePolarity,Positive*
%FSLAX46Y46*%
G04 Gerber Fmt 4.6, Leading zero omitted, Abs format (unit mm)*
G04 Created by KiCad (PCBNEW (5.0.0)) date 08/04/20 09:55:42*
%MOMM*%
%LPD*%
G01*
G04 APERTURE LIST*
%ADD10C,0.200000*%
%ADD11C,0.160000*%
%ADD12C,0.180000*%
%ADD13C,0.254000*%
%ADD14C,0.300000*%
%ADD15C,0.127000*%
%ADD16C,0.150000*%
%ADD17C,0.120000*%
%ADD18C,0.152400*%
%ADD19C,0.250000*%
G04 APERTURE END LIST*
D10*
X231930000Y-113962571D02*
X231930000Y-112462571D01*
X232501428Y-112462571D01*
X232644285Y-112534000D01*
X232715714Y-112605428D01*
X232787142Y-112748285D01*
X232787142Y-112962571D01*
X232715714Y-113105428D01*
X232644285Y-113176857D01*
X232501428Y-113248285D01*
X231930000Y-113248285D01*
X233715714Y-112462571D02*
X234001428Y-112462571D01*
X234144285Y-112534000D01*
X234287142Y-112676857D01*
X234358571Y-112962571D01*
X234358571Y-113462571D01*
X234287142Y-113748285D01*
X234144285Y-113891142D01*
X234001428Y-113962571D01*
X233715714Y-113962571D01*
X233572857Y-113891142D01*
X233430000Y-113748285D01*
X233358571Y-113462571D01*
X233358571Y-112962571D01*
X233430000Y-112676857D01*
X233572857Y-112534000D01*
X233715714Y-112462571D01*
X234787142Y-112462571D02*
X235644285Y-112462571D01*
X235215714Y-113962571D02*
X235215714Y-112462571D01*
X233680000Y-112014000D02*
X235966000Y-110998000D01*
X231394000Y-111252000D02*
X233680000Y-112014000D01*
X230040571Y-110497714D02*
X228540571Y-110497714D01*
X228540571Y-110140571D01*
X228612000Y-109926285D01*
X228754857Y-109783428D01*
X228897714Y-109712000D01*
X229183428Y-109640571D01*
X229397714Y-109640571D01*
X229683428Y-109712000D01*
X229826285Y-109783428D01*
X229969142Y-109926285D01*
X230040571Y-110140571D01*
X230040571Y-110497714D01*
X229612000Y-109069142D02*
X229612000Y-108354857D01*
X230040571Y-109212000D02*
X228540571Y-108712000D01*
X230040571Y-108212000D01*
X229897714Y-106854857D02*
X229969142Y-106926285D01*
X230040571Y-107140571D01*
X230040571Y-107283428D01*
X229969142Y-107497714D01*
X229826285Y-107640571D01*
X229683428Y-107712000D01*
X229397714Y-107783428D01*
X229183428Y-107783428D01*
X228897714Y-107712000D01*
X228754857Y-107640571D01*
X228612000Y-107497714D01*
X228540571Y-107283428D01*
X228540571Y-107140571D01*
X228612000Y-106926285D01*
X228683428Y-106854857D01*
X230378000Y-108458000D02*
X231140000Y-111506000D01*
X231140000Y-105918000D02*
X230378000Y-108458000D01*
X229870000Y-124206000D02*
X229870000Y-119126000D01*
X230124000Y-124206000D02*
X229870000Y-124206000D01*
X246888000Y-124206000D02*
X230124000Y-124206000D01*
X246888000Y-119126000D02*
X246888000Y-124206000D01*
X229870000Y-119126000D02*
X246888000Y-119126000D01*
X215973161Y-71408228D02*
X216735066Y-71408228D01*
X217211257Y-71408228D02*
X217973161Y-71408228D01*
X218449352Y-71408228D02*
X219211257Y-71408228D01*
X219687447Y-71122514D02*
X220449352Y-71408228D01*
X219687447Y-71693942D01*
X213163638Y-73441561D02*
X213068400Y-73489180D01*
X212877923Y-73489180D01*
X212782685Y-73441561D01*
X212735066Y-73346323D01*
X212735066Y-72965371D01*
X212782685Y-72870133D01*
X212877923Y-72822514D01*
X213068400Y-72822514D01*
X213163638Y-72870133D01*
X213211257Y-72965371D01*
X213211257Y-73060609D01*
X212735066Y-73155847D01*
X213544590Y-73489180D02*
X214068400Y-72822514D01*
X213544590Y-72822514D02*
X214068400Y-73489180D01*
X214306495Y-72822514D02*
X214687447Y-72822514D01*
X214449352Y-72489180D02*
X214449352Y-73346323D01*
X214496971Y-73441561D01*
X214592209Y-73489180D01*
X214687447Y-73489180D01*
X216258876Y-73489180D02*
X215782685Y-73489180D01*
X215782685Y-72489180D01*
X216592209Y-72965371D02*
X216925542Y-72965371D01*
X217068400Y-73489180D02*
X216592209Y-73489180D01*
X216592209Y-72489180D01*
X217068400Y-72489180D01*
X217496971Y-73489180D02*
X217496971Y-72489180D01*
X217735066Y-72489180D01*
X217877923Y-72536800D01*
X217973161Y-72632038D01*
X218020780Y-72727276D01*
X218068400Y-72917752D01*
X218068400Y-73060609D01*
X218020780Y-73251085D01*
X217973161Y-73346323D01*
X217877923Y-73441561D01*
X217735066Y-73489180D01*
X217496971Y-73489180D01*
X219258876Y-72822514D02*
X219258876Y-73822514D01*
X219258876Y-72870133D02*
X219354114Y-72822514D01*
X219544590Y-72822514D01*
X219639828Y-72870133D01*
X219687447Y-72917752D01*
X219735066Y-73012990D01*
X219735066Y-73298704D01*
X219687447Y-73393942D01*
X219639828Y-73441561D01*
X219544590Y-73489180D01*
X219354114Y-73489180D01*
X219258876Y-73441561D01*
X220068400Y-72822514D02*
X220258876Y-73489180D01*
X220449352Y-73012990D01*
X220639828Y-73489180D01*
X220830304Y-72822514D01*
X221211257Y-73489180D02*
X221211257Y-72822514D01*
X221211257Y-73012990D02*
X221258876Y-72917752D01*
X221306495Y-72870133D01*
X221401733Y-72822514D01*
X221496971Y-72822514D01*
D11*
X239217580Y-119859714D02*
X238455676Y-120145428D01*
X239217580Y-120431142D01*
X239693771Y-120145428D02*
X240455676Y-120145428D01*
X240931866Y-120526380D02*
X240931866Y-119526380D01*
X241169961Y-119526380D01*
X241312819Y-119574000D01*
X241408057Y-119669238D01*
X241455676Y-119764476D01*
X241503295Y-119954952D01*
X241503295Y-120097809D01*
X241455676Y-120288285D01*
X241408057Y-120383523D01*
X241312819Y-120478761D01*
X241169961Y-120526380D01*
X240931866Y-120526380D01*
X241931866Y-120526380D02*
X241931866Y-119859714D01*
X241931866Y-119526380D02*
X241884247Y-119574000D01*
X241931866Y-119621619D01*
X241979485Y-119574000D01*
X241931866Y-119526380D01*
X241931866Y-119621619D01*
X242408057Y-120526380D02*
X242408057Y-119859714D01*
X242408057Y-119954952D02*
X242455676Y-119907333D01*
X242550914Y-119859714D01*
X242693771Y-119859714D01*
X242789009Y-119907333D01*
X242836628Y-120002571D01*
X242836628Y-120526380D01*
X242836628Y-120002571D02*
X242884247Y-119907333D01*
X242979485Y-119859714D01*
X243122342Y-119859714D01*
X243217580Y-119907333D01*
X243265200Y-120002571D01*
X243265200Y-120526380D01*
X243741390Y-120526380D02*
X243741390Y-119859714D01*
X243741390Y-119954952D02*
X243789009Y-119907333D01*
X243884247Y-119859714D01*
X244027104Y-119859714D01*
X244122342Y-119907333D01*
X244169961Y-120002571D01*
X244169961Y-120526380D01*
X244169961Y-120002571D02*
X244217580Y-119907333D01*
X244312819Y-119859714D01*
X244455676Y-119859714D01*
X244550914Y-119907333D01*
X244598533Y-120002571D01*
X244598533Y-120526380D01*
X245455676Y-120478761D02*
X245360438Y-120526380D01*
X245169961Y-120526380D01*
X245074723Y-120478761D01*
X245027104Y-120383523D01*
X245027104Y-120002571D01*
X245074723Y-119907333D01*
X245169961Y-119859714D01*
X245360438Y-119859714D01*
X245455676Y-119907333D01*
X245503295Y-120002571D01*
X245503295Y-120097809D01*
X245027104Y-120193047D01*
X245931866Y-120526380D02*
X245931866Y-119859714D01*
X245931866Y-120050190D02*
X245979485Y-119954952D01*
X246027104Y-119907333D01*
X246122342Y-119859714D01*
X246217580Y-119859714D01*
X238622342Y-121662571D02*
X238765200Y-121710190D01*
X238812819Y-121757809D01*
X238860438Y-121853047D01*
X238860438Y-121995904D01*
X238812819Y-122091142D01*
X238765200Y-122138761D01*
X238669961Y-122186380D01*
X238289009Y-122186380D01*
X238289009Y-121186380D01*
X238622342Y-121186380D01*
X238717580Y-121234000D01*
X238765200Y-121281619D01*
X238812819Y-121376857D01*
X238812819Y-121472095D01*
X238765200Y-121567333D01*
X238717580Y-121614952D01*
X238622342Y-121662571D01*
X238289009Y-121662571D01*
X239289009Y-122186380D02*
X239289009Y-121519714D01*
X239289009Y-121710190D02*
X239336628Y-121614952D01*
X239384247Y-121567333D01*
X239479485Y-121519714D01*
X239574723Y-121519714D01*
X239908057Y-122186380D02*
X239908057Y-121519714D01*
X239908057Y-121186380D02*
X239860438Y-121234000D01*
X239908057Y-121281619D01*
X239955676Y-121234000D01*
X239908057Y-121186380D01*
X239908057Y-121281619D01*
X240812819Y-121519714D02*
X240812819Y-122329238D01*
X240765200Y-122424476D01*
X240717580Y-122472095D01*
X240622342Y-122519714D01*
X240479485Y-122519714D01*
X240384247Y-122472095D01*
X240812819Y-122138761D02*
X240717580Y-122186380D01*
X240527104Y-122186380D01*
X240431866Y-122138761D01*
X240384247Y-122091142D01*
X240336628Y-121995904D01*
X240336628Y-121710190D01*
X240384247Y-121614952D01*
X240431866Y-121567333D01*
X240527104Y-121519714D01*
X240717580Y-121519714D01*
X240812819Y-121567333D01*
X241289009Y-122186380D02*
X241289009Y-121186380D01*
X241717580Y-122186380D02*
X241717580Y-121662571D01*
X241669961Y-121567333D01*
X241574723Y-121519714D01*
X241431866Y-121519714D01*
X241336628Y-121567333D01*
X241289009Y-121614952D01*
X242050914Y-121519714D02*
X242431866Y-121519714D01*
X242193771Y-121186380D02*
X242193771Y-122043523D01*
X242241390Y-122138761D01*
X242336628Y-122186380D01*
X242431866Y-122186380D01*
X243146152Y-122138761D02*
X243050914Y-122186380D01*
X242860438Y-122186380D01*
X242765200Y-122138761D01*
X242717580Y-122043523D01*
X242717580Y-121662571D01*
X242765200Y-121567333D01*
X242860438Y-121519714D01*
X243050914Y-121519714D01*
X243146152Y-121567333D01*
X243193771Y-121662571D01*
X243193771Y-121757809D01*
X242717580Y-121853047D01*
X243622342Y-122186380D02*
X243622342Y-121519714D01*
X243622342Y-121710190D02*
X243669961Y-121614952D01*
X243717580Y-121567333D01*
X243812819Y-121519714D01*
X243908057Y-121519714D01*
X244241390Y-121805428D02*
X245003295Y-121805428D01*
X245479485Y-121519714D02*
X246241390Y-121805428D01*
X245479485Y-122091142D01*
D12*
X205911180Y-119331904D02*
X205911180Y-119808095D01*
X204911180Y-119808095D01*
X205387371Y-118998571D02*
X205387371Y-118665238D01*
X205911180Y-118522380D02*
X205911180Y-118998571D01*
X204911180Y-118998571D01*
X204911180Y-118522380D01*
X205911180Y-118093809D02*
X204911180Y-118093809D01*
X204911180Y-117855714D01*
X204958800Y-117712857D01*
X205054038Y-117617619D01*
X205149276Y-117570000D01*
X205339752Y-117522380D01*
X205482609Y-117522380D01*
X205673085Y-117570000D01*
X205768323Y-117617619D01*
X205863561Y-117712857D01*
X205911180Y-117855714D01*
X205911180Y-118093809D01*
X205815942Y-115760476D02*
X205863561Y-115808095D01*
X205911180Y-115950952D01*
X205911180Y-116046190D01*
X205863561Y-116189047D01*
X205768323Y-116284285D01*
X205673085Y-116331904D01*
X205482609Y-116379523D01*
X205339752Y-116379523D01*
X205149276Y-116331904D01*
X205054038Y-116284285D01*
X204958800Y-116189047D01*
X204911180Y-116046190D01*
X204911180Y-115950952D01*
X204958800Y-115808095D01*
X205006419Y-115760476D01*
X205244514Y-114903333D02*
X205911180Y-114903333D01*
X205244514Y-115331904D02*
X205768323Y-115331904D01*
X205863561Y-115284285D01*
X205911180Y-115189047D01*
X205911180Y-115046190D01*
X205863561Y-114950952D01*
X205815942Y-114903333D01*
X205911180Y-114427142D02*
X205244514Y-114427142D01*
X205434990Y-114427142D02*
X205339752Y-114379523D01*
X205292133Y-114331904D01*
X205244514Y-114236666D01*
X205244514Y-114141428D01*
X205911180Y-113808095D02*
X205244514Y-113808095D01*
X205434990Y-113808095D02*
X205339752Y-113760476D01*
X205292133Y-113712857D01*
X205244514Y-113617619D01*
X205244514Y-113522380D01*
X205863561Y-112808095D02*
X205911180Y-112903333D01*
X205911180Y-113093809D01*
X205863561Y-113189047D01*
X205768323Y-113236666D01*
X205387371Y-113236666D01*
X205292133Y-113189047D01*
X205244514Y-113093809D01*
X205244514Y-112903333D01*
X205292133Y-112808095D01*
X205387371Y-112760476D01*
X205482609Y-112760476D01*
X205577847Y-113236666D01*
X205244514Y-112331904D02*
X205911180Y-112331904D01*
X205339752Y-112331904D02*
X205292133Y-112284285D01*
X205244514Y-112189047D01*
X205244514Y-112046190D01*
X205292133Y-111950952D01*
X205387371Y-111903333D01*
X205911180Y-111903333D01*
X205244514Y-111570000D02*
X205244514Y-111189047D01*
X204911180Y-111427142D02*
X205768323Y-111427142D01*
X205863561Y-111379523D01*
X205911180Y-111284285D01*
X205911180Y-111189047D01*
X207591180Y-119093809D02*
X206591180Y-119093809D01*
X206591180Y-118712857D01*
X206638800Y-118617619D01*
X206686419Y-118570000D01*
X206781657Y-118522380D01*
X206924514Y-118522380D01*
X207019752Y-118570000D01*
X207067371Y-118617619D01*
X207114990Y-118712857D01*
X207114990Y-119093809D01*
X207591180Y-118093809D02*
X206924514Y-118093809D01*
X207114990Y-118093809D02*
X207019752Y-118046190D01*
X206972133Y-117998571D01*
X206924514Y-117903333D01*
X206924514Y-117808095D01*
X207591180Y-117331904D02*
X207543561Y-117427142D01*
X207495942Y-117474761D01*
X207400704Y-117522380D01*
X207114990Y-117522380D01*
X207019752Y-117474761D01*
X206972133Y-117427142D01*
X206924514Y-117331904D01*
X206924514Y-117189047D01*
X206972133Y-117093809D01*
X207019752Y-117046190D01*
X207114990Y-116998571D01*
X207400704Y-116998571D01*
X207495942Y-117046190D01*
X207543561Y-117093809D01*
X207591180Y-117189047D01*
X207591180Y-117331904D01*
X207591180Y-116570000D02*
X206591180Y-116570000D01*
X206972133Y-116570000D02*
X206924514Y-116474761D01*
X206924514Y-116284285D01*
X206972133Y-116189047D01*
X207019752Y-116141428D01*
X207114990Y-116093809D01*
X207400704Y-116093809D01*
X207495942Y-116141428D01*
X207543561Y-116189047D01*
X207591180Y-116284285D01*
X207591180Y-116474761D01*
X207543561Y-116570000D01*
X207543561Y-115284285D02*
X207591180Y-115379523D01*
X207591180Y-115570000D01*
X207543561Y-115665238D01*
X207448323Y-115712857D01*
X207067371Y-115712857D01*
X206972133Y-115665238D01*
X206924514Y-115570000D01*
X206924514Y-115379523D01*
X206972133Y-115284285D01*
X207067371Y-115236666D01*
X207162609Y-115236666D01*
X207257847Y-115712857D01*
X207210228Y-114046190D02*
X207210228Y-113284285D01*
X206924514Y-112808095D02*
X207210228Y-112046190D01*
X207495942Y-112808095D01*
X265560857Y-91198285D02*
X266532285Y-91198285D01*
X266646571Y-91141142D01*
X266703714Y-91084000D01*
X266760857Y-90969714D01*
X266760857Y-90741142D01*
X266703714Y-90626857D01*
X266646571Y-90569714D01*
X266532285Y-90512571D01*
X265560857Y-90512571D01*
X266703714Y-89998285D02*
X266760857Y-89826857D01*
X266760857Y-89541142D01*
X266703714Y-89426857D01*
X266646571Y-89369714D01*
X266532285Y-89312571D01*
X266418000Y-89312571D01*
X266303714Y-89369714D01*
X266246571Y-89426857D01*
X266189428Y-89541142D01*
X266132285Y-89769714D01*
X266075142Y-89884000D01*
X266018000Y-89941142D01*
X265903714Y-89998285D01*
X265789428Y-89998285D01*
X265675142Y-89941142D01*
X265618000Y-89884000D01*
X265560857Y-89769714D01*
X265560857Y-89484000D01*
X265618000Y-89312571D01*
X266132285Y-88398285D02*
X266189428Y-88226857D01*
X266246571Y-88169714D01*
X266360857Y-88112571D01*
X266532285Y-88112571D01*
X266646571Y-88169714D01*
X266703714Y-88226857D01*
X266760857Y-88341142D01*
X266760857Y-88798285D01*
X265560857Y-88798285D01*
X265560857Y-88398285D01*
X265618000Y-88284000D01*
X265675142Y-88226857D01*
X265789428Y-88169714D01*
X265903714Y-88169714D01*
X266018000Y-88226857D01*
X266075142Y-88284000D01*
X266132285Y-88398285D01*
X266132285Y-88798285D01*
X265960857Y-86855428D02*
X265960857Y-86398285D01*
X265560857Y-86684000D02*
X266589428Y-86684000D01*
X266703714Y-86626857D01*
X266760857Y-86512571D01*
X266760857Y-86398285D01*
X266760857Y-85826857D02*
X266703714Y-85941142D01*
X266646571Y-85998285D01*
X266532285Y-86055428D01*
X266189428Y-86055428D01*
X266075142Y-85998285D01*
X266018000Y-85941142D01*
X265960857Y-85826857D01*
X265960857Y-85655428D01*
X266018000Y-85541142D01*
X266075142Y-85484000D01*
X266189428Y-85426857D01*
X266532285Y-85426857D01*
X266646571Y-85484000D01*
X266703714Y-85541142D01*
X266760857Y-85655428D01*
X266760857Y-85826857D01*
X268626571Y-91169714D02*
X268683714Y-91226857D01*
X268740857Y-91398285D01*
X268740857Y-91512571D01*
X268683714Y-91684000D01*
X268569428Y-91798285D01*
X268455142Y-91855428D01*
X268226571Y-91912571D01*
X268055142Y-91912571D01*
X267826571Y-91855428D01*
X267712285Y-91798285D01*
X267598000Y-91684000D01*
X267540857Y-91512571D01*
X267540857Y-91398285D01*
X267598000Y-91226857D01*
X267655142Y-91169714D01*
X268740857Y-90484000D02*
X268683714Y-90598285D01*
X268626571Y-90655428D01*
X268512285Y-90712571D01*
X268169428Y-90712571D01*
X268055142Y-90655428D01*
X267998000Y-90598285D01*
X267940857Y-90484000D01*
X267940857Y-90312571D01*
X267998000Y-90198285D01*
X268055142Y-90141142D01*
X268169428Y-90084000D01*
X268512285Y-90084000D01*
X268626571Y-90141142D01*
X268683714Y-90198285D01*
X268740857Y-90312571D01*
X268740857Y-90484000D01*
X268740857Y-89569714D02*
X267940857Y-89569714D01*
X268055142Y-89569714D02*
X267998000Y-89512571D01*
X267940857Y-89398285D01*
X267940857Y-89226857D01*
X267998000Y-89112571D01*
X268112285Y-89055428D01*
X268740857Y-89055428D01*
X268112285Y-89055428D02*
X267998000Y-88998285D01*
X267940857Y-88884000D01*
X267940857Y-88712571D01*
X267998000Y-88598285D01*
X268112285Y-88541142D01*
X268740857Y-88541142D01*
X267940857Y-87969714D02*
X269140857Y-87969714D01*
X267998000Y-87969714D02*
X267940857Y-87855428D01*
X267940857Y-87626857D01*
X267998000Y-87512571D01*
X268055142Y-87455428D01*
X268169428Y-87398285D01*
X268512285Y-87398285D01*
X268626571Y-87455428D01*
X268683714Y-87512571D01*
X268740857Y-87626857D01*
X268740857Y-87855428D01*
X268683714Y-87969714D01*
X267940857Y-86369714D02*
X268740857Y-86369714D01*
X267940857Y-86884000D02*
X268569428Y-86884000D01*
X268683714Y-86826857D01*
X268740857Y-86712571D01*
X268740857Y-86541142D01*
X268683714Y-86426857D01*
X268626571Y-86369714D01*
X267940857Y-85969714D02*
X267940857Y-85512571D01*
X267540857Y-85798285D02*
X268569428Y-85798285D01*
X268683714Y-85741142D01*
X268740857Y-85626857D01*
X268740857Y-85512571D01*
X268683714Y-84655428D02*
X268740857Y-84769714D01*
X268740857Y-84998285D01*
X268683714Y-85112571D01*
X268569428Y-85169714D01*
X268112285Y-85169714D01*
X267998000Y-85112571D01*
X267940857Y-84998285D01*
X267940857Y-84769714D01*
X267998000Y-84655428D01*
X268112285Y-84598285D01*
X268226571Y-84598285D01*
X268340857Y-85169714D01*
X268740857Y-84084000D02*
X267940857Y-84084000D01*
X268169428Y-84084000D02*
X268055142Y-84026857D01*
X267998000Y-83969714D01*
X267940857Y-83855428D01*
X267940857Y-83741142D01*
X257212742Y-63775542D02*
X257212742Y-62804114D01*
X257155600Y-62689828D01*
X257098457Y-62632685D01*
X256984171Y-62575542D01*
X256755600Y-62575542D01*
X256641314Y-62632685D01*
X256584171Y-62689828D01*
X256527028Y-62804114D01*
X256527028Y-63775542D01*
X256012742Y-62632685D02*
X255841314Y-62575542D01*
X255555600Y-62575542D01*
X255441314Y-62632685D01*
X255384171Y-62689828D01*
X255327028Y-62804114D01*
X255327028Y-62918400D01*
X255384171Y-63032685D01*
X255441314Y-63089828D01*
X255555600Y-63146971D01*
X255784171Y-63204114D01*
X255898457Y-63261257D01*
X255955600Y-63318400D01*
X256012742Y-63432685D01*
X256012742Y-63546971D01*
X255955600Y-63661257D01*
X255898457Y-63718400D01*
X255784171Y-63775542D01*
X255498457Y-63775542D01*
X255327028Y-63718400D01*
X254412742Y-63204114D02*
X254241314Y-63146971D01*
X254184171Y-63089828D01*
X254127028Y-62975542D01*
X254127028Y-62804114D01*
X254184171Y-62689828D01*
X254241314Y-62632685D01*
X254355600Y-62575542D01*
X254812742Y-62575542D01*
X254812742Y-63775542D01*
X254412742Y-63775542D01*
X254298457Y-63718400D01*
X254241314Y-63661257D01*
X254184171Y-63546971D01*
X254184171Y-63432685D01*
X254241314Y-63318400D01*
X254298457Y-63261257D01*
X254412742Y-63204114D01*
X254812742Y-63204114D01*
X253612742Y-63032685D02*
X252698457Y-63032685D01*
X251441314Y-62689828D02*
X251498457Y-62632685D01*
X251669885Y-62575542D01*
X251784171Y-62575542D01*
X251955600Y-62632685D01*
X252069885Y-62746971D01*
X252127028Y-62861257D01*
X252184171Y-63089828D01*
X252184171Y-63261257D01*
X252127028Y-63489828D01*
X252069885Y-63604114D01*
X251955600Y-63718400D01*
X251784171Y-63775542D01*
X251669885Y-63775542D01*
X251498457Y-63718400D01*
X251441314Y-63661257D01*
X257584171Y-61395542D02*
X257127028Y-61395542D01*
X257412742Y-60595542D02*
X257412742Y-61624114D01*
X257355600Y-61738400D01*
X257241314Y-61795542D01*
X257127028Y-61795542D01*
X256555600Y-60595542D02*
X256669885Y-60652685D01*
X256727028Y-60709828D01*
X256784171Y-60824114D01*
X256784171Y-61166971D01*
X256727028Y-61281257D01*
X256669885Y-61338400D01*
X256555600Y-61395542D01*
X256384171Y-61395542D01*
X256269885Y-61338400D01*
X256212742Y-61281257D01*
X256155600Y-61166971D01*
X256155600Y-60824114D01*
X256212742Y-60709828D01*
X256269885Y-60652685D01*
X256384171Y-60595542D01*
X256555600Y-60595542D01*
X255641314Y-60595542D02*
X255641314Y-61395542D01*
X255641314Y-61166971D02*
X255584171Y-61281257D01*
X255527028Y-61338400D01*
X255412742Y-61395542D01*
X255298457Y-61395542D01*
X253412742Y-60595542D02*
X253984171Y-60595542D01*
X253984171Y-61795542D01*
X253012742Y-61224114D02*
X252612742Y-61224114D01*
X252441314Y-60595542D02*
X253012742Y-60595542D01*
X253012742Y-61795542D01*
X252441314Y-61795542D01*
X251927028Y-60595542D02*
X251927028Y-61795542D01*
X251641314Y-61795542D01*
X251469885Y-61738400D01*
X251355600Y-61624114D01*
X251298457Y-61509828D01*
X251241314Y-61281257D01*
X251241314Y-61109828D01*
X251298457Y-60881257D01*
X251355600Y-60766971D01*
X251469885Y-60652685D01*
X251641314Y-60595542D01*
X251927028Y-60595542D01*
D10*
X233641495Y-64989819D02*
X234117685Y-64989819D01*
X234117685Y-65989819D01*
X233308161Y-65513628D02*
X232974828Y-65513628D01*
X232831971Y-64989819D02*
X233308161Y-64989819D01*
X233308161Y-65989819D01*
X232831971Y-65989819D01*
X232403400Y-64989819D02*
X232403400Y-65989819D01*
X232165304Y-65989819D01*
X232022447Y-65942200D01*
X231927209Y-65846961D01*
X231879590Y-65751723D01*
X231831971Y-65561247D01*
X231831971Y-65418390D01*
X231879590Y-65227914D01*
X231927209Y-65132676D01*
X232022447Y-65037438D01*
X232165304Y-64989819D01*
X232403400Y-64989819D01*
X230641495Y-64989819D02*
X230641495Y-65989819D01*
X230260542Y-65989819D01*
X230165304Y-65942200D01*
X230117685Y-65894580D01*
X230070066Y-65799342D01*
X230070066Y-65656485D01*
X230117685Y-65561247D01*
X230165304Y-65513628D01*
X230260542Y-65466009D01*
X230641495Y-65466009D01*
X229498638Y-64989819D02*
X229593876Y-65037438D01*
X229641495Y-65085057D01*
X229689114Y-65180295D01*
X229689114Y-65466009D01*
X229641495Y-65561247D01*
X229593876Y-65608866D01*
X229498638Y-65656485D01*
X229355780Y-65656485D01*
X229260542Y-65608866D01*
X229212923Y-65561247D01*
X229165304Y-65466009D01*
X229165304Y-65180295D01*
X229212923Y-65085057D01*
X229260542Y-65037438D01*
X229355780Y-64989819D01*
X229498638Y-64989819D01*
X228831971Y-65656485D02*
X228641495Y-64989819D01*
X228451019Y-65466009D01*
X228260542Y-64989819D01*
X228070066Y-65656485D01*
X227308161Y-65037438D02*
X227403400Y-64989819D01*
X227593876Y-64989819D01*
X227689114Y-65037438D01*
X227736733Y-65132676D01*
X227736733Y-65513628D01*
X227689114Y-65608866D01*
X227593876Y-65656485D01*
X227403400Y-65656485D01*
X227308161Y-65608866D01*
X227260542Y-65513628D01*
X227260542Y-65418390D01*
X227736733Y-65323152D01*
X226831971Y-64989819D02*
X226831971Y-65656485D01*
X226831971Y-65466009D02*
X226784352Y-65561247D01*
X226736733Y-65608866D01*
X226641495Y-65656485D01*
X226546257Y-65656485D01*
X233474828Y-63289819D02*
X233474828Y-64289819D01*
X232998638Y-63956485D02*
X232998638Y-63289819D01*
X232998638Y-63861247D02*
X232951019Y-63908866D01*
X232855780Y-63956485D01*
X232712923Y-63956485D01*
X232617685Y-63908866D01*
X232570066Y-63813628D01*
X232570066Y-63289819D01*
X231665304Y-63289819D02*
X231665304Y-64289819D01*
X231665304Y-63337438D02*
X231760542Y-63289819D01*
X231951019Y-63289819D01*
X232046257Y-63337438D01*
X232093876Y-63385057D01*
X232141495Y-63480295D01*
X232141495Y-63766009D01*
X232093876Y-63861247D01*
X232046257Y-63908866D01*
X231951019Y-63956485D01*
X231760542Y-63956485D01*
X231665304Y-63908866D01*
X231189114Y-63289819D02*
X231189114Y-63956485D01*
X231189114Y-64289819D02*
X231236733Y-64242200D01*
X231189114Y-64194580D01*
X231141495Y-64242200D01*
X231189114Y-64289819D01*
X231189114Y-64194580D01*
X230284352Y-63337438D02*
X230379590Y-63289819D01*
X230570066Y-63289819D01*
X230665304Y-63337438D01*
X230712923Y-63385057D01*
X230760542Y-63480295D01*
X230760542Y-63766009D01*
X230712923Y-63861247D01*
X230665304Y-63908866D01*
X230570066Y-63956485D01*
X230379590Y-63956485D01*
X230284352Y-63908866D01*
X229427209Y-63289819D02*
X229427209Y-63813628D01*
X229474828Y-63908866D01*
X229570066Y-63956485D01*
X229760542Y-63956485D01*
X229855780Y-63908866D01*
X229427209Y-63337438D02*
X229522447Y-63289819D01*
X229760542Y-63289819D01*
X229855780Y-63337438D01*
X229903400Y-63432676D01*
X229903400Y-63527914D01*
X229855780Y-63623152D01*
X229760542Y-63670771D01*
X229522447Y-63670771D01*
X229427209Y-63718390D01*
X229093876Y-63956485D02*
X228712923Y-63956485D01*
X228951019Y-64289819D02*
X228951019Y-63432676D01*
X228903400Y-63337438D01*
X228808161Y-63289819D01*
X228712923Y-63289819D01*
X228236733Y-63289819D02*
X228331971Y-63337438D01*
X228379590Y-63385057D01*
X228427209Y-63480295D01*
X228427209Y-63766009D01*
X228379590Y-63861247D01*
X228331971Y-63908866D01*
X228236733Y-63956485D01*
X228093876Y-63956485D01*
X227998638Y-63908866D01*
X227951019Y-63861247D01*
X227903400Y-63766009D01*
X227903400Y-63480295D01*
X227951019Y-63385057D01*
X227998638Y-63337438D01*
X228093876Y-63289819D01*
X228236733Y-63289819D01*
X227474828Y-63289819D02*
X227474828Y-63956485D01*
X227474828Y-63766009D02*
X227427209Y-63861247D01*
X227379590Y-63908866D01*
X227284352Y-63956485D01*
X227189114Y-63956485D01*
X260729885Y-109244780D02*
X261063219Y-110244780D01*
X261396552Y-109244780D01*
X262158457Y-110197161D02*
X262063219Y-110244780D01*
X261872742Y-110244780D01*
X261777504Y-110197161D01*
X261729885Y-110149542D01*
X261682266Y-110054304D01*
X261682266Y-109768590D01*
X261729885Y-109673352D01*
X261777504Y-109625733D01*
X261872742Y-109578114D01*
X262063219Y-109578114D01*
X262158457Y-109625733D01*
X263015600Y-110197161D02*
X262920361Y-110244780D01*
X262729885Y-110244780D01*
X262634647Y-110197161D01*
X262587028Y-110149542D01*
X262539409Y-110054304D01*
X262539409Y-109768590D01*
X262587028Y-109673352D01*
X262634647Y-109625733D01*
X262729885Y-109578114D01*
X262920361Y-109578114D01*
X263015600Y-109625733D01*
X264206076Y-110244780D02*
X264206076Y-109244780D01*
X264587028Y-109244780D01*
X264682266Y-109292400D01*
X264729885Y-109340019D01*
X264777504Y-109435257D01*
X264777504Y-109578114D01*
X264729885Y-109673352D01*
X264682266Y-109720971D01*
X264587028Y-109768590D01*
X264206076Y-109768590D01*
X265348933Y-110244780D02*
X265253695Y-110197161D01*
X265206076Y-110149542D01*
X265158457Y-110054304D01*
X265158457Y-109768590D01*
X265206076Y-109673352D01*
X265253695Y-109625733D01*
X265348933Y-109578114D01*
X265491790Y-109578114D01*
X265587028Y-109625733D01*
X265634647Y-109673352D01*
X265682266Y-109768590D01*
X265682266Y-110054304D01*
X265634647Y-110149542D01*
X265587028Y-110197161D01*
X265491790Y-110244780D01*
X265348933Y-110244780D01*
X266015600Y-109578114D02*
X266206076Y-110244780D01*
X266396552Y-109768590D01*
X266587028Y-110244780D01*
X266777504Y-109578114D01*
X267539409Y-110197161D02*
X267444171Y-110244780D01*
X267253695Y-110244780D01*
X267158457Y-110197161D01*
X267110838Y-110101923D01*
X267110838Y-109720971D01*
X267158457Y-109625733D01*
X267253695Y-109578114D01*
X267444171Y-109578114D01*
X267539409Y-109625733D01*
X267587028Y-109720971D01*
X267587028Y-109816209D01*
X267110838Y-109911447D01*
X268015600Y-110244780D02*
X268015600Y-109578114D01*
X268015600Y-109768590D02*
X268063219Y-109673352D01*
X268110838Y-109625733D01*
X268206076Y-109578114D01*
X268301314Y-109578114D01*
X261444171Y-111944780D02*
X261444171Y-110944780D01*
X261920361Y-111278114D02*
X261920361Y-111944780D01*
X261920361Y-111373352D02*
X261967980Y-111325733D01*
X262063219Y-111278114D01*
X262206076Y-111278114D01*
X262301314Y-111325733D01*
X262348933Y-111420971D01*
X262348933Y-111944780D01*
X263253695Y-111944780D02*
X263253695Y-110944780D01*
X263253695Y-111897161D02*
X263158457Y-111944780D01*
X262967980Y-111944780D01*
X262872742Y-111897161D01*
X262825123Y-111849542D01*
X262777504Y-111754304D01*
X262777504Y-111468590D01*
X262825123Y-111373352D01*
X262872742Y-111325733D01*
X262967980Y-111278114D01*
X263158457Y-111278114D01*
X263253695Y-111325733D01*
X263729885Y-111944780D02*
X263729885Y-111278114D01*
X263729885Y-110944780D02*
X263682266Y-110992400D01*
X263729885Y-111040019D01*
X263777504Y-110992400D01*
X263729885Y-110944780D01*
X263729885Y-111040019D01*
X264634647Y-111897161D02*
X264539409Y-111944780D01*
X264348933Y-111944780D01*
X264253695Y-111897161D01*
X264206076Y-111849542D01*
X264158457Y-111754304D01*
X264158457Y-111468590D01*
X264206076Y-111373352D01*
X264253695Y-111325733D01*
X264348933Y-111278114D01*
X264539409Y-111278114D01*
X264634647Y-111325733D01*
X265491790Y-111944780D02*
X265491790Y-111420971D01*
X265444171Y-111325733D01*
X265348933Y-111278114D01*
X265158457Y-111278114D01*
X265063219Y-111325733D01*
X265491790Y-111897161D02*
X265396552Y-111944780D01*
X265158457Y-111944780D01*
X265063219Y-111897161D01*
X265015600Y-111801923D01*
X265015600Y-111706685D01*
X265063219Y-111611447D01*
X265158457Y-111563828D01*
X265396552Y-111563828D01*
X265491790Y-111516209D01*
X265825123Y-111278114D02*
X266206076Y-111278114D01*
X265967980Y-110944780D02*
X265967980Y-111801923D01*
X266015600Y-111897161D01*
X266110838Y-111944780D01*
X266206076Y-111944780D01*
X266682266Y-111944780D02*
X266587028Y-111897161D01*
X266539409Y-111849542D01*
X266491790Y-111754304D01*
X266491790Y-111468590D01*
X266539409Y-111373352D01*
X266587028Y-111325733D01*
X266682266Y-111278114D01*
X266825123Y-111278114D01*
X266920361Y-111325733D01*
X266967980Y-111373352D01*
X267015600Y-111468590D01*
X267015600Y-111754304D01*
X266967980Y-111849542D01*
X266920361Y-111897161D01*
X266825123Y-111944780D01*
X266682266Y-111944780D01*
X267444171Y-111944780D02*
X267444171Y-111278114D01*
X267444171Y-111468590D02*
X267491790Y-111373352D01*
X267539409Y-111325733D01*
X267634647Y-111278114D01*
X267729885Y-111278114D01*
X230201101Y-116485729D02*
X230699391Y-116967841D01*
X230626253Y-116460210D01*
X231029306Y-116777365D01*
X230860930Y-116104777D01*
X231895331Y-116277365D02*
X231633426Y-115823733D01*
X231544568Y-115765064D01*
X231438280Y-115771443D01*
X231273323Y-115866682D01*
X231214653Y-115955540D01*
X231871521Y-116236126D02*
X231812852Y-116324984D01*
X231606656Y-116444032D01*
X231500368Y-116450412D01*
X231411509Y-116391743D01*
X231363890Y-116309264D01*
X231357511Y-116202976D01*
X231416180Y-116114117D01*
X231622376Y-115995070D01*
X231681045Y-115906211D01*
X231891912Y-115509539D02*
X232431442Y-115967841D01*
X232304305Y-115271443D01*
X233273658Y-115426602D02*
X233214989Y-115515460D01*
X233050032Y-115610699D01*
X232943743Y-115617078D01*
X232854885Y-115558409D01*
X232664409Y-115228495D01*
X232658029Y-115122207D01*
X232716698Y-115033348D01*
X232881655Y-114938110D01*
X232987944Y-114931730D01*
X233076802Y-114990399D01*
X233124421Y-115072878D01*
X232759647Y-115393452D01*
X230824284Y-118088925D02*
X231229046Y-118789993D01*
X231235426Y-118896281D01*
X231217996Y-118961330D01*
X231159327Y-119050188D01*
X231035609Y-119121617D01*
X230929321Y-119127996D01*
X231133808Y-118625036D02*
X231075139Y-118713894D01*
X230910182Y-118809132D01*
X230803894Y-118815512D01*
X230738845Y-118798082D01*
X230649987Y-118739413D01*
X230507129Y-118491977D01*
X230500750Y-118385689D01*
X230518180Y-118320640D01*
X230576849Y-118231782D01*
X230741806Y-118136544D01*
X230848094Y-118130164D01*
X231876116Y-118196464D02*
X231817447Y-118285322D01*
X231652489Y-118380561D01*
X231546201Y-118386940D01*
X231457343Y-118328271D01*
X231266867Y-117998357D01*
X231260487Y-117892069D01*
X231319156Y-117803210D01*
X231484113Y-117707972D01*
X231590401Y-117701592D01*
X231679260Y-117760262D01*
X231726879Y-117842740D01*
X231362105Y-118163314D01*
X231978985Y-117422258D02*
X232312318Y-117999608D01*
X232026604Y-117504737D02*
X232044034Y-117439688D01*
X232102703Y-117350829D01*
X232226421Y-117279401D01*
X232332709Y-117273021D01*
X232421567Y-117331690D01*
X232683472Y-117785322D01*
X232905389Y-117217313D02*
X233565218Y-116836360D01*
X233834754Y-116350829D02*
X234637440Y-116217313D01*
X234120468Y-116845701D01*
D11*
X224117785Y-100154857D02*
X224724928Y-100154857D01*
X224796357Y-100119142D01*
X224832071Y-100083428D01*
X224867785Y-100012000D01*
X224867785Y-99869142D01*
X224832071Y-99797714D01*
X224796357Y-99762000D01*
X224724928Y-99726285D01*
X224117785Y-99726285D01*
X224832071Y-99404857D02*
X224867785Y-99297714D01*
X224867785Y-99119142D01*
X224832071Y-99047714D01*
X224796357Y-99012000D01*
X224724928Y-98976285D01*
X224653500Y-98976285D01*
X224582071Y-99012000D01*
X224546357Y-99047714D01*
X224510642Y-99119142D01*
X224474928Y-99262000D01*
X224439214Y-99333428D01*
X224403500Y-99369142D01*
X224332071Y-99404857D01*
X224260642Y-99404857D01*
X224189214Y-99369142D01*
X224153500Y-99333428D01*
X224117785Y-99262000D01*
X224117785Y-99083428D01*
X224153500Y-98976285D01*
X224474928Y-98404857D02*
X224510642Y-98297714D01*
X224546357Y-98262000D01*
X224617785Y-98226285D01*
X224724928Y-98226285D01*
X224796357Y-98262000D01*
X224832071Y-98297714D01*
X224867785Y-98369142D01*
X224867785Y-98654857D01*
X224117785Y-98654857D01*
X224117785Y-98404857D01*
X224153500Y-98333428D01*
X224189214Y-98297714D01*
X224260642Y-98262000D01*
X224332071Y-98262000D01*
X224403500Y-98297714D01*
X224439214Y-98333428D01*
X224474928Y-98404857D01*
X224474928Y-98654857D01*
X224582071Y-97904857D02*
X224582071Y-97333428D01*
X224832071Y-97012000D02*
X224867785Y-96904857D01*
X224867785Y-96726285D01*
X224832071Y-96654857D01*
X224796357Y-96619142D01*
X224724928Y-96583428D01*
X224653500Y-96583428D01*
X224582071Y-96619142D01*
X224546357Y-96654857D01*
X224510642Y-96726285D01*
X224474928Y-96869142D01*
X224439214Y-96940571D01*
X224403500Y-96976285D01*
X224332071Y-97012000D01*
X224260642Y-97012000D01*
X224189214Y-96976285D01*
X224153500Y-96940571D01*
X224117785Y-96869142D01*
X224117785Y-96690571D01*
X224153500Y-96583428D01*
X224867785Y-96262000D02*
X224117785Y-96262000D01*
X224117785Y-95976285D01*
X224153500Y-95904857D01*
X224189214Y-95869142D01*
X224260642Y-95833428D01*
X224367785Y-95833428D01*
X224439214Y-95869142D01*
X224474928Y-95904857D01*
X224510642Y-95976285D01*
X224510642Y-96262000D01*
X224867785Y-95512000D02*
X224117785Y-95512000D01*
X224867785Y-94154857D02*
X224510642Y-94404857D01*
X224867785Y-94583428D02*
X224117785Y-94583428D01*
X224117785Y-94297714D01*
X224153500Y-94226285D01*
X224189214Y-94190571D01*
X224260642Y-94154857D01*
X224367785Y-94154857D01*
X224439214Y-94190571D01*
X224474928Y-94226285D01*
X224510642Y-94297714D01*
X224510642Y-94583428D01*
X224832071Y-93547714D02*
X224867785Y-93619142D01*
X224867785Y-93762000D01*
X224832071Y-93833428D01*
X224760642Y-93869142D01*
X224474928Y-93869142D01*
X224403500Y-93833428D01*
X224367785Y-93762000D01*
X224367785Y-93619142D01*
X224403500Y-93547714D01*
X224474928Y-93512000D01*
X224546357Y-93512000D01*
X224617785Y-93869142D01*
X224832071Y-93226285D02*
X224867785Y-93154857D01*
X224867785Y-93012000D01*
X224832071Y-92940571D01*
X224760642Y-92904857D01*
X224724928Y-92904857D01*
X224653500Y-92940571D01*
X224617785Y-93012000D01*
X224617785Y-93119142D01*
X224582071Y-93190571D01*
X224510642Y-93226285D01*
X224474928Y-93226285D01*
X224403500Y-93190571D01*
X224367785Y-93119142D01*
X224367785Y-93012000D01*
X224403500Y-92940571D01*
X224832071Y-92297714D02*
X224867785Y-92369142D01*
X224867785Y-92512000D01*
X224832071Y-92583428D01*
X224760642Y-92619142D01*
X224474928Y-92619142D01*
X224403500Y-92583428D01*
X224367785Y-92512000D01*
X224367785Y-92369142D01*
X224403500Y-92297714D01*
X224474928Y-92262000D01*
X224546357Y-92262000D01*
X224617785Y-92619142D01*
X224367785Y-92047714D02*
X224367785Y-91762000D01*
X224117785Y-91940571D02*
X224760642Y-91940571D01*
X224832071Y-91904857D01*
X224867785Y-91833428D01*
X224867785Y-91762000D01*
X225938500Y-98833428D02*
X225938500Y-98476285D01*
X226152785Y-98904857D02*
X225402785Y-98654857D01*
X226152785Y-98404857D01*
X226117071Y-97833428D02*
X226152785Y-97904857D01*
X226152785Y-98047714D01*
X226117071Y-98119142D01*
X226081357Y-98154857D01*
X226009928Y-98190571D01*
X225795642Y-98190571D01*
X225724214Y-98154857D01*
X225688500Y-98119142D01*
X225652785Y-98047714D01*
X225652785Y-97904857D01*
X225688500Y-97833428D01*
X225652785Y-97619142D02*
X225652785Y-97333428D01*
X225402785Y-97512000D02*
X226045642Y-97512000D01*
X226117071Y-97476285D01*
X226152785Y-97404857D01*
X226152785Y-97333428D01*
X226152785Y-97083428D02*
X225652785Y-97083428D01*
X225402785Y-97083428D02*
X225438500Y-97119142D01*
X225474214Y-97083428D01*
X225438500Y-97047714D01*
X225402785Y-97083428D01*
X225474214Y-97083428D01*
X225652785Y-96797714D02*
X226152785Y-96619142D01*
X225652785Y-96440571D01*
X226117071Y-95869142D02*
X226152785Y-95940571D01*
X226152785Y-96083428D01*
X226117071Y-96154857D01*
X226045642Y-96190571D01*
X225759928Y-96190571D01*
X225688500Y-96154857D01*
X225652785Y-96083428D01*
X225652785Y-95940571D01*
X225688500Y-95869142D01*
X225759928Y-95833428D01*
X225831357Y-95833428D01*
X225902785Y-96190571D01*
X226152785Y-94583428D02*
X226152785Y-94940571D01*
X225402785Y-94940571D01*
X226152785Y-94226285D02*
X226117071Y-94297714D01*
X226081357Y-94333428D01*
X226009928Y-94369142D01*
X225795642Y-94369142D01*
X225724214Y-94333428D01*
X225688500Y-94297714D01*
X225652785Y-94226285D01*
X225652785Y-94119142D01*
X225688500Y-94047714D01*
X225724214Y-94012000D01*
X225795642Y-93976285D01*
X226009928Y-93976285D01*
X226081357Y-94012000D01*
X226117071Y-94047714D01*
X226152785Y-94119142D01*
X226152785Y-94226285D01*
X225652785Y-93726285D02*
X226152785Y-93583428D01*
X225795642Y-93440571D01*
X226152785Y-93297714D01*
X225652785Y-93154857D01*
D13*
X259636380Y-80645000D02*
X259515428Y-80584523D01*
X259334000Y-80584523D01*
X259152571Y-80645000D01*
X259031619Y-80765952D01*
X258971142Y-80886904D01*
X258910666Y-81128809D01*
X258910666Y-81310238D01*
X258971142Y-81552142D01*
X259031619Y-81673095D01*
X259152571Y-81794047D01*
X259334000Y-81854523D01*
X259454952Y-81854523D01*
X259636380Y-81794047D01*
X259696857Y-81733571D01*
X259696857Y-81310238D01*
X259454952Y-81310238D01*
X260241142Y-81854523D02*
X260241142Y-80584523D01*
X260966857Y-81854523D01*
X260966857Y-80584523D01*
X261571619Y-81854523D02*
X261571619Y-80584523D01*
X261874000Y-80584523D01*
X262055428Y-80645000D01*
X262176380Y-80765952D01*
X262236857Y-80886904D01*
X262297333Y-81128809D01*
X262297333Y-81310238D01*
X262236857Y-81552142D01*
X262176380Y-81673095D01*
X262055428Y-81794047D01*
X261874000Y-81854523D01*
X261571619Y-81854523D01*
D14*
X259359542Y-73418000D02*
X259216685Y-73346571D01*
X259002400Y-73346571D01*
X258788114Y-73418000D01*
X258645257Y-73560857D01*
X258573828Y-73703714D01*
X258502400Y-73989428D01*
X258502400Y-74203714D01*
X258573828Y-74489428D01*
X258645257Y-74632285D01*
X258788114Y-74775142D01*
X259002400Y-74846571D01*
X259145257Y-74846571D01*
X259359542Y-74775142D01*
X259430971Y-74703714D01*
X259430971Y-74203714D01*
X259145257Y-74203714D01*
X260073828Y-74846571D02*
X260073828Y-73346571D01*
X260930971Y-74846571D01*
X260930971Y-73346571D01*
X261645257Y-74846571D02*
X261645257Y-73346571D01*
X262002400Y-73346571D01*
X262216685Y-73418000D01*
X262359542Y-73560857D01*
X262430971Y-73703714D01*
X262502400Y-73989428D01*
X262502400Y-74203714D01*
X262430971Y-74489428D01*
X262359542Y-74632285D01*
X262216685Y-74775142D01*
X262002400Y-74846571D01*
X261645257Y-74846571D01*
D12*
X251521980Y-122338933D02*
X252521980Y-122005600D01*
X251521980Y-121672266D01*
X252426742Y-120767504D02*
X252474361Y-120815123D01*
X252521980Y-120957980D01*
X252521980Y-121053219D01*
X252474361Y-121196076D01*
X252379123Y-121291314D01*
X252283885Y-121338933D01*
X252093409Y-121386552D01*
X251950552Y-121386552D01*
X251760076Y-121338933D01*
X251664838Y-121291314D01*
X251569600Y-121196076D01*
X251521980Y-121053219D01*
X251521980Y-120957980D01*
X251569600Y-120815123D01*
X251617219Y-120767504D01*
X252426742Y-119767504D02*
X252474361Y-119815123D01*
X252521980Y-119957980D01*
X252521980Y-120053219D01*
X252474361Y-120196076D01*
X252379123Y-120291314D01*
X252283885Y-120338933D01*
X252093409Y-120386552D01*
X251950552Y-120386552D01*
X251760076Y-120338933D01*
X251664838Y-120291314D01*
X251569600Y-120196076D01*
X251521980Y-120053219D01*
X251521980Y-119957980D01*
X251569600Y-119815123D01*
X251617219Y-119767504D01*
X224496380Y-71564476D02*
X224496380Y-72040666D01*
X224972571Y-72088285D01*
X224924952Y-72040666D01*
X224877333Y-71945428D01*
X224877333Y-71707333D01*
X224924952Y-71612095D01*
X224972571Y-71564476D01*
X225067809Y-71516857D01*
X225305904Y-71516857D01*
X225401142Y-71564476D01*
X225448761Y-71612095D01*
X225496380Y-71707333D01*
X225496380Y-71945428D01*
X225448761Y-72040666D01*
X225401142Y-72088285D01*
X224496380Y-71231142D02*
X225496380Y-70897809D01*
X224496380Y-70564476D01*
D15*
G04 #@! TO.C,R11*
X220345000Y-80645000D02*
X227965000Y-80645000D01*
X220345000Y-74295000D02*
X227965000Y-74295000D01*
G04 #@! TO.C,J2*
X269324000Y-92720000D02*
X269624000Y-92720000D01*
X269324000Y-100320000D02*
X269624000Y-100320000D01*
X267124000Y-92720000D02*
X266724000Y-92720000D01*
X266724000Y-100320000D02*
X267124000Y-100320000D01*
X269674000Y-100320000D02*
X269674000Y-92720000D01*
D10*
X264824000Y-98520000D02*
G75*
G03X264824000Y-98520000I-100000J0D01*
G01*
D16*
G04 #@! TO.C,D5*
X233426000Y-104428000D02*
X233426000Y-101380000D01*
X235458000Y-104428000D02*
X235458000Y-101380000D01*
X233426000Y-104428000D02*
X235458000Y-104428000D01*
G04 #@! TO.C,D6*
X265484017Y-107574488D02*
X265484017Y-104526488D01*
X267516017Y-107574488D02*
X267516017Y-104526488D01*
X265484017Y-107574488D02*
X267516017Y-107574488D01*
G04 #@! TO.C,D7*
X216540000Y-97540000D02*
X216540000Y-93095000D01*
X211460000Y-97540000D02*
X216540000Y-97540000D01*
X211460000Y-93095000D02*
X211460000Y-97540000D01*
G04 #@! TO.C,D8*
X231002567Y-70276571D02*
X231002567Y-67228571D01*
X233034567Y-70276571D02*
X233034567Y-67228571D01*
X231002567Y-70276571D02*
X233034567Y-70276571D01*
G04 #@! TO.C,Q1*
X216027000Y-102870000D02*
X216027000Y-110109000D01*
X210693000Y-102870000D02*
X210693000Y-110109000D01*
D17*
G04 #@! TO.C,R1*
X230768000Y-100168000D02*
X230768000Y-98968000D01*
X232528000Y-98968000D02*
X232528000Y-100168000D01*
G04 #@! TO.C,R2*
X253356000Y-65567000D02*
X253356000Y-66767000D01*
X251596000Y-66767000D02*
X251596000Y-65567000D01*
G04 #@! TO.C,R3*
X245990000Y-70139000D02*
X245990000Y-71339000D01*
X244230000Y-71339000D02*
X244230000Y-70139000D01*
G04 #@! TO.C,R4*
X238624000Y-106014000D02*
X238624000Y-107214000D01*
X236864000Y-107214000D02*
X236864000Y-106014000D01*
G04 #@! TO.C,R5*
X237897000Y-118863000D02*
X236697000Y-118863000D01*
X236697000Y-117103000D02*
X237897000Y-117103000D01*
G04 #@! TO.C,R13*
X235865000Y-99940000D02*
X234665000Y-99940000D01*
X234665000Y-98180000D02*
X235865000Y-98180000D01*
G04 #@! TO.C,R18*
X215675090Y-116769116D02*
X210475090Y-116769116D01*
X210475090Y-113129116D02*
X215675090Y-113129116D01*
G04 #@! TO.C,R19*
X226490000Y-116755000D02*
X221290000Y-116755000D01*
X221290000Y-113115000D02*
X226490000Y-113115000D01*
G04 #@! TO.C,R20*
X262391000Y-106015488D02*
X262391000Y-104815488D01*
X264151000Y-104815488D02*
X264151000Y-106015488D01*
G04 #@! TO.C,R21*
X215675090Y-122470000D02*
X210475090Y-122470000D01*
X210475090Y-118830000D02*
X215675090Y-118830000D01*
G04 #@! TO.C,R22*
X226490000Y-122470000D02*
X221290000Y-122470000D01*
X221290000Y-118830000D02*
X226490000Y-118830000D01*
G04 #@! TO.C,R23*
X228598567Y-68758400D02*
X228598567Y-67558400D01*
X230358567Y-67558400D02*
X230358567Y-68758400D01*
G04 #@! TO.C,Y1*
X235653000Y-93916000D02*
X235653000Y-90261000D01*
X235653000Y-90261000D02*
X231453000Y-90261000D01*
D18*
G04 #@! TO.C,U4*
X221907100Y-105829100D02*
X221907100Y-111379000D01*
X227164900Y-110070900D02*
X227164900Y-105829100D01*
D15*
G04 #@! TO.C,J1*
X240640000Y-63708000D02*
X240640000Y-65908000D01*
X249580000Y-63708000D02*
X249580000Y-65908000D01*
X249580000Y-60238000D02*
X240640000Y-60238000D01*
G04 #@! TO.C,R16*
X254910000Y-102690000D02*
X258170000Y-102690000D01*
X254910000Y-100510000D02*
X258170000Y-100510000D01*
G04 #@! TO.C,U5*
X245269000Y-115560000D02*
X249269000Y-115560000D01*
X245269000Y-110500000D02*
X249269000Y-110500000D01*
D10*
X243054000Y-110515000D02*
G75*
G03X243054000Y-110515000I-100000J0D01*
G01*
D15*
G04 #@! TO.C,U1*
X239140000Y-87280000D02*
G75*
G03X239140000Y-87280000I-100000J0D01*
G01*
X239140000Y-87180000D02*
G75*
G03X239140000Y-87180000I-100000J0D01*
G01*
X239163606Y-87180000D02*
G75*
G03X239163606Y-87180000I-223606J0D01*
G01*
X239240000Y-87180000D02*
G75*
G03X239240000Y-87180000I-200000J0D01*
G01*
X239222841Y-87180000D02*
G75*
G03X239222841Y-87180000I-282841J0D01*
G01*
X239300553Y-87180000D02*
G75*
G03X239300553Y-87180000I-360553J0D01*
G01*
X240515000Y-100888000D02*
X240515000Y-88088000D01*
X247165000Y-100888000D02*
X240515000Y-100888000D01*
X247165000Y-88088000D02*
X247165000Y-100888000D01*
X240515000Y-88088000D02*
X247165000Y-88088000D01*
D16*
G04 #@! TO.C,D1*
X262788400Y-102489000D02*
X262788400Y-98933000D01*
X260756400Y-102489000D02*
X262788400Y-102489000D01*
X260756400Y-102489000D02*
X260756400Y-98933000D01*
G04 #@! TO.C,D2*
X230759000Y-106172000D02*
X230759000Y-102616000D01*
X228727000Y-106172000D02*
X230759000Y-106172000D01*
X228727000Y-106172000D02*
X228727000Y-102616000D01*
D18*
G04 #@! TO.C,U3*
X244144800Y-105308400D02*
X246380000Y-105308400D01*
X243535200Y-105308400D02*
X244144800Y-105308400D01*
X242290600Y-105308400D02*
X243535200Y-105308400D01*
X245389400Y-102209600D02*
X242290600Y-102209600D01*
G04 #@! TO.C,R11*
D12*
X219828672Y-82240712D02*
X219495094Y-81764173D01*
X219256825Y-82240712D02*
X219256825Y-81239980D01*
X219638056Y-81239980D01*
X219733364Y-81287634D01*
X219781018Y-81335287D01*
X219828672Y-81430595D01*
X219828672Y-81573557D01*
X219781018Y-81668865D01*
X219733364Y-81716519D01*
X219638056Y-81764173D01*
X219256825Y-81764173D01*
X220781750Y-82240712D02*
X220209903Y-82240712D01*
X220495826Y-82240712D02*
X220495826Y-81239980D01*
X220400519Y-81382941D01*
X220305211Y-81478249D01*
X220209903Y-81525903D01*
X221734828Y-82240712D02*
X221162981Y-82240712D01*
X221448905Y-82240712D02*
X221448905Y-81239980D01*
X221353597Y-81382941D01*
X221258289Y-81478249D01*
X221162981Y-81525903D01*
G04 #@! TO.C,J2*
D19*
X261829247Y-96718966D02*
X263643533Y-96718966D01*
X264006390Y-96839919D01*
X264248295Y-97081823D01*
X264369247Y-97444680D01*
X264369247Y-97686585D01*
X262071152Y-95630395D02*
X261950200Y-95509442D01*
X261829247Y-95267538D01*
X261829247Y-94662776D01*
X261950200Y-94420871D01*
X262071152Y-94299919D01*
X262313057Y-94178966D01*
X262554961Y-94178966D01*
X262917819Y-94299919D01*
X264369247Y-95751347D01*
X264369247Y-94178966D01*
G04 #@! TO.C,C12*
D11*
X252071142Y-114067857D02*
X252118761Y-114115476D01*
X252166380Y-114258333D01*
X252166380Y-114353571D01*
X252118761Y-114496428D01*
X252023523Y-114591666D01*
X251928285Y-114639285D01*
X251737809Y-114686904D01*
X251594952Y-114686904D01*
X251404476Y-114639285D01*
X251309238Y-114591666D01*
X251214000Y-114496428D01*
X251166380Y-114353571D01*
X251166380Y-114258333D01*
X251214000Y-114115476D01*
X251261619Y-114067857D01*
X252166380Y-113115476D02*
X252166380Y-113686904D01*
X252166380Y-113401190D02*
X251166380Y-113401190D01*
X251309238Y-113496428D01*
X251404476Y-113591666D01*
X251452095Y-113686904D01*
X251261619Y-112734523D02*
X251214000Y-112686904D01*
X251166380Y-112591666D01*
X251166380Y-112353571D01*
X251214000Y-112258333D01*
X251261619Y-112210714D01*
X251356857Y-112163095D01*
X251452095Y-112163095D01*
X251594952Y-112210714D01*
X252166380Y-112782142D01*
X252166380Y-112163095D01*
G04 #@! TO.C,D5*
D16*
X236926380Y-102118095D02*
X235926380Y-102118095D01*
X235926380Y-101880000D01*
X235974000Y-101737142D01*
X236069238Y-101641904D01*
X236164476Y-101594285D01*
X236354952Y-101546666D01*
X236497809Y-101546666D01*
X236688285Y-101594285D01*
X236783523Y-101641904D01*
X236878761Y-101737142D01*
X236926380Y-101880000D01*
X236926380Y-102118095D01*
X235926380Y-100641904D02*
X235926380Y-101118095D01*
X236402571Y-101165714D01*
X236354952Y-101118095D01*
X236307333Y-101022857D01*
X236307333Y-100784761D01*
X236354952Y-100689523D01*
X236402571Y-100641904D01*
X236497809Y-100594285D01*
X236735904Y-100594285D01*
X236831142Y-100641904D01*
X236878761Y-100689523D01*
X236926380Y-100784761D01*
X236926380Y-101022857D01*
X236878761Y-101118095D01*
X236831142Y-101165714D01*
G04 #@! TO.C,D6*
X268930380Y-106280583D02*
X267930380Y-106280583D01*
X267930380Y-106042488D01*
X267978000Y-105899630D01*
X268073238Y-105804392D01*
X268168476Y-105756773D01*
X268358952Y-105709154D01*
X268501809Y-105709154D01*
X268692285Y-105756773D01*
X268787523Y-105804392D01*
X268882761Y-105899630D01*
X268930380Y-106042488D01*
X268930380Y-106280583D01*
X267930380Y-104852011D02*
X267930380Y-105042488D01*
X267978000Y-105137726D01*
X268025619Y-105185345D01*
X268168476Y-105280583D01*
X268358952Y-105328202D01*
X268739904Y-105328202D01*
X268835142Y-105280583D01*
X268882761Y-105232964D01*
X268930380Y-105137726D01*
X268930380Y-104947249D01*
X268882761Y-104852011D01*
X268835142Y-104804392D01*
X268739904Y-104756773D01*
X268501809Y-104756773D01*
X268406571Y-104804392D01*
X268358952Y-104852011D01*
X268311333Y-104947249D01*
X268311333Y-105137726D01*
X268358952Y-105232964D01*
X268406571Y-105280583D01*
X268501809Y-105328202D01*
G04 #@! TO.C,D7*
X211453504Y-98851980D02*
X211453504Y-97851980D01*
X211691600Y-97851980D01*
X211834457Y-97899600D01*
X211929695Y-97994838D01*
X211977314Y-98090076D01*
X212024933Y-98280552D01*
X212024933Y-98423409D01*
X211977314Y-98613885D01*
X211929695Y-98709123D01*
X211834457Y-98804361D01*
X211691600Y-98851980D01*
X211453504Y-98851980D01*
X212358266Y-97851980D02*
X213024933Y-97851980D01*
X212596361Y-98851980D01*
G04 #@! TO.C,D8*
X231265504Y-71470780D02*
X231265504Y-70470780D01*
X231503600Y-70470780D01*
X231646457Y-70518400D01*
X231741695Y-70613638D01*
X231789314Y-70708876D01*
X231836933Y-70899352D01*
X231836933Y-71042209D01*
X231789314Y-71232685D01*
X231741695Y-71327923D01*
X231646457Y-71423161D01*
X231503600Y-71470780D01*
X231265504Y-71470780D01*
X232408361Y-70899352D02*
X232313123Y-70851733D01*
X232265504Y-70804114D01*
X232217885Y-70708876D01*
X232217885Y-70661257D01*
X232265504Y-70566019D01*
X232313123Y-70518400D01*
X232408361Y-70470780D01*
X232598838Y-70470780D01*
X232694076Y-70518400D01*
X232741695Y-70566019D01*
X232789314Y-70661257D01*
X232789314Y-70708876D01*
X232741695Y-70804114D01*
X232694076Y-70851733D01*
X232598838Y-70899352D01*
X232408361Y-70899352D01*
X232313123Y-70946971D01*
X232265504Y-70994590D01*
X232217885Y-71089828D01*
X232217885Y-71280304D01*
X232265504Y-71375542D01*
X232313123Y-71423161D01*
X232408361Y-71470780D01*
X232598838Y-71470780D01*
X232694076Y-71423161D01*
X232741695Y-71375542D01*
X232789314Y-71280304D01*
X232789314Y-71089828D01*
X232741695Y-70994590D01*
X232694076Y-70946971D01*
X232598838Y-70899352D01*
G04 #@! TO.C,JP1*
X227004666Y-93559380D02*
X227004666Y-94273666D01*
X226957047Y-94416523D01*
X226861809Y-94511761D01*
X226718952Y-94559380D01*
X226623714Y-94559380D01*
X227480857Y-94559380D02*
X227480857Y-93559380D01*
X227861809Y-93559380D01*
X227957047Y-93607000D01*
X228004666Y-93654619D01*
X228052285Y-93749857D01*
X228052285Y-93892714D01*
X228004666Y-93987952D01*
X227957047Y-94035571D01*
X227861809Y-94083190D01*
X227480857Y-94083190D01*
X229004666Y-94559380D02*
X228433238Y-94559380D01*
X228718952Y-94559380D02*
X228718952Y-93559380D01*
X228623714Y-93702238D01*
X228528476Y-93797476D01*
X228433238Y-93845095D01*
G04 #@! TO.C,JP2*
X240498380Y-116022333D02*
X241212666Y-116022333D01*
X241355523Y-116069952D01*
X241450761Y-116165190D01*
X241498380Y-116308047D01*
X241498380Y-116403285D01*
X241498380Y-115546142D02*
X240498380Y-115546142D01*
X240498380Y-115165190D01*
X240546000Y-115069952D01*
X240593619Y-115022333D01*
X240688857Y-114974714D01*
X240831714Y-114974714D01*
X240926952Y-115022333D01*
X240974571Y-115069952D01*
X241022190Y-115165190D01*
X241022190Y-115546142D01*
X240593619Y-114593761D02*
X240546000Y-114546142D01*
X240498380Y-114450904D01*
X240498380Y-114212809D01*
X240546000Y-114117571D01*
X240593619Y-114069952D01*
X240688857Y-114022333D01*
X240784095Y-114022333D01*
X240926952Y-114069952D01*
X241498380Y-114641380D01*
X241498380Y-114022333D01*
G04 #@! TO.C,JP5*
X224845666Y-68794380D02*
X224845666Y-69508666D01*
X224798047Y-69651523D01*
X224702809Y-69746761D01*
X224559952Y-69794380D01*
X224464714Y-69794380D01*
X225321857Y-69794380D02*
X225321857Y-68794380D01*
X225702809Y-68794380D01*
X225798047Y-68842000D01*
X225845666Y-68889619D01*
X225893285Y-68984857D01*
X225893285Y-69127714D01*
X225845666Y-69222952D01*
X225798047Y-69270571D01*
X225702809Y-69318190D01*
X225321857Y-69318190D01*
X226798047Y-68794380D02*
X226321857Y-68794380D01*
X226274238Y-69270571D01*
X226321857Y-69222952D01*
X226417095Y-69175333D01*
X226655190Y-69175333D01*
X226750428Y-69222952D01*
X226798047Y-69270571D01*
X226845666Y-69365809D01*
X226845666Y-69603904D01*
X226798047Y-69699142D01*
X226750428Y-69746761D01*
X226655190Y-69794380D01*
X226417095Y-69794380D01*
X226321857Y-69746761D01*
X226274238Y-69699142D01*
G04 #@! TO.C,Q1*
X210504019Y-103981238D02*
X210456400Y-104076476D01*
X210361161Y-104171714D01*
X210218304Y-104314571D01*
X210170685Y-104409809D01*
X210170685Y-104505047D01*
X210408780Y-104457428D02*
X210361161Y-104552666D01*
X210265923Y-104647904D01*
X210075447Y-104695523D01*
X209742114Y-104695523D01*
X209551638Y-104647904D01*
X209456400Y-104552666D01*
X209408780Y-104457428D01*
X209408780Y-104266952D01*
X209456400Y-104171714D01*
X209551638Y-104076476D01*
X209742114Y-104028857D01*
X210075447Y-104028857D01*
X210265923Y-104076476D01*
X210361161Y-104171714D01*
X210408780Y-104266952D01*
X210408780Y-104457428D01*
X210408780Y-103076476D02*
X210408780Y-103647904D01*
X210408780Y-103362190D02*
X209408780Y-103362190D01*
X209551638Y-103457428D01*
X209646876Y-103552666D01*
X209694495Y-103647904D01*
G04 #@! TO.C,R1*
X232227380Y-102147666D02*
X231751190Y-102481000D01*
X232227380Y-102719095D02*
X231227380Y-102719095D01*
X231227380Y-102338142D01*
X231275000Y-102242904D01*
X231322619Y-102195285D01*
X231417857Y-102147666D01*
X231560714Y-102147666D01*
X231655952Y-102195285D01*
X231703571Y-102242904D01*
X231751190Y-102338142D01*
X231751190Y-102719095D01*
X232227380Y-101195285D02*
X232227380Y-101766714D01*
X232227380Y-101481000D02*
X231227380Y-101481000D01*
X231370238Y-101576238D01*
X231465476Y-101671476D01*
X231513095Y-101766714D01*
G04 #@! TO.C,R2*
X254587380Y-66333666D02*
X254111190Y-66667000D01*
X254587380Y-66905095D02*
X253587380Y-66905095D01*
X253587380Y-66524142D01*
X253635000Y-66428904D01*
X253682619Y-66381285D01*
X253777857Y-66333666D01*
X253920714Y-66333666D01*
X254015952Y-66381285D01*
X254063571Y-66428904D01*
X254111190Y-66524142D01*
X254111190Y-66905095D01*
X253682619Y-65952714D02*
X253635000Y-65905095D01*
X253587380Y-65809857D01*
X253587380Y-65571761D01*
X253635000Y-65476523D01*
X253682619Y-65428904D01*
X253777857Y-65381285D01*
X253873095Y-65381285D01*
X254015952Y-65428904D01*
X254587380Y-66000333D01*
X254587380Y-65381285D01*
G04 #@! TO.C,R3*
X247221380Y-70905666D02*
X246745190Y-71239000D01*
X247221380Y-71477095D02*
X246221380Y-71477095D01*
X246221380Y-71096142D01*
X246269000Y-71000904D01*
X246316619Y-70953285D01*
X246411857Y-70905666D01*
X246554714Y-70905666D01*
X246649952Y-70953285D01*
X246697571Y-71000904D01*
X246745190Y-71096142D01*
X246745190Y-71477095D01*
X246221380Y-70572333D02*
X246221380Y-69953285D01*
X246602333Y-70286619D01*
X246602333Y-70143761D01*
X246649952Y-70048523D01*
X246697571Y-70000904D01*
X246792809Y-69953285D01*
X247030904Y-69953285D01*
X247126142Y-70000904D01*
X247173761Y-70048523D01*
X247221380Y-70143761D01*
X247221380Y-70429476D01*
X247173761Y-70524714D01*
X247126142Y-70572333D01*
G04 #@! TO.C,R4*
X239855380Y-106780666D02*
X239379190Y-107114000D01*
X239855380Y-107352095D02*
X238855380Y-107352095D01*
X238855380Y-106971142D01*
X238903000Y-106875904D01*
X238950619Y-106828285D01*
X239045857Y-106780666D01*
X239188714Y-106780666D01*
X239283952Y-106828285D01*
X239331571Y-106875904D01*
X239379190Y-106971142D01*
X239379190Y-107352095D01*
X239188714Y-105923523D02*
X239855380Y-105923523D01*
X238807761Y-106161619D02*
X239522047Y-106399714D01*
X239522047Y-105780666D01*
G04 #@! TO.C,R5*
X235503980Y-118048066D02*
X235027790Y-118381400D01*
X235503980Y-118619495D02*
X234503980Y-118619495D01*
X234503980Y-118238542D01*
X234551600Y-118143304D01*
X234599219Y-118095685D01*
X234694457Y-118048066D01*
X234837314Y-118048066D01*
X234932552Y-118095685D01*
X234980171Y-118143304D01*
X235027790Y-118238542D01*
X235027790Y-118619495D01*
X234503980Y-117143304D02*
X234503980Y-117619495D01*
X234980171Y-117667114D01*
X234932552Y-117619495D01*
X234884933Y-117524257D01*
X234884933Y-117286161D01*
X234932552Y-117190923D01*
X234980171Y-117143304D01*
X235075409Y-117095685D01*
X235313504Y-117095685D01*
X235408742Y-117143304D01*
X235456361Y-117190923D01*
X235503980Y-117286161D01*
X235503980Y-117524257D01*
X235456361Y-117619495D01*
X235408742Y-117667114D01*
G04 #@! TO.C,R13*
X234622142Y-97988380D02*
X234288809Y-97512190D01*
X234050714Y-97988380D02*
X234050714Y-96988380D01*
X234431666Y-96988380D01*
X234526904Y-97036000D01*
X234574523Y-97083619D01*
X234622142Y-97178857D01*
X234622142Y-97321714D01*
X234574523Y-97416952D01*
X234526904Y-97464571D01*
X234431666Y-97512190D01*
X234050714Y-97512190D01*
X235574523Y-97988380D02*
X235003095Y-97988380D01*
X235288809Y-97988380D02*
X235288809Y-96988380D01*
X235193571Y-97131238D01*
X235098333Y-97226476D01*
X235003095Y-97274095D01*
X235907857Y-96988380D02*
X236526904Y-96988380D01*
X236193571Y-97369333D01*
X236336428Y-97369333D01*
X236431666Y-97416952D01*
X236479285Y-97464571D01*
X236526904Y-97559809D01*
X236526904Y-97797904D01*
X236479285Y-97893142D01*
X236431666Y-97940761D01*
X236336428Y-97988380D01*
X236050714Y-97988380D01*
X235955476Y-97940761D01*
X235907857Y-97893142D01*
G04 #@! TO.C,R18*
X213352142Y-118155980D02*
X213018809Y-117679790D01*
X212780714Y-118155980D02*
X212780714Y-117155980D01*
X213161666Y-117155980D01*
X213256904Y-117203600D01*
X213304523Y-117251219D01*
X213352142Y-117346457D01*
X213352142Y-117489314D01*
X213304523Y-117584552D01*
X213256904Y-117632171D01*
X213161666Y-117679790D01*
X212780714Y-117679790D01*
X214304523Y-118155980D02*
X213733095Y-118155980D01*
X214018809Y-118155980D02*
X214018809Y-117155980D01*
X213923571Y-117298838D01*
X213828333Y-117394076D01*
X213733095Y-117441695D01*
X214875952Y-117584552D02*
X214780714Y-117536933D01*
X214733095Y-117489314D01*
X214685476Y-117394076D01*
X214685476Y-117346457D01*
X214733095Y-117251219D01*
X214780714Y-117203600D01*
X214875952Y-117155980D01*
X215066428Y-117155980D01*
X215161666Y-117203600D01*
X215209285Y-117251219D01*
X215256904Y-117346457D01*
X215256904Y-117394076D01*
X215209285Y-117489314D01*
X215161666Y-117536933D01*
X215066428Y-117584552D01*
X214875952Y-117584552D01*
X214780714Y-117632171D01*
X214733095Y-117679790D01*
X214685476Y-117775028D01*
X214685476Y-117965504D01*
X214733095Y-118060742D01*
X214780714Y-118108361D01*
X214875952Y-118155980D01*
X215066428Y-118155980D01*
X215161666Y-118108361D01*
X215209285Y-118060742D01*
X215256904Y-117965504D01*
X215256904Y-117775028D01*
X215209285Y-117679790D01*
X215161666Y-117632171D01*
X215066428Y-117584552D01*
G04 #@! TO.C,R19*
X224147142Y-118054380D02*
X223813809Y-117578190D01*
X223575714Y-118054380D02*
X223575714Y-117054380D01*
X223956666Y-117054380D01*
X224051904Y-117102000D01*
X224099523Y-117149619D01*
X224147142Y-117244857D01*
X224147142Y-117387714D01*
X224099523Y-117482952D01*
X224051904Y-117530571D01*
X223956666Y-117578190D01*
X223575714Y-117578190D01*
X225099523Y-118054380D02*
X224528095Y-118054380D01*
X224813809Y-118054380D02*
X224813809Y-117054380D01*
X224718571Y-117197238D01*
X224623333Y-117292476D01*
X224528095Y-117340095D01*
X225575714Y-118054380D02*
X225766190Y-118054380D01*
X225861428Y-118006761D01*
X225909047Y-117959142D01*
X226004285Y-117816285D01*
X226051904Y-117625809D01*
X226051904Y-117244857D01*
X226004285Y-117149619D01*
X225956666Y-117102000D01*
X225861428Y-117054380D01*
X225670952Y-117054380D01*
X225575714Y-117102000D01*
X225528095Y-117149619D01*
X225480476Y-117244857D01*
X225480476Y-117482952D01*
X225528095Y-117578190D01*
X225575714Y-117625809D01*
X225670952Y-117673428D01*
X225861428Y-117673428D01*
X225956666Y-117625809D01*
X226004285Y-117578190D01*
X226051904Y-117482952D01*
G04 #@! TO.C,R20*
X262064380Y-106058345D02*
X261588190Y-106391678D01*
X262064380Y-106629773D02*
X261064380Y-106629773D01*
X261064380Y-106248821D01*
X261112000Y-106153583D01*
X261159619Y-106105964D01*
X261254857Y-106058345D01*
X261397714Y-106058345D01*
X261492952Y-106105964D01*
X261540571Y-106153583D01*
X261588190Y-106248821D01*
X261588190Y-106629773D01*
X261159619Y-105677392D02*
X261112000Y-105629773D01*
X261064380Y-105534535D01*
X261064380Y-105296440D01*
X261112000Y-105201202D01*
X261159619Y-105153583D01*
X261254857Y-105105964D01*
X261350095Y-105105964D01*
X261492952Y-105153583D01*
X262064380Y-105725011D01*
X262064380Y-105105964D01*
X261064380Y-104486916D02*
X261064380Y-104391678D01*
X261112000Y-104296440D01*
X261159619Y-104248821D01*
X261254857Y-104201202D01*
X261445333Y-104153583D01*
X261683428Y-104153583D01*
X261873904Y-104201202D01*
X261969142Y-104248821D01*
X262016761Y-104296440D01*
X262064380Y-104391678D01*
X262064380Y-104486916D01*
X262016761Y-104582154D01*
X261969142Y-104629773D01*
X261873904Y-104677392D01*
X261683428Y-104725011D01*
X261445333Y-104725011D01*
X261254857Y-104677392D01*
X261159619Y-104629773D01*
X261112000Y-104582154D01*
X261064380Y-104486916D01*
G04 #@! TO.C,R21*
X212590142Y-124023380D02*
X212256809Y-123547190D01*
X212018714Y-124023380D02*
X212018714Y-123023380D01*
X212399666Y-123023380D01*
X212494904Y-123071000D01*
X212542523Y-123118619D01*
X212590142Y-123213857D01*
X212590142Y-123356714D01*
X212542523Y-123451952D01*
X212494904Y-123499571D01*
X212399666Y-123547190D01*
X212018714Y-123547190D01*
X212971095Y-123118619D02*
X213018714Y-123071000D01*
X213113952Y-123023380D01*
X213352047Y-123023380D01*
X213447285Y-123071000D01*
X213494904Y-123118619D01*
X213542523Y-123213857D01*
X213542523Y-123309095D01*
X213494904Y-123451952D01*
X212923476Y-124023380D01*
X213542523Y-124023380D01*
X214494904Y-124023380D02*
X213923476Y-124023380D01*
X214209190Y-124023380D02*
X214209190Y-123023380D01*
X214113952Y-123166238D01*
X214018714Y-123261476D01*
X213923476Y-123309095D01*
G04 #@! TO.C,R22*
X223501142Y-124150380D02*
X223167809Y-123674190D01*
X222929714Y-124150380D02*
X222929714Y-123150380D01*
X223310666Y-123150380D01*
X223405904Y-123198000D01*
X223453523Y-123245619D01*
X223501142Y-123340857D01*
X223501142Y-123483714D01*
X223453523Y-123578952D01*
X223405904Y-123626571D01*
X223310666Y-123674190D01*
X222929714Y-123674190D01*
X223882095Y-123245619D02*
X223929714Y-123198000D01*
X224024952Y-123150380D01*
X224263047Y-123150380D01*
X224358285Y-123198000D01*
X224405904Y-123245619D01*
X224453523Y-123340857D01*
X224453523Y-123436095D01*
X224405904Y-123578952D01*
X223834476Y-124150380D01*
X224453523Y-124150380D01*
X224834476Y-123245619D02*
X224882095Y-123198000D01*
X224977333Y-123150380D01*
X225215428Y-123150380D01*
X225310666Y-123198000D01*
X225358285Y-123245619D01*
X225405904Y-123340857D01*
X225405904Y-123436095D01*
X225358285Y-123578952D01*
X224786857Y-124150380D01*
X225405904Y-124150380D01*
G04 #@! TO.C,R23*
X228271947Y-68801257D02*
X227795757Y-69134590D01*
X228271947Y-69372685D02*
X227271947Y-69372685D01*
X227271947Y-68991733D01*
X227319567Y-68896495D01*
X227367186Y-68848876D01*
X227462424Y-68801257D01*
X227605281Y-68801257D01*
X227700519Y-68848876D01*
X227748138Y-68896495D01*
X227795757Y-68991733D01*
X227795757Y-69372685D01*
X227367186Y-68420304D02*
X227319567Y-68372685D01*
X227271947Y-68277447D01*
X227271947Y-68039352D01*
X227319567Y-67944114D01*
X227367186Y-67896495D01*
X227462424Y-67848876D01*
X227557662Y-67848876D01*
X227700519Y-67896495D01*
X228271947Y-68467923D01*
X228271947Y-67848876D01*
X227271947Y-67515542D02*
X227271947Y-66896495D01*
X227652900Y-67229828D01*
X227652900Y-67086971D01*
X227700519Y-66991733D01*
X227748138Y-66944114D01*
X227843376Y-66896495D01*
X228081471Y-66896495D01*
X228176709Y-66944114D01*
X228224328Y-66991733D01*
X228271947Y-67086971D01*
X228271947Y-67372685D01*
X228224328Y-67467923D01*
X228176709Y-67515542D01*
G04 #@! TO.C,RV1*
X233135561Y-123642380D02*
X232802228Y-123166190D01*
X232564133Y-123642380D02*
X232564133Y-122642380D01*
X232945085Y-122642380D01*
X233040323Y-122690000D01*
X233087942Y-122737619D01*
X233135561Y-122832857D01*
X233135561Y-122975714D01*
X233087942Y-123070952D01*
X233040323Y-123118571D01*
X232945085Y-123166190D01*
X232564133Y-123166190D01*
X233421276Y-122642380D02*
X233754609Y-123642380D01*
X234087942Y-122642380D01*
X234945085Y-123642380D02*
X234373657Y-123642380D01*
X234659371Y-123642380D02*
X234659371Y-122642380D01*
X234564133Y-122785238D01*
X234468895Y-122880476D01*
X234373657Y-122928095D01*
G04 #@! TO.C,TP2*
X259342095Y-82891380D02*
X259913523Y-82891380D01*
X259627809Y-83891380D02*
X259627809Y-82891380D01*
X260246857Y-83891380D02*
X260246857Y-82891380D01*
X260627809Y-82891380D01*
X260723047Y-82939000D01*
X260770666Y-82986619D01*
X260818285Y-83081857D01*
X260818285Y-83224714D01*
X260770666Y-83319952D01*
X260723047Y-83367571D01*
X260627809Y-83415190D01*
X260246857Y-83415190D01*
X261199238Y-82986619D02*
X261246857Y-82939000D01*
X261342095Y-82891380D01*
X261580190Y-82891380D01*
X261675428Y-82939000D01*
X261723047Y-82986619D01*
X261770666Y-83081857D01*
X261770666Y-83177095D01*
X261723047Y-83319952D01*
X261151619Y-83891380D01*
X261770666Y-83891380D01*
G04 #@! TO.C,TP3*
X247912095Y-118578380D02*
X248483523Y-118578380D01*
X248197809Y-119578380D02*
X248197809Y-118578380D01*
X248816857Y-119578380D02*
X248816857Y-118578380D01*
X249197809Y-118578380D01*
X249293047Y-118626000D01*
X249340666Y-118673619D01*
X249388285Y-118768857D01*
X249388285Y-118911714D01*
X249340666Y-119006952D01*
X249293047Y-119054571D01*
X249197809Y-119102190D01*
X248816857Y-119102190D01*
X249721619Y-118578380D02*
X250340666Y-118578380D01*
X250007333Y-118959333D01*
X250150190Y-118959333D01*
X250245428Y-119006952D01*
X250293047Y-119054571D01*
X250340666Y-119149809D01*
X250340666Y-119387904D01*
X250293047Y-119483142D01*
X250245428Y-119530761D01*
X250150190Y-119578380D01*
X249864476Y-119578380D01*
X249769238Y-119530761D01*
X249721619Y-119483142D01*
G04 #@! TO.C,Y1*
X230608190Y-93404190D02*
X231084380Y-93404190D01*
X230084380Y-93737523D02*
X230608190Y-93404190D01*
X230084380Y-93070857D01*
X231084380Y-92213714D02*
X231084380Y-92785142D01*
X231084380Y-92499428D02*
X230084380Y-92499428D01*
X230227238Y-92594666D01*
X230322476Y-92689904D01*
X230370095Y-92785142D01*
G04 #@! TO.C,Vs1*
X206430714Y-107402380D02*
X206764047Y-108402380D01*
X207097380Y-107402380D01*
X207383095Y-108354761D02*
X207478333Y-108402380D01*
X207668809Y-108402380D01*
X207764047Y-108354761D01*
X207811666Y-108259523D01*
X207811666Y-108211904D01*
X207764047Y-108116666D01*
X207668809Y-108069047D01*
X207525952Y-108069047D01*
X207430714Y-108021428D01*
X207383095Y-107926190D01*
X207383095Y-107878571D01*
X207430714Y-107783333D01*
X207525952Y-107735714D01*
X207668809Y-107735714D01*
X207764047Y-107783333D01*
X208764047Y-108402380D02*
X208192619Y-108402380D01*
X208478333Y-108402380D02*
X208478333Y-107402380D01*
X208383095Y-107545238D01*
X208287857Y-107640476D01*
X208192619Y-107688095D01*
G04 #@! TO.C,U4*
X220432380Y-111433252D02*
X221241904Y-111433252D01*
X221337142Y-111385633D01*
X221384761Y-111338014D01*
X221432380Y-111242776D01*
X221432380Y-111052300D01*
X221384761Y-110957062D01*
X221337142Y-110909443D01*
X221241904Y-110861824D01*
X220432380Y-110861824D01*
X220765714Y-109957062D02*
X221432380Y-109957062D01*
X220384761Y-110195157D02*
X221099047Y-110433252D01*
X221099047Y-109814205D01*
X222123333Y-108402380D02*
X221647142Y-108402380D01*
X221647142Y-107402380D01*
X222456666Y-108402380D02*
X222456666Y-107402380D01*
X222790000Y-108116666D01*
X223123333Y-107402380D01*
X223123333Y-108402380D01*
X224170952Y-108307142D02*
X224123333Y-108354761D01*
X223980476Y-108402380D01*
X223885238Y-108402380D01*
X223742380Y-108354761D01*
X223647142Y-108259523D01*
X223599523Y-108164285D01*
X223551904Y-107973809D01*
X223551904Y-107830952D01*
X223599523Y-107640476D01*
X223647142Y-107545238D01*
X223742380Y-107450000D01*
X223885238Y-107402380D01*
X223980476Y-107402380D01*
X224123333Y-107450000D01*
X224170952Y-107497619D01*
X225028095Y-107402380D02*
X224837619Y-107402380D01*
X224742380Y-107450000D01*
X224694761Y-107497619D01*
X224599523Y-107640476D01*
X224551904Y-107830952D01*
X224551904Y-108211904D01*
X224599523Y-108307142D01*
X224647142Y-108354761D01*
X224742380Y-108402380D01*
X224932857Y-108402380D01*
X225028095Y-108354761D01*
X225075714Y-108307142D01*
X225123333Y-108211904D01*
X225123333Y-107973809D01*
X225075714Y-107878571D01*
X225028095Y-107830952D01*
X224932857Y-107783333D01*
X224742380Y-107783333D01*
X224647142Y-107830952D01*
X224599523Y-107878571D01*
X224551904Y-107973809D01*
X225980476Y-107735714D02*
X225980476Y-108402380D01*
X225742380Y-107354761D02*
X225504285Y-108069047D01*
X226123333Y-108069047D01*
X226647142Y-107830952D02*
X226551904Y-107783333D01*
X226504285Y-107735714D01*
X226456666Y-107640476D01*
X226456666Y-107592857D01*
X226504285Y-107497619D01*
X226551904Y-107450000D01*
X226647142Y-107402380D01*
X226837619Y-107402380D01*
X226932857Y-107450000D01*
X226980476Y-107497619D01*
X227028095Y-107592857D01*
X227028095Y-107640476D01*
X226980476Y-107735714D01*
X226932857Y-107783333D01*
X226837619Y-107830952D01*
X226647142Y-107830952D01*
X226551904Y-107878571D01*
X226504285Y-107926190D01*
X226456666Y-108021428D01*
X226456666Y-108211904D01*
X226504285Y-108307142D01*
X226551904Y-108354761D01*
X226647142Y-108402380D01*
X226837619Y-108402380D01*
X226932857Y-108354761D01*
X226980476Y-108307142D01*
X227028095Y-108211904D01*
X227028095Y-108021428D01*
X226980476Y-107926190D01*
X226932857Y-107878571D01*
X226837619Y-107830952D01*
X227409047Y-107497619D02*
X227456666Y-107450000D01*
X227551904Y-107402380D01*
X227790000Y-107402380D01*
X227885238Y-107450000D01*
X227932857Y-107497619D01*
X227980476Y-107592857D01*
X227980476Y-107688095D01*
X227932857Y-107830952D01*
X227361428Y-108402380D01*
X227980476Y-108402380D01*
G04 #@! TO.C,C16*
D10*
X222242142Y-101322142D02*
X222194523Y-101369761D01*
X222051666Y-101417380D01*
X221956428Y-101417380D01*
X221813571Y-101369761D01*
X221718333Y-101274523D01*
X221670714Y-101179285D01*
X221623095Y-100988809D01*
X221623095Y-100845952D01*
X221670714Y-100655476D01*
X221718333Y-100560238D01*
X221813571Y-100465000D01*
X221956428Y-100417380D01*
X222051666Y-100417380D01*
X222194523Y-100465000D01*
X222242142Y-100512619D01*
X223194523Y-101417380D02*
X222623095Y-101417380D01*
X222908809Y-101417380D02*
X222908809Y-100417380D01*
X222813571Y-100560238D01*
X222718333Y-100655476D01*
X222623095Y-100703095D01*
X224051666Y-100417380D02*
X223861190Y-100417380D01*
X223765952Y-100465000D01*
X223718333Y-100512619D01*
X223623095Y-100655476D01*
X223575476Y-100845952D01*
X223575476Y-101226904D01*
X223623095Y-101322142D01*
X223670714Y-101369761D01*
X223765952Y-101417380D01*
X223956428Y-101417380D01*
X224051666Y-101369761D01*
X224099285Y-101322142D01*
X224146904Y-101226904D01*
X224146904Y-100988809D01*
X224099285Y-100893571D01*
X224051666Y-100845952D01*
X223956428Y-100798333D01*
X223765952Y-100798333D01*
X223670714Y-100845952D01*
X223623095Y-100893571D01*
X223575476Y-100988809D01*
G04 #@! TO.C,C17*
X218813142Y-104649542D02*
X218765523Y-104697161D01*
X218622666Y-104744780D01*
X218527428Y-104744780D01*
X218384571Y-104697161D01*
X218289333Y-104601923D01*
X218241714Y-104506685D01*
X218194095Y-104316209D01*
X218194095Y-104173352D01*
X218241714Y-103982876D01*
X218289333Y-103887638D01*
X218384571Y-103792400D01*
X218527428Y-103744780D01*
X218622666Y-103744780D01*
X218765523Y-103792400D01*
X218813142Y-103840019D01*
X219765523Y-104744780D02*
X219194095Y-104744780D01*
X219479809Y-104744780D02*
X219479809Y-103744780D01*
X219384571Y-103887638D01*
X219289333Y-103982876D01*
X219194095Y-104030495D01*
X220098857Y-103744780D02*
X220765523Y-103744780D01*
X220336952Y-104744780D01*
G04 #@! TO.C,C19*
X218813142Y-109196142D02*
X218765523Y-109243761D01*
X218622666Y-109291380D01*
X218527428Y-109291380D01*
X218384571Y-109243761D01*
X218289333Y-109148523D01*
X218241714Y-109053285D01*
X218194095Y-108862809D01*
X218194095Y-108719952D01*
X218241714Y-108529476D01*
X218289333Y-108434238D01*
X218384571Y-108339000D01*
X218527428Y-108291380D01*
X218622666Y-108291380D01*
X218765523Y-108339000D01*
X218813142Y-108386619D01*
X219765523Y-109291380D02*
X219194095Y-109291380D01*
X219479809Y-109291380D02*
X219479809Y-108291380D01*
X219384571Y-108434238D01*
X219289333Y-108529476D01*
X219194095Y-108577095D01*
X220241714Y-109291380D02*
X220432190Y-109291380D01*
X220527428Y-109243761D01*
X220575047Y-109196142D01*
X220670285Y-109053285D01*
X220717904Y-108862809D01*
X220717904Y-108481857D01*
X220670285Y-108386619D01*
X220622666Y-108339000D01*
X220527428Y-108291380D01*
X220336952Y-108291380D01*
X220241714Y-108339000D01*
X220194095Y-108386619D01*
X220146476Y-108481857D01*
X220146476Y-108719952D01*
X220194095Y-108815190D01*
X220241714Y-108862809D01*
X220336952Y-108910428D01*
X220527428Y-108910428D01*
X220622666Y-108862809D01*
X220670285Y-108815190D01*
X220717904Y-108719952D01*
G04 #@! TO.C,C13*
X253595142Y-99194857D02*
X253642761Y-99242476D01*
X253690380Y-99385333D01*
X253690380Y-99480571D01*
X253642761Y-99623428D01*
X253547523Y-99718666D01*
X253452285Y-99766285D01*
X253261809Y-99813904D01*
X253118952Y-99813904D01*
X252928476Y-99766285D01*
X252833238Y-99718666D01*
X252738000Y-99623428D01*
X252690380Y-99480571D01*
X252690380Y-99385333D01*
X252738000Y-99242476D01*
X252785619Y-99194857D01*
X253690380Y-98242476D02*
X253690380Y-98813904D01*
X253690380Y-98528190D02*
X252690380Y-98528190D01*
X252833238Y-98623428D01*
X252928476Y-98718666D01*
X252976095Y-98813904D01*
X252690380Y-97909142D02*
X252690380Y-97290095D01*
X253071333Y-97623428D01*
X253071333Y-97480571D01*
X253118952Y-97385333D01*
X253166571Y-97337714D01*
X253261809Y-97290095D01*
X253499904Y-97290095D01*
X253595142Y-97337714D01*
X253642761Y-97385333D01*
X253690380Y-97480571D01*
X253690380Y-97766285D01*
X253642761Y-97861523D01*
X253595142Y-97909142D01*
G04 #@! TO.C,C14*
X253595142Y-95130857D02*
X253642761Y-95178476D01*
X253690380Y-95321333D01*
X253690380Y-95416571D01*
X253642761Y-95559428D01*
X253547523Y-95654666D01*
X253452285Y-95702285D01*
X253261809Y-95749904D01*
X253118952Y-95749904D01*
X252928476Y-95702285D01*
X252833238Y-95654666D01*
X252738000Y-95559428D01*
X252690380Y-95416571D01*
X252690380Y-95321333D01*
X252738000Y-95178476D01*
X252785619Y-95130857D01*
X253690380Y-94178476D02*
X253690380Y-94749904D01*
X253690380Y-94464190D02*
X252690380Y-94464190D01*
X252833238Y-94559428D01*
X252928476Y-94654666D01*
X252976095Y-94749904D01*
X253023714Y-93321333D02*
X253690380Y-93321333D01*
X252642761Y-93559428D02*
X253357047Y-93797523D01*
X253357047Y-93178476D01*
G04 #@! TO.C,C15*
X253595142Y-92082857D02*
X253642761Y-92130476D01*
X253690380Y-92273333D01*
X253690380Y-92368571D01*
X253642761Y-92511428D01*
X253547523Y-92606666D01*
X253452285Y-92654285D01*
X253261809Y-92701904D01*
X253118952Y-92701904D01*
X252928476Y-92654285D01*
X252833238Y-92606666D01*
X252738000Y-92511428D01*
X252690380Y-92368571D01*
X252690380Y-92273333D01*
X252738000Y-92130476D01*
X252785619Y-92082857D01*
X253690380Y-91130476D02*
X253690380Y-91701904D01*
X253690380Y-91416190D02*
X252690380Y-91416190D01*
X252833238Y-91511428D01*
X252928476Y-91606666D01*
X252976095Y-91701904D01*
X252690380Y-90225714D02*
X252690380Y-90701904D01*
X253166571Y-90749523D01*
X253118952Y-90701904D01*
X253071333Y-90606666D01*
X253071333Y-90368571D01*
X253118952Y-90273333D01*
X253166571Y-90225714D01*
X253261809Y-90178095D01*
X253499904Y-90178095D01*
X253595142Y-90225714D01*
X253642761Y-90273333D01*
X253690380Y-90368571D01*
X253690380Y-90606666D01*
X253642761Y-90701904D01*
X253595142Y-90749523D01*
G04 #@! TO.C,J1*
D12*
X238413610Y-61827932D02*
X239130466Y-61827932D01*
X239273837Y-61875723D01*
X239369418Y-61971303D01*
X239417208Y-62114674D01*
X239417208Y-62210255D01*
X239417208Y-60824334D02*
X239417208Y-61397819D01*
X239417208Y-61111076D02*
X238413610Y-61111076D01*
X238556981Y-61206657D01*
X238652562Y-61302238D01*
X238700352Y-61397819D01*
G04 #@! TO.C,R16*
X253714712Y-101989327D02*
X253238173Y-102322905D01*
X253714712Y-102561174D02*
X252713980Y-102561174D01*
X252713980Y-102179943D01*
X252761634Y-102084635D01*
X252809287Y-102036981D01*
X252904595Y-101989327D01*
X253047557Y-101989327D01*
X253142865Y-102036981D01*
X253190519Y-102084635D01*
X253238173Y-102179943D01*
X253238173Y-102561174D01*
X253714712Y-101036249D02*
X253714712Y-101608096D01*
X253714712Y-101322173D02*
X252713980Y-101322173D01*
X252856941Y-101417480D01*
X252952249Y-101512788D01*
X252999903Y-101608096D01*
X252713980Y-100178479D02*
X252713980Y-100369094D01*
X252761634Y-100464402D01*
X252809287Y-100512056D01*
X252952249Y-100607364D01*
X253142865Y-100655018D01*
X253524096Y-100655018D01*
X253619404Y-100607364D01*
X253667058Y-100559710D01*
X253714712Y-100464402D01*
X253714712Y-100273787D01*
X253667058Y-100178479D01*
X253619404Y-100130825D01*
X253524096Y-100083171D01*
X253285826Y-100083171D01*
X253190519Y-100130825D01*
X253142865Y-100178479D01*
X253095211Y-100273787D01*
X253095211Y-100464402D01*
X253142865Y-100559710D01*
X253190519Y-100607364D01*
X253285826Y-100655018D01*
G04 #@! TO.C,C6*
D10*
X242647742Y-80825666D02*
X242695361Y-80873285D01*
X242742980Y-81016142D01*
X242742980Y-81111380D01*
X242695361Y-81254238D01*
X242600123Y-81349476D01*
X242504885Y-81397095D01*
X242314409Y-81444714D01*
X242171552Y-81444714D01*
X241981076Y-81397095D01*
X241885838Y-81349476D01*
X241790600Y-81254238D01*
X241742980Y-81111380D01*
X241742980Y-81016142D01*
X241790600Y-80873285D01*
X241838219Y-80825666D01*
X241742980Y-79968523D02*
X241742980Y-80159000D01*
X241790600Y-80254238D01*
X241838219Y-80301857D01*
X241981076Y-80397095D01*
X242171552Y-80444714D01*
X242552504Y-80444714D01*
X242647742Y-80397095D01*
X242695361Y-80349476D01*
X242742980Y-80254238D01*
X242742980Y-80063761D01*
X242695361Y-79968523D01*
X242647742Y-79920904D01*
X242552504Y-79873285D01*
X242314409Y-79873285D01*
X242219171Y-79920904D01*
X242171552Y-79968523D01*
X242123933Y-80063761D01*
X242123933Y-80254238D01*
X242171552Y-80349476D01*
X242219171Y-80397095D01*
X242314409Y-80444714D01*
G04 #@! TO.C,C7*
D11*
X239650542Y-80825666D02*
X239698161Y-80873285D01*
X239745780Y-81016142D01*
X239745780Y-81111380D01*
X239698161Y-81254238D01*
X239602923Y-81349476D01*
X239507685Y-81397095D01*
X239317209Y-81444714D01*
X239174352Y-81444714D01*
X238983876Y-81397095D01*
X238888638Y-81349476D01*
X238793400Y-81254238D01*
X238745780Y-81111380D01*
X238745780Y-81016142D01*
X238793400Y-80873285D01*
X238841019Y-80825666D01*
X238745780Y-80492333D02*
X238745780Y-79825666D01*
X239745780Y-80254238D01*
G04 #@! TO.C,C18*
X215765142Y-86145642D02*
X215717523Y-86193261D01*
X215574666Y-86240880D01*
X215479428Y-86240880D01*
X215336571Y-86193261D01*
X215241333Y-86098023D01*
X215193714Y-86002785D01*
X215146095Y-85812309D01*
X215146095Y-85669452D01*
X215193714Y-85478976D01*
X215241333Y-85383738D01*
X215336571Y-85288500D01*
X215479428Y-85240880D01*
X215574666Y-85240880D01*
X215717523Y-85288500D01*
X215765142Y-85336119D01*
X216717523Y-86240880D02*
X216146095Y-86240880D01*
X216431809Y-86240880D02*
X216431809Y-85240880D01*
X216336571Y-85383738D01*
X216241333Y-85478976D01*
X216146095Y-85526595D01*
X217288952Y-85669452D02*
X217193714Y-85621833D01*
X217146095Y-85574214D01*
X217098476Y-85478976D01*
X217098476Y-85431357D01*
X217146095Y-85336119D01*
X217193714Y-85288500D01*
X217288952Y-85240880D01*
X217479428Y-85240880D01*
X217574666Y-85288500D01*
X217622285Y-85336119D01*
X217669904Y-85431357D01*
X217669904Y-85478976D01*
X217622285Y-85574214D01*
X217574666Y-85621833D01*
X217479428Y-85669452D01*
X217288952Y-85669452D01*
X217193714Y-85717071D01*
X217146095Y-85764690D01*
X217098476Y-85859928D01*
X217098476Y-86050404D01*
X217146095Y-86145642D01*
X217193714Y-86193261D01*
X217288952Y-86240880D01*
X217479428Y-86240880D01*
X217574666Y-86193261D01*
X217622285Y-86145642D01*
X217669904Y-86050404D01*
X217669904Y-85859928D01*
X217622285Y-85764690D01*
X217574666Y-85717071D01*
X217479428Y-85669452D01*
G04 #@! TO.C,C20*
X215765142Y-91225642D02*
X215717523Y-91273261D01*
X215574666Y-91320880D01*
X215479428Y-91320880D01*
X215336571Y-91273261D01*
X215241333Y-91178023D01*
X215193714Y-91082785D01*
X215146095Y-90892309D01*
X215146095Y-90749452D01*
X215193714Y-90558976D01*
X215241333Y-90463738D01*
X215336571Y-90368500D01*
X215479428Y-90320880D01*
X215574666Y-90320880D01*
X215717523Y-90368500D01*
X215765142Y-90416119D01*
X216146095Y-90416119D02*
X216193714Y-90368500D01*
X216288952Y-90320880D01*
X216527047Y-90320880D01*
X216622285Y-90368500D01*
X216669904Y-90416119D01*
X216717523Y-90511357D01*
X216717523Y-90606595D01*
X216669904Y-90749452D01*
X216098476Y-91320880D01*
X216717523Y-91320880D01*
X217336571Y-90320880D02*
X217431809Y-90320880D01*
X217527047Y-90368500D01*
X217574666Y-90416119D01*
X217622285Y-90511357D01*
X217669904Y-90701833D01*
X217669904Y-90939928D01*
X217622285Y-91130404D01*
X217574666Y-91225642D01*
X217527047Y-91273261D01*
X217431809Y-91320880D01*
X217336571Y-91320880D01*
X217241333Y-91273261D01*
X217193714Y-91225642D01*
X217146095Y-91130404D01*
X217098476Y-90939928D01*
X217098476Y-90701833D01*
X217146095Y-90511357D01*
X217193714Y-90416119D01*
X217241333Y-90368500D01*
X217336571Y-90320880D01*
G04 #@! TO.C,C21*
X215765142Y-88685642D02*
X215717523Y-88733261D01*
X215574666Y-88780880D01*
X215479428Y-88780880D01*
X215336571Y-88733261D01*
X215241333Y-88638023D01*
X215193714Y-88542785D01*
X215146095Y-88352309D01*
X215146095Y-88209452D01*
X215193714Y-88018976D01*
X215241333Y-87923738D01*
X215336571Y-87828500D01*
X215479428Y-87780880D01*
X215574666Y-87780880D01*
X215717523Y-87828500D01*
X215765142Y-87876119D01*
X216146095Y-87876119D02*
X216193714Y-87828500D01*
X216288952Y-87780880D01*
X216527047Y-87780880D01*
X216622285Y-87828500D01*
X216669904Y-87876119D01*
X216717523Y-87971357D01*
X216717523Y-88066595D01*
X216669904Y-88209452D01*
X216098476Y-88780880D01*
X216717523Y-88780880D01*
X217669904Y-88780880D02*
X217098476Y-88780880D01*
X217384190Y-88780880D02*
X217384190Y-87780880D01*
X217288952Y-87923738D01*
X217193714Y-88018976D01*
X217098476Y-88066595D01*
G04 #@! TO.C,U5*
X243840095Y-108926380D02*
X243840095Y-109735904D01*
X243887714Y-109831142D01*
X243935333Y-109878761D01*
X244030571Y-109926380D01*
X244221047Y-109926380D01*
X244316285Y-109878761D01*
X244363904Y-109831142D01*
X244411523Y-109735904D01*
X244411523Y-108926380D01*
X245363904Y-108926380D02*
X244887714Y-108926380D01*
X244840095Y-109402571D01*
X244887714Y-109354952D01*
X244982952Y-109307333D01*
X245221047Y-109307333D01*
X245316285Y-109354952D01*
X245363904Y-109402571D01*
X245411523Y-109497809D01*
X245411523Y-109735904D01*
X245363904Y-109831142D01*
X245316285Y-109878761D01*
X245221047Y-109926380D01*
X244982952Y-109926380D01*
X244887714Y-109878761D01*
X244840095Y-109831142D01*
G04 #@! TO.C,C9*
X251547333Y-108942142D02*
X251499714Y-108989761D01*
X251356857Y-109037380D01*
X251261619Y-109037380D01*
X251118761Y-108989761D01*
X251023523Y-108894523D01*
X250975904Y-108799285D01*
X250928285Y-108608809D01*
X250928285Y-108465952D01*
X250975904Y-108275476D01*
X251023523Y-108180238D01*
X251118761Y-108085000D01*
X251261619Y-108037380D01*
X251356857Y-108037380D01*
X251499714Y-108085000D01*
X251547333Y-108132619D01*
X252023523Y-109037380D02*
X252214000Y-109037380D01*
X252309238Y-108989761D01*
X252356857Y-108942142D01*
X252452095Y-108799285D01*
X252499714Y-108608809D01*
X252499714Y-108227857D01*
X252452095Y-108132619D01*
X252404476Y-108085000D01*
X252309238Y-108037380D01*
X252118761Y-108037380D01*
X252023523Y-108085000D01*
X251975904Y-108132619D01*
X251928285Y-108227857D01*
X251928285Y-108465952D01*
X251975904Y-108561190D01*
X252023523Y-108608809D01*
X252118761Y-108656428D01*
X252309238Y-108656428D01*
X252404476Y-108608809D01*
X252452095Y-108561190D01*
X252499714Y-108465952D01*
G04 #@! TO.C,C10*
X251452142Y-106402142D02*
X251404523Y-106449761D01*
X251261666Y-106497380D01*
X251166428Y-106497380D01*
X251023571Y-106449761D01*
X250928333Y-106354523D01*
X250880714Y-106259285D01*
X250833095Y-106068809D01*
X250833095Y-105925952D01*
X250880714Y-105735476D01*
X250928333Y-105640238D01*
X251023571Y-105545000D01*
X251166428Y-105497380D01*
X251261666Y-105497380D01*
X251404523Y-105545000D01*
X251452142Y-105592619D01*
X252404523Y-106497380D02*
X251833095Y-106497380D01*
X252118809Y-106497380D02*
X252118809Y-105497380D01*
X252023571Y-105640238D01*
X251928333Y-105735476D01*
X251833095Y-105783095D01*
X253023571Y-105497380D02*
X253118809Y-105497380D01*
X253214047Y-105545000D01*
X253261666Y-105592619D01*
X253309285Y-105687857D01*
X253356904Y-105878333D01*
X253356904Y-106116428D01*
X253309285Y-106306904D01*
X253261666Y-106402142D01*
X253214047Y-106449761D01*
X253118809Y-106497380D01*
X253023571Y-106497380D01*
X252928333Y-106449761D01*
X252880714Y-106402142D01*
X252833095Y-106306904D01*
X252785476Y-106116428D01*
X252785476Y-105878333D01*
X252833095Y-105687857D01*
X252880714Y-105592619D01*
X252928333Y-105545000D01*
X253023571Y-105497380D01*
G04 #@! TO.C,C11*
X238609142Y-111082057D02*
X238656761Y-111129676D01*
X238704380Y-111272533D01*
X238704380Y-111367771D01*
X238656761Y-111510628D01*
X238561523Y-111605866D01*
X238466285Y-111653485D01*
X238275809Y-111701104D01*
X238132952Y-111701104D01*
X237942476Y-111653485D01*
X237847238Y-111605866D01*
X237752000Y-111510628D01*
X237704380Y-111367771D01*
X237704380Y-111272533D01*
X237752000Y-111129676D01*
X237799619Y-111082057D01*
X238704380Y-110129676D02*
X238704380Y-110701104D01*
X238704380Y-110415390D02*
X237704380Y-110415390D01*
X237847238Y-110510628D01*
X237942476Y-110605866D01*
X237990095Y-110701104D01*
X238704380Y-109177295D02*
X238704380Y-109748723D01*
X238704380Y-109463009D02*
X237704380Y-109463009D01*
X237847238Y-109558247D01*
X237942476Y-109653485D01*
X237990095Y-109748723D01*
G04 #@! TO.C,C3*
X231102142Y-88685666D02*
X231149761Y-88733285D01*
X231197380Y-88876142D01*
X231197380Y-88971380D01*
X231149761Y-89114238D01*
X231054523Y-89209476D01*
X230959285Y-89257095D01*
X230768809Y-89304714D01*
X230625952Y-89304714D01*
X230435476Y-89257095D01*
X230340238Y-89209476D01*
X230245000Y-89114238D01*
X230197380Y-88971380D01*
X230197380Y-88876142D01*
X230245000Y-88733285D01*
X230292619Y-88685666D01*
X230197380Y-88352333D02*
X230197380Y-87733285D01*
X230578333Y-88066619D01*
X230578333Y-87923761D01*
X230625952Y-87828523D01*
X230673571Y-87780904D01*
X230768809Y-87733285D01*
X231006904Y-87733285D01*
X231102142Y-87780904D01*
X231149761Y-87828523D01*
X231197380Y-87923761D01*
X231197380Y-88209476D01*
X231149761Y-88304714D01*
X231102142Y-88352333D01*
G04 #@! TO.C,C4*
X231116142Y-95670666D02*
X231163761Y-95718285D01*
X231211380Y-95861142D01*
X231211380Y-95956380D01*
X231163761Y-96099238D01*
X231068523Y-96194476D01*
X230973285Y-96242095D01*
X230782809Y-96289714D01*
X230639952Y-96289714D01*
X230449476Y-96242095D01*
X230354238Y-96194476D01*
X230259000Y-96099238D01*
X230211380Y-95956380D01*
X230211380Y-95861142D01*
X230259000Y-95718285D01*
X230306619Y-95670666D01*
X230544714Y-94813523D02*
X231211380Y-94813523D01*
X230163761Y-95051619D02*
X230878047Y-95289714D01*
X230878047Y-94670666D01*
G04 #@! TO.C,C1*
X243714542Y-85028066D02*
X243762161Y-85075685D01*
X243809780Y-85218542D01*
X243809780Y-85313780D01*
X243762161Y-85456638D01*
X243666923Y-85551876D01*
X243571685Y-85599495D01*
X243381209Y-85647114D01*
X243238352Y-85647114D01*
X243047876Y-85599495D01*
X242952638Y-85551876D01*
X242857400Y-85456638D01*
X242809780Y-85313780D01*
X242809780Y-85218542D01*
X242857400Y-85075685D01*
X242905019Y-85028066D01*
X243809780Y-84075685D02*
X243809780Y-84647114D01*
X243809780Y-84361400D02*
X242809780Y-84361400D01*
X242952638Y-84456638D01*
X243047876Y-84551876D01*
X243095495Y-84647114D01*
G04 #@! TO.C,C2*
X240133142Y-85129666D02*
X240180761Y-85177285D01*
X240228380Y-85320142D01*
X240228380Y-85415380D01*
X240180761Y-85558238D01*
X240085523Y-85653476D01*
X239990285Y-85701095D01*
X239799809Y-85748714D01*
X239656952Y-85748714D01*
X239466476Y-85701095D01*
X239371238Y-85653476D01*
X239276000Y-85558238D01*
X239228380Y-85415380D01*
X239228380Y-85320142D01*
X239276000Y-85177285D01*
X239323619Y-85129666D01*
X239323619Y-84748714D02*
X239276000Y-84701095D01*
X239228380Y-84605857D01*
X239228380Y-84367761D01*
X239276000Y-84272523D01*
X239323619Y-84224904D01*
X239418857Y-84177285D01*
X239514095Y-84177285D01*
X239656952Y-84224904D01*
X240228380Y-84796333D01*
X240228380Y-84177285D01*
G04 #@! TO.C,C5*
X251293333Y-98161142D02*
X251245714Y-98208761D01*
X251102857Y-98256380D01*
X251007619Y-98256380D01*
X250864761Y-98208761D01*
X250769523Y-98113523D01*
X250721904Y-98018285D01*
X250674285Y-97827809D01*
X250674285Y-97684952D01*
X250721904Y-97494476D01*
X250769523Y-97399238D01*
X250864761Y-97304000D01*
X251007619Y-97256380D01*
X251102857Y-97256380D01*
X251245714Y-97304000D01*
X251293333Y-97351619D01*
X252198095Y-97256380D02*
X251721904Y-97256380D01*
X251674285Y-97732571D01*
X251721904Y-97684952D01*
X251817142Y-97637333D01*
X252055238Y-97637333D01*
X252150476Y-97684952D01*
X252198095Y-97732571D01*
X252245714Y-97827809D01*
X252245714Y-98065904D01*
X252198095Y-98161142D01*
X252150476Y-98208761D01*
X252055238Y-98256380D01*
X251817142Y-98256380D01*
X251721904Y-98208761D01*
X251674285Y-98161142D01*
G04 #@! TO.C,U1*
X247648133Y-86318970D02*
X247648133Y-87130579D01*
X247695875Y-87226062D01*
X247743616Y-87273804D01*
X247839100Y-87321545D01*
X248030066Y-87321545D01*
X248125550Y-87273804D01*
X248173291Y-87226062D01*
X248221033Y-87130579D01*
X248221033Y-86318970D01*
X249223608Y-87321545D02*
X248650708Y-87321545D01*
X248937158Y-87321545D02*
X248937158Y-86318970D01*
X248841675Y-86462195D01*
X248746191Y-86557679D01*
X248650708Y-86605420D01*
G04 #@! TO.C,D1*
D16*
X260184780Y-102338095D02*
X259184780Y-102338095D01*
X259184780Y-102100000D01*
X259232400Y-101957142D01*
X259327638Y-101861904D01*
X259422876Y-101814285D01*
X259613352Y-101766666D01*
X259756209Y-101766666D01*
X259946685Y-101814285D01*
X260041923Y-101861904D01*
X260137161Y-101957142D01*
X260184780Y-102100000D01*
X260184780Y-102338095D01*
X260184780Y-100814285D02*
X260184780Y-101385714D01*
X260184780Y-101100000D02*
X259184780Y-101100000D01*
X259327638Y-101195238D01*
X259422876Y-101290476D01*
X259470495Y-101385714D01*
G04 #@! TO.C,D2*
X230195380Y-100941095D02*
X229195380Y-100941095D01*
X229195380Y-100703000D01*
X229243000Y-100560142D01*
X229338238Y-100464904D01*
X229433476Y-100417285D01*
X229623952Y-100369666D01*
X229766809Y-100369666D01*
X229957285Y-100417285D01*
X230052523Y-100464904D01*
X230147761Y-100560142D01*
X230195380Y-100703000D01*
X230195380Y-100941095D01*
X229290619Y-99988714D02*
X229243000Y-99941095D01*
X229195380Y-99845857D01*
X229195380Y-99607761D01*
X229243000Y-99512523D01*
X229290619Y-99464904D01*
X229385857Y-99417285D01*
X229481095Y-99417285D01*
X229623952Y-99464904D01*
X230195380Y-100036333D01*
X230195380Y-99417285D01*
G04 #@! TO.C,TP1*
X259342095Y-68159380D02*
X259913523Y-68159380D01*
X259627809Y-69159380D02*
X259627809Y-68159380D01*
X260246857Y-69159380D02*
X260246857Y-68159380D01*
X260627809Y-68159380D01*
X260723047Y-68207000D01*
X260770666Y-68254619D01*
X260818285Y-68349857D01*
X260818285Y-68492714D01*
X260770666Y-68587952D01*
X260723047Y-68635571D01*
X260627809Y-68683190D01*
X260246857Y-68683190D01*
X261770666Y-69159380D02*
X261199238Y-69159380D01*
X261484952Y-69159380D02*
X261484952Y-68159380D01*
X261389714Y-68302238D01*
X261294476Y-68397476D01*
X261199238Y-68445095D01*
G04 #@! TO.C,TP4*
X259342095Y-75677780D02*
X259913523Y-75677780D01*
X259627809Y-76677780D02*
X259627809Y-75677780D01*
X260246857Y-76677780D02*
X260246857Y-75677780D01*
X260627809Y-75677780D01*
X260723047Y-75725400D01*
X260770666Y-75773019D01*
X260818285Y-75868257D01*
X260818285Y-76011114D01*
X260770666Y-76106352D01*
X260723047Y-76153971D01*
X260627809Y-76201590D01*
X260246857Y-76201590D01*
X261675428Y-76011114D02*
X261675428Y-76677780D01*
X261437333Y-75630161D02*
X261199238Y-76344447D01*
X261818285Y-76344447D01*
G04 #@! TO.C,U3*
D12*
X244348095Y-105751380D02*
X244348095Y-106560904D01*
X244395714Y-106656142D01*
X244443333Y-106703761D01*
X244538571Y-106751380D01*
X244729047Y-106751380D01*
X244824285Y-106703761D01*
X244871904Y-106656142D01*
X244919523Y-106560904D01*
X244919523Y-105751380D01*
X245300476Y-105751380D02*
X245919523Y-105751380D01*
X245586190Y-106132333D01*
X245729047Y-106132333D01*
X245824285Y-106179952D01*
X245871904Y-106227571D01*
X245919523Y-106322809D01*
X245919523Y-106560904D01*
X245871904Y-106656142D01*
X245824285Y-106703761D01*
X245729047Y-106751380D01*
X245443333Y-106751380D01*
X245348095Y-106703761D01*
X245300476Y-106656142D01*
G04 #@! TO.C,JP3*
D16*
X231576666Y-104735380D02*
X231576666Y-105449666D01*
X231529047Y-105592523D01*
X231433809Y-105687761D01*
X231290952Y-105735380D01*
X231195714Y-105735380D01*
X232052857Y-105735380D02*
X232052857Y-104735380D01*
X232433809Y-104735380D01*
X232529047Y-104783000D01*
X232576666Y-104830619D01*
X232624285Y-104925857D01*
X232624285Y-105068714D01*
X232576666Y-105163952D01*
X232529047Y-105211571D01*
X232433809Y-105259190D01*
X232052857Y-105259190D01*
X232957619Y-104735380D02*
X233576666Y-104735380D01*
X233243333Y-105116333D01*
X233386190Y-105116333D01*
X233481428Y-105163952D01*
X233529047Y-105211571D01*
X233576666Y-105306809D01*
X233576666Y-105544904D01*
X233529047Y-105640142D01*
X233481428Y-105687761D01*
X233386190Y-105735380D01*
X233100476Y-105735380D01*
X233005238Y-105687761D01*
X232957619Y-105640142D01*
G04 #@! TD*
M02*
