G04 #@! TF.GenerationSoftware,KiCad,Pcbnew,(5.0.0)*
G04 #@! TF.CreationDate,2020-05-11T21:56:54-04:00*
G04 #@! TF.ProjectId,Lighting,4C69676874696E672E6B696361645F70,1*
G04 #@! TF.SameCoordinates,Original*
G04 #@! TF.FileFunction,Soldermask,Bot*
G04 #@! TF.FilePolarity,Negative*
%FSLAX46Y46*%
G04 Gerber Fmt 4.6, Leading zero omitted, Abs format (unit mm)*
G04 Created by KiCad (PCBNEW (5.0.0)) date 05/11/20 21:56:54*
%MOMM*%
%LPD*%
G01*
G04 APERTURE LIST*
%ADD10O,2.200000X1.300000*%
%ADD11C,2.400000*%
%ADD12C,0.100000*%
%ADD13C,1.924000*%
%ADD14R,1.924000X1.924000*%
%ADD15O,1.700000X3.000000*%
%ADD16O,1.500000X2.600000*%
G04 APERTURE END LIST*
D10*
G04 #@! TO.C,J2*
X268224000Y-93220000D03*
X268224000Y-99820000D03*
G04 #@! TD*
D11*
G04 #@! TO.C,JP1*
X227838000Y-98552000D03*
D12*
G36*
X228496810Y-94814889D02*
X228555054Y-94823529D01*
X228612171Y-94837836D01*
X228667610Y-94857672D01*
X228720838Y-94882847D01*
X228771342Y-94913118D01*
X228818636Y-94948194D01*
X228862264Y-94987736D01*
X228901806Y-95031364D01*
X228936882Y-95078658D01*
X228967153Y-95129162D01*
X228992328Y-95182390D01*
X229012164Y-95237829D01*
X229026471Y-95294946D01*
X229035111Y-95353190D01*
X229038000Y-95412000D01*
X229038000Y-96612000D01*
X229035111Y-96670810D01*
X229026471Y-96729054D01*
X229012164Y-96786171D01*
X228992328Y-96841610D01*
X228967153Y-96894838D01*
X228936882Y-96945342D01*
X228901806Y-96992636D01*
X228862264Y-97036264D01*
X228818636Y-97075806D01*
X228771342Y-97110882D01*
X228720838Y-97141153D01*
X228667610Y-97166328D01*
X228612171Y-97186164D01*
X228555054Y-97200471D01*
X228496810Y-97209111D01*
X228438000Y-97212000D01*
X227238000Y-97212000D01*
X227179190Y-97209111D01*
X227120946Y-97200471D01*
X227063829Y-97186164D01*
X227008390Y-97166328D01*
X226955162Y-97141153D01*
X226904658Y-97110882D01*
X226857364Y-97075806D01*
X226813736Y-97036264D01*
X226774194Y-96992636D01*
X226739118Y-96945342D01*
X226708847Y-96894838D01*
X226683672Y-96841610D01*
X226663836Y-96786171D01*
X226649529Y-96729054D01*
X226640889Y-96670810D01*
X226638000Y-96612000D01*
X226638000Y-95412000D01*
X226640889Y-95353190D01*
X226649529Y-95294946D01*
X226663836Y-95237829D01*
X226683672Y-95182390D01*
X226708847Y-95129162D01*
X226739118Y-95078658D01*
X226774194Y-95031364D01*
X226813736Y-94987736D01*
X226857364Y-94948194D01*
X226904658Y-94913118D01*
X226955162Y-94882847D01*
X227008390Y-94857672D01*
X227063829Y-94837836D01*
X227120946Y-94823529D01*
X227179190Y-94814889D01*
X227238000Y-94812000D01*
X228438000Y-94812000D01*
X228496810Y-94814889D01*
X228496810Y-94814889D01*
G37*
D11*
X227838000Y-96012000D03*
G04 #@! TD*
G04 #@! TO.C,JP2*
X238887000Y-115062000D03*
D12*
G36*
X237005810Y-113864889D02*
X237064054Y-113873529D01*
X237121171Y-113887836D01*
X237176610Y-113907672D01*
X237229838Y-113932847D01*
X237280342Y-113963118D01*
X237327636Y-113998194D01*
X237371264Y-114037736D01*
X237410806Y-114081364D01*
X237445882Y-114128658D01*
X237476153Y-114179162D01*
X237501328Y-114232390D01*
X237521164Y-114287829D01*
X237535471Y-114344946D01*
X237544111Y-114403190D01*
X237547000Y-114462000D01*
X237547000Y-115662000D01*
X237544111Y-115720810D01*
X237535471Y-115779054D01*
X237521164Y-115836171D01*
X237501328Y-115891610D01*
X237476153Y-115944838D01*
X237445882Y-115995342D01*
X237410806Y-116042636D01*
X237371264Y-116086264D01*
X237327636Y-116125806D01*
X237280342Y-116160882D01*
X237229838Y-116191153D01*
X237176610Y-116216328D01*
X237121171Y-116236164D01*
X237064054Y-116250471D01*
X237005810Y-116259111D01*
X236947000Y-116262000D01*
X235747000Y-116262000D01*
X235688190Y-116259111D01*
X235629946Y-116250471D01*
X235572829Y-116236164D01*
X235517390Y-116216328D01*
X235464162Y-116191153D01*
X235413658Y-116160882D01*
X235366364Y-116125806D01*
X235322736Y-116086264D01*
X235283194Y-116042636D01*
X235248118Y-115995342D01*
X235217847Y-115944838D01*
X235192672Y-115891610D01*
X235172836Y-115836171D01*
X235158529Y-115779054D01*
X235149889Y-115720810D01*
X235147000Y-115662000D01*
X235147000Y-114462000D01*
X235149889Y-114403190D01*
X235158529Y-114344946D01*
X235172836Y-114287829D01*
X235192672Y-114232390D01*
X235217847Y-114179162D01*
X235248118Y-114128658D01*
X235283194Y-114081364D01*
X235322736Y-114037736D01*
X235366364Y-113998194D01*
X235413658Y-113963118D01*
X235464162Y-113932847D01*
X235517390Y-113907672D01*
X235572829Y-113887836D01*
X235629946Y-113873529D01*
X235688190Y-113864889D01*
X235747000Y-113862000D01*
X236947000Y-113862000D01*
X237005810Y-113864889D01*
X237005810Y-113864889D01*
G37*
D11*
X236347000Y-115062000D03*
G04 #@! TD*
G04 #@! TO.C,JP5*
X222885000Y-71374000D03*
D12*
G36*
X226083810Y-70176889D02*
X226142054Y-70185529D01*
X226199171Y-70199836D01*
X226254610Y-70219672D01*
X226307838Y-70244847D01*
X226358342Y-70275118D01*
X226405636Y-70310194D01*
X226449264Y-70349736D01*
X226488806Y-70393364D01*
X226523882Y-70440658D01*
X226554153Y-70491162D01*
X226579328Y-70544390D01*
X226599164Y-70599829D01*
X226613471Y-70656946D01*
X226622111Y-70715190D01*
X226625000Y-70774000D01*
X226625000Y-71974000D01*
X226622111Y-72032810D01*
X226613471Y-72091054D01*
X226599164Y-72148171D01*
X226579328Y-72203610D01*
X226554153Y-72256838D01*
X226523882Y-72307342D01*
X226488806Y-72354636D01*
X226449264Y-72398264D01*
X226405636Y-72437806D01*
X226358342Y-72472882D01*
X226307838Y-72503153D01*
X226254610Y-72528328D01*
X226199171Y-72548164D01*
X226142054Y-72562471D01*
X226083810Y-72571111D01*
X226025000Y-72574000D01*
X224825000Y-72574000D01*
X224766190Y-72571111D01*
X224707946Y-72562471D01*
X224650829Y-72548164D01*
X224595390Y-72528328D01*
X224542162Y-72503153D01*
X224491658Y-72472882D01*
X224444364Y-72437806D01*
X224400736Y-72398264D01*
X224361194Y-72354636D01*
X224326118Y-72307342D01*
X224295847Y-72256838D01*
X224270672Y-72203610D01*
X224250836Y-72148171D01*
X224236529Y-72091054D01*
X224227889Y-72032810D01*
X224225000Y-71974000D01*
X224225000Y-70774000D01*
X224227889Y-70715190D01*
X224236529Y-70656946D01*
X224250836Y-70599829D01*
X224270672Y-70544390D01*
X224295847Y-70491162D01*
X224326118Y-70440658D01*
X224361194Y-70393364D01*
X224400736Y-70349736D01*
X224444364Y-70310194D01*
X224491658Y-70275118D01*
X224542162Y-70244847D01*
X224595390Y-70219672D01*
X224650829Y-70199836D01*
X224707946Y-70185529D01*
X224766190Y-70176889D01*
X224825000Y-70174000D01*
X226025000Y-70174000D01*
X226083810Y-70176889D01*
X226083810Y-70176889D01*
G37*
D11*
X225425000Y-71374000D03*
G04 #@! TD*
D13*
G04 #@! TO.C,RV1*
X231267000Y-120904000D03*
X233807000Y-120904000D03*
D14*
X236347000Y-120904000D03*
G04 #@! TD*
D12*
G04 #@! TO.C,TP2*
G36*
X261262810Y-84146889D02*
X261321054Y-84155529D01*
X261378171Y-84169836D01*
X261433610Y-84189672D01*
X261486838Y-84214847D01*
X261537342Y-84245118D01*
X261584636Y-84280194D01*
X261628264Y-84319736D01*
X261667806Y-84363364D01*
X261702882Y-84410658D01*
X261733153Y-84461162D01*
X261758328Y-84514390D01*
X261778164Y-84569829D01*
X261792471Y-84626946D01*
X261801111Y-84685190D01*
X261804000Y-84744000D01*
X261804000Y-85944000D01*
X261801111Y-86002810D01*
X261792471Y-86061054D01*
X261778164Y-86118171D01*
X261758328Y-86173610D01*
X261733153Y-86226838D01*
X261702882Y-86277342D01*
X261667806Y-86324636D01*
X261628264Y-86368264D01*
X261584636Y-86407806D01*
X261537342Y-86442882D01*
X261486838Y-86473153D01*
X261433610Y-86498328D01*
X261378171Y-86518164D01*
X261321054Y-86532471D01*
X261262810Y-86541111D01*
X261204000Y-86544000D01*
X260004000Y-86544000D01*
X259945190Y-86541111D01*
X259886946Y-86532471D01*
X259829829Y-86518164D01*
X259774390Y-86498328D01*
X259721162Y-86473153D01*
X259670658Y-86442882D01*
X259623364Y-86407806D01*
X259579736Y-86368264D01*
X259540194Y-86324636D01*
X259505118Y-86277342D01*
X259474847Y-86226838D01*
X259449672Y-86173610D01*
X259429836Y-86118171D01*
X259415529Y-86061054D01*
X259406889Y-86002810D01*
X259404000Y-85944000D01*
X259404000Y-84744000D01*
X259406889Y-84685190D01*
X259415529Y-84626946D01*
X259429836Y-84569829D01*
X259449672Y-84514390D01*
X259474847Y-84461162D01*
X259505118Y-84410658D01*
X259540194Y-84363364D01*
X259579736Y-84319736D01*
X259623364Y-84280194D01*
X259670658Y-84245118D01*
X259721162Y-84214847D01*
X259774390Y-84189672D01*
X259829829Y-84169836D01*
X259886946Y-84155529D01*
X259945190Y-84146889D01*
X260004000Y-84144000D01*
X261204000Y-84144000D01*
X261262810Y-84146889D01*
X261262810Y-84146889D01*
G37*
D11*
X260604000Y-85344000D03*
G04 #@! TD*
D12*
G04 #@! TO.C,TP3*
G36*
X249832810Y-119960889D02*
X249891054Y-119969529D01*
X249948171Y-119983836D01*
X250003610Y-120003672D01*
X250056838Y-120028847D01*
X250107342Y-120059118D01*
X250154636Y-120094194D01*
X250198264Y-120133736D01*
X250237806Y-120177364D01*
X250272882Y-120224658D01*
X250303153Y-120275162D01*
X250328328Y-120328390D01*
X250348164Y-120383829D01*
X250362471Y-120440946D01*
X250371111Y-120499190D01*
X250374000Y-120558000D01*
X250374000Y-121758000D01*
X250371111Y-121816810D01*
X250362471Y-121875054D01*
X250348164Y-121932171D01*
X250328328Y-121987610D01*
X250303153Y-122040838D01*
X250272882Y-122091342D01*
X250237806Y-122138636D01*
X250198264Y-122182264D01*
X250154636Y-122221806D01*
X250107342Y-122256882D01*
X250056838Y-122287153D01*
X250003610Y-122312328D01*
X249948171Y-122332164D01*
X249891054Y-122346471D01*
X249832810Y-122355111D01*
X249774000Y-122358000D01*
X248574000Y-122358000D01*
X248515190Y-122355111D01*
X248456946Y-122346471D01*
X248399829Y-122332164D01*
X248344390Y-122312328D01*
X248291162Y-122287153D01*
X248240658Y-122256882D01*
X248193364Y-122221806D01*
X248149736Y-122182264D01*
X248110194Y-122138636D01*
X248075118Y-122091342D01*
X248044847Y-122040838D01*
X248019672Y-121987610D01*
X247999836Y-121932171D01*
X247985529Y-121875054D01*
X247976889Y-121816810D01*
X247974000Y-121758000D01*
X247974000Y-120558000D01*
X247976889Y-120499190D01*
X247985529Y-120440946D01*
X247999836Y-120383829D01*
X248019672Y-120328390D01*
X248044847Y-120275162D01*
X248075118Y-120224658D01*
X248110194Y-120177364D01*
X248149736Y-120133736D01*
X248193364Y-120094194D01*
X248240658Y-120059118D01*
X248291162Y-120028847D01*
X248344390Y-120003672D01*
X248399829Y-119983836D01*
X248456946Y-119969529D01*
X248515190Y-119960889D01*
X248574000Y-119958000D01*
X249774000Y-119958000D01*
X249832810Y-119960889D01*
X249832810Y-119960889D01*
G37*
D11*
X249174000Y-121158000D03*
G04 #@! TD*
D12*
G04 #@! TO.C,Vs1*
G36*
X208303810Y-108657889D02*
X208362054Y-108666529D01*
X208419171Y-108680836D01*
X208474610Y-108700672D01*
X208527838Y-108725847D01*
X208578342Y-108756118D01*
X208625636Y-108791194D01*
X208669264Y-108830736D01*
X208708806Y-108874364D01*
X208743882Y-108921658D01*
X208774153Y-108972162D01*
X208799328Y-109025390D01*
X208819164Y-109080829D01*
X208833471Y-109137946D01*
X208842111Y-109196190D01*
X208845000Y-109255000D01*
X208845000Y-110455000D01*
X208842111Y-110513810D01*
X208833471Y-110572054D01*
X208819164Y-110629171D01*
X208799328Y-110684610D01*
X208774153Y-110737838D01*
X208743882Y-110788342D01*
X208708806Y-110835636D01*
X208669264Y-110879264D01*
X208625636Y-110918806D01*
X208578342Y-110953882D01*
X208527838Y-110984153D01*
X208474610Y-111009328D01*
X208419171Y-111029164D01*
X208362054Y-111043471D01*
X208303810Y-111052111D01*
X208245000Y-111055000D01*
X207045000Y-111055000D01*
X206986190Y-111052111D01*
X206927946Y-111043471D01*
X206870829Y-111029164D01*
X206815390Y-111009328D01*
X206762162Y-110984153D01*
X206711658Y-110953882D01*
X206664364Y-110918806D01*
X206620736Y-110879264D01*
X206581194Y-110835636D01*
X206546118Y-110788342D01*
X206515847Y-110737838D01*
X206490672Y-110684610D01*
X206470836Y-110629171D01*
X206456529Y-110572054D01*
X206447889Y-110513810D01*
X206445000Y-110455000D01*
X206445000Y-109255000D01*
X206447889Y-109196190D01*
X206456529Y-109137946D01*
X206470836Y-109080829D01*
X206490672Y-109025390D01*
X206515847Y-108972162D01*
X206546118Y-108921658D01*
X206581194Y-108874364D01*
X206620736Y-108830736D01*
X206664364Y-108791194D01*
X206711658Y-108756118D01*
X206762162Y-108725847D01*
X206815390Y-108700672D01*
X206870829Y-108680836D01*
X206927946Y-108666529D01*
X206986190Y-108657889D01*
X207045000Y-108655000D01*
X208245000Y-108655000D01*
X208303810Y-108657889D01*
X208303810Y-108657889D01*
G37*
D11*
X207645000Y-109855000D03*
G04 #@! TD*
D15*
G04 #@! TO.C,J1*
X240790000Y-62008000D03*
X249430000Y-62008000D03*
D16*
X240790000Y-67368000D03*
X249430000Y-67368000D03*
G04 #@! TD*
D12*
G04 #@! TO.C,TP1*
G36*
X261262810Y-69414889D02*
X261321054Y-69423529D01*
X261378171Y-69437836D01*
X261433610Y-69457672D01*
X261486838Y-69482847D01*
X261537342Y-69513118D01*
X261584636Y-69548194D01*
X261628264Y-69587736D01*
X261667806Y-69631364D01*
X261702882Y-69678658D01*
X261733153Y-69729162D01*
X261758328Y-69782390D01*
X261778164Y-69837829D01*
X261792471Y-69894946D01*
X261801111Y-69953190D01*
X261804000Y-70012000D01*
X261804000Y-71212000D01*
X261801111Y-71270810D01*
X261792471Y-71329054D01*
X261778164Y-71386171D01*
X261758328Y-71441610D01*
X261733153Y-71494838D01*
X261702882Y-71545342D01*
X261667806Y-71592636D01*
X261628264Y-71636264D01*
X261584636Y-71675806D01*
X261537342Y-71710882D01*
X261486838Y-71741153D01*
X261433610Y-71766328D01*
X261378171Y-71786164D01*
X261321054Y-71800471D01*
X261262810Y-71809111D01*
X261204000Y-71812000D01*
X260004000Y-71812000D01*
X259945190Y-71809111D01*
X259886946Y-71800471D01*
X259829829Y-71786164D01*
X259774390Y-71766328D01*
X259721162Y-71741153D01*
X259670658Y-71710882D01*
X259623364Y-71675806D01*
X259579736Y-71636264D01*
X259540194Y-71592636D01*
X259505118Y-71545342D01*
X259474847Y-71494838D01*
X259449672Y-71441610D01*
X259429836Y-71386171D01*
X259415529Y-71329054D01*
X259406889Y-71270810D01*
X259404000Y-71212000D01*
X259404000Y-70012000D01*
X259406889Y-69953190D01*
X259415529Y-69894946D01*
X259429836Y-69837829D01*
X259449672Y-69782390D01*
X259474847Y-69729162D01*
X259505118Y-69678658D01*
X259540194Y-69631364D01*
X259579736Y-69587736D01*
X259623364Y-69548194D01*
X259670658Y-69513118D01*
X259721162Y-69482847D01*
X259774390Y-69457672D01*
X259829829Y-69437836D01*
X259886946Y-69423529D01*
X259945190Y-69414889D01*
X260004000Y-69412000D01*
X261204000Y-69412000D01*
X261262810Y-69414889D01*
X261262810Y-69414889D01*
G37*
D11*
X260604000Y-70612000D03*
G04 #@! TD*
D12*
G04 #@! TO.C,TP4*
G36*
X261262810Y-76933289D02*
X261321054Y-76941929D01*
X261378171Y-76956236D01*
X261433610Y-76976072D01*
X261486838Y-77001247D01*
X261537342Y-77031518D01*
X261584636Y-77066594D01*
X261628264Y-77106136D01*
X261667806Y-77149764D01*
X261702882Y-77197058D01*
X261733153Y-77247562D01*
X261758328Y-77300790D01*
X261778164Y-77356229D01*
X261792471Y-77413346D01*
X261801111Y-77471590D01*
X261804000Y-77530400D01*
X261804000Y-78730400D01*
X261801111Y-78789210D01*
X261792471Y-78847454D01*
X261778164Y-78904571D01*
X261758328Y-78960010D01*
X261733153Y-79013238D01*
X261702882Y-79063742D01*
X261667806Y-79111036D01*
X261628264Y-79154664D01*
X261584636Y-79194206D01*
X261537342Y-79229282D01*
X261486838Y-79259553D01*
X261433610Y-79284728D01*
X261378171Y-79304564D01*
X261321054Y-79318871D01*
X261262810Y-79327511D01*
X261204000Y-79330400D01*
X260004000Y-79330400D01*
X259945190Y-79327511D01*
X259886946Y-79318871D01*
X259829829Y-79304564D01*
X259774390Y-79284728D01*
X259721162Y-79259553D01*
X259670658Y-79229282D01*
X259623364Y-79194206D01*
X259579736Y-79154664D01*
X259540194Y-79111036D01*
X259505118Y-79063742D01*
X259474847Y-79013238D01*
X259449672Y-78960010D01*
X259429836Y-78904571D01*
X259415529Y-78847454D01*
X259406889Y-78789210D01*
X259404000Y-78730400D01*
X259404000Y-77530400D01*
X259406889Y-77471590D01*
X259415529Y-77413346D01*
X259429836Y-77356229D01*
X259449672Y-77300790D01*
X259474847Y-77247562D01*
X259505118Y-77197058D01*
X259540194Y-77149764D01*
X259579736Y-77106136D01*
X259623364Y-77066594D01*
X259670658Y-77031518D01*
X259721162Y-77001247D01*
X259774390Y-76976072D01*
X259829829Y-76956236D01*
X259886946Y-76941929D01*
X259945190Y-76933289D01*
X260004000Y-76930400D01*
X261204000Y-76930400D01*
X261262810Y-76933289D01*
X261262810Y-76933289D01*
G37*
D11*
X260604000Y-78130400D03*
G04 #@! TD*
G04 #@! TO.C,JP3*
X234950000Y-109855000D03*
X232410000Y-107315000D03*
D12*
G36*
X233068810Y-108657889D02*
X233127054Y-108666529D01*
X233184171Y-108680836D01*
X233239610Y-108700672D01*
X233292838Y-108725847D01*
X233343342Y-108756118D01*
X233390636Y-108791194D01*
X233434264Y-108830736D01*
X233473806Y-108874364D01*
X233508882Y-108921658D01*
X233539153Y-108972162D01*
X233564328Y-109025390D01*
X233584164Y-109080829D01*
X233598471Y-109137946D01*
X233607111Y-109196190D01*
X233610000Y-109255000D01*
X233610000Y-110455000D01*
X233607111Y-110513810D01*
X233598471Y-110572054D01*
X233584164Y-110629171D01*
X233564328Y-110684610D01*
X233539153Y-110737838D01*
X233508882Y-110788342D01*
X233473806Y-110835636D01*
X233434264Y-110879264D01*
X233390636Y-110918806D01*
X233343342Y-110953882D01*
X233292838Y-110984153D01*
X233239610Y-111009328D01*
X233184171Y-111029164D01*
X233127054Y-111043471D01*
X233068810Y-111052111D01*
X233010000Y-111055000D01*
X231810000Y-111055000D01*
X231751190Y-111052111D01*
X231692946Y-111043471D01*
X231635829Y-111029164D01*
X231580390Y-111009328D01*
X231527162Y-110984153D01*
X231476658Y-110953882D01*
X231429364Y-110918806D01*
X231385736Y-110879264D01*
X231346194Y-110835636D01*
X231311118Y-110788342D01*
X231280847Y-110737838D01*
X231255672Y-110684610D01*
X231235836Y-110629171D01*
X231221529Y-110572054D01*
X231212889Y-110513810D01*
X231210000Y-110455000D01*
X231210000Y-109255000D01*
X231212889Y-109196190D01*
X231221529Y-109137946D01*
X231235836Y-109080829D01*
X231255672Y-109025390D01*
X231280847Y-108972162D01*
X231311118Y-108921658D01*
X231346194Y-108874364D01*
X231385736Y-108830736D01*
X231429364Y-108791194D01*
X231476658Y-108756118D01*
X231527162Y-108725847D01*
X231580390Y-108700672D01*
X231635829Y-108680836D01*
X231692946Y-108666529D01*
X231751190Y-108657889D01*
X231810000Y-108655000D01*
X233010000Y-108655000D01*
X233068810Y-108657889D01*
X233068810Y-108657889D01*
G37*
D11*
X232410000Y-109855000D03*
G04 #@! TD*
M02*
