G04 #@! TF.GenerationSoftware,KiCad,Pcbnew,(5.0.0)*
G04 #@! TF.CreationDate,2020-04-23T16:21:58-04:00*
G04 #@! TF.ProjectId,Lighting,4C69676874696E672E6B696361645F70,1*
G04 #@! TF.SameCoordinates,Original*
G04 #@! TF.FileFunction,Legend,Top*
G04 #@! TF.FilePolarity,Positive*
%FSLAX46Y46*%
G04 Gerber Fmt 4.6, Leading zero omitted, Abs format (unit mm)*
G04 Created by KiCad (PCBNEW (5.0.0)) date 04/23/20 16:21:58*
%MOMM*%
%LPD*%
G01*
G04 APERTURE LIST*
%ADD10C,0.180000*%
%ADD11C,0.150000*%
%ADD12C,0.120000*%
%ADD13C,0.152400*%
%ADD14C,0.127000*%
%ADD15C,0.200000*%
%ADD16C,0.160000*%
G04 APERTURE END LIST*
D10*
X240728666Y-118832380D02*
X241062000Y-119832380D01*
X241395333Y-118832380D01*
X242300095Y-119737142D02*
X242252476Y-119784761D01*
X242109619Y-119832380D01*
X242014380Y-119832380D01*
X241871523Y-119784761D01*
X241776285Y-119689523D01*
X241728666Y-119594285D01*
X241681047Y-119403809D01*
X241681047Y-119260952D01*
X241728666Y-119070476D01*
X241776285Y-118975238D01*
X241871523Y-118880000D01*
X242014380Y-118832380D01*
X242109619Y-118832380D01*
X242252476Y-118880000D01*
X242300095Y-118927619D01*
X243300095Y-119737142D02*
X243252476Y-119784761D01*
X243109619Y-119832380D01*
X243014380Y-119832380D01*
X242871523Y-119784761D01*
X242776285Y-119689523D01*
X242728666Y-119594285D01*
X242681047Y-119403809D01*
X242681047Y-119260952D01*
X242728666Y-119070476D01*
X242776285Y-118975238D01*
X242871523Y-118880000D01*
X243014380Y-118832380D01*
X243109619Y-118832380D01*
X243252476Y-118880000D01*
X243300095Y-118927619D01*
X229171523Y-80351380D02*
X228695333Y-80351380D01*
X228647714Y-80827571D01*
X228695333Y-80779952D01*
X228790571Y-80732333D01*
X229028666Y-80732333D01*
X229123904Y-80779952D01*
X229171523Y-80827571D01*
X229219142Y-80922809D01*
X229219142Y-81160904D01*
X229171523Y-81256142D01*
X229123904Y-81303761D01*
X229028666Y-81351380D01*
X228790571Y-81351380D01*
X228695333Y-81303761D01*
X228647714Y-81256142D01*
X229504857Y-80351380D02*
X229838190Y-81351380D01*
X230171523Y-80351380D01*
D11*
G04 #@! TO.C,D5*
X228566000Y-99060000D02*
X231614000Y-99060000D01*
X228566000Y-101092000D02*
X231614000Y-101092000D01*
X228566000Y-99060000D02*
X228566000Y-101092000D01*
G04 #@! TO.C,D6*
X262436017Y-107574488D02*
X262436017Y-104526488D01*
X264468017Y-107574488D02*
X264468017Y-104526488D01*
X262436017Y-107574488D02*
X264468017Y-107574488D01*
G04 #@! TO.C,D7*
X215265000Y-92583000D02*
X215265000Y-88773000D01*
X211455000Y-92583000D02*
X215265000Y-92583000D01*
X211455000Y-88773000D02*
X211455000Y-92583000D01*
G04 #@! TO.C,D8*
X236742967Y-70886171D02*
X236742967Y-67838171D01*
X238774967Y-70886171D02*
X238774967Y-67838171D01*
X236742967Y-70886171D02*
X238774967Y-70886171D01*
G04 #@! TO.C,Q1*
X216027000Y-102870000D02*
X216027000Y-110109000D01*
X210693000Y-102870000D02*
X210693000Y-110109000D01*
D12*
G04 #@! TO.C,R1*
X244103000Y-86645000D02*
X244103000Y-85445000D01*
X245863000Y-85445000D02*
X245863000Y-86645000D01*
G04 #@! TO.C,R2*
X256154920Y-65605640D02*
X256154920Y-64405640D01*
X257914920Y-64405640D02*
X257914920Y-65605640D01*
G04 #@! TO.C,R3*
X259964920Y-65605640D02*
X259964920Y-64405640D01*
X261724920Y-64405640D02*
X261724920Y-65605640D01*
G04 #@! TO.C,R4*
X255011920Y-83380640D02*
X255011920Y-82180640D01*
X256771920Y-82180640D02*
X256771920Y-83380640D01*
G04 #@! TO.C,R5*
X260722000Y-82180640D02*
X260722000Y-83380640D01*
X258962000Y-83380640D02*
X258962000Y-82180640D01*
G04 #@! TO.C,R6*
X256154920Y-70685640D02*
X256154920Y-69485640D01*
X257914920Y-69485640D02*
X257914920Y-70685640D01*
G04 #@! TO.C,R7*
X261724920Y-69546640D02*
X261724920Y-70746640D01*
X259964920Y-70746640D02*
X259964920Y-69546640D01*
G04 #@! TO.C,R13*
X235865000Y-100956000D02*
X234665000Y-100956000D01*
X234665000Y-99196000D02*
X235865000Y-99196000D01*
G04 #@! TO.C,R17*
X240818000Y-115815000D02*
X239618000Y-115815000D01*
X239618000Y-114055000D02*
X240818000Y-114055000D01*
G04 #@! TO.C,R18*
X215675090Y-116769116D02*
X210475090Y-116769116D01*
X210475090Y-113129116D02*
X215675090Y-113129116D01*
G04 #@! TO.C,R19*
X226490000Y-116755000D02*
X221290000Y-116755000D01*
X221290000Y-113115000D02*
X226490000Y-113115000D01*
G04 #@! TO.C,R20*
X259343000Y-106015488D02*
X259343000Y-104815488D01*
X261103000Y-104815488D02*
X261103000Y-106015488D01*
G04 #@! TO.C,R21*
X215675090Y-122470000D02*
X210475090Y-122470000D01*
X210475090Y-118830000D02*
X215675090Y-118830000D01*
G04 #@! TO.C,R22*
X226490000Y-122470000D02*
X221290000Y-122470000D01*
X221290000Y-118830000D02*
X226490000Y-118830000D01*
G04 #@! TO.C,R23*
X234338967Y-69520171D02*
X234338967Y-68320171D01*
X236098967Y-68320171D02*
X236098967Y-69520171D01*
G04 #@! TO.C,Y1*
X236288000Y-94932000D02*
X236288000Y-91277000D01*
X236288000Y-91277000D02*
X232088000Y-91277000D01*
D13*
G04 #@! TO.C,U4*
X221907100Y-105829100D02*
X221907100Y-111379000D01*
X227164900Y-110070900D02*
X227164900Y-105829100D01*
D14*
G04 #@! TO.C,J2*
X265730000Y-91923000D02*
X263530000Y-91923000D01*
X265730000Y-100863000D02*
X263530000Y-100863000D01*
X269200000Y-100863000D02*
X269200000Y-91923000D01*
G04 #@! TO.C,J1*
X249580000Y-60238000D02*
X240640000Y-60238000D01*
X249580000Y-63708000D02*
X249580000Y-65908000D01*
X240640000Y-63708000D02*
X240640000Y-65908000D01*
G04 #@! TO.C,R11*
X232562400Y-81915000D02*
X232562400Y-74295000D01*
X238912400Y-81915000D02*
X238912400Y-74295000D01*
G04 #@! TO.C,R16*
X253362000Y-95832000D02*
X256622000Y-95832000D01*
X253362000Y-93652000D02*
X256622000Y-93652000D01*
D11*
G04 #@! TO.C,D1*
X254841920Y-79671640D02*
X254841920Y-77639640D01*
X254841920Y-77639640D02*
X251793920Y-77639640D01*
X254841920Y-79671640D02*
X251793920Y-79671640D01*
G04 #@! TO.C,D2*
X263003920Y-72051640D02*
X263003920Y-69003640D01*
X265035920Y-72051640D02*
X265035920Y-69003640D01*
X263003920Y-72051640D02*
X265035920Y-72051640D01*
G04 #@! TO.C,D3*
X252208920Y-72017640D02*
X254240920Y-72017640D01*
X254240920Y-72017640D02*
X254240920Y-68969640D01*
X252208920Y-72017640D02*
X252208920Y-68969640D01*
G04 #@! TO.C,D4*
X254841920Y-75861640D02*
X251793920Y-75861640D01*
X254841920Y-73829640D02*
X251793920Y-73829640D01*
X254841920Y-75861640D02*
X254841920Y-73829640D01*
D12*
G04 #@! TO.C,R8*
X248429920Y-79535640D02*
X247229920Y-79535640D01*
X247229920Y-77775640D02*
X248429920Y-77775640D01*
G04 #@! TO.C,R9*
X264899920Y-64405640D02*
X264899920Y-65605640D01*
X263139920Y-65605640D02*
X263139920Y-64405640D01*
G04 #@! TO.C,R10*
X252344920Y-65605640D02*
X252344920Y-64405640D01*
X254104920Y-64405640D02*
X254104920Y-65605640D01*
G04 #@! TO.C,R12*
X247229920Y-73965640D02*
X248429920Y-73965640D01*
X248429920Y-75725640D02*
X247229920Y-75725640D01*
G04 #@! TO.C,R14*
X263292920Y-74177000D02*
X264492920Y-74177000D01*
X264492920Y-75937000D02*
X263292920Y-75937000D01*
G04 #@! TO.C,R15*
X264492920Y-79535640D02*
X263292920Y-79535640D01*
X263292920Y-77775640D02*
X264492920Y-77775640D01*
D14*
G04 #@! TO.C,U2*
X259931920Y-77315640D02*
X259931920Y-77615640D01*
X259931920Y-77615640D02*
X259631920Y-77615640D01*
X257231920Y-77615640D02*
X256931920Y-77615640D01*
X256931920Y-77615640D02*
X256931920Y-77315640D01*
X256931920Y-74915640D02*
X256931920Y-74615640D01*
X256931920Y-74615640D02*
X257231920Y-74615640D01*
X259631920Y-74615640D02*
X259931920Y-74615640D01*
X259931920Y-74615640D02*
X259931920Y-74915640D01*
D15*
X260931920Y-77115640D02*
G75*
G03X260931920Y-77115640I-100000J0D01*
G01*
D13*
G04 #@! TO.C,U3*
X245389400Y-103225600D02*
X242290600Y-103225600D01*
X242290600Y-106324400D02*
X243535200Y-106324400D01*
X243535200Y-106324400D02*
X244144800Y-106324400D01*
X244144800Y-106324400D02*
X246634000Y-106324400D01*
X243535200Y-106324400D02*
G75*
G02X244144800Y-106324400I304800J0D01*
G01*
D15*
G04 #@! TO.C,U5*
X239625000Y-107721000D02*
G75*
G03X239625000Y-107721000I-100000J0D01*
G01*
D14*
X241840000Y-107706000D02*
X245840000Y-107706000D01*
X241840000Y-112766000D02*
X245840000Y-112766000D01*
G04 #@! TO.C,U1*
X240515000Y-89104000D02*
X247165000Y-89104000D01*
X247165000Y-89104000D02*
X247165000Y-101904000D01*
X247165000Y-101904000D02*
X240515000Y-101904000D01*
X240515000Y-101904000D02*
X240515000Y-89104000D01*
X239300553Y-88196000D02*
G75*
G03X239300553Y-88196000I-360553J0D01*
G01*
X239222841Y-88196000D02*
G75*
G03X239222841Y-88196000I-282841J0D01*
G01*
X239240000Y-88196000D02*
G75*
G03X239240000Y-88196000I-200000J0D01*
G01*
X239163606Y-88196000D02*
G75*
G03X239163606Y-88196000I-223606J0D01*
G01*
X239140000Y-88196000D02*
G75*
G03X239140000Y-88196000I-100000J0D01*
G01*
X239140000Y-88296000D02*
G75*
G03X239140000Y-88296000I-100000J0D01*
G01*
G04 #@! TO.C,C12*
D16*
X248642142Y-111273857D02*
X248689761Y-111321476D01*
X248737380Y-111464333D01*
X248737380Y-111559571D01*
X248689761Y-111702428D01*
X248594523Y-111797666D01*
X248499285Y-111845285D01*
X248308809Y-111892904D01*
X248165952Y-111892904D01*
X247975476Y-111845285D01*
X247880238Y-111797666D01*
X247785000Y-111702428D01*
X247737380Y-111559571D01*
X247737380Y-111464333D01*
X247785000Y-111321476D01*
X247832619Y-111273857D01*
X248737380Y-110321476D02*
X248737380Y-110892904D01*
X248737380Y-110607190D02*
X247737380Y-110607190D01*
X247880238Y-110702428D01*
X247975476Y-110797666D01*
X248023095Y-110892904D01*
X247832619Y-109940523D02*
X247785000Y-109892904D01*
X247737380Y-109797666D01*
X247737380Y-109559571D01*
X247785000Y-109464333D01*
X247832619Y-109416714D01*
X247927857Y-109369095D01*
X248023095Y-109369095D01*
X248165952Y-109416714D01*
X248737380Y-109988142D01*
X248737380Y-109369095D01*
G04 #@! TO.C,D5*
D11*
X229859904Y-102306380D02*
X229859904Y-101306380D01*
X230098000Y-101306380D01*
X230240857Y-101354000D01*
X230336095Y-101449238D01*
X230383714Y-101544476D01*
X230431333Y-101734952D01*
X230431333Y-101877809D01*
X230383714Y-102068285D01*
X230336095Y-102163523D01*
X230240857Y-102258761D01*
X230098000Y-102306380D01*
X229859904Y-102306380D01*
X231336095Y-101306380D02*
X230859904Y-101306380D01*
X230812285Y-101782571D01*
X230859904Y-101734952D01*
X230955142Y-101687333D01*
X231193238Y-101687333D01*
X231288476Y-101734952D01*
X231336095Y-101782571D01*
X231383714Y-101877809D01*
X231383714Y-102115904D01*
X231336095Y-102211142D01*
X231288476Y-102258761D01*
X231193238Y-102306380D01*
X230955142Y-102306380D01*
X230859904Y-102258761D01*
X230812285Y-102211142D01*
G04 #@! TO.C,D6*
X265882380Y-106280583D02*
X264882380Y-106280583D01*
X264882380Y-106042488D01*
X264930000Y-105899630D01*
X265025238Y-105804392D01*
X265120476Y-105756773D01*
X265310952Y-105709154D01*
X265453809Y-105709154D01*
X265644285Y-105756773D01*
X265739523Y-105804392D01*
X265834761Y-105899630D01*
X265882380Y-106042488D01*
X265882380Y-106280583D01*
X264882380Y-104852011D02*
X264882380Y-105042488D01*
X264930000Y-105137726D01*
X264977619Y-105185345D01*
X265120476Y-105280583D01*
X265310952Y-105328202D01*
X265691904Y-105328202D01*
X265787142Y-105280583D01*
X265834761Y-105232964D01*
X265882380Y-105137726D01*
X265882380Y-104947249D01*
X265834761Y-104852011D01*
X265787142Y-104804392D01*
X265691904Y-104756773D01*
X265453809Y-104756773D01*
X265358571Y-104804392D01*
X265310952Y-104852011D01*
X265263333Y-104947249D01*
X265263333Y-105137726D01*
X265310952Y-105232964D01*
X265358571Y-105280583D01*
X265453809Y-105328202D01*
G04 #@! TO.C,D7*
X210891380Y-92051095D02*
X209891380Y-92051095D01*
X209891380Y-91813000D01*
X209939000Y-91670142D01*
X210034238Y-91574904D01*
X210129476Y-91527285D01*
X210319952Y-91479666D01*
X210462809Y-91479666D01*
X210653285Y-91527285D01*
X210748523Y-91574904D01*
X210843761Y-91670142D01*
X210891380Y-91813000D01*
X210891380Y-92051095D01*
X209891380Y-91146333D02*
X209891380Y-90479666D01*
X210891380Y-90908238D01*
G04 #@! TO.C,D8*
X236044347Y-69592266D02*
X235044347Y-69592266D01*
X235044347Y-69354171D01*
X235091967Y-69211313D01*
X235187205Y-69116075D01*
X235282443Y-69068456D01*
X235472919Y-69020837D01*
X235615776Y-69020837D01*
X235806252Y-69068456D01*
X235901490Y-69116075D01*
X235996728Y-69211313D01*
X236044347Y-69354171D01*
X236044347Y-69592266D01*
X235472919Y-68449409D02*
X235425300Y-68544647D01*
X235377681Y-68592266D01*
X235282443Y-68639885D01*
X235234824Y-68639885D01*
X235139586Y-68592266D01*
X235091967Y-68544647D01*
X235044347Y-68449409D01*
X235044347Y-68258932D01*
X235091967Y-68163694D01*
X235139586Y-68116075D01*
X235234824Y-68068456D01*
X235282443Y-68068456D01*
X235377681Y-68116075D01*
X235425300Y-68163694D01*
X235472919Y-68258932D01*
X235472919Y-68449409D01*
X235520538Y-68544647D01*
X235568157Y-68592266D01*
X235663395Y-68639885D01*
X235853871Y-68639885D01*
X235949109Y-68592266D01*
X235996728Y-68544647D01*
X236044347Y-68449409D01*
X236044347Y-68258932D01*
X235996728Y-68163694D01*
X235949109Y-68116075D01*
X235853871Y-68068456D01*
X235663395Y-68068456D01*
X235568157Y-68116075D01*
X235520538Y-68163694D01*
X235472919Y-68258932D01*
G04 #@! TO.C,JP1*
X249769380Y-87828333D02*
X250483666Y-87828333D01*
X250626523Y-87875952D01*
X250721761Y-87971190D01*
X250769380Y-88114047D01*
X250769380Y-88209285D01*
X250769380Y-87352142D02*
X249769380Y-87352142D01*
X249769380Y-86971190D01*
X249817000Y-86875952D01*
X249864619Y-86828333D01*
X249959857Y-86780714D01*
X250102714Y-86780714D01*
X250197952Y-86828333D01*
X250245571Y-86875952D01*
X250293190Y-86971190D01*
X250293190Y-87352142D01*
X250769380Y-85828333D02*
X250769380Y-86399761D01*
X250769380Y-86114047D02*
X249769380Y-86114047D01*
X249912238Y-86209285D01*
X250007476Y-86304523D01*
X250055095Y-86399761D01*
G04 #@! TO.C,JP2*
X236021666Y-121372380D02*
X236021666Y-122086666D01*
X235974047Y-122229523D01*
X235878809Y-122324761D01*
X235735952Y-122372380D01*
X235640714Y-122372380D01*
X236497857Y-122372380D02*
X236497857Y-121372380D01*
X236878809Y-121372380D01*
X236974047Y-121420000D01*
X237021666Y-121467619D01*
X237069285Y-121562857D01*
X237069285Y-121705714D01*
X237021666Y-121800952D01*
X236974047Y-121848571D01*
X236878809Y-121896190D01*
X236497857Y-121896190D01*
X237450238Y-121467619D02*
X237497857Y-121420000D01*
X237593095Y-121372380D01*
X237831190Y-121372380D01*
X237926428Y-121420000D01*
X237974047Y-121467619D01*
X238021666Y-121562857D01*
X238021666Y-121658095D01*
X237974047Y-121800952D01*
X237402619Y-122372380D01*
X238021666Y-122372380D01*
G04 #@! TO.C,JP3*
X232846666Y-111085380D02*
X232846666Y-111799666D01*
X232799047Y-111942523D01*
X232703809Y-112037761D01*
X232560952Y-112085380D01*
X232465714Y-112085380D01*
X233322857Y-112085380D02*
X233322857Y-111085380D01*
X233703809Y-111085380D01*
X233799047Y-111133000D01*
X233846666Y-111180619D01*
X233894285Y-111275857D01*
X233894285Y-111418714D01*
X233846666Y-111513952D01*
X233799047Y-111561571D01*
X233703809Y-111609190D01*
X233322857Y-111609190D01*
X234227619Y-111085380D02*
X234846666Y-111085380D01*
X234513333Y-111466333D01*
X234656190Y-111466333D01*
X234751428Y-111513952D01*
X234799047Y-111561571D01*
X234846666Y-111656809D01*
X234846666Y-111894904D01*
X234799047Y-111990142D01*
X234751428Y-112037761D01*
X234656190Y-112085380D01*
X234370476Y-112085380D01*
X234275238Y-112037761D01*
X234227619Y-111990142D01*
G04 #@! TO.C,JP4*
X232846666Y-102931980D02*
X232846666Y-103646266D01*
X232799047Y-103789123D01*
X232703809Y-103884361D01*
X232560952Y-103931980D01*
X232465714Y-103931980D01*
X233322857Y-103931980D02*
X233322857Y-102931980D01*
X233703809Y-102931980D01*
X233799047Y-102979600D01*
X233846666Y-103027219D01*
X233894285Y-103122457D01*
X233894285Y-103265314D01*
X233846666Y-103360552D01*
X233799047Y-103408171D01*
X233703809Y-103455790D01*
X233322857Y-103455790D01*
X234751428Y-103265314D02*
X234751428Y-103931980D01*
X234513333Y-102884361D02*
X234275238Y-103598647D01*
X234894285Y-103598647D01*
G04 #@! TO.C,JP5*
X226934780Y-78303333D02*
X227649066Y-78303333D01*
X227791923Y-78350952D01*
X227887161Y-78446190D01*
X227934780Y-78589047D01*
X227934780Y-78684285D01*
X227934780Y-77827142D02*
X226934780Y-77827142D01*
X226934780Y-77446190D01*
X226982400Y-77350952D01*
X227030019Y-77303333D01*
X227125257Y-77255714D01*
X227268114Y-77255714D01*
X227363352Y-77303333D01*
X227410971Y-77350952D01*
X227458590Y-77446190D01*
X227458590Y-77827142D01*
X226934780Y-76350952D02*
X226934780Y-76827142D01*
X227410971Y-76874761D01*
X227363352Y-76827142D01*
X227315733Y-76731904D01*
X227315733Y-76493809D01*
X227363352Y-76398571D01*
X227410971Y-76350952D01*
X227506209Y-76303333D01*
X227744304Y-76303333D01*
X227839542Y-76350952D01*
X227887161Y-76398571D01*
X227934780Y-76493809D01*
X227934780Y-76731904D01*
X227887161Y-76827142D01*
X227839542Y-76874761D01*
G04 #@! TO.C,Q1*
X210605619Y-103981238D02*
X210558000Y-104076476D01*
X210462761Y-104171714D01*
X210319904Y-104314571D01*
X210272285Y-104409809D01*
X210272285Y-104505047D01*
X210510380Y-104457428D02*
X210462761Y-104552666D01*
X210367523Y-104647904D01*
X210177047Y-104695523D01*
X209843714Y-104695523D01*
X209653238Y-104647904D01*
X209558000Y-104552666D01*
X209510380Y-104457428D01*
X209510380Y-104266952D01*
X209558000Y-104171714D01*
X209653238Y-104076476D01*
X209843714Y-104028857D01*
X210177047Y-104028857D01*
X210367523Y-104076476D01*
X210462761Y-104171714D01*
X210510380Y-104266952D01*
X210510380Y-104457428D01*
X210510380Y-103076476D02*
X210510380Y-103647904D01*
X210510380Y-103362190D02*
X209510380Y-103362190D01*
X209653238Y-103457428D01*
X209748476Y-103552666D01*
X209796095Y-103647904D01*
G04 #@! TO.C,R1*
X243784380Y-86084666D02*
X243308190Y-86418000D01*
X243784380Y-86656095D02*
X242784380Y-86656095D01*
X242784380Y-86275142D01*
X242832000Y-86179904D01*
X242879619Y-86132285D01*
X242974857Y-86084666D01*
X243117714Y-86084666D01*
X243212952Y-86132285D01*
X243260571Y-86179904D01*
X243308190Y-86275142D01*
X243308190Y-86656095D01*
X243784380Y-85132285D02*
X243784380Y-85703714D01*
X243784380Y-85418000D02*
X242784380Y-85418000D01*
X242927238Y-85513238D01*
X243022476Y-85608476D01*
X243070095Y-85703714D01*
G04 #@! TO.C,R2*
X255828300Y-65172306D02*
X255352110Y-65505640D01*
X255828300Y-65743735D02*
X254828300Y-65743735D01*
X254828300Y-65362782D01*
X254875920Y-65267544D01*
X254923539Y-65219925D01*
X255018777Y-65172306D01*
X255161634Y-65172306D01*
X255256872Y-65219925D01*
X255304491Y-65267544D01*
X255352110Y-65362782D01*
X255352110Y-65743735D01*
X254923539Y-64791354D02*
X254875920Y-64743735D01*
X254828300Y-64648497D01*
X254828300Y-64410401D01*
X254875920Y-64315163D01*
X254923539Y-64267544D01*
X255018777Y-64219925D01*
X255114015Y-64219925D01*
X255256872Y-64267544D01*
X255828300Y-64838973D01*
X255828300Y-64219925D01*
G04 #@! TO.C,R3*
X259638300Y-65172306D02*
X259162110Y-65505640D01*
X259638300Y-65743735D02*
X258638300Y-65743735D01*
X258638300Y-65362782D01*
X258685920Y-65267544D01*
X258733539Y-65219925D01*
X258828777Y-65172306D01*
X258971634Y-65172306D01*
X259066872Y-65219925D01*
X259114491Y-65267544D01*
X259162110Y-65362782D01*
X259162110Y-65743735D01*
X258638300Y-64838973D02*
X258638300Y-64219925D01*
X259019253Y-64553259D01*
X259019253Y-64410401D01*
X259066872Y-64315163D01*
X259114491Y-64267544D01*
X259209729Y-64219925D01*
X259447824Y-64219925D01*
X259543062Y-64267544D01*
X259590681Y-64315163D01*
X259638300Y-64410401D01*
X259638300Y-64696116D01*
X259590681Y-64791354D01*
X259543062Y-64838973D01*
G04 #@! TO.C,R4*
X254685300Y-82947306D02*
X254209110Y-83280640D01*
X254685300Y-83518735D02*
X253685300Y-83518735D01*
X253685300Y-83137782D01*
X253732920Y-83042544D01*
X253780539Y-82994925D01*
X253875777Y-82947306D01*
X254018634Y-82947306D01*
X254113872Y-82994925D01*
X254161491Y-83042544D01*
X254209110Y-83137782D01*
X254209110Y-83518735D01*
X254018634Y-82090163D02*
X254685300Y-82090163D01*
X253637681Y-82328259D02*
X254351967Y-82566354D01*
X254351967Y-81947306D01*
G04 #@! TO.C,R5*
X258402460Y-82947306D02*
X257926270Y-83280640D01*
X258402460Y-83518735D02*
X257402460Y-83518735D01*
X257402460Y-83137782D01*
X257450080Y-83042544D01*
X257497699Y-82994925D01*
X257592937Y-82947306D01*
X257735794Y-82947306D01*
X257831032Y-82994925D01*
X257878651Y-83042544D01*
X257926270Y-83137782D01*
X257926270Y-83518735D01*
X257402460Y-82042544D02*
X257402460Y-82518735D01*
X257878651Y-82566354D01*
X257831032Y-82518735D01*
X257783413Y-82423497D01*
X257783413Y-82185401D01*
X257831032Y-82090163D01*
X257878651Y-82042544D01*
X257973889Y-81994925D01*
X258211984Y-81994925D01*
X258307222Y-82042544D01*
X258354841Y-82090163D01*
X258402460Y-82185401D01*
X258402460Y-82423497D01*
X258354841Y-82518735D01*
X258307222Y-82566354D01*
G04 #@! TO.C,R6*
X255828300Y-70252306D02*
X255352110Y-70585640D01*
X255828300Y-70823735D02*
X254828300Y-70823735D01*
X254828300Y-70442782D01*
X254875920Y-70347544D01*
X254923539Y-70299925D01*
X255018777Y-70252306D01*
X255161634Y-70252306D01*
X255256872Y-70299925D01*
X255304491Y-70347544D01*
X255352110Y-70442782D01*
X255352110Y-70823735D01*
X254828300Y-69395163D02*
X254828300Y-69585640D01*
X254875920Y-69680878D01*
X254923539Y-69728497D01*
X255066396Y-69823735D01*
X255256872Y-69871354D01*
X255637824Y-69871354D01*
X255733062Y-69823735D01*
X255780681Y-69776116D01*
X255828300Y-69680878D01*
X255828300Y-69490401D01*
X255780681Y-69395163D01*
X255733062Y-69347544D01*
X255637824Y-69299925D01*
X255399729Y-69299925D01*
X255304491Y-69347544D01*
X255256872Y-69395163D01*
X255209253Y-69490401D01*
X255209253Y-69680878D01*
X255256872Y-69776116D01*
X255304491Y-69823735D01*
X255399729Y-69871354D01*
G04 #@! TO.C,R7*
X259532380Y-70651666D02*
X259056190Y-70985000D01*
X259532380Y-71223095D02*
X258532380Y-71223095D01*
X258532380Y-70842142D01*
X258580000Y-70746904D01*
X258627619Y-70699285D01*
X258722857Y-70651666D01*
X258865714Y-70651666D01*
X258960952Y-70699285D01*
X259008571Y-70746904D01*
X259056190Y-70842142D01*
X259056190Y-71223095D01*
X258532380Y-70318333D02*
X258532380Y-69651666D01*
X259532380Y-70080238D01*
G04 #@! TO.C,R13*
X234622142Y-102187380D02*
X234288809Y-101711190D01*
X234050714Y-102187380D02*
X234050714Y-101187380D01*
X234431666Y-101187380D01*
X234526904Y-101235000D01*
X234574523Y-101282619D01*
X234622142Y-101377857D01*
X234622142Y-101520714D01*
X234574523Y-101615952D01*
X234526904Y-101663571D01*
X234431666Y-101711190D01*
X234050714Y-101711190D01*
X235574523Y-102187380D02*
X235003095Y-102187380D01*
X235288809Y-102187380D02*
X235288809Y-101187380D01*
X235193571Y-101330238D01*
X235098333Y-101425476D01*
X235003095Y-101473095D01*
X235907857Y-101187380D02*
X236526904Y-101187380D01*
X236193571Y-101568333D01*
X236336428Y-101568333D01*
X236431666Y-101615952D01*
X236479285Y-101663571D01*
X236526904Y-101758809D01*
X236526904Y-101996904D01*
X236479285Y-102092142D01*
X236431666Y-102139761D01*
X236336428Y-102187380D01*
X236050714Y-102187380D01*
X235955476Y-102139761D01*
X235907857Y-102092142D01*
G04 #@! TO.C,R17*
X239575142Y-117046380D02*
X239241809Y-116570190D01*
X239003714Y-117046380D02*
X239003714Y-116046380D01*
X239384666Y-116046380D01*
X239479904Y-116094000D01*
X239527523Y-116141619D01*
X239575142Y-116236857D01*
X239575142Y-116379714D01*
X239527523Y-116474952D01*
X239479904Y-116522571D01*
X239384666Y-116570190D01*
X239003714Y-116570190D01*
X240527523Y-117046380D02*
X239956095Y-117046380D01*
X240241809Y-117046380D02*
X240241809Y-116046380D01*
X240146571Y-116189238D01*
X240051333Y-116284476D01*
X239956095Y-116332095D01*
X240860857Y-116046380D02*
X241527523Y-116046380D01*
X241098952Y-117046380D01*
G04 #@! TO.C,R18*
X213352142Y-117927380D02*
X213018809Y-117451190D01*
X212780714Y-117927380D02*
X212780714Y-116927380D01*
X213161666Y-116927380D01*
X213256904Y-116975000D01*
X213304523Y-117022619D01*
X213352142Y-117117857D01*
X213352142Y-117260714D01*
X213304523Y-117355952D01*
X213256904Y-117403571D01*
X213161666Y-117451190D01*
X212780714Y-117451190D01*
X214304523Y-117927380D02*
X213733095Y-117927380D01*
X214018809Y-117927380D02*
X214018809Y-116927380D01*
X213923571Y-117070238D01*
X213828333Y-117165476D01*
X213733095Y-117213095D01*
X214875952Y-117355952D02*
X214780714Y-117308333D01*
X214733095Y-117260714D01*
X214685476Y-117165476D01*
X214685476Y-117117857D01*
X214733095Y-117022619D01*
X214780714Y-116975000D01*
X214875952Y-116927380D01*
X215066428Y-116927380D01*
X215161666Y-116975000D01*
X215209285Y-117022619D01*
X215256904Y-117117857D01*
X215256904Y-117165476D01*
X215209285Y-117260714D01*
X215161666Y-117308333D01*
X215066428Y-117355952D01*
X214875952Y-117355952D01*
X214780714Y-117403571D01*
X214733095Y-117451190D01*
X214685476Y-117546428D01*
X214685476Y-117736904D01*
X214733095Y-117832142D01*
X214780714Y-117879761D01*
X214875952Y-117927380D01*
X215066428Y-117927380D01*
X215161666Y-117879761D01*
X215209285Y-117832142D01*
X215256904Y-117736904D01*
X215256904Y-117546428D01*
X215209285Y-117451190D01*
X215161666Y-117403571D01*
X215066428Y-117355952D01*
G04 #@! TO.C,R19*
X224147142Y-117927380D02*
X223813809Y-117451190D01*
X223575714Y-117927380D02*
X223575714Y-116927380D01*
X223956666Y-116927380D01*
X224051904Y-116975000D01*
X224099523Y-117022619D01*
X224147142Y-117117857D01*
X224147142Y-117260714D01*
X224099523Y-117355952D01*
X224051904Y-117403571D01*
X223956666Y-117451190D01*
X223575714Y-117451190D01*
X225099523Y-117927380D02*
X224528095Y-117927380D01*
X224813809Y-117927380D02*
X224813809Y-116927380D01*
X224718571Y-117070238D01*
X224623333Y-117165476D01*
X224528095Y-117213095D01*
X225575714Y-117927380D02*
X225766190Y-117927380D01*
X225861428Y-117879761D01*
X225909047Y-117832142D01*
X226004285Y-117689285D01*
X226051904Y-117498809D01*
X226051904Y-117117857D01*
X226004285Y-117022619D01*
X225956666Y-116975000D01*
X225861428Y-116927380D01*
X225670952Y-116927380D01*
X225575714Y-116975000D01*
X225528095Y-117022619D01*
X225480476Y-117117857D01*
X225480476Y-117355952D01*
X225528095Y-117451190D01*
X225575714Y-117498809D01*
X225670952Y-117546428D01*
X225861428Y-117546428D01*
X225956666Y-117498809D01*
X226004285Y-117451190D01*
X226051904Y-117355952D01*
G04 #@! TO.C,R20*
X259016380Y-106058345D02*
X258540190Y-106391678D01*
X259016380Y-106629773D02*
X258016380Y-106629773D01*
X258016380Y-106248821D01*
X258064000Y-106153583D01*
X258111619Y-106105964D01*
X258206857Y-106058345D01*
X258349714Y-106058345D01*
X258444952Y-106105964D01*
X258492571Y-106153583D01*
X258540190Y-106248821D01*
X258540190Y-106629773D01*
X258111619Y-105677392D02*
X258064000Y-105629773D01*
X258016380Y-105534535D01*
X258016380Y-105296440D01*
X258064000Y-105201202D01*
X258111619Y-105153583D01*
X258206857Y-105105964D01*
X258302095Y-105105964D01*
X258444952Y-105153583D01*
X259016380Y-105725011D01*
X259016380Y-105105964D01*
X258016380Y-104486916D02*
X258016380Y-104391678D01*
X258064000Y-104296440D01*
X258111619Y-104248821D01*
X258206857Y-104201202D01*
X258397333Y-104153583D01*
X258635428Y-104153583D01*
X258825904Y-104201202D01*
X258921142Y-104248821D01*
X258968761Y-104296440D01*
X259016380Y-104391678D01*
X259016380Y-104486916D01*
X258968761Y-104582154D01*
X258921142Y-104629773D01*
X258825904Y-104677392D01*
X258635428Y-104725011D01*
X258397333Y-104725011D01*
X258206857Y-104677392D01*
X258111619Y-104629773D01*
X258064000Y-104582154D01*
X258016380Y-104486916D01*
G04 #@! TO.C,R21*
X212590142Y-124023380D02*
X212256809Y-123547190D01*
X212018714Y-124023380D02*
X212018714Y-123023380D01*
X212399666Y-123023380D01*
X212494904Y-123071000D01*
X212542523Y-123118619D01*
X212590142Y-123213857D01*
X212590142Y-123356714D01*
X212542523Y-123451952D01*
X212494904Y-123499571D01*
X212399666Y-123547190D01*
X212018714Y-123547190D01*
X212971095Y-123118619D02*
X213018714Y-123071000D01*
X213113952Y-123023380D01*
X213352047Y-123023380D01*
X213447285Y-123071000D01*
X213494904Y-123118619D01*
X213542523Y-123213857D01*
X213542523Y-123309095D01*
X213494904Y-123451952D01*
X212923476Y-124023380D01*
X213542523Y-124023380D01*
X214494904Y-124023380D02*
X213923476Y-124023380D01*
X214209190Y-124023380D02*
X214209190Y-123023380D01*
X214113952Y-123166238D01*
X214018714Y-123261476D01*
X213923476Y-123309095D01*
G04 #@! TO.C,R22*
X223501142Y-124150380D02*
X223167809Y-123674190D01*
X222929714Y-124150380D02*
X222929714Y-123150380D01*
X223310666Y-123150380D01*
X223405904Y-123198000D01*
X223453523Y-123245619D01*
X223501142Y-123340857D01*
X223501142Y-123483714D01*
X223453523Y-123578952D01*
X223405904Y-123626571D01*
X223310666Y-123674190D01*
X222929714Y-123674190D01*
X223882095Y-123245619D02*
X223929714Y-123198000D01*
X224024952Y-123150380D01*
X224263047Y-123150380D01*
X224358285Y-123198000D01*
X224405904Y-123245619D01*
X224453523Y-123340857D01*
X224453523Y-123436095D01*
X224405904Y-123578952D01*
X223834476Y-124150380D01*
X224453523Y-124150380D01*
X224834476Y-123245619D02*
X224882095Y-123198000D01*
X224977333Y-123150380D01*
X225215428Y-123150380D01*
X225310666Y-123198000D01*
X225358285Y-123245619D01*
X225405904Y-123340857D01*
X225405904Y-123436095D01*
X225358285Y-123578952D01*
X224786857Y-124150380D01*
X225405904Y-124150380D01*
G04 #@! TO.C,R23*
X234012347Y-69563028D02*
X233536157Y-69896361D01*
X234012347Y-70134456D02*
X233012347Y-70134456D01*
X233012347Y-69753504D01*
X233059967Y-69658266D01*
X233107586Y-69610647D01*
X233202824Y-69563028D01*
X233345681Y-69563028D01*
X233440919Y-69610647D01*
X233488538Y-69658266D01*
X233536157Y-69753504D01*
X233536157Y-70134456D01*
X233107586Y-69182075D02*
X233059967Y-69134456D01*
X233012347Y-69039218D01*
X233012347Y-68801123D01*
X233059967Y-68705885D01*
X233107586Y-68658266D01*
X233202824Y-68610647D01*
X233298062Y-68610647D01*
X233440919Y-68658266D01*
X234012347Y-69229694D01*
X234012347Y-68610647D01*
X233012347Y-68277313D02*
X233012347Y-67658266D01*
X233393300Y-67991599D01*
X233393300Y-67848742D01*
X233440919Y-67753504D01*
X233488538Y-67705885D01*
X233583776Y-67658266D01*
X233821871Y-67658266D01*
X233917109Y-67705885D01*
X233964728Y-67753504D01*
X234012347Y-67848742D01*
X234012347Y-68134456D01*
X233964728Y-68229694D01*
X233917109Y-68277313D01*
G04 #@! TO.C,RV1*
X233084761Y-116792380D02*
X232751428Y-116316190D01*
X232513333Y-116792380D02*
X232513333Y-115792380D01*
X232894285Y-115792380D01*
X232989523Y-115840000D01*
X233037142Y-115887619D01*
X233084761Y-115982857D01*
X233084761Y-116125714D01*
X233037142Y-116220952D01*
X232989523Y-116268571D01*
X232894285Y-116316190D01*
X232513333Y-116316190D01*
X233370476Y-115792380D02*
X233703809Y-116792380D01*
X234037142Y-115792380D01*
X234894285Y-116792380D02*
X234322857Y-116792380D01*
X234608571Y-116792380D02*
X234608571Y-115792380D01*
X234513333Y-115935238D01*
X234418095Y-116030476D01*
X234322857Y-116078095D01*
G04 #@! TO.C,TP1*
X204478095Y-96607380D02*
X205049523Y-96607380D01*
X204763809Y-97607380D02*
X204763809Y-96607380D01*
X205382857Y-97607380D02*
X205382857Y-96607380D01*
X205763809Y-96607380D01*
X205859047Y-96655000D01*
X205906666Y-96702619D01*
X205954285Y-96797857D01*
X205954285Y-96940714D01*
X205906666Y-97035952D01*
X205859047Y-97083571D01*
X205763809Y-97131190D01*
X205382857Y-97131190D01*
X206906666Y-97607380D02*
X206335238Y-97607380D01*
X206620952Y-97607380D02*
X206620952Y-96607380D01*
X206525714Y-96750238D01*
X206430476Y-96845476D01*
X206335238Y-96893095D01*
G04 #@! TO.C,TP2*
X234831095Y-62063380D02*
X235402523Y-62063380D01*
X235116809Y-63063380D02*
X235116809Y-62063380D01*
X235735857Y-63063380D02*
X235735857Y-62063380D01*
X236116809Y-62063380D01*
X236212047Y-62111000D01*
X236259666Y-62158619D01*
X236307285Y-62253857D01*
X236307285Y-62396714D01*
X236259666Y-62491952D01*
X236212047Y-62539571D01*
X236116809Y-62587190D01*
X235735857Y-62587190D01*
X236688238Y-62158619D02*
X236735857Y-62111000D01*
X236831095Y-62063380D01*
X237069190Y-62063380D01*
X237164428Y-62111000D01*
X237212047Y-62158619D01*
X237259666Y-62253857D01*
X237259666Y-62349095D01*
X237212047Y-62491952D01*
X236640619Y-63063380D01*
X237259666Y-63063380D01*
G04 #@! TO.C,TP3*
X230767095Y-118324380D02*
X231338523Y-118324380D01*
X231052809Y-119324380D02*
X231052809Y-118324380D01*
X231671857Y-119324380D02*
X231671857Y-118324380D01*
X232052809Y-118324380D01*
X232148047Y-118372000D01*
X232195666Y-118419619D01*
X232243285Y-118514857D01*
X232243285Y-118657714D01*
X232195666Y-118752952D01*
X232148047Y-118800571D01*
X232052809Y-118848190D01*
X231671857Y-118848190D01*
X232576619Y-118324380D02*
X233195666Y-118324380D01*
X232862333Y-118705333D01*
X233005190Y-118705333D01*
X233100428Y-118752952D01*
X233148047Y-118800571D01*
X233195666Y-118895809D01*
X233195666Y-119133904D01*
X233148047Y-119229142D01*
X233100428Y-119276761D01*
X233005190Y-119324380D01*
X232719476Y-119324380D01*
X232624238Y-119276761D01*
X232576619Y-119229142D01*
G04 #@! TO.C,TP4*
X219718095Y-80732380D02*
X220289523Y-80732380D01*
X220003809Y-81732380D02*
X220003809Y-80732380D01*
X220622857Y-81732380D02*
X220622857Y-80732380D01*
X221003809Y-80732380D01*
X221099047Y-80780000D01*
X221146666Y-80827619D01*
X221194285Y-80922857D01*
X221194285Y-81065714D01*
X221146666Y-81160952D01*
X221099047Y-81208571D01*
X221003809Y-81256190D01*
X220622857Y-81256190D01*
X222051428Y-81065714D02*
X222051428Y-81732380D01*
X221813333Y-80684761D02*
X221575238Y-81399047D01*
X222194285Y-81399047D01*
G04 #@! TO.C,Y1*
X231243190Y-94420190D02*
X231719380Y-94420190D01*
X230719380Y-94753523D02*
X231243190Y-94420190D01*
X230719380Y-94086857D01*
X231719380Y-93229714D02*
X231719380Y-93801142D01*
X231719380Y-93515428D02*
X230719380Y-93515428D01*
X230862238Y-93610666D01*
X230957476Y-93705904D01*
X231005095Y-93801142D01*
G04 #@! TO.C,Vs1*
X206430714Y-107402380D02*
X206764047Y-108402380D01*
X207097380Y-107402380D01*
X207383095Y-108354761D02*
X207478333Y-108402380D01*
X207668809Y-108402380D01*
X207764047Y-108354761D01*
X207811666Y-108259523D01*
X207811666Y-108211904D01*
X207764047Y-108116666D01*
X207668809Y-108069047D01*
X207525952Y-108069047D01*
X207430714Y-108021428D01*
X207383095Y-107926190D01*
X207383095Y-107878571D01*
X207430714Y-107783333D01*
X207525952Y-107735714D01*
X207668809Y-107735714D01*
X207764047Y-107783333D01*
X208764047Y-108402380D02*
X208192619Y-108402380D01*
X208478333Y-108402380D02*
X208478333Y-107402380D01*
X208383095Y-107545238D01*
X208287857Y-107640476D01*
X208192619Y-107688095D01*
G04 #@! TO.C,U4*
X220432380Y-111433252D02*
X221241904Y-111433252D01*
X221337142Y-111385633D01*
X221384761Y-111338014D01*
X221432380Y-111242776D01*
X221432380Y-111052300D01*
X221384761Y-110957062D01*
X221337142Y-110909443D01*
X221241904Y-110861824D01*
X220432380Y-110861824D01*
X220765714Y-109957062D02*
X221432380Y-109957062D01*
X220384761Y-110195157D02*
X221099047Y-110433252D01*
X221099047Y-109814205D01*
G04 #@! TO.C,C16*
D15*
X224401142Y-101258642D02*
X224353523Y-101306261D01*
X224210666Y-101353880D01*
X224115428Y-101353880D01*
X223972571Y-101306261D01*
X223877333Y-101211023D01*
X223829714Y-101115785D01*
X223782095Y-100925309D01*
X223782095Y-100782452D01*
X223829714Y-100591976D01*
X223877333Y-100496738D01*
X223972571Y-100401500D01*
X224115428Y-100353880D01*
X224210666Y-100353880D01*
X224353523Y-100401500D01*
X224401142Y-100449119D01*
X225353523Y-101353880D02*
X224782095Y-101353880D01*
X225067809Y-101353880D02*
X225067809Y-100353880D01*
X224972571Y-100496738D01*
X224877333Y-100591976D01*
X224782095Y-100639595D01*
X226210666Y-100353880D02*
X226020190Y-100353880D01*
X225924952Y-100401500D01*
X225877333Y-100449119D01*
X225782095Y-100591976D01*
X225734476Y-100782452D01*
X225734476Y-101163404D01*
X225782095Y-101258642D01*
X225829714Y-101306261D01*
X225924952Y-101353880D01*
X226115428Y-101353880D01*
X226210666Y-101306261D01*
X226258285Y-101258642D01*
X226305904Y-101163404D01*
X226305904Y-100925309D01*
X226258285Y-100830071D01*
X226210666Y-100782452D01*
X226115428Y-100734833D01*
X225924952Y-100734833D01*
X225829714Y-100782452D01*
X225782095Y-100830071D01*
X225734476Y-100925309D01*
G04 #@! TO.C,C17*
X218813142Y-104649542D02*
X218765523Y-104697161D01*
X218622666Y-104744780D01*
X218527428Y-104744780D01*
X218384571Y-104697161D01*
X218289333Y-104601923D01*
X218241714Y-104506685D01*
X218194095Y-104316209D01*
X218194095Y-104173352D01*
X218241714Y-103982876D01*
X218289333Y-103887638D01*
X218384571Y-103792400D01*
X218527428Y-103744780D01*
X218622666Y-103744780D01*
X218765523Y-103792400D01*
X218813142Y-103840019D01*
X219765523Y-104744780D02*
X219194095Y-104744780D01*
X219479809Y-104744780D02*
X219479809Y-103744780D01*
X219384571Y-103887638D01*
X219289333Y-103982876D01*
X219194095Y-104030495D01*
X220098857Y-103744780D02*
X220765523Y-103744780D01*
X220336952Y-104744780D01*
G04 #@! TO.C,C19*
X218813142Y-109196142D02*
X218765523Y-109243761D01*
X218622666Y-109291380D01*
X218527428Y-109291380D01*
X218384571Y-109243761D01*
X218289333Y-109148523D01*
X218241714Y-109053285D01*
X218194095Y-108862809D01*
X218194095Y-108719952D01*
X218241714Y-108529476D01*
X218289333Y-108434238D01*
X218384571Y-108339000D01*
X218527428Y-108291380D01*
X218622666Y-108291380D01*
X218765523Y-108339000D01*
X218813142Y-108386619D01*
X219765523Y-109291380D02*
X219194095Y-109291380D01*
X219479809Y-109291380D02*
X219479809Y-108291380D01*
X219384571Y-108434238D01*
X219289333Y-108529476D01*
X219194095Y-108577095D01*
X220241714Y-109291380D02*
X220432190Y-109291380D01*
X220527428Y-109243761D01*
X220575047Y-109196142D01*
X220670285Y-109053285D01*
X220717904Y-108862809D01*
X220717904Y-108481857D01*
X220670285Y-108386619D01*
X220622666Y-108339000D01*
X220527428Y-108291380D01*
X220336952Y-108291380D01*
X220241714Y-108339000D01*
X220194095Y-108386619D01*
X220146476Y-108481857D01*
X220146476Y-108719952D01*
X220194095Y-108815190D01*
X220241714Y-108862809D01*
X220336952Y-108910428D01*
X220527428Y-108910428D01*
X220622666Y-108862809D01*
X220670285Y-108815190D01*
X220717904Y-108719952D01*
G04 #@! TO.C,C13*
X252071142Y-102242857D02*
X252118761Y-102290476D01*
X252166380Y-102433333D01*
X252166380Y-102528571D01*
X252118761Y-102671428D01*
X252023523Y-102766666D01*
X251928285Y-102814285D01*
X251737809Y-102861904D01*
X251594952Y-102861904D01*
X251404476Y-102814285D01*
X251309238Y-102766666D01*
X251214000Y-102671428D01*
X251166380Y-102528571D01*
X251166380Y-102433333D01*
X251214000Y-102290476D01*
X251261619Y-102242857D01*
X252166380Y-101290476D02*
X252166380Y-101861904D01*
X252166380Y-101576190D02*
X251166380Y-101576190D01*
X251309238Y-101671428D01*
X251404476Y-101766666D01*
X251452095Y-101861904D01*
X251166380Y-100957142D02*
X251166380Y-100338095D01*
X251547333Y-100671428D01*
X251547333Y-100528571D01*
X251594952Y-100433333D01*
X251642571Y-100385714D01*
X251737809Y-100338095D01*
X251975904Y-100338095D01*
X252071142Y-100385714D01*
X252118761Y-100433333D01*
X252166380Y-100528571D01*
X252166380Y-100814285D01*
X252118761Y-100909523D01*
X252071142Y-100957142D01*
G04 #@! TO.C,C14*
X252071142Y-98940857D02*
X252118761Y-98988476D01*
X252166380Y-99131333D01*
X252166380Y-99226571D01*
X252118761Y-99369428D01*
X252023523Y-99464666D01*
X251928285Y-99512285D01*
X251737809Y-99559904D01*
X251594952Y-99559904D01*
X251404476Y-99512285D01*
X251309238Y-99464666D01*
X251214000Y-99369428D01*
X251166380Y-99226571D01*
X251166380Y-99131333D01*
X251214000Y-98988476D01*
X251261619Y-98940857D01*
X252166380Y-97988476D02*
X252166380Y-98559904D01*
X252166380Y-98274190D02*
X251166380Y-98274190D01*
X251309238Y-98369428D01*
X251404476Y-98464666D01*
X251452095Y-98559904D01*
X251499714Y-97131333D02*
X252166380Y-97131333D01*
X251118761Y-97369428D02*
X251833047Y-97607523D01*
X251833047Y-96988476D01*
G04 #@! TO.C,C15*
X252071142Y-91447857D02*
X252118761Y-91495476D01*
X252166380Y-91638333D01*
X252166380Y-91733571D01*
X252118761Y-91876428D01*
X252023523Y-91971666D01*
X251928285Y-92019285D01*
X251737809Y-92066904D01*
X251594952Y-92066904D01*
X251404476Y-92019285D01*
X251309238Y-91971666D01*
X251214000Y-91876428D01*
X251166380Y-91733571D01*
X251166380Y-91638333D01*
X251214000Y-91495476D01*
X251261619Y-91447857D01*
X252166380Y-90495476D02*
X252166380Y-91066904D01*
X252166380Y-90781190D02*
X251166380Y-90781190D01*
X251309238Y-90876428D01*
X251404476Y-90971666D01*
X251452095Y-91066904D01*
X251166380Y-89590714D02*
X251166380Y-90066904D01*
X251642571Y-90114523D01*
X251594952Y-90066904D01*
X251547333Y-89971666D01*
X251547333Y-89733571D01*
X251594952Y-89638333D01*
X251642571Y-89590714D01*
X251737809Y-89543095D01*
X251975904Y-89543095D01*
X252071142Y-89590714D01*
X252118761Y-89638333D01*
X252166380Y-89733571D01*
X252166380Y-89971666D01*
X252118761Y-90066904D01*
X252071142Y-90114523D01*
G04 #@! TO.C,J2*
D10*
X261630466Y-90025410D02*
X261630466Y-90742266D01*
X261582675Y-90885637D01*
X261487095Y-90981218D01*
X261343724Y-91029008D01*
X261248143Y-91029008D01*
X262060579Y-90120991D02*
X262108370Y-90073201D01*
X262203950Y-90025410D01*
X262442902Y-90025410D01*
X262538483Y-90073201D01*
X262586273Y-90120991D01*
X262634064Y-90216572D01*
X262634064Y-90312152D01*
X262586273Y-90455524D01*
X262012789Y-91029008D01*
X262634064Y-91029008D01*
G04 #@! TO.C,J1*
X238413610Y-61827932D02*
X239130466Y-61827932D01*
X239273837Y-61875723D01*
X239369418Y-61971303D01*
X239417208Y-62114674D01*
X239417208Y-62210255D01*
X239417208Y-60824334D02*
X239417208Y-61397819D01*
X239417208Y-61111076D02*
X238413610Y-61111076D01*
X238556981Y-61206657D01*
X238652562Y-61302238D01*
X238700352Y-61397819D01*
G04 #@! TO.C,R11*
X232316611Y-78748327D02*
X231840072Y-79081905D01*
X232316611Y-79320174D02*
X231315879Y-79320174D01*
X231315879Y-78938943D01*
X231363533Y-78843635D01*
X231411186Y-78795981D01*
X231506494Y-78748327D01*
X231649456Y-78748327D01*
X231744764Y-78795981D01*
X231792418Y-78843635D01*
X231840072Y-78938943D01*
X231840072Y-79320174D01*
X232316611Y-77795249D02*
X232316611Y-78367096D01*
X232316611Y-78081173D02*
X231315879Y-78081173D01*
X231458840Y-78176480D01*
X231554148Y-78271788D01*
X231601802Y-78367096D01*
X232316611Y-76842171D02*
X232316611Y-77414018D01*
X232316611Y-77128094D02*
X231315879Y-77128094D01*
X231458840Y-77223402D01*
X231554148Y-77318710D01*
X231601802Y-77414018D01*
G04 #@! TO.C,R16*
X252166712Y-95131327D02*
X251690173Y-95464905D01*
X252166712Y-95703174D02*
X251165980Y-95703174D01*
X251165980Y-95321943D01*
X251213634Y-95226635D01*
X251261287Y-95178981D01*
X251356595Y-95131327D01*
X251499557Y-95131327D01*
X251594865Y-95178981D01*
X251642519Y-95226635D01*
X251690173Y-95321943D01*
X251690173Y-95703174D01*
X252166712Y-94178249D02*
X252166712Y-94750096D01*
X252166712Y-94464173D02*
X251165980Y-94464173D01*
X251308941Y-94559480D01*
X251404249Y-94654788D01*
X251451903Y-94750096D01*
X251165980Y-93320479D02*
X251165980Y-93511094D01*
X251213634Y-93606402D01*
X251261287Y-93654056D01*
X251404249Y-93749364D01*
X251594865Y-93797018D01*
X251976096Y-93797018D01*
X252071404Y-93749364D01*
X252119058Y-93701710D01*
X252166712Y-93606402D01*
X252166712Y-93415787D01*
X252119058Y-93320479D01*
X252071404Y-93272825D01*
X251976096Y-93225171D01*
X251737826Y-93225171D01*
X251642519Y-93272825D01*
X251594865Y-93320479D01*
X251547211Y-93415787D01*
X251547211Y-93606402D01*
X251594865Y-93701710D01*
X251642519Y-93749364D01*
X251737826Y-93797018D01*
G04 #@! TO.C,C6*
D15*
X243790742Y-77890666D02*
X243838361Y-77938285D01*
X243885980Y-78081142D01*
X243885980Y-78176380D01*
X243838361Y-78319238D01*
X243743123Y-78414476D01*
X243647885Y-78462095D01*
X243457409Y-78509714D01*
X243314552Y-78509714D01*
X243124076Y-78462095D01*
X243028838Y-78414476D01*
X242933600Y-78319238D01*
X242885980Y-78176380D01*
X242885980Y-78081142D01*
X242933600Y-77938285D01*
X242981219Y-77890666D01*
X242885980Y-77033523D02*
X242885980Y-77224000D01*
X242933600Y-77319238D01*
X242981219Y-77366857D01*
X243124076Y-77462095D01*
X243314552Y-77509714D01*
X243695504Y-77509714D01*
X243790742Y-77462095D01*
X243838361Y-77414476D01*
X243885980Y-77319238D01*
X243885980Y-77128761D01*
X243838361Y-77033523D01*
X243790742Y-76985904D01*
X243695504Y-76938285D01*
X243457409Y-76938285D01*
X243362171Y-76985904D01*
X243314552Y-77033523D01*
X243266933Y-77128761D01*
X243266933Y-77319238D01*
X243314552Y-77414476D01*
X243362171Y-77462095D01*
X243457409Y-77509714D01*
G04 #@! TO.C,C7*
D16*
X240793542Y-77890666D02*
X240841161Y-77938285D01*
X240888780Y-78081142D01*
X240888780Y-78176380D01*
X240841161Y-78319238D01*
X240745923Y-78414476D01*
X240650685Y-78462095D01*
X240460209Y-78509714D01*
X240317352Y-78509714D01*
X240126876Y-78462095D01*
X240031638Y-78414476D01*
X239936400Y-78319238D01*
X239888780Y-78176380D01*
X239888780Y-78081142D01*
X239936400Y-77938285D01*
X239984019Y-77890666D01*
X239888780Y-77557333D02*
X239888780Y-76890666D01*
X240888780Y-77319238D01*
G04 #@! TO.C,C8*
X264898142Y-83126306D02*
X264945761Y-83173925D01*
X264993380Y-83316782D01*
X264993380Y-83412020D01*
X264945761Y-83554878D01*
X264850523Y-83650116D01*
X264755285Y-83697735D01*
X264564809Y-83745354D01*
X264421952Y-83745354D01*
X264231476Y-83697735D01*
X264136238Y-83650116D01*
X264041000Y-83554878D01*
X263993380Y-83412020D01*
X263993380Y-83316782D01*
X264041000Y-83173925D01*
X264088619Y-83126306D01*
X264421952Y-82554878D02*
X264374333Y-82650116D01*
X264326714Y-82697735D01*
X264231476Y-82745354D01*
X264183857Y-82745354D01*
X264088619Y-82697735D01*
X264041000Y-82650116D01*
X263993380Y-82554878D01*
X263993380Y-82364401D01*
X264041000Y-82269163D01*
X264088619Y-82221544D01*
X264183857Y-82173925D01*
X264231476Y-82173925D01*
X264326714Y-82221544D01*
X264374333Y-82269163D01*
X264421952Y-82364401D01*
X264421952Y-82554878D01*
X264469571Y-82650116D01*
X264517190Y-82697735D01*
X264612428Y-82745354D01*
X264802904Y-82745354D01*
X264898142Y-82697735D01*
X264945761Y-82650116D01*
X264993380Y-82554878D01*
X264993380Y-82364401D01*
X264945761Y-82269163D01*
X264898142Y-82221544D01*
X264802904Y-82173925D01*
X264612428Y-82173925D01*
X264517190Y-82221544D01*
X264469571Y-82269163D01*
X264421952Y-82364401D01*
G04 #@! TO.C,D1*
D11*
X252071824Y-81140020D02*
X252071824Y-80140020D01*
X252309920Y-80140020D01*
X252452777Y-80187640D01*
X252548015Y-80282878D01*
X252595634Y-80378116D01*
X252643253Y-80568592D01*
X252643253Y-80711449D01*
X252595634Y-80901925D01*
X252548015Y-80997163D01*
X252452777Y-81092401D01*
X252309920Y-81140020D01*
X252071824Y-81140020D01*
X253595634Y-81140020D02*
X253024205Y-81140020D01*
X253309920Y-81140020D02*
X253309920Y-80140020D01*
X253214681Y-80282878D01*
X253119443Y-80378116D01*
X253024205Y-80425735D01*
G04 #@! TO.C,D2*
X266504300Y-70757735D02*
X265504300Y-70757735D01*
X265504300Y-70519640D01*
X265551920Y-70376782D01*
X265647158Y-70281544D01*
X265742396Y-70233925D01*
X265932872Y-70186306D01*
X266075729Y-70186306D01*
X266266205Y-70233925D01*
X266361443Y-70281544D01*
X266456681Y-70376782D01*
X266504300Y-70519640D01*
X266504300Y-70757735D01*
X265599539Y-69805354D02*
X265551920Y-69757735D01*
X265504300Y-69662497D01*
X265504300Y-69424401D01*
X265551920Y-69329163D01*
X265599539Y-69281544D01*
X265694777Y-69233925D01*
X265790015Y-69233925D01*
X265932872Y-69281544D01*
X266504300Y-69852973D01*
X266504300Y-69233925D01*
G04 #@! TO.C,D3*
X251912380Y-70723735D02*
X250912380Y-70723735D01*
X250912380Y-70485640D01*
X250960000Y-70342782D01*
X251055238Y-70247544D01*
X251150476Y-70199925D01*
X251340952Y-70152306D01*
X251483809Y-70152306D01*
X251674285Y-70199925D01*
X251769523Y-70247544D01*
X251864761Y-70342782D01*
X251912380Y-70485640D01*
X251912380Y-70723735D01*
X250912380Y-69818973D02*
X250912380Y-69199925D01*
X251293333Y-69533259D01*
X251293333Y-69390401D01*
X251340952Y-69295163D01*
X251388571Y-69247544D01*
X251483809Y-69199925D01*
X251721904Y-69199925D01*
X251817142Y-69247544D01*
X251864761Y-69295163D01*
X251912380Y-69390401D01*
X251912380Y-69676116D01*
X251864761Y-69771354D01*
X251817142Y-69818973D01*
G04 #@! TO.C,D4*
X252105824Y-73477380D02*
X252105824Y-72477380D01*
X252343920Y-72477380D01*
X252486777Y-72525000D01*
X252582015Y-72620238D01*
X252629634Y-72715476D01*
X252677253Y-72905952D01*
X252677253Y-73048809D01*
X252629634Y-73239285D01*
X252582015Y-73334523D01*
X252486777Y-73429761D01*
X252343920Y-73477380D01*
X252105824Y-73477380D01*
X253534396Y-72810714D02*
X253534396Y-73477380D01*
X253296300Y-72429761D02*
X253058205Y-73144047D01*
X253677253Y-73144047D01*
G04 #@! TO.C,R8*
X247663253Y-80632020D02*
X247329920Y-80155830D01*
X247091824Y-80632020D02*
X247091824Y-79632020D01*
X247472777Y-79632020D01*
X247568015Y-79679640D01*
X247615634Y-79727259D01*
X247663253Y-79822497D01*
X247663253Y-79965354D01*
X247615634Y-80060592D01*
X247568015Y-80108211D01*
X247472777Y-80155830D01*
X247091824Y-80155830D01*
X248234681Y-80060592D02*
X248139443Y-80012973D01*
X248091824Y-79965354D01*
X248044205Y-79870116D01*
X248044205Y-79822497D01*
X248091824Y-79727259D01*
X248139443Y-79679640D01*
X248234681Y-79632020D01*
X248425158Y-79632020D01*
X248520396Y-79679640D01*
X248568015Y-79727259D01*
X248615634Y-79822497D01*
X248615634Y-79870116D01*
X248568015Y-79965354D01*
X248520396Y-80012973D01*
X248425158Y-80060592D01*
X248234681Y-80060592D01*
X248139443Y-80108211D01*
X248091824Y-80155830D01*
X248044205Y-80251068D01*
X248044205Y-80441544D01*
X248091824Y-80536782D01*
X248139443Y-80584401D01*
X248234681Y-80632020D01*
X248425158Y-80632020D01*
X248520396Y-80584401D01*
X248568015Y-80536782D01*
X248615634Y-80441544D01*
X248615634Y-80251068D01*
X248568015Y-80155830D01*
X248520396Y-80108211D01*
X248425158Y-80060592D01*
G04 #@! TO.C,R9*
X266131300Y-65172306D02*
X265655110Y-65505640D01*
X266131300Y-65743735D02*
X265131300Y-65743735D01*
X265131300Y-65362782D01*
X265178920Y-65267544D01*
X265226539Y-65219925D01*
X265321777Y-65172306D01*
X265464634Y-65172306D01*
X265559872Y-65219925D01*
X265607491Y-65267544D01*
X265655110Y-65362782D01*
X265655110Y-65743735D01*
X266131300Y-64696116D02*
X266131300Y-64505640D01*
X266083681Y-64410401D01*
X266036062Y-64362782D01*
X265893205Y-64267544D01*
X265702729Y-64219925D01*
X265321777Y-64219925D01*
X265226539Y-64267544D01*
X265178920Y-64315163D01*
X265131300Y-64410401D01*
X265131300Y-64600878D01*
X265178920Y-64696116D01*
X265226539Y-64743735D01*
X265321777Y-64791354D01*
X265559872Y-64791354D01*
X265655110Y-64743735D01*
X265702729Y-64696116D01*
X265750348Y-64600878D01*
X265750348Y-64410401D01*
X265702729Y-64315163D01*
X265655110Y-64267544D01*
X265559872Y-64219925D01*
G04 #@! TO.C,R10*
X251912380Y-65521497D02*
X251436190Y-65854830D01*
X251912380Y-66092925D02*
X250912380Y-66092925D01*
X250912380Y-65711973D01*
X250960000Y-65616735D01*
X251007619Y-65569116D01*
X251102857Y-65521497D01*
X251245714Y-65521497D01*
X251340952Y-65569116D01*
X251388571Y-65616735D01*
X251436190Y-65711973D01*
X251436190Y-66092925D01*
X251912380Y-64569116D02*
X251912380Y-65140544D01*
X251912380Y-64854830D02*
X250912380Y-64854830D01*
X251055238Y-64950068D01*
X251150476Y-65045306D01*
X251198095Y-65140544D01*
X250912380Y-63950068D02*
X250912380Y-63854830D01*
X250960000Y-63759592D01*
X251007619Y-63711973D01*
X251102857Y-63664354D01*
X251293333Y-63616735D01*
X251531428Y-63616735D01*
X251721904Y-63664354D01*
X251817142Y-63711973D01*
X251864761Y-63759592D01*
X251912380Y-63854830D01*
X251912380Y-63950068D01*
X251864761Y-64045306D01*
X251817142Y-64092925D01*
X251721904Y-64140544D01*
X251531428Y-64188163D01*
X251293333Y-64188163D01*
X251102857Y-64140544D01*
X251007619Y-64092925D01*
X250960000Y-64045306D01*
X250912380Y-63950068D01*
G04 #@! TO.C,R12*
X247187062Y-73639020D02*
X246853729Y-73162830D01*
X246615634Y-73639020D02*
X246615634Y-72639020D01*
X246996586Y-72639020D01*
X247091824Y-72686640D01*
X247139443Y-72734259D01*
X247187062Y-72829497D01*
X247187062Y-72972354D01*
X247139443Y-73067592D01*
X247091824Y-73115211D01*
X246996586Y-73162830D01*
X246615634Y-73162830D01*
X248139443Y-73639020D02*
X247568015Y-73639020D01*
X247853729Y-73639020D02*
X247853729Y-72639020D01*
X247758491Y-72781878D01*
X247663253Y-72877116D01*
X247568015Y-72924735D01*
X248520396Y-72734259D02*
X248568015Y-72686640D01*
X248663253Y-72639020D01*
X248901348Y-72639020D01*
X248996586Y-72686640D01*
X249044205Y-72734259D01*
X249091824Y-72829497D01*
X249091824Y-72924735D01*
X249044205Y-73067592D01*
X248472777Y-73639020D01*
X249091824Y-73639020D01*
G04 #@! TO.C,R14*
X262882142Y-73561740D02*
X262548809Y-73085550D01*
X262310714Y-73561740D02*
X262310714Y-72561740D01*
X262691666Y-72561740D01*
X262786904Y-72609360D01*
X262834523Y-72656979D01*
X262882142Y-72752217D01*
X262882142Y-72895074D01*
X262834523Y-72990312D01*
X262786904Y-73037931D01*
X262691666Y-73085550D01*
X262310714Y-73085550D01*
X263834523Y-73561740D02*
X263263095Y-73561740D01*
X263548809Y-73561740D02*
X263548809Y-72561740D01*
X263453571Y-72704598D01*
X263358333Y-72799836D01*
X263263095Y-72847455D01*
X264691666Y-72895074D02*
X264691666Y-73561740D01*
X264453571Y-72514121D02*
X264215476Y-73228407D01*
X264834523Y-73228407D01*
G04 #@! TO.C,R15*
X262882142Y-77287380D02*
X262548809Y-76811190D01*
X262310714Y-77287380D02*
X262310714Y-76287380D01*
X262691666Y-76287380D01*
X262786904Y-76335000D01*
X262834523Y-76382619D01*
X262882142Y-76477857D01*
X262882142Y-76620714D01*
X262834523Y-76715952D01*
X262786904Y-76763571D01*
X262691666Y-76811190D01*
X262310714Y-76811190D01*
X263834523Y-77287380D02*
X263263095Y-77287380D01*
X263548809Y-77287380D02*
X263548809Y-76287380D01*
X263453571Y-76430238D01*
X263358333Y-76525476D01*
X263263095Y-76573095D01*
X264739285Y-76287380D02*
X264263095Y-76287380D01*
X264215476Y-76763571D01*
X264263095Y-76715952D01*
X264358333Y-76668333D01*
X264596428Y-76668333D01*
X264691666Y-76715952D01*
X264739285Y-76763571D01*
X264786904Y-76858809D01*
X264786904Y-77096904D01*
X264739285Y-77192142D01*
X264691666Y-77239761D01*
X264596428Y-77287380D01*
X264358333Y-77287380D01*
X264263095Y-77239761D01*
X264215476Y-77192142D01*
G04 #@! TO.C,U2*
D16*
X256413095Y-72477380D02*
X256413095Y-73286904D01*
X256460714Y-73382142D01*
X256508333Y-73429761D01*
X256603571Y-73477380D01*
X256794047Y-73477380D01*
X256889285Y-73429761D01*
X256936904Y-73382142D01*
X256984523Y-73286904D01*
X256984523Y-72477380D01*
X257413095Y-72572619D02*
X257460714Y-72525000D01*
X257555952Y-72477380D01*
X257794047Y-72477380D01*
X257889285Y-72525000D01*
X257936904Y-72572619D01*
X257984523Y-72667857D01*
X257984523Y-72763095D01*
X257936904Y-72905952D01*
X257365476Y-73477380D01*
X257984523Y-73477380D01*
G04 #@! TO.C,C18*
X216320642Y-82430857D02*
X216368261Y-82478476D01*
X216415880Y-82621333D01*
X216415880Y-82716571D01*
X216368261Y-82859428D01*
X216273023Y-82954666D01*
X216177785Y-83002285D01*
X215987309Y-83049904D01*
X215844452Y-83049904D01*
X215653976Y-83002285D01*
X215558738Y-82954666D01*
X215463500Y-82859428D01*
X215415880Y-82716571D01*
X215415880Y-82621333D01*
X215463500Y-82478476D01*
X215511119Y-82430857D01*
X216415880Y-81478476D02*
X216415880Y-82049904D01*
X216415880Y-81764190D02*
X215415880Y-81764190D01*
X215558738Y-81859428D01*
X215653976Y-81954666D01*
X215701595Y-82049904D01*
X215844452Y-80907047D02*
X215796833Y-81002285D01*
X215749214Y-81049904D01*
X215653976Y-81097523D01*
X215606357Y-81097523D01*
X215511119Y-81049904D01*
X215463500Y-81002285D01*
X215415880Y-80907047D01*
X215415880Y-80716571D01*
X215463500Y-80621333D01*
X215511119Y-80573714D01*
X215606357Y-80526095D01*
X215653976Y-80526095D01*
X215749214Y-80573714D01*
X215796833Y-80621333D01*
X215844452Y-80716571D01*
X215844452Y-80907047D01*
X215892071Y-81002285D01*
X215939690Y-81049904D01*
X216034928Y-81097523D01*
X216225404Y-81097523D01*
X216320642Y-81049904D01*
X216368261Y-81002285D01*
X216415880Y-80907047D01*
X216415880Y-80716571D01*
X216368261Y-80621333D01*
X216320642Y-80573714D01*
X216225404Y-80526095D01*
X216034928Y-80526095D01*
X215939690Y-80573714D01*
X215892071Y-80621333D01*
X215844452Y-80716571D01*
G04 #@! TO.C,C20*
X211240642Y-82430857D02*
X211288261Y-82478476D01*
X211335880Y-82621333D01*
X211335880Y-82716571D01*
X211288261Y-82859428D01*
X211193023Y-82954666D01*
X211097785Y-83002285D01*
X210907309Y-83049904D01*
X210764452Y-83049904D01*
X210573976Y-83002285D01*
X210478738Y-82954666D01*
X210383500Y-82859428D01*
X210335880Y-82716571D01*
X210335880Y-82621333D01*
X210383500Y-82478476D01*
X210431119Y-82430857D01*
X210431119Y-82049904D02*
X210383500Y-82002285D01*
X210335880Y-81907047D01*
X210335880Y-81668952D01*
X210383500Y-81573714D01*
X210431119Y-81526095D01*
X210526357Y-81478476D01*
X210621595Y-81478476D01*
X210764452Y-81526095D01*
X211335880Y-82097523D01*
X211335880Y-81478476D01*
X210335880Y-80859428D02*
X210335880Y-80764190D01*
X210383500Y-80668952D01*
X210431119Y-80621333D01*
X210526357Y-80573714D01*
X210716833Y-80526095D01*
X210954928Y-80526095D01*
X211145404Y-80573714D01*
X211240642Y-80621333D01*
X211288261Y-80668952D01*
X211335880Y-80764190D01*
X211335880Y-80859428D01*
X211288261Y-80954666D01*
X211240642Y-81002285D01*
X211145404Y-81049904D01*
X210954928Y-81097523D01*
X210716833Y-81097523D01*
X210526357Y-81049904D01*
X210431119Y-81002285D01*
X210383500Y-80954666D01*
X210335880Y-80859428D01*
G04 #@! TO.C,C21*
X213780642Y-82430857D02*
X213828261Y-82478476D01*
X213875880Y-82621333D01*
X213875880Y-82716571D01*
X213828261Y-82859428D01*
X213733023Y-82954666D01*
X213637785Y-83002285D01*
X213447309Y-83049904D01*
X213304452Y-83049904D01*
X213113976Y-83002285D01*
X213018738Y-82954666D01*
X212923500Y-82859428D01*
X212875880Y-82716571D01*
X212875880Y-82621333D01*
X212923500Y-82478476D01*
X212971119Y-82430857D01*
X212971119Y-82049904D02*
X212923500Y-82002285D01*
X212875880Y-81907047D01*
X212875880Y-81668952D01*
X212923500Y-81573714D01*
X212971119Y-81526095D01*
X213066357Y-81478476D01*
X213161595Y-81478476D01*
X213304452Y-81526095D01*
X213875880Y-82097523D01*
X213875880Y-81478476D01*
X213875880Y-80526095D02*
X213875880Y-81097523D01*
X213875880Y-80811809D02*
X212875880Y-80811809D01*
X213018738Y-80907047D01*
X213113976Y-81002285D01*
X213161595Y-81097523D01*
G04 #@! TO.C,U3*
X239219619Y-105295095D02*
X240042095Y-105295095D01*
X240138857Y-105246714D01*
X240187238Y-105198333D01*
X240235619Y-105101571D01*
X240235619Y-104908047D01*
X240187238Y-104811285D01*
X240138857Y-104762904D01*
X240042095Y-104714523D01*
X239219619Y-104714523D01*
X239219619Y-104327476D02*
X239219619Y-103698523D01*
X239606666Y-104037190D01*
X239606666Y-103892047D01*
X239655047Y-103795285D01*
X239703428Y-103746904D01*
X239800190Y-103698523D01*
X240042095Y-103698523D01*
X240138857Y-103746904D01*
X240187238Y-103795285D01*
X240235619Y-103892047D01*
X240235619Y-104182333D01*
X240187238Y-104279095D01*
X240138857Y-104327476D01*
G04 #@! TO.C,U5*
X244094095Y-112736380D02*
X244094095Y-113545904D01*
X244141714Y-113641142D01*
X244189333Y-113688761D01*
X244284571Y-113736380D01*
X244475047Y-113736380D01*
X244570285Y-113688761D01*
X244617904Y-113641142D01*
X244665523Y-113545904D01*
X244665523Y-112736380D01*
X245617904Y-112736380D02*
X245141714Y-112736380D01*
X245094095Y-113212571D01*
X245141714Y-113164952D01*
X245236952Y-113117333D01*
X245475047Y-113117333D01*
X245570285Y-113164952D01*
X245617904Y-113212571D01*
X245665523Y-113307809D01*
X245665523Y-113545904D01*
X245617904Y-113641142D01*
X245570285Y-113688761D01*
X245475047Y-113736380D01*
X245236952Y-113736380D01*
X245141714Y-113688761D01*
X245094095Y-113641142D01*
G04 #@! TO.C,C9*
X254611142Y-105562666D02*
X254658761Y-105610285D01*
X254706380Y-105753142D01*
X254706380Y-105848380D01*
X254658761Y-105991238D01*
X254563523Y-106086476D01*
X254468285Y-106134095D01*
X254277809Y-106181714D01*
X254134952Y-106181714D01*
X253944476Y-106134095D01*
X253849238Y-106086476D01*
X253754000Y-105991238D01*
X253706380Y-105848380D01*
X253706380Y-105753142D01*
X253754000Y-105610285D01*
X253801619Y-105562666D01*
X254706380Y-105086476D02*
X254706380Y-104896000D01*
X254658761Y-104800761D01*
X254611142Y-104753142D01*
X254468285Y-104657904D01*
X254277809Y-104610285D01*
X253896857Y-104610285D01*
X253801619Y-104657904D01*
X253754000Y-104705523D01*
X253706380Y-104800761D01*
X253706380Y-104991238D01*
X253754000Y-105086476D01*
X253801619Y-105134095D01*
X253896857Y-105181714D01*
X254134952Y-105181714D01*
X254230190Y-105134095D01*
X254277809Y-105086476D01*
X254325428Y-104991238D01*
X254325428Y-104800761D01*
X254277809Y-104705523D01*
X254230190Y-104657904D01*
X254134952Y-104610285D01*
G04 #@! TO.C,C10*
X250674142Y-106038857D02*
X250721761Y-106086476D01*
X250769380Y-106229333D01*
X250769380Y-106324571D01*
X250721761Y-106467428D01*
X250626523Y-106562666D01*
X250531285Y-106610285D01*
X250340809Y-106657904D01*
X250197952Y-106657904D01*
X250007476Y-106610285D01*
X249912238Y-106562666D01*
X249817000Y-106467428D01*
X249769380Y-106324571D01*
X249769380Y-106229333D01*
X249817000Y-106086476D01*
X249864619Y-106038857D01*
X250769380Y-105086476D02*
X250769380Y-105657904D01*
X250769380Y-105372190D02*
X249769380Y-105372190D01*
X249912238Y-105467428D01*
X250007476Y-105562666D01*
X250055095Y-105657904D01*
X249769380Y-104467428D02*
X249769380Y-104372190D01*
X249817000Y-104276952D01*
X249864619Y-104229333D01*
X249959857Y-104181714D01*
X250150333Y-104134095D01*
X250388428Y-104134095D01*
X250578904Y-104181714D01*
X250674142Y-104229333D01*
X250721761Y-104276952D01*
X250769380Y-104372190D01*
X250769380Y-104467428D01*
X250721761Y-104562666D01*
X250674142Y-104610285D01*
X250578904Y-104657904D01*
X250388428Y-104705523D01*
X250150333Y-104705523D01*
X249959857Y-104657904D01*
X249864619Y-104610285D01*
X249817000Y-104562666D01*
X249769380Y-104467428D01*
G04 #@! TO.C,C11*
X236577142Y-110574057D02*
X236624761Y-110621676D01*
X236672380Y-110764533D01*
X236672380Y-110859771D01*
X236624761Y-111002628D01*
X236529523Y-111097866D01*
X236434285Y-111145485D01*
X236243809Y-111193104D01*
X236100952Y-111193104D01*
X235910476Y-111145485D01*
X235815238Y-111097866D01*
X235720000Y-111002628D01*
X235672380Y-110859771D01*
X235672380Y-110764533D01*
X235720000Y-110621676D01*
X235767619Y-110574057D01*
X236672380Y-109621676D02*
X236672380Y-110193104D01*
X236672380Y-109907390D02*
X235672380Y-109907390D01*
X235815238Y-110002628D01*
X235910476Y-110097866D01*
X235958095Y-110193104D01*
X236672380Y-108669295D02*
X236672380Y-109240723D01*
X236672380Y-108955009D02*
X235672380Y-108955009D01*
X235815238Y-109050247D01*
X235910476Y-109145485D01*
X235958095Y-109240723D01*
G04 #@! TO.C,C3*
X231737142Y-89701666D02*
X231784761Y-89749285D01*
X231832380Y-89892142D01*
X231832380Y-89987380D01*
X231784761Y-90130238D01*
X231689523Y-90225476D01*
X231594285Y-90273095D01*
X231403809Y-90320714D01*
X231260952Y-90320714D01*
X231070476Y-90273095D01*
X230975238Y-90225476D01*
X230880000Y-90130238D01*
X230832380Y-89987380D01*
X230832380Y-89892142D01*
X230880000Y-89749285D01*
X230927619Y-89701666D01*
X230832380Y-89368333D02*
X230832380Y-88749285D01*
X231213333Y-89082619D01*
X231213333Y-88939761D01*
X231260952Y-88844523D01*
X231308571Y-88796904D01*
X231403809Y-88749285D01*
X231641904Y-88749285D01*
X231737142Y-88796904D01*
X231784761Y-88844523D01*
X231832380Y-88939761D01*
X231832380Y-89225476D01*
X231784761Y-89320714D01*
X231737142Y-89368333D01*
G04 #@! TO.C,C4*
X231257142Y-96686666D02*
X231304761Y-96734285D01*
X231352380Y-96877142D01*
X231352380Y-96972380D01*
X231304761Y-97115238D01*
X231209523Y-97210476D01*
X231114285Y-97258095D01*
X230923809Y-97305714D01*
X230780952Y-97305714D01*
X230590476Y-97258095D01*
X230495238Y-97210476D01*
X230400000Y-97115238D01*
X230352380Y-96972380D01*
X230352380Y-96877142D01*
X230400000Y-96734285D01*
X230447619Y-96686666D01*
X230685714Y-95829523D02*
X231352380Y-95829523D01*
X230304761Y-96067619D02*
X231019047Y-96305714D01*
X231019047Y-95686666D01*
G04 #@! TO.C,C1*
X240031542Y-86933066D02*
X240079161Y-86980685D01*
X240126780Y-87123542D01*
X240126780Y-87218780D01*
X240079161Y-87361638D01*
X239983923Y-87456876D01*
X239888685Y-87504495D01*
X239698209Y-87552114D01*
X239555352Y-87552114D01*
X239364876Y-87504495D01*
X239269638Y-87456876D01*
X239174400Y-87361638D01*
X239126780Y-87218780D01*
X239126780Y-87123542D01*
X239174400Y-86980685D01*
X239222019Y-86933066D01*
X240126780Y-85980685D02*
X240126780Y-86552114D01*
X240126780Y-86266400D02*
X239126780Y-86266400D01*
X239269638Y-86361638D01*
X239364876Y-86456876D01*
X239412495Y-86552114D01*
G04 #@! TO.C,C2*
X236450142Y-87034666D02*
X236497761Y-87082285D01*
X236545380Y-87225142D01*
X236545380Y-87320380D01*
X236497761Y-87463238D01*
X236402523Y-87558476D01*
X236307285Y-87606095D01*
X236116809Y-87653714D01*
X235973952Y-87653714D01*
X235783476Y-87606095D01*
X235688238Y-87558476D01*
X235593000Y-87463238D01*
X235545380Y-87320380D01*
X235545380Y-87225142D01*
X235593000Y-87082285D01*
X235640619Y-87034666D01*
X235640619Y-86653714D02*
X235593000Y-86606095D01*
X235545380Y-86510857D01*
X235545380Y-86272761D01*
X235593000Y-86177523D01*
X235640619Y-86129904D01*
X235735857Y-86082285D01*
X235831095Y-86082285D01*
X235973952Y-86129904D01*
X236545380Y-86701333D01*
X236545380Y-86082285D01*
G04 #@! TO.C,C5*
X254327333Y-85701142D02*
X254279714Y-85748761D01*
X254136857Y-85796380D01*
X254041619Y-85796380D01*
X253898761Y-85748761D01*
X253803523Y-85653523D01*
X253755904Y-85558285D01*
X253708285Y-85367809D01*
X253708285Y-85224952D01*
X253755904Y-85034476D01*
X253803523Y-84939238D01*
X253898761Y-84844000D01*
X254041619Y-84796380D01*
X254136857Y-84796380D01*
X254279714Y-84844000D01*
X254327333Y-84891619D01*
X255232095Y-84796380D02*
X254755904Y-84796380D01*
X254708285Y-85272571D01*
X254755904Y-85224952D01*
X254851142Y-85177333D01*
X255089238Y-85177333D01*
X255184476Y-85224952D01*
X255232095Y-85272571D01*
X255279714Y-85367809D01*
X255279714Y-85605904D01*
X255232095Y-85701142D01*
X255184476Y-85748761D01*
X255089238Y-85796380D01*
X254851142Y-85796380D01*
X254755904Y-85748761D01*
X254708285Y-85701142D01*
G04 #@! TO.C,U1*
X241044133Y-100542970D02*
X241044133Y-101354579D01*
X241091875Y-101450062D01*
X241139616Y-101497804D01*
X241235100Y-101545545D01*
X241426066Y-101545545D01*
X241521550Y-101497804D01*
X241569291Y-101450062D01*
X241617033Y-101354579D01*
X241617033Y-100542970D01*
X242619608Y-101545545D02*
X242046708Y-101545545D01*
X242333158Y-101545545D02*
X242333158Y-100542970D01*
X242237675Y-100686195D01*
X242142191Y-100781679D01*
X242046708Y-100829420D01*
G04 #@! TD*
M02*
