G04 #@! TF.GenerationSoftware,KiCad,Pcbnew,(5.0.0)*
G04 #@! TF.CreationDate,2020-04-23T15:05:36-04:00*
G04 #@! TF.ProjectId,Lighting,4C69676874696E672E6B696361645F70,rev?*
G04 #@! TF.SameCoordinates,Original*
G04 #@! TF.FileFunction,Copper,L1,Top,Signal*
G04 #@! TF.FilePolarity,Positive*
%FSLAX46Y46*%
G04 Gerber Fmt 4.6, Leading zero omitted, Abs format (unit mm)*
G04 Created by KiCad (PCBNEW (5.0.0)) date 04/23/20 15:05:36*
%MOMM*%
%LPD*%
G01*
G04 APERTURE LIST*
G04 #@! TA.AperFunction,SMDPad,CuDef*
%ADD10R,1.470000X1.160000*%
G04 #@! TD*
G04 #@! TA.AperFunction,SMDPad,CuDef*
%ADD11R,1.200000X1.200000*%
G04 #@! TD*
G04 #@! TA.AperFunction,SMDPad,CuDef*
%ADD12R,3.250000X1.300000*%
G04 #@! TD*
G04 #@! TA.AperFunction,SMDPad,CuDef*
%ADD13R,3.250000X0.480000*%
G04 #@! TD*
G04 #@! TA.AperFunction,Conductor*
%ADD14C,0.100000*%
G04 #@! TD*
G04 #@! TA.AperFunction,ComponentPad*
%ADD15C,2.000000*%
G04 #@! TD*
G04 #@! TA.AperFunction,SMDPad,CuDef*
%ADD16R,4.700000X1.500000*%
G04 #@! TD*
G04 #@! TA.AperFunction,SMDPad,CuDef*
%ADD17R,4.200000X3.100000*%
G04 #@! TD*
G04 #@! TA.AperFunction,SMDPad,CuDef*
%ADD18R,0.700000X1.150000*%
G04 #@! TD*
G04 #@! TA.AperFunction,SMDPad,CuDef*
%ADD19R,1.300000X0.700000*%
G04 #@! TD*
G04 #@! TA.AperFunction,SMDPad,CuDef*
%ADD20R,0.700000X1.300000*%
G04 #@! TD*
G04 #@! TA.AperFunction,SMDPad,CuDef*
%ADD21R,3.550000X3.200000*%
G04 #@! TD*
G04 #@! TA.AperFunction,ComponentPad*
%ADD22C,1.524000*%
G04 #@! TD*
G04 #@! TA.AperFunction,SMDPad,CuDef*
%ADD23R,1.300000X1.050000*%
G04 #@! TD*
G04 #@! TA.AperFunction,SMDPad,CuDef*
%ADD24R,0.568000X1.454899*%
G04 #@! TD*
G04 #@! TA.AperFunction,SMDPad,CuDef*
%ADD25R,1.160000X1.470000*%
G04 #@! TD*
G04 #@! TA.AperFunction,ComponentPad*
%ADD26O,2.600000X1.300000*%
G04 #@! TD*
G04 #@! TA.AperFunction,ComponentPad*
%ADD27O,2.200000X1.100000*%
G04 #@! TD*
G04 #@! TA.AperFunction,SMDPad,CuDef*
%ADD28R,0.700000X1.000000*%
G04 #@! TD*
G04 #@! TA.AperFunction,SMDPad,CuDef*
%ADD29R,0.700000X0.300000*%
G04 #@! TD*
G04 #@! TA.AperFunction,SMDPad,CuDef*
%ADD30R,0.300000X0.700000*%
G04 #@! TD*
G04 #@! TA.AperFunction,SMDPad,CuDef*
%ADD31R,1.000000X0.700000*%
G04 #@! TD*
G04 #@! TA.AperFunction,ComponentPad*
%ADD32O,1.100000X2.200000*%
G04 #@! TD*
G04 #@! TA.AperFunction,ComponentPad*
%ADD33O,1.300000X2.600000*%
G04 #@! TD*
G04 #@! TA.AperFunction,SMDPad,CuDef*
%ADD34R,5.600000X2.300000*%
G04 #@! TD*
G04 #@! TA.AperFunction,SMDPad,CuDef*
%ADD35R,1.100000X1.900000*%
G04 #@! TD*
G04 #@! TA.AperFunction,SMDPad,CuDef*
%ADD36R,0.790000X0.260000*%
G04 #@! TD*
G04 #@! TA.AperFunction,SMDPad,CuDef*
%ADD37R,0.260000X0.790000*%
G04 #@! TD*
G04 #@! TA.AperFunction,SMDPad,CuDef*
%ADD38R,1.100000X1.100000*%
G04 #@! TD*
G04 #@! TA.AperFunction,SMDPad,CuDef*
%ADD39R,1.450000X0.450000*%
G04 #@! TD*
G04 #@! TA.AperFunction,SMDPad,CuDef*
%ADD40R,1.710000X0.610000*%
G04 #@! TD*
G04 #@! TA.AperFunction,SMDPad,CuDef*
%ADD41R,1.900000X0.600000*%
G04 #@! TD*
G04 #@! TA.AperFunction,ViaPad*
%ADD42C,13.000000*%
G04 #@! TD*
G04 #@! TA.AperFunction,ViaPad*
%ADD43C,0.600000*%
G04 #@! TD*
G04 #@! TA.AperFunction,ViaPad*
%ADD44C,0.800000*%
G04 #@! TD*
G04 #@! TA.AperFunction,Conductor*
%ADD45C,0.254000*%
G04 #@! TD*
G04 #@! TA.AperFunction,Conductor*
%ADD46C,0.152400*%
G04 #@! TD*
G04 #@! TA.AperFunction,Conductor*
%ADD47C,0.203200*%
G04 #@! TD*
G04 #@! TA.AperFunction,Conductor*
%ADD48C,0.250000*%
G04 #@! TD*
G04 #@! TA.AperFunction,Conductor*
%ADD49C,1.016000*%
G04 #@! TD*
G04 #@! TA.AperFunction,Conductor*
%ADD50C,0.508000*%
G04 #@! TD*
G04 APERTURE END LIST*
D10*
G04 #@! TO.P,C12,2*
G04 #@! TO.N,GND*
X250190000Y-111365000D03*
G04 #@! TO.P,C12,1*
G04 #@! TO.N,Net-(C12-Pad1)*
X250190000Y-109615000D03*
G04 #@! TD*
D11*
G04 #@! TO.P,D5,2*
G04 #@! TO.N,Net-(D5-Pad2)*
X231648000Y-100076000D03*
G04 #@! TO.P,D5,1*
G04 #@! TO.N,GND*
X229548000Y-100076000D03*
G04 #@! TD*
G04 #@! TO.P,D6,2*
G04 #@! TO.N,Net-(D6-Pad2)*
X263452017Y-104492488D03*
G04 #@! TO.P,D6,1*
G04 #@! TO.N,GND*
X263452017Y-106592488D03*
G04 #@! TD*
D12*
G04 #@! TO.P,D7,3*
G04 #@! TO.N,GND*
X213360000Y-90678000D03*
D13*
G04 #@! TO.P,D7,1*
G04 #@! TO.N,Net-(D7-Pad1)*
X213360000Y-92068000D03*
G04 #@! TO.P,D7,2*
G04 #@! TO.N,+5V*
X213360000Y-89288000D03*
G04 #@! TD*
D11*
G04 #@! TO.P,D8,2*
G04 #@! TO.N,Net-(D8-Pad2)*
X237758967Y-67804171D03*
G04 #@! TO.P,D8,1*
G04 #@! TO.N,GND*
X237758967Y-69904171D03*
G04 #@! TD*
D14*
G04 #@! TO.N,Net-(JP1-Pad2)*
G04 #@! TO.C,JP1*
G36*
X248834009Y-83457408D02*
X248882545Y-83464607D01*
X248930142Y-83476530D01*
X248976342Y-83493060D01*
X249020698Y-83514039D01*
X249062785Y-83539265D01*
X249102197Y-83568495D01*
X249138553Y-83601447D01*
X249171505Y-83637803D01*
X249200735Y-83677215D01*
X249225961Y-83719302D01*
X249246940Y-83763658D01*
X249263470Y-83809858D01*
X249275393Y-83857455D01*
X249282592Y-83905991D01*
X249285000Y-83955000D01*
X249285000Y-84955000D01*
X249282592Y-85004009D01*
X249275393Y-85052545D01*
X249263470Y-85100142D01*
X249246940Y-85146342D01*
X249225961Y-85190698D01*
X249200735Y-85232785D01*
X249171505Y-85272197D01*
X249138553Y-85308553D01*
X249102197Y-85341505D01*
X249062785Y-85370735D01*
X249020698Y-85395961D01*
X248976342Y-85416940D01*
X248930142Y-85433470D01*
X248882545Y-85445393D01*
X248834009Y-85452592D01*
X248785000Y-85455000D01*
X247785000Y-85455000D01*
X247735991Y-85452592D01*
X247687455Y-85445393D01*
X247639858Y-85433470D01*
X247593658Y-85416940D01*
X247549302Y-85395961D01*
X247507215Y-85370735D01*
X247467803Y-85341505D01*
X247431447Y-85308553D01*
X247398495Y-85272197D01*
X247369265Y-85232785D01*
X247344039Y-85190698D01*
X247323060Y-85146342D01*
X247306530Y-85100142D01*
X247294607Y-85052545D01*
X247287408Y-85004009D01*
X247285000Y-84955000D01*
X247285000Y-83955000D01*
X247287408Y-83905991D01*
X247294607Y-83857455D01*
X247306530Y-83809858D01*
X247323060Y-83763658D01*
X247344039Y-83719302D01*
X247369265Y-83677215D01*
X247398495Y-83637803D01*
X247431447Y-83601447D01*
X247467803Y-83568495D01*
X247507215Y-83539265D01*
X247549302Y-83514039D01*
X247593658Y-83493060D01*
X247639858Y-83476530D01*
X247687455Y-83464607D01*
X247735991Y-83457408D01*
X247785000Y-83455000D01*
X248785000Y-83455000D01*
X248834009Y-83457408D01*
X248834009Y-83457408D01*
G37*
D15*
G04 #@! TD*
G04 #@! TO.P,JP1,2*
G04 #@! TO.N,Net-(JP1-Pad2)*
X248285000Y-84455000D03*
D14*
G04 #@! TO.N,GND*
G04 #@! TO.C,JP1*
G36*
X248834009Y-85997408D02*
X248882545Y-86004607D01*
X248930142Y-86016530D01*
X248976342Y-86033060D01*
X249020698Y-86054039D01*
X249062785Y-86079265D01*
X249102197Y-86108495D01*
X249138553Y-86141447D01*
X249171505Y-86177803D01*
X249200735Y-86217215D01*
X249225961Y-86259302D01*
X249246940Y-86303658D01*
X249263470Y-86349858D01*
X249275393Y-86397455D01*
X249282592Y-86445991D01*
X249285000Y-86495000D01*
X249285000Y-87495000D01*
X249282592Y-87544009D01*
X249275393Y-87592545D01*
X249263470Y-87640142D01*
X249246940Y-87686342D01*
X249225961Y-87730698D01*
X249200735Y-87772785D01*
X249171505Y-87812197D01*
X249138553Y-87848553D01*
X249102197Y-87881505D01*
X249062785Y-87910735D01*
X249020698Y-87935961D01*
X248976342Y-87956940D01*
X248930142Y-87973470D01*
X248882545Y-87985393D01*
X248834009Y-87992592D01*
X248785000Y-87995000D01*
X247785000Y-87995000D01*
X247735991Y-87992592D01*
X247687455Y-87985393D01*
X247639858Y-87973470D01*
X247593658Y-87956940D01*
X247549302Y-87935961D01*
X247507215Y-87910735D01*
X247467803Y-87881505D01*
X247431447Y-87848553D01*
X247398495Y-87812197D01*
X247369265Y-87772785D01*
X247344039Y-87730698D01*
X247323060Y-87686342D01*
X247306530Y-87640142D01*
X247294607Y-87592545D01*
X247287408Y-87544009D01*
X247285000Y-87495000D01*
X247285000Y-86495000D01*
X247287408Y-86445991D01*
X247294607Y-86397455D01*
X247306530Y-86349858D01*
X247323060Y-86303658D01*
X247344039Y-86259302D01*
X247369265Y-86217215D01*
X247398495Y-86177803D01*
X247431447Y-86141447D01*
X247467803Y-86108495D01*
X247507215Y-86079265D01*
X247549302Y-86054039D01*
X247593658Y-86033060D01*
X247639858Y-86016530D01*
X247687455Y-86004607D01*
X247735991Y-85997408D01*
X247785000Y-85995000D01*
X248785000Y-85995000D01*
X248834009Y-85997408D01*
X248834009Y-85997408D01*
G37*
D15*
G04 #@! TD*
G04 #@! TO.P,JP1,1*
G04 #@! TO.N,GND*
X248285000Y-86995000D03*
D14*
G04 #@! TO.N,VCC*
G04 #@! TO.C,JP2*
G36*
X239309009Y-118382408D02*
X239357545Y-118389607D01*
X239405142Y-118401530D01*
X239451342Y-118418060D01*
X239495698Y-118439039D01*
X239537785Y-118464265D01*
X239577197Y-118493495D01*
X239613553Y-118526447D01*
X239646505Y-118562803D01*
X239675735Y-118602215D01*
X239700961Y-118644302D01*
X239721940Y-118688658D01*
X239738470Y-118734858D01*
X239750393Y-118782455D01*
X239757592Y-118830991D01*
X239760000Y-118880000D01*
X239760000Y-119880000D01*
X239757592Y-119929009D01*
X239750393Y-119977545D01*
X239738470Y-120025142D01*
X239721940Y-120071342D01*
X239700961Y-120115698D01*
X239675735Y-120157785D01*
X239646505Y-120197197D01*
X239613553Y-120233553D01*
X239577197Y-120266505D01*
X239537785Y-120295735D01*
X239495698Y-120320961D01*
X239451342Y-120341940D01*
X239405142Y-120358470D01*
X239357545Y-120370393D01*
X239309009Y-120377592D01*
X239260000Y-120380000D01*
X238260000Y-120380000D01*
X238210991Y-120377592D01*
X238162455Y-120370393D01*
X238114858Y-120358470D01*
X238068658Y-120341940D01*
X238024302Y-120320961D01*
X237982215Y-120295735D01*
X237942803Y-120266505D01*
X237906447Y-120233553D01*
X237873495Y-120197197D01*
X237844265Y-120157785D01*
X237819039Y-120115698D01*
X237798060Y-120071342D01*
X237781530Y-120025142D01*
X237769607Y-119977545D01*
X237762408Y-119929009D01*
X237760000Y-119880000D01*
X237760000Y-118880000D01*
X237762408Y-118830991D01*
X237769607Y-118782455D01*
X237781530Y-118734858D01*
X237798060Y-118688658D01*
X237819039Y-118644302D01*
X237844265Y-118602215D01*
X237873495Y-118562803D01*
X237906447Y-118526447D01*
X237942803Y-118493495D01*
X237982215Y-118464265D01*
X238024302Y-118439039D01*
X238068658Y-118418060D01*
X238114858Y-118401530D01*
X238162455Y-118389607D01*
X238210991Y-118382408D01*
X238260000Y-118380000D01*
X239260000Y-118380000D01*
X239309009Y-118382408D01*
X239309009Y-118382408D01*
G37*
D15*
G04 #@! TD*
G04 #@! TO.P,JP2,2*
G04 #@! TO.N,VCC*
X238760000Y-119380000D03*
D14*
G04 #@! TO.N,Net-(JP2-Pad1)*
G04 #@! TO.C,JP2*
G36*
X236769009Y-118382408D02*
X236817545Y-118389607D01*
X236865142Y-118401530D01*
X236911342Y-118418060D01*
X236955698Y-118439039D01*
X236997785Y-118464265D01*
X237037197Y-118493495D01*
X237073553Y-118526447D01*
X237106505Y-118562803D01*
X237135735Y-118602215D01*
X237160961Y-118644302D01*
X237181940Y-118688658D01*
X237198470Y-118734858D01*
X237210393Y-118782455D01*
X237217592Y-118830991D01*
X237220000Y-118880000D01*
X237220000Y-119880000D01*
X237217592Y-119929009D01*
X237210393Y-119977545D01*
X237198470Y-120025142D01*
X237181940Y-120071342D01*
X237160961Y-120115698D01*
X237135735Y-120157785D01*
X237106505Y-120197197D01*
X237073553Y-120233553D01*
X237037197Y-120266505D01*
X236997785Y-120295735D01*
X236955698Y-120320961D01*
X236911342Y-120341940D01*
X236865142Y-120358470D01*
X236817545Y-120370393D01*
X236769009Y-120377592D01*
X236720000Y-120380000D01*
X235720000Y-120380000D01*
X235670991Y-120377592D01*
X235622455Y-120370393D01*
X235574858Y-120358470D01*
X235528658Y-120341940D01*
X235484302Y-120320961D01*
X235442215Y-120295735D01*
X235402803Y-120266505D01*
X235366447Y-120233553D01*
X235333495Y-120197197D01*
X235304265Y-120157785D01*
X235279039Y-120115698D01*
X235258060Y-120071342D01*
X235241530Y-120025142D01*
X235229607Y-119977545D01*
X235222408Y-119929009D01*
X235220000Y-119880000D01*
X235220000Y-118880000D01*
X235222408Y-118830991D01*
X235229607Y-118782455D01*
X235241530Y-118734858D01*
X235258060Y-118688658D01*
X235279039Y-118644302D01*
X235304265Y-118602215D01*
X235333495Y-118562803D01*
X235366447Y-118526447D01*
X235402803Y-118493495D01*
X235442215Y-118464265D01*
X235484302Y-118439039D01*
X235528658Y-118418060D01*
X235574858Y-118401530D01*
X235622455Y-118389607D01*
X235670991Y-118382408D01*
X235720000Y-118380000D01*
X236720000Y-118380000D01*
X236769009Y-118382408D01*
X236769009Y-118382408D01*
G37*
D15*
G04 #@! TD*
G04 #@! TO.P,JP2,1*
G04 #@! TO.N,Net-(JP2-Pad1)*
X236220000Y-119380000D03*
D14*
G04 #@! TO.N,Net-(JP3-Pad2)*
G04 #@! TO.C,JP3*
G36*
X231689009Y-108730408D02*
X231737545Y-108737607D01*
X231785142Y-108749530D01*
X231831342Y-108766060D01*
X231875698Y-108787039D01*
X231917785Y-108812265D01*
X231957197Y-108841495D01*
X231993553Y-108874447D01*
X232026505Y-108910803D01*
X232055735Y-108950215D01*
X232080961Y-108992302D01*
X232101940Y-109036658D01*
X232118470Y-109082858D01*
X232130393Y-109130455D01*
X232137592Y-109178991D01*
X232140000Y-109228000D01*
X232140000Y-110228000D01*
X232137592Y-110277009D01*
X232130393Y-110325545D01*
X232118470Y-110373142D01*
X232101940Y-110419342D01*
X232080961Y-110463698D01*
X232055735Y-110505785D01*
X232026505Y-110545197D01*
X231993553Y-110581553D01*
X231957197Y-110614505D01*
X231917785Y-110643735D01*
X231875698Y-110668961D01*
X231831342Y-110689940D01*
X231785142Y-110706470D01*
X231737545Y-110718393D01*
X231689009Y-110725592D01*
X231640000Y-110728000D01*
X230640000Y-110728000D01*
X230590991Y-110725592D01*
X230542455Y-110718393D01*
X230494858Y-110706470D01*
X230448658Y-110689940D01*
X230404302Y-110668961D01*
X230362215Y-110643735D01*
X230322803Y-110614505D01*
X230286447Y-110581553D01*
X230253495Y-110545197D01*
X230224265Y-110505785D01*
X230199039Y-110463698D01*
X230178060Y-110419342D01*
X230161530Y-110373142D01*
X230149607Y-110325545D01*
X230142408Y-110277009D01*
X230140000Y-110228000D01*
X230140000Y-109228000D01*
X230142408Y-109178991D01*
X230149607Y-109130455D01*
X230161530Y-109082858D01*
X230178060Y-109036658D01*
X230199039Y-108992302D01*
X230224265Y-108950215D01*
X230253495Y-108910803D01*
X230286447Y-108874447D01*
X230322803Y-108841495D01*
X230362215Y-108812265D01*
X230404302Y-108787039D01*
X230448658Y-108766060D01*
X230494858Y-108749530D01*
X230542455Y-108737607D01*
X230590991Y-108730408D01*
X230640000Y-108728000D01*
X231640000Y-108728000D01*
X231689009Y-108730408D01*
X231689009Y-108730408D01*
G37*
D15*
G04 #@! TD*
G04 #@! TO.P,JP3,2*
G04 #@! TO.N,Net-(JP3-Pad2)*
X231140000Y-109728000D03*
D14*
G04 #@! TO.N,Net-(JP3-Pad1)*
G04 #@! TO.C,JP3*
G36*
X234229009Y-108730408D02*
X234277545Y-108737607D01*
X234325142Y-108749530D01*
X234371342Y-108766060D01*
X234415698Y-108787039D01*
X234457785Y-108812265D01*
X234497197Y-108841495D01*
X234533553Y-108874447D01*
X234566505Y-108910803D01*
X234595735Y-108950215D01*
X234620961Y-108992302D01*
X234641940Y-109036658D01*
X234658470Y-109082858D01*
X234670393Y-109130455D01*
X234677592Y-109178991D01*
X234680000Y-109228000D01*
X234680000Y-110228000D01*
X234677592Y-110277009D01*
X234670393Y-110325545D01*
X234658470Y-110373142D01*
X234641940Y-110419342D01*
X234620961Y-110463698D01*
X234595735Y-110505785D01*
X234566505Y-110545197D01*
X234533553Y-110581553D01*
X234497197Y-110614505D01*
X234457785Y-110643735D01*
X234415698Y-110668961D01*
X234371342Y-110689940D01*
X234325142Y-110706470D01*
X234277545Y-110718393D01*
X234229009Y-110725592D01*
X234180000Y-110728000D01*
X233180000Y-110728000D01*
X233130991Y-110725592D01*
X233082455Y-110718393D01*
X233034858Y-110706470D01*
X232988658Y-110689940D01*
X232944302Y-110668961D01*
X232902215Y-110643735D01*
X232862803Y-110614505D01*
X232826447Y-110581553D01*
X232793495Y-110545197D01*
X232764265Y-110505785D01*
X232739039Y-110463698D01*
X232718060Y-110419342D01*
X232701530Y-110373142D01*
X232689607Y-110325545D01*
X232682408Y-110277009D01*
X232680000Y-110228000D01*
X232680000Y-109228000D01*
X232682408Y-109178991D01*
X232689607Y-109130455D01*
X232701530Y-109082858D01*
X232718060Y-109036658D01*
X232739039Y-108992302D01*
X232764265Y-108950215D01*
X232793495Y-108910803D01*
X232826447Y-108874447D01*
X232862803Y-108841495D01*
X232902215Y-108812265D01*
X232944302Y-108787039D01*
X232988658Y-108766060D01*
X233034858Y-108749530D01*
X233082455Y-108737607D01*
X233130991Y-108730408D01*
X233180000Y-108728000D01*
X234180000Y-108728000D01*
X234229009Y-108730408D01*
X234229009Y-108730408D01*
G37*
D15*
G04 #@! TD*
G04 #@! TO.P,JP3,1*
G04 #@! TO.N,Net-(JP3-Pad1)*
X233680000Y-109728000D03*
D14*
G04 #@! TO.N,Net-(JP3-Pad2)*
G04 #@! TO.C,JP4*
G36*
X231689009Y-104666408D02*
X231737545Y-104673607D01*
X231785142Y-104685530D01*
X231831342Y-104702060D01*
X231875698Y-104723039D01*
X231917785Y-104748265D01*
X231957197Y-104777495D01*
X231993553Y-104810447D01*
X232026505Y-104846803D01*
X232055735Y-104886215D01*
X232080961Y-104928302D01*
X232101940Y-104972658D01*
X232118470Y-105018858D01*
X232130393Y-105066455D01*
X232137592Y-105114991D01*
X232140000Y-105164000D01*
X232140000Y-106164000D01*
X232137592Y-106213009D01*
X232130393Y-106261545D01*
X232118470Y-106309142D01*
X232101940Y-106355342D01*
X232080961Y-106399698D01*
X232055735Y-106441785D01*
X232026505Y-106481197D01*
X231993553Y-106517553D01*
X231957197Y-106550505D01*
X231917785Y-106579735D01*
X231875698Y-106604961D01*
X231831342Y-106625940D01*
X231785142Y-106642470D01*
X231737545Y-106654393D01*
X231689009Y-106661592D01*
X231640000Y-106664000D01*
X230640000Y-106664000D01*
X230590991Y-106661592D01*
X230542455Y-106654393D01*
X230494858Y-106642470D01*
X230448658Y-106625940D01*
X230404302Y-106604961D01*
X230362215Y-106579735D01*
X230322803Y-106550505D01*
X230286447Y-106517553D01*
X230253495Y-106481197D01*
X230224265Y-106441785D01*
X230199039Y-106399698D01*
X230178060Y-106355342D01*
X230161530Y-106309142D01*
X230149607Y-106261545D01*
X230142408Y-106213009D01*
X230140000Y-106164000D01*
X230140000Y-105164000D01*
X230142408Y-105114991D01*
X230149607Y-105066455D01*
X230161530Y-105018858D01*
X230178060Y-104972658D01*
X230199039Y-104928302D01*
X230224265Y-104886215D01*
X230253495Y-104846803D01*
X230286447Y-104810447D01*
X230322803Y-104777495D01*
X230362215Y-104748265D01*
X230404302Y-104723039D01*
X230448658Y-104702060D01*
X230494858Y-104685530D01*
X230542455Y-104673607D01*
X230590991Y-104666408D01*
X230640000Y-104664000D01*
X231640000Y-104664000D01*
X231689009Y-104666408D01*
X231689009Y-104666408D01*
G37*
D15*
G04 #@! TD*
G04 #@! TO.P,JP4,2*
G04 #@! TO.N,Net-(JP3-Pad2)*
X231140000Y-105664000D03*
D14*
G04 #@! TO.N,Net-(JP4-Pad1)*
G04 #@! TO.C,JP4*
G36*
X234229009Y-104666408D02*
X234277545Y-104673607D01*
X234325142Y-104685530D01*
X234371342Y-104702060D01*
X234415698Y-104723039D01*
X234457785Y-104748265D01*
X234497197Y-104777495D01*
X234533553Y-104810447D01*
X234566505Y-104846803D01*
X234595735Y-104886215D01*
X234620961Y-104928302D01*
X234641940Y-104972658D01*
X234658470Y-105018858D01*
X234670393Y-105066455D01*
X234677592Y-105114991D01*
X234680000Y-105164000D01*
X234680000Y-106164000D01*
X234677592Y-106213009D01*
X234670393Y-106261545D01*
X234658470Y-106309142D01*
X234641940Y-106355342D01*
X234620961Y-106399698D01*
X234595735Y-106441785D01*
X234566505Y-106481197D01*
X234533553Y-106517553D01*
X234497197Y-106550505D01*
X234457785Y-106579735D01*
X234415698Y-106604961D01*
X234371342Y-106625940D01*
X234325142Y-106642470D01*
X234277545Y-106654393D01*
X234229009Y-106661592D01*
X234180000Y-106664000D01*
X233180000Y-106664000D01*
X233130991Y-106661592D01*
X233082455Y-106654393D01*
X233034858Y-106642470D01*
X232988658Y-106625940D01*
X232944302Y-106604961D01*
X232902215Y-106579735D01*
X232862803Y-106550505D01*
X232826447Y-106517553D01*
X232793495Y-106481197D01*
X232764265Y-106441785D01*
X232739039Y-106399698D01*
X232718060Y-106355342D01*
X232701530Y-106309142D01*
X232689607Y-106261545D01*
X232682408Y-106213009D01*
X232680000Y-106164000D01*
X232680000Y-105164000D01*
X232682408Y-105114991D01*
X232689607Y-105066455D01*
X232701530Y-105018858D01*
X232718060Y-104972658D01*
X232739039Y-104928302D01*
X232764265Y-104886215D01*
X232793495Y-104846803D01*
X232826447Y-104810447D01*
X232862803Y-104777495D01*
X232902215Y-104748265D01*
X232944302Y-104723039D01*
X232988658Y-104702060D01*
X233034858Y-104685530D01*
X233082455Y-104673607D01*
X233130991Y-104666408D01*
X233180000Y-104664000D01*
X234180000Y-104664000D01*
X234229009Y-104666408D01*
X234229009Y-104666408D01*
G37*
D15*
G04 #@! TD*
G04 #@! TO.P,JP4,1*
G04 #@! TO.N,Net-(JP4-Pad1)*
X233680000Y-105664000D03*
D14*
G04 #@! TO.N,+5V*
G04 #@! TO.C,JP5*
G36*
X229936409Y-77742408D02*
X229984945Y-77749607D01*
X230032542Y-77761530D01*
X230078742Y-77778060D01*
X230123098Y-77799039D01*
X230165185Y-77824265D01*
X230204597Y-77853495D01*
X230240953Y-77886447D01*
X230273905Y-77922803D01*
X230303135Y-77962215D01*
X230328361Y-78004302D01*
X230349340Y-78048658D01*
X230365870Y-78094858D01*
X230377793Y-78142455D01*
X230384992Y-78190991D01*
X230387400Y-78240000D01*
X230387400Y-79240000D01*
X230384992Y-79289009D01*
X230377793Y-79337545D01*
X230365870Y-79385142D01*
X230349340Y-79431342D01*
X230328361Y-79475698D01*
X230303135Y-79517785D01*
X230273905Y-79557197D01*
X230240953Y-79593553D01*
X230204597Y-79626505D01*
X230165185Y-79655735D01*
X230123098Y-79680961D01*
X230078742Y-79701940D01*
X230032542Y-79718470D01*
X229984945Y-79730393D01*
X229936409Y-79737592D01*
X229887400Y-79740000D01*
X228887400Y-79740000D01*
X228838391Y-79737592D01*
X228789855Y-79730393D01*
X228742258Y-79718470D01*
X228696058Y-79701940D01*
X228651702Y-79680961D01*
X228609615Y-79655735D01*
X228570203Y-79626505D01*
X228533847Y-79593553D01*
X228500895Y-79557197D01*
X228471665Y-79517785D01*
X228446439Y-79475698D01*
X228425460Y-79431342D01*
X228408930Y-79385142D01*
X228397007Y-79337545D01*
X228389808Y-79289009D01*
X228387400Y-79240000D01*
X228387400Y-78240000D01*
X228389808Y-78190991D01*
X228397007Y-78142455D01*
X228408930Y-78094858D01*
X228425460Y-78048658D01*
X228446439Y-78004302D01*
X228471665Y-77962215D01*
X228500895Y-77922803D01*
X228533847Y-77886447D01*
X228570203Y-77853495D01*
X228609615Y-77824265D01*
X228651702Y-77799039D01*
X228696058Y-77778060D01*
X228742258Y-77761530D01*
X228789855Y-77749607D01*
X228838391Y-77742408D01*
X228887400Y-77740000D01*
X229887400Y-77740000D01*
X229936409Y-77742408D01*
X229936409Y-77742408D01*
G37*
D15*
G04 #@! TD*
G04 #@! TO.P,JP5,2*
G04 #@! TO.N,+5V*
X229387400Y-78740000D03*
D14*
G04 #@! TO.N,Net-(C6-Pad1)*
G04 #@! TO.C,JP5*
G36*
X229936409Y-75202408D02*
X229984945Y-75209607D01*
X230032542Y-75221530D01*
X230078742Y-75238060D01*
X230123098Y-75259039D01*
X230165185Y-75284265D01*
X230204597Y-75313495D01*
X230240953Y-75346447D01*
X230273905Y-75382803D01*
X230303135Y-75422215D01*
X230328361Y-75464302D01*
X230349340Y-75508658D01*
X230365870Y-75554858D01*
X230377793Y-75602455D01*
X230384992Y-75650991D01*
X230387400Y-75700000D01*
X230387400Y-76700000D01*
X230384992Y-76749009D01*
X230377793Y-76797545D01*
X230365870Y-76845142D01*
X230349340Y-76891342D01*
X230328361Y-76935698D01*
X230303135Y-76977785D01*
X230273905Y-77017197D01*
X230240953Y-77053553D01*
X230204597Y-77086505D01*
X230165185Y-77115735D01*
X230123098Y-77140961D01*
X230078742Y-77161940D01*
X230032542Y-77178470D01*
X229984945Y-77190393D01*
X229936409Y-77197592D01*
X229887400Y-77200000D01*
X228887400Y-77200000D01*
X228838391Y-77197592D01*
X228789855Y-77190393D01*
X228742258Y-77178470D01*
X228696058Y-77161940D01*
X228651702Y-77140961D01*
X228609615Y-77115735D01*
X228570203Y-77086505D01*
X228533847Y-77053553D01*
X228500895Y-77017197D01*
X228471665Y-76977785D01*
X228446439Y-76935698D01*
X228425460Y-76891342D01*
X228408930Y-76845142D01*
X228397007Y-76797545D01*
X228389808Y-76749009D01*
X228387400Y-76700000D01*
X228387400Y-75700000D01*
X228389808Y-75650991D01*
X228397007Y-75602455D01*
X228408930Y-75554858D01*
X228425460Y-75508658D01*
X228446439Y-75464302D01*
X228471665Y-75422215D01*
X228500895Y-75382803D01*
X228533847Y-75346447D01*
X228570203Y-75313495D01*
X228609615Y-75284265D01*
X228651702Y-75259039D01*
X228696058Y-75238060D01*
X228742258Y-75221530D01*
X228789855Y-75209607D01*
X228838391Y-75202408D01*
X228887400Y-75200000D01*
X229887400Y-75200000D01*
X229936409Y-75202408D01*
X229936409Y-75202408D01*
G37*
D15*
G04 #@! TD*
G04 #@! TO.P,JP5,1*
G04 #@! TO.N,Net-(C6-Pad1)*
X229387400Y-76200000D03*
D16*
G04 #@! TO.P,Q1,1*
G04 #@! TO.N,Net-(D7-Pad1)*
X213360000Y-103930000D03*
D17*
X213360000Y-106230000D03*
D18*
G04 #@! TO.P,Q1,3*
G04 #@! TO.N,Net-(Q1-Pad3)*
X213995000Y-109405000D03*
X212725000Y-109405000D03*
G04 #@! TO.P,Q1,2*
G04 #@! TO.N,Net-(Q1-Pad2)*
X215265000Y-109405000D03*
G04 #@! TO.P,Q1,3*
G04 #@! TO.N,Net-(Q1-Pad3)*
X211455000Y-109405000D03*
G04 #@! TD*
D19*
G04 #@! TO.P,R1,2*
G04 #@! TO.N,Net-(JP1-Pad2)*
X244983000Y-85095000D03*
G04 #@! TO.P,R1,1*
G04 #@! TO.N,VCC*
X244983000Y-86995000D03*
G04 #@! TD*
G04 #@! TO.P,R2,2*
G04 #@! TO.N,GND*
X257034920Y-64055640D03*
G04 #@! TO.P,R2,1*
G04 #@! TO.N,Net-(J1-PadA5)*
X257034920Y-65955640D03*
G04 #@! TD*
G04 #@! TO.P,R3,2*
G04 #@! TO.N,GND*
X260844920Y-64055640D03*
G04 #@! TO.P,R3,1*
G04 #@! TO.N,Net-(J1-PadB5)*
X260844920Y-65955640D03*
G04 #@! TD*
G04 #@! TO.P,R4,2*
G04 #@! TO.N,Net-(R4-Pad2)*
X255891920Y-81830640D03*
G04 #@! TO.P,R4,1*
G04 #@! TO.N,Net-(C6-Pad1)*
X255891920Y-83730640D03*
G04 #@! TD*
G04 #@! TO.P,R5,2*
G04 #@! TO.N,GND*
X259842000Y-83730640D03*
G04 #@! TO.P,R5,1*
G04 #@! TO.N,Net-(R4-Pad2)*
X259842000Y-81830640D03*
G04 #@! TD*
G04 #@! TO.P,R6,2*
G04 #@! TO.N,Net-(J1-PadA5)*
X257034920Y-69135640D03*
G04 #@! TO.P,R6,1*
G04 #@! TO.N,Net-(R6-Pad1)*
X257034920Y-71035640D03*
G04 #@! TD*
G04 #@! TO.P,R7,2*
G04 #@! TO.N,Net-(R7-Pad2)*
X260844920Y-71096640D03*
G04 #@! TO.P,R7,1*
G04 #@! TO.N,Net-(J1-PadB5)*
X260844920Y-69196640D03*
G04 #@! TD*
D20*
G04 #@! TO.P,R13,2*
G04 #@! TO.N,Net-(D5-Pad2)*
X234315000Y-100076000D03*
G04 #@! TO.P,R13,1*
G04 #@! TO.N,Net-(R13-Pad1)*
X236215000Y-100076000D03*
G04 #@! TD*
G04 #@! TO.P,R17,2*
G04 #@! TO.N,Net-(JP2-Pad1)*
X239268000Y-114935000D03*
G04 #@! TO.P,R17,1*
G04 #@! TO.N,VCC*
X241168000Y-114935000D03*
G04 #@! TD*
D21*
G04 #@! TO.P,R18,1*
G04 #@! TO.N,Net-(Q1-Pad3)*
X210800090Y-114949116D03*
G04 #@! TO.P,R18,2*
G04 #@! TO.N,Net-(R18-Pad2)*
X215350090Y-114949116D03*
G04 #@! TD*
G04 #@! TO.P,R19,1*
G04 #@! TO.N,Net-(R18-Pad2)*
X221615000Y-114935000D03*
G04 #@! TO.P,R19,2*
G04 #@! TO.N,GND*
X226165000Y-114935000D03*
G04 #@! TD*
D19*
G04 #@! TO.P,R20,2*
G04 #@! TO.N,Net-(D6-Pad2)*
X260223000Y-104465488D03*
G04 #@! TO.P,R20,1*
G04 #@! TO.N,VCC*
X260223000Y-106365488D03*
G04 #@! TD*
D21*
G04 #@! TO.P,R21,1*
G04 #@! TO.N,Net-(Q1-Pad3)*
X210800090Y-120650000D03*
G04 #@! TO.P,R21,2*
G04 #@! TO.N,Net-(R18-Pad2)*
X215350090Y-120650000D03*
G04 #@! TD*
G04 #@! TO.P,R22,1*
G04 #@! TO.N,Net-(R18-Pad2)*
X221615000Y-120650000D03*
G04 #@! TO.P,R22,2*
G04 #@! TO.N,GND*
X226165000Y-120650000D03*
G04 #@! TD*
D19*
G04 #@! TO.P,R23,2*
G04 #@! TO.N,Net-(D8-Pad2)*
X235218967Y-67970171D03*
G04 #@! TO.P,R23,1*
G04 #@! TO.N,+5V*
X235218967Y-69870171D03*
G04 #@! TD*
D22*
G04 #@! TO.P,RV1,3*
G04 #@! TO.N,GND*
X231140000Y-114935000D03*
G04 #@! TO.P,RV1,2*
G04 #@! TO.N,Net-(JP3-Pad1)*
X233680000Y-114935000D03*
G04 #@! TO.P,RV1,1*
G04 #@! TO.N,Net-(JP2-Pad1)*
X236220000Y-114935000D03*
G04 #@! TD*
D14*
G04 #@! TO.N,GND*
G04 #@! TO.C,TP1*
G36*
X206289009Y-98062408D02*
X206337545Y-98069607D01*
X206385142Y-98081530D01*
X206431342Y-98098060D01*
X206475698Y-98119039D01*
X206517785Y-98144265D01*
X206557197Y-98173495D01*
X206593553Y-98206447D01*
X206626505Y-98242803D01*
X206655735Y-98282215D01*
X206680961Y-98324302D01*
X206701940Y-98368658D01*
X206718470Y-98414858D01*
X206730393Y-98462455D01*
X206737592Y-98510991D01*
X206740000Y-98560000D01*
X206740000Y-99560000D01*
X206737592Y-99609009D01*
X206730393Y-99657545D01*
X206718470Y-99705142D01*
X206701940Y-99751342D01*
X206680961Y-99795698D01*
X206655735Y-99837785D01*
X206626505Y-99877197D01*
X206593553Y-99913553D01*
X206557197Y-99946505D01*
X206517785Y-99975735D01*
X206475698Y-100000961D01*
X206431342Y-100021940D01*
X206385142Y-100038470D01*
X206337545Y-100050393D01*
X206289009Y-100057592D01*
X206240000Y-100060000D01*
X205240000Y-100060000D01*
X205190991Y-100057592D01*
X205142455Y-100050393D01*
X205094858Y-100038470D01*
X205048658Y-100021940D01*
X205004302Y-100000961D01*
X204962215Y-99975735D01*
X204922803Y-99946505D01*
X204886447Y-99913553D01*
X204853495Y-99877197D01*
X204824265Y-99837785D01*
X204799039Y-99795698D01*
X204778060Y-99751342D01*
X204761530Y-99705142D01*
X204749607Y-99657545D01*
X204742408Y-99609009D01*
X204740000Y-99560000D01*
X204740000Y-98560000D01*
X204742408Y-98510991D01*
X204749607Y-98462455D01*
X204761530Y-98414858D01*
X204778060Y-98368658D01*
X204799039Y-98324302D01*
X204824265Y-98282215D01*
X204853495Y-98242803D01*
X204886447Y-98206447D01*
X204922803Y-98173495D01*
X204962215Y-98144265D01*
X205004302Y-98119039D01*
X205048658Y-98098060D01*
X205094858Y-98081530D01*
X205142455Y-98069607D01*
X205190991Y-98062408D01*
X205240000Y-98060000D01*
X206240000Y-98060000D01*
X206289009Y-98062408D01*
X206289009Y-98062408D01*
G37*
D15*
G04 #@! TD*
G04 #@! TO.P,TP1,e*
G04 #@! TO.N,GND*
X205740000Y-99060000D03*
D14*
G04 #@! TO.N,GND*
G04 #@! TO.C,TP2*
G36*
X236642009Y-63518408D02*
X236690545Y-63525607D01*
X236738142Y-63537530D01*
X236784342Y-63554060D01*
X236828698Y-63575039D01*
X236870785Y-63600265D01*
X236910197Y-63629495D01*
X236946553Y-63662447D01*
X236979505Y-63698803D01*
X237008735Y-63738215D01*
X237033961Y-63780302D01*
X237054940Y-63824658D01*
X237071470Y-63870858D01*
X237083393Y-63918455D01*
X237090592Y-63966991D01*
X237093000Y-64016000D01*
X237093000Y-65016000D01*
X237090592Y-65065009D01*
X237083393Y-65113545D01*
X237071470Y-65161142D01*
X237054940Y-65207342D01*
X237033961Y-65251698D01*
X237008735Y-65293785D01*
X236979505Y-65333197D01*
X236946553Y-65369553D01*
X236910197Y-65402505D01*
X236870785Y-65431735D01*
X236828698Y-65456961D01*
X236784342Y-65477940D01*
X236738142Y-65494470D01*
X236690545Y-65506393D01*
X236642009Y-65513592D01*
X236593000Y-65516000D01*
X235593000Y-65516000D01*
X235543991Y-65513592D01*
X235495455Y-65506393D01*
X235447858Y-65494470D01*
X235401658Y-65477940D01*
X235357302Y-65456961D01*
X235315215Y-65431735D01*
X235275803Y-65402505D01*
X235239447Y-65369553D01*
X235206495Y-65333197D01*
X235177265Y-65293785D01*
X235152039Y-65251698D01*
X235131060Y-65207342D01*
X235114530Y-65161142D01*
X235102607Y-65113545D01*
X235095408Y-65065009D01*
X235093000Y-65016000D01*
X235093000Y-64016000D01*
X235095408Y-63966991D01*
X235102607Y-63918455D01*
X235114530Y-63870858D01*
X235131060Y-63824658D01*
X235152039Y-63780302D01*
X235177265Y-63738215D01*
X235206495Y-63698803D01*
X235239447Y-63662447D01*
X235275803Y-63629495D01*
X235315215Y-63600265D01*
X235357302Y-63575039D01*
X235401658Y-63554060D01*
X235447858Y-63537530D01*
X235495455Y-63525607D01*
X235543991Y-63518408D01*
X235593000Y-63516000D01*
X236593000Y-63516000D01*
X236642009Y-63518408D01*
X236642009Y-63518408D01*
G37*
D15*
G04 #@! TD*
G04 #@! TO.P,TP2,1*
G04 #@! TO.N,GND*
X236093000Y-64516000D03*
D14*
G04 #@! TO.N,GND*
G04 #@! TO.C,TP3*
G36*
X232578009Y-119779408D02*
X232626545Y-119786607D01*
X232674142Y-119798530D01*
X232720342Y-119815060D01*
X232764698Y-119836039D01*
X232806785Y-119861265D01*
X232846197Y-119890495D01*
X232882553Y-119923447D01*
X232915505Y-119959803D01*
X232944735Y-119999215D01*
X232969961Y-120041302D01*
X232990940Y-120085658D01*
X233007470Y-120131858D01*
X233019393Y-120179455D01*
X233026592Y-120227991D01*
X233029000Y-120277000D01*
X233029000Y-121277000D01*
X233026592Y-121326009D01*
X233019393Y-121374545D01*
X233007470Y-121422142D01*
X232990940Y-121468342D01*
X232969961Y-121512698D01*
X232944735Y-121554785D01*
X232915505Y-121594197D01*
X232882553Y-121630553D01*
X232846197Y-121663505D01*
X232806785Y-121692735D01*
X232764698Y-121717961D01*
X232720342Y-121738940D01*
X232674142Y-121755470D01*
X232626545Y-121767393D01*
X232578009Y-121774592D01*
X232529000Y-121777000D01*
X231529000Y-121777000D01*
X231479991Y-121774592D01*
X231431455Y-121767393D01*
X231383858Y-121755470D01*
X231337658Y-121738940D01*
X231293302Y-121717961D01*
X231251215Y-121692735D01*
X231211803Y-121663505D01*
X231175447Y-121630553D01*
X231142495Y-121594197D01*
X231113265Y-121554785D01*
X231088039Y-121512698D01*
X231067060Y-121468342D01*
X231050530Y-121422142D01*
X231038607Y-121374545D01*
X231031408Y-121326009D01*
X231029000Y-121277000D01*
X231029000Y-120277000D01*
X231031408Y-120227991D01*
X231038607Y-120179455D01*
X231050530Y-120131858D01*
X231067060Y-120085658D01*
X231088039Y-120041302D01*
X231113265Y-119999215D01*
X231142495Y-119959803D01*
X231175447Y-119923447D01*
X231211803Y-119890495D01*
X231251215Y-119861265D01*
X231293302Y-119836039D01*
X231337658Y-119815060D01*
X231383858Y-119798530D01*
X231431455Y-119786607D01*
X231479991Y-119779408D01*
X231529000Y-119777000D01*
X232529000Y-119777000D01*
X232578009Y-119779408D01*
X232578009Y-119779408D01*
G37*
D15*
G04 #@! TD*
G04 #@! TO.P,TP3,1*
G04 #@! TO.N,GND*
X232029000Y-120777000D03*
D14*
G04 #@! TO.N,GND*
G04 #@! TO.C,TP4*
G36*
X221529009Y-77742408D02*
X221577545Y-77749607D01*
X221625142Y-77761530D01*
X221671342Y-77778060D01*
X221715698Y-77799039D01*
X221757785Y-77824265D01*
X221797197Y-77853495D01*
X221833553Y-77886447D01*
X221866505Y-77922803D01*
X221895735Y-77962215D01*
X221920961Y-78004302D01*
X221941940Y-78048658D01*
X221958470Y-78094858D01*
X221970393Y-78142455D01*
X221977592Y-78190991D01*
X221980000Y-78240000D01*
X221980000Y-79240000D01*
X221977592Y-79289009D01*
X221970393Y-79337545D01*
X221958470Y-79385142D01*
X221941940Y-79431342D01*
X221920961Y-79475698D01*
X221895735Y-79517785D01*
X221866505Y-79557197D01*
X221833553Y-79593553D01*
X221797197Y-79626505D01*
X221757785Y-79655735D01*
X221715698Y-79680961D01*
X221671342Y-79701940D01*
X221625142Y-79718470D01*
X221577545Y-79730393D01*
X221529009Y-79737592D01*
X221480000Y-79740000D01*
X220480000Y-79740000D01*
X220430991Y-79737592D01*
X220382455Y-79730393D01*
X220334858Y-79718470D01*
X220288658Y-79701940D01*
X220244302Y-79680961D01*
X220202215Y-79655735D01*
X220162803Y-79626505D01*
X220126447Y-79593553D01*
X220093495Y-79557197D01*
X220064265Y-79517785D01*
X220039039Y-79475698D01*
X220018060Y-79431342D01*
X220001530Y-79385142D01*
X219989607Y-79337545D01*
X219982408Y-79289009D01*
X219980000Y-79240000D01*
X219980000Y-78240000D01*
X219982408Y-78190991D01*
X219989607Y-78142455D01*
X220001530Y-78094858D01*
X220018060Y-78048658D01*
X220039039Y-78004302D01*
X220064265Y-77962215D01*
X220093495Y-77922803D01*
X220126447Y-77886447D01*
X220162803Y-77853495D01*
X220202215Y-77824265D01*
X220244302Y-77799039D01*
X220288658Y-77778060D01*
X220334858Y-77761530D01*
X220382455Y-77749607D01*
X220430991Y-77742408D01*
X220480000Y-77740000D01*
X221480000Y-77740000D01*
X221529009Y-77742408D01*
X221529009Y-77742408D01*
G37*
D15*
G04 #@! TD*
G04 #@! TO.P,TP4,E*
G04 #@! TO.N,GND*
X220980000Y-78740000D03*
D23*
G04 #@! TO.P,Y1,4*
G04 #@! TO.N,GND*
X235338000Y-93980000D03*
G04 #@! TO.P,Y1,2*
X233038000Y-92130000D03*
G04 #@! TO.P,Y1,3*
G04 #@! TO.N,Net-(C4-Pad1)*
X233038000Y-93980000D03*
G04 #@! TO.P,Y1,1*
G04 #@! TO.N,Net-(C3-Pad1)*
X235338000Y-92130000D03*
G04 #@! TD*
D14*
G04 #@! TO.N,Net-(Q1-Pad3)*
G04 #@! TO.C,Vs1*
G36*
X208194009Y-108857408D02*
X208242545Y-108864607D01*
X208290142Y-108876530D01*
X208336342Y-108893060D01*
X208380698Y-108914039D01*
X208422785Y-108939265D01*
X208462197Y-108968495D01*
X208498553Y-109001447D01*
X208531505Y-109037803D01*
X208560735Y-109077215D01*
X208585961Y-109119302D01*
X208606940Y-109163658D01*
X208623470Y-109209858D01*
X208635393Y-109257455D01*
X208642592Y-109305991D01*
X208645000Y-109355000D01*
X208645000Y-110355000D01*
X208642592Y-110404009D01*
X208635393Y-110452545D01*
X208623470Y-110500142D01*
X208606940Y-110546342D01*
X208585961Y-110590698D01*
X208560735Y-110632785D01*
X208531505Y-110672197D01*
X208498553Y-110708553D01*
X208462197Y-110741505D01*
X208422785Y-110770735D01*
X208380698Y-110795961D01*
X208336342Y-110816940D01*
X208290142Y-110833470D01*
X208242545Y-110845393D01*
X208194009Y-110852592D01*
X208145000Y-110855000D01*
X207145000Y-110855000D01*
X207095991Y-110852592D01*
X207047455Y-110845393D01*
X206999858Y-110833470D01*
X206953658Y-110816940D01*
X206909302Y-110795961D01*
X206867215Y-110770735D01*
X206827803Y-110741505D01*
X206791447Y-110708553D01*
X206758495Y-110672197D01*
X206729265Y-110632785D01*
X206704039Y-110590698D01*
X206683060Y-110546342D01*
X206666530Y-110500142D01*
X206654607Y-110452545D01*
X206647408Y-110404009D01*
X206645000Y-110355000D01*
X206645000Y-109355000D01*
X206647408Y-109305991D01*
X206654607Y-109257455D01*
X206666530Y-109209858D01*
X206683060Y-109163658D01*
X206704039Y-109119302D01*
X206729265Y-109077215D01*
X206758495Y-109037803D01*
X206791447Y-109001447D01*
X206827803Y-108968495D01*
X206867215Y-108939265D01*
X206909302Y-108914039D01*
X206953658Y-108893060D01*
X206999858Y-108876530D01*
X207047455Y-108864607D01*
X207095991Y-108857408D01*
X207145000Y-108855000D01*
X208145000Y-108855000D01*
X208194009Y-108857408D01*
X208194009Y-108857408D01*
G37*
D15*
G04 #@! TD*
G04 #@! TO.P,Vs1,1*
G04 #@! TO.N,Net-(Q1-Pad3)*
X207645000Y-109855000D03*
D24*
G04 #@! TO.P,U4,8*
G04 #@! TO.N,VCC*
X222631000Y-105228652D03*
G04 #@! TO.P,U4,7*
G04 #@! TO.N,Net-(U4-Pad7)*
X223901000Y-105228652D03*
G04 #@! TO.P,U4,6*
G04 #@! TO.N,GND*
X225171000Y-105228652D03*
G04 #@! TO.P,U4,5*
X226441000Y-105228652D03*
G04 #@! TO.P,U4,4*
X226441000Y-110671348D03*
G04 #@! TO.P,U4,3*
G04 #@! TO.N,Net-(JP3-Pad2)*
X225171000Y-110671348D03*
G04 #@! TO.P,U4,2*
G04 #@! TO.N,Net-(Q1-Pad3)*
X223901000Y-110671348D03*
G04 #@! TO.P,U4,1*
G04 #@! TO.N,Net-(Q1-Pad2)*
X222631000Y-110671348D03*
G04 #@! TD*
D25*
G04 #@! TO.P,C16,1*
G04 #@! TO.N,VCC*
X223280000Y-102616000D03*
G04 #@! TO.P,C16,2*
G04 #@! TO.N,GND*
X225030000Y-102616000D03*
G04 #@! TD*
G04 #@! TO.P,C17,1*
G04 #@! TO.N,VCC*
X220585000Y-102616000D03*
G04 #@! TO.P,C17,2*
G04 #@! TO.N,GND*
X218835000Y-102616000D03*
G04 #@! TD*
G04 #@! TO.P,C19,2*
G04 #@! TO.N,GND*
X218835000Y-106934000D03*
G04 #@! TO.P,C19,1*
G04 #@! TO.N,VCC*
X220585000Y-106934000D03*
G04 #@! TD*
G04 #@! TO.P,C13,2*
G04 #@! TO.N,GND*
X255242000Y-101600000D03*
G04 #@! TO.P,C13,1*
G04 #@! TO.N,VCC*
X253492000Y-101600000D03*
G04 #@! TD*
G04 #@! TO.P,C14,2*
G04 #@! TO.N,GND*
X255242000Y-98298000D03*
G04 #@! TO.P,C14,1*
G04 #@! TO.N,VCC*
X253492000Y-98298000D03*
G04 #@! TD*
G04 #@! TO.P,C15,1*
G04 #@! TO.N,VCC*
X253492000Y-90805000D03*
G04 #@! TO.P,C15,2*
G04 #@! TO.N,GND*
X255242000Y-90805000D03*
G04 #@! TD*
D26*
G04 #@! TO.P,J2,S1*
G04 #@! TO.N,GND*
X267430000Y-92073000D03*
X267430000Y-100713000D03*
D27*
X262070000Y-92073000D03*
X262070000Y-100713000D03*
D28*
G04 #@! TO.P,J2,B12*
X262960000Y-99493000D03*
D29*
G04 #@! TO.P,J2,B11*
G04 #@! TO.N,Net-(J2-PadB11)*
X262960000Y-98643000D03*
G04 #@! TO.P,J2,B10*
G04 #@! TO.N,Net-(J2-PadB10)*
X262960000Y-98143000D03*
G04 #@! TO.P,J2,B9*
G04 #@! TO.N,Net-(J2-PadA4)*
X262960000Y-97643000D03*
G04 #@! TO.P,J2,B8*
G04 #@! TO.N,Net-(J2-PadB8)*
X262960000Y-97143000D03*
G04 #@! TO.P,J2,B7*
G04 #@! TO.N,/D-*
X262960000Y-96643000D03*
G04 #@! TO.P,J2,B6*
G04 #@! TO.N,/D+*
X262960000Y-96143000D03*
G04 #@! TO.P,J2,B5*
G04 #@! TO.N,Net-(J2-PadB5)*
X262960000Y-95643000D03*
G04 #@! TO.P,J2,B4*
G04 #@! TO.N,Net-(J2-PadA4)*
X262960000Y-95143000D03*
G04 #@! TO.P,J2,B3*
G04 #@! TO.N,Net-(J2-PadB3)*
X262960000Y-94643000D03*
G04 #@! TO.P,J2,B2*
G04 #@! TO.N,Net-(J2-PadB2)*
X262960000Y-94143000D03*
D28*
G04 #@! TO.P,J2,B1*
G04 #@! TO.N,GND*
X262960000Y-93293000D03*
D29*
G04 #@! TO.P,J2,A12*
X261660000Y-93393000D03*
G04 #@! TO.P,J2,A11*
G04 #@! TO.N,Net-(J2-PadA11)*
X261660000Y-93893000D03*
G04 #@! TO.P,J2,A10*
G04 #@! TO.N,Net-(J2-PadA10)*
X261660000Y-94393000D03*
G04 #@! TO.P,J2,A9*
G04 #@! TO.N,Net-(J2-PadA4)*
X261660000Y-94893000D03*
G04 #@! TO.P,J2,A8*
G04 #@! TO.N,Net-(J2-PadA8)*
X261660000Y-95393000D03*
G04 #@! TO.P,J2,A7*
G04 #@! TO.N,/D-*
X261660000Y-95893000D03*
G04 #@! TO.P,J2,A6*
G04 #@! TO.N,/D+*
X261660000Y-96893000D03*
G04 #@! TO.P,J2,A5*
G04 #@! TO.N,Net-(J2-PadA5)*
X261660000Y-97393000D03*
G04 #@! TO.P,J2,A4*
G04 #@! TO.N,Net-(J2-PadA4)*
X261660000Y-97893000D03*
G04 #@! TO.P,J2,A3*
G04 #@! TO.N,Net-(J2-PadA3)*
X261660000Y-98393000D03*
G04 #@! TO.P,J2,A2*
G04 #@! TO.N,Net-(J2-PadA2)*
X261660000Y-98893000D03*
G04 #@! TO.P,J2,A1*
G04 #@! TO.N,GND*
X261660000Y-99393000D03*
G04 #@! TD*
D30*
G04 #@! TO.P,J1,A1*
G04 #@! TO.N,GND*
X248110000Y-67778000D03*
G04 #@! TO.P,J1,A2*
G04 #@! TO.N,Net-(J1-PadA2)*
X247610000Y-67778000D03*
G04 #@! TO.P,J1,A3*
G04 #@! TO.N,Net-(J1-PadA3)*
X247110000Y-67778000D03*
G04 #@! TO.P,J1,A4*
G04 #@! TO.N,Net-(C6-Pad1)*
X246610000Y-67778000D03*
G04 #@! TO.P,J1,A5*
G04 #@! TO.N,Net-(J1-PadA5)*
X246110000Y-67778000D03*
G04 #@! TO.P,J1,A6*
G04 #@! TO.N,Net-(J1-PadA6)*
X245610000Y-67778000D03*
G04 #@! TO.P,J1,A7*
G04 #@! TO.N,Net-(J1-PadA7)*
X244610000Y-67778000D03*
G04 #@! TO.P,J1,A8*
G04 #@! TO.N,Net-(J1-PadA8)*
X244110000Y-67778000D03*
G04 #@! TO.P,J1,A9*
G04 #@! TO.N,Net-(C6-Pad1)*
X243610000Y-67778000D03*
G04 #@! TO.P,J1,A10*
G04 #@! TO.N,Net-(J1-PadA10)*
X243110000Y-67778000D03*
G04 #@! TO.P,J1,A11*
G04 #@! TO.N,Net-(J1-PadA11)*
X242610000Y-67778000D03*
G04 #@! TO.P,J1,A12*
G04 #@! TO.N,GND*
X242110000Y-67778000D03*
D31*
G04 #@! TO.P,J1,B1*
X242010000Y-66478000D03*
D30*
G04 #@! TO.P,J1,B2*
G04 #@! TO.N,Net-(J1-PadB2)*
X242860000Y-66478000D03*
G04 #@! TO.P,J1,B3*
G04 #@! TO.N,Net-(J1-PadB3)*
X243360000Y-66478000D03*
G04 #@! TO.P,J1,B4*
G04 #@! TO.N,Net-(C6-Pad1)*
X243860000Y-66478000D03*
G04 #@! TO.P,J1,B5*
G04 #@! TO.N,Net-(J1-PadB5)*
X244360000Y-66478000D03*
G04 #@! TO.P,J1,B6*
G04 #@! TO.N,Net-(J1-PadB6)*
X244860000Y-66478000D03*
G04 #@! TO.P,J1,B7*
G04 #@! TO.N,Net-(J1-PadB7)*
X245360000Y-66478000D03*
G04 #@! TO.P,J1,B8*
G04 #@! TO.N,Net-(J1-PadB8)*
X245860000Y-66478000D03*
G04 #@! TO.P,J1,B9*
G04 #@! TO.N,Net-(C6-Pad1)*
X246360000Y-66478000D03*
G04 #@! TO.P,J1,B10*
G04 #@! TO.N,Net-(J1-PadB10)*
X246860000Y-66478000D03*
G04 #@! TO.P,J1,B11*
G04 #@! TO.N,Net-(J1-PadB11)*
X247360000Y-66478000D03*
D31*
G04 #@! TO.P,J1,B12*
G04 #@! TO.N,GND*
X248210000Y-66478000D03*
D32*
G04 #@! TO.P,J1,S1*
X249430000Y-67368000D03*
X240790000Y-67368000D03*
D33*
X249430000Y-62008000D03*
X240790000Y-62008000D03*
G04 #@! TD*
D34*
G04 #@! TO.P,R11,2*
G04 #@! TO.N,Net-(C6-Pad1)*
X235737400Y-74405000D03*
G04 #@! TO.P,R11,1*
G04 #@! TO.N,+5V*
X235737400Y-81805000D03*
G04 #@! TD*
D35*
G04 #@! TO.P,R16,2*
G04 #@! TO.N,Net-(J2-PadA4)*
X256492000Y-94742000D03*
G04 #@! TO.P,R16,1*
G04 #@! TO.N,VCC*
X253492000Y-94742000D03*
G04 #@! TD*
D10*
G04 #@! TO.P,C6,2*
G04 #@! TO.N,GND*
X243840000Y-75805000D03*
G04 #@! TO.P,C6,1*
G04 #@! TO.N,Net-(C6-Pad1)*
X243840000Y-74055000D03*
G04 #@! TD*
G04 #@! TO.P,C7,1*
G04 #@! TO.N,Net-(C6-Pad1)*
X240792000Y-74055000D03*
G04 #@! TO.P,C7,2*
G04 #@! TO.N,GND*
X240792000Y-75805000D03*
G04 #@! TD*
G04 #@! TO.P,C8,2*
G04 #@! TO.N,GND*
X262890000Y-83580640D03*
G04 #@! TO.P,C8,1*
G04 #@! TO.N,VCC*
X262890000Y-81830640D03*
G04 #@! TD*
D11*
G04 #@! TO.P,D1,1*
G04 #@! TO.N,Net-(D1-Pad1)*
X253859920Y-78655640D03*
G04 #@! TO.P,D1,2*
G04 #@! TO.N,Net-(D1-Pad2)*
X251759920Y-78655640D03*
G04 #@! TD*
G04 #@! TO.P,D2,2*
G04 #@! TO.N,Net-(D2-Pad2)*
X264019920Y-68969640D03*
G04 #@! TO.P,D2,1*
G04 #@! TO.N,Net-(D2-Pad1)*
X264019920Y-71069640D03*
G04 #@! TD*
G04 #@! TO.P,D3,1*
G04 #@! TO.N,Net-(D3-Pad1)*
X253224920Y-71035640D03*
G04 #@! TO.P,D3,2*
G04 #@! TO.N,Net-(D3-Pad2)*
X253224920Y-68935640D03*
G04 #@! TD*
G04 #@! TO.P,D4,2*
G04 #@! TO.N,Net-(D4-Pad2)*
X251759920Y-74845640D03*
G04 #@! TO.P,D4,1*
G04 #@! TO.N,Net-(D4-Pad1)*
X253859920Y-74845640D03*
G04 #@! TD*
D20*
G04 #@! TO.P,R8,1*
G04 #@! TO.N,VCC*
X246879920Y-78655640D03*
G04 #@! TO.P,R8,2*
G04 #@! TO.N,Net-(D1-Pad2)*
X248779920Y-78655640D03*
G04 #@! TD*
D19*
G04 #@! TO.P,R9,2*
G04 #@! TO.N,Net-(D2-Pad2)*
X264019920Y-65955640D03*
G04 #@! TO.P,R9,1*
G04 #@! TO.N,VCC*
X264019920Y-64055640D03*
G04 #@! TD*
G04 #@! TO.P,R10,1*
G04 #@! TO.N,VCC*
X253224920Y-64055640D03*
G04 #@! TO.P,R10,2*
G04 #@! TO.N,Net-(D3-Pad2)*
X253224920Y-65955640D03*
G04 #@! TD*
D20*
G04 #@! TO.P,R12,2*
G04 #@! TO.N,Net-(D4-Pad2)*
X248779920Y-74845640D03*
G04 #@! TO.P,R12,1*
G04 #@! TO.N,VCC*
X246879920Y-74845640D03*
G04 #@! TD*
G04 #@! TO.P,R14,1*
G04 #@! TO.N,VCC*
X264842920Y-75057000D03*
G04 #@! TO.P,R14,2*
G04 #@! TO.N,Net-(R14-Pad2)*
X262942920Y-75057000D03*
G04 #@! TD*
G04 #@! TO.P,R15,2*
G04 #@! TO.N,Net-(R15-Pad2)*
X262942920Y-78655640D03*
G04 #@! TO.P,R15,1*
G04 #@! TO.N,VCC*
X264842920Y-78655640D03*
G04 #@! TD*
D36*
G04 #@! TO.P,U2,1*
G04 #@! TO.N,Net-(U2-Pad1)*
X259891920Y-76865640D03*
G04 #@! TO.P,U2,2*
G04 #@! TO.N,Net-(R15-Pad2)*
X259891920Y-76365640D03*
G04 #@! TO.P,U2,3*
G04 #@! TO.N,Net-(R14-Pad2)*
X259891920Y-75865640D03*
G04 #@! TO.P,U2,4*
G04 #@! TO.N,Net-(U2-Pad4)*
X259891920Y-75365640D03*
D37*
G04 #@! TO.P,U2,5*
G04 #@! TO.N,Net-(D2-Pad1)*
X259181920Y-74655640D03*
G04 #@! TO.P,U2,6*
G04 #@! TO.N,Net-(R7-Pad2)*
X258681920Y-74655640D03*
G04 #@! TO.P,U2,7*
G04 #@! TO.N,Net-(R6-Pad1)*
X258181920Y-74655640D03*
G04 #@! TO.P,U2,8*
G04 #@! TO.N,Net-(D3-Pad1)*
X257681920Y-74655640D03*
D36*
G04 #@! TO.P,U2,9*
G04 #@! TO.N,Net-(D4-Pad1)*
X256971920Y-75365640D03*
G04 #@! TO.P,U2,10*
G04 #@! TO.N,Net-(D1-Pad1)*
X256971920Y-75865640D03*
G04 #@! TO.P,U2,11*
G04 #@! TO.N,Net-(U2-Pad11)*
X256971920Y-76365640D03*
G04 #@! TO.P,U2,12*
G04 #@! TO.N,Net-(R4-Pad2)*
X256971920Y-76865640D03*
D37*
G04 #@! TO.P,U2,13*
G04 #@! TO.N,GND*
X257681920Y-77575640D03*
G04 #@! TO.P,U2,14*
G04 #@! TO.N,Net-(U2-Pad14)*
X258181920Y-77575640D03*
G04 #@! TO.P,U2,15*
G04 #@! TO.N,Net-(U2-Pad15)*
X258681920Y-77575640D03*
G04 #@! TO.P,U2,16*
G04 #@! TO.N,VCC*
X259181920Y-77575640D03*
D38*
G04 #@! TO.P,U2,17*
G04 #@! TO.N,GND*
X258431920Y-76115640D03*
G04 #@! TD*
D10*
G04 #@! TO.P,C18,2*
G04 #@! TO.N,GND*
X215963500Y-84723000D03*
G04 #@! TO.P,C18,1*
G04 #@! TO.N,+5V*
X215963500Y-86473000D03*
G04 #@! TD*
G04 #@! TO.P,C20,1*
G04 #@! TO.N,+5V*
X210883500Y-86473000D03*
G04 #@! TO.P,C20,2*
G04 #@! TO.N,GND*
X210883500Y-84723000D03*
G04 #@! TD*
G04 #@! TO.P,C21,1*
G04 #@! TO.N,+5V*
X213423500Y-86473000D03*
G04 #@! TO.P,C21,2*
G04 #@! TO.N,GND*
X213423500Y-84723000D03*
G04 #@! TD*
D39*
G04 #@! TO.P,U3,1*
G04 #@! TO.N,VCC*
X246040000Y-105750000D03*
G04 #@! TO.P,U3,2*
G04 #@! TO.N,Net-(C12-Pad1)*
X246040000Y-105100000D03*
G04 #@! TO.P,U3,3*
G04 #@! TO.N,Net-(JP4-Pad1)*
X246040000Y-104450000D03*
G04 #@! TO.P,U3,4*
X246040000Y-103800000D03*
G04 #@! TO.P,U3,5*
G04 #@! TO.N,/CS_DAC*
X241640000Y-103800000D03*
G04 #@! TO.P,U3,6*
G04 #@! TO.N,/SCK*
X241640000Y-104450000D03*
G04 #@! TO.P,U3,8*
G04 #@! TO.N,GND*
X241640000Y-105750000D03*
G04 #@! TO.P,U3,7*
G04 #@! TO.N,/MOSI*
X241640000Y-105100000D03*
G04 #@! TD*
D40*
G04 #@! TO.P,U5,1*
G04 #@! TO.N,VCC*
X241235000Y-108331000D03*
G04 #@! TO.P,U5,2*
G04 #@! TO.N,GND*
X241235000Y-109601000D03*
G04 #@! TO.P,U5,3*
G04 #@! TO.N,VCC*
X241235000Y-110871000D03*
G04 #@! TO.P,U5,4*
G04 #@! TO.N,GND*
X241235000Y-112141000D03*
G04 #@! TO.P,U5,5*
X246445000Y-112141000D03*
G04 #@! TO.P,U5,6*
X246445000Y-110871000D03*
G04 #@! TO.P,U5,7*
G04 #@! TO.N,Net-(C12-Pad1)*
X246445000Y-109601000D03*
G04 #@! TO.P,U5,8*
X246445000Y-108331000D03*
G04 #@! TD*
D10*
G04 #@! TO.P,C9,1*
G04 #@! TO.N,VCC*
X255905000Y-106525000D03*
G04 #@! TO.P,C9,2*
G04 #@! TO.N,GND*
X255905000Y-104775000D03*
G04 #@! TD*
G04 #@! TO.P,C10,2*
G04 #@! TO.N,GND*
X251968000Y-104775000D03*
G04 #@! TO.P,C10,1*
G04 #@! TO.N,VCC*
X251968000Y-106525000D03*
G04 #@! TD*
G04 #@! TO.P,C11,1*
G04 #@! TO.N,VCC*
X238099600Y-108903800D03*
G04 #@! TO.P,C11,2*
G04 #@! TO.N,GND*
X238099600Y-110653800D03*
G04 #@! TD*
D25*
G04 #@! TO.P,C3,1*
G04 #@! TO.N,Net-(C3-Pad1)*
X234555000Y-89535000D03*
G04 #@! TO.P,C3,2*
G04 #@! TO.N,GND*
X232805000Y-89535000D03*
G04 #@! TD*
G04 #@! TO.P,C4,2*
G04 #@! TO.N,GND*
X234555000Y-96520000D03*
G04 #@! TO.P,C4,1*
G04 #@! TO.N,Net-(C4-Pad1)*
X232805000Y-96520000D03*
G04 #@! TD*
D10*
G04 #@! TO.P,C1,2*
G04 #@! TO.N,GND*
X241300000Y-85118000D03*
G04 #@! TO.P,C1,1*
G04 #@! TO.N,VCC*
X241300000Y-86868000D03*
G04 #@! TD*
G04 #@! TO.P,C2,1*
G04 #@! TO.N,VCC*
X237744000Y-86868000D03*
G04 #@! TO.P,C2,2*
G04 #@! TO.N,GND*
X237744000Y-85118000D03*
G04 #@! TD*
D25*
G04 #@! TO.P,C5,2*
G04 #@! TO.N,GND*
X255115000Y-86995000D03*
G04 #@! TO.P,C5,1*
G04 #@! TO.N,Net-(C5-Pad1)*
X253365000Y-86995000D03*
G04 #@! TD*
D41*
G04 #@! TO.P,U1,1*
G04 #@! TO.N,VCC*
X239240000Y-89789000D03*
G04 #@! TO.P,U1,2*
G04 #@! TO.N,Net-(C3-Pad1)*
X239240000Y-91059000D03*
G04 #@! TO.P,U1,3*
G04 #@! TO.N,Net-(C4-Pad1)*
X239240000Y-92329000D03*
G04 #@! TO.P,U1,4*
G04 #@! TO.N,Net-(JP1-Pad2)*
X239240000Y-93599000D03*
G04 #@! TO.P,U1,5*
G04 #@! TO.N,Net-(U1-Pad5)*
X239240000Y-94869000D03*
G04 #@! TO.P,U1,6*
G04 #@! TO.N,Net-(U1-Pad6)*
X239240000Y-96139000D03*
G04 #@! TO.P,U1,7*
G04 #@! TO.N,Net-(U1-Pad7)*
X239240000Y-97409000D03*
G04 #@! TO.P,U1,8*
G04 #@! TO.N,Net-(R13-Pad1)*
X239240000Y-98679000D03*
G04 #@! TO.P,U1,9*
G04 #@! TO.N,/MOSI*
X239240000Y-99949000D03*
G04 #@! TO.P,U1,10*
G04 #@! TO.N,Net-(U1-Pad10)*
X239240000Y-101219000D03*
G04 #@! TO.P,U1,11*
G04 #@! TO.N,/SCK*
X248440000Y-101219000D03*
G04 #@! TO.P,U1,12*
G04 #@! TO.N,Net-(U1-Pad12)*
X248440000Y-99949000D03*
G04 #@! TO.P,U1,13*
G04 #@! TO.N,Net-(U1-Pad13)*
X248440000Y-98679000D03*
G04 #@! TO.P,U1,14*
G04 #@! TO.N,Net-(U1-Pad14)*
X248440000Y-97409000D03*
G04 #@! TO.P,U1,15*
G04 #@! TO.N,Net-(U1-Pad15)*
X248440000Y-96139000D03*
G04 #@! TO.P,U1,16*
G04 #@! TO.N,/CS_DAC*
X248440000Y-94869000D03*
G04 #@! TO.P,U1,17*
G04 #@! TO.N,Net-(C5-Pad1)*
X248440000Y-93599000D03*
G04 #@! TO.P,U1,18*
G04 #@! TO.N,/D-*
X248440000Y-92329000D03*
G04 #@! TO.P,U1,19*
G04 #@! TO.N,/D+*
X248440000Y-91059000D03*
G04 #@! TO.P,U1,20*
G04 #@! TO.N,GND*
X248440000Y-89789000D03*
G04 #@! TD*
D42*
G04 #@! TO.N,*
X210820000Y-66802000D03*
X261620000Y-117602000D03*
D43*
G04 #@! TO.N,GND*
X258724400Y-76403200D03*
X258165600Y-75844400D03*
D44*
X241706400Y-77978000D03*
X244856000Y-77978000D03*
X238607600Y-112217200D03*
X258165600Y-62890400D03*
X261569200Y-62890400D03*
X258318000Y-79248000D03*
X259842000Y-85293200D03*
X262839200Y-85445600D03*
X250393200Y-90017600D03*
X257251200Y-90170000D03*
X257149600Y-87630000D03*
X255219200Y-99923600D03*
X253898400Y-103428800D03*
X248970800Y-113893600D03*
X228701600Y-109880400D03*
X226618800Y-102768400D03*
X227736400Y-103733600D03*
X217068400Y-102616000D03*
X217017600Y-106934000D03*
X217881200Y-89560400D03*
X217830400Y-90678000D03*
X217779600Y-91795600D03*
X208788000Y-89712800D03*
X208788000Y-90779600D03*
X208788000Y-91948000D03*
X236931200Y-96520000D03*
X236813800Y-94132400D03*
X230479600Y-92151200D03*
X232918000Y-87985600D03*
X235864400Y-85140800D03*
X241300000Y-83362800D03*
X227685600Y-100228400D03*
X209016600Y-84683600D03*
X218160600Y-84734400D03*
X214553800Y-83058000D03*
X238201200Y-105765600D03*
X263398000Y-108458000D03*
X239903000Y-70104000D03*
G04 #@! TO.N,Net-(J1-PadA5)*
X245883000Y-70352246D03*
X247337000Y-70375933D03*
G04 #@! TO.N,Net-(J2-PadA4)*
X257657600Y-97993200D03*
X257759200Y-94742000D03*
G04 #@! TO.N,/D-*
X250850400Y-96570800D03*
X254762000Y-96266000D03*
G04 #@! TO.N,/D+*
X252069600Y-97347800D03*
X256743200Y-97282000D03*
G04 #@! TO.N,Net-(C6-Pad1)*
X245872000Y-80264000D03*
X247904000Y-80391000D03*
G04 #@! TD*
D45*
G04 #@! TO.N,GND*
X240792000Y-75805000D02*
X240792000Y-77063600D01*
X240792000Y-77063600D02*
X241706400Y-77978000D01*
X243840000Y-75805000D02*
X243840000Y-76639000D01*
X243840000Y-76639000D02*
X243840000Y-76962000D01*
X243840000Y-76962000D02*
X244856000Y-77978000D01*
X241235000Y-109601000D02*
X240685000Y-109601000D01*
X240126000Y-109601000D02*
X239674400Y-110052600D01*
X241235000Y-109601000D02*
X240126000Y-109601000D01*
X239088600Y-110653800D02*
X238099600Y-110653800D01*
X239674400Y-110068000D02*
X239088600Y-110653800D01*
X239674400Y-110052600D02*
X239674400Y-110068000D01*
X238099600Y-110653800D02*
X238099600Y-111709200D01*
X238099600Y-111709200D02*
X238607600Y-112217200D01*
D46*
X257697760Y-62890400D02*
X258165600Y-62890400D01*
X257034920Y-64055640D02*
X257034920Y-63553240D01*
X257034920Y-63553240D02*
X257697760Y-62890400D01*
X260844920Y-64055640D02*
X260844920Y-63614680D01*
X260844920Y-63614680D02*
X261569200Y-62890400D01*
X257681920Y-77575640D02*
X257681920Y-78611920D01*
X257681920Y-78611920D02*
X258318000Y-79248000D01*
X259842000Y-83730640D02*
X259842000Y-85293200D01*
X262890000Y-83580640D02*
X262890000Y-85394800D01*
X262890000Y-85394800D02*
X262839200Y-85445600D01*
X255242000Y-90805000D02*
X256616200Y-90805000D01*
X256616200Y-90805000D02*
X257251200Y-90170000D01*
X255115000Y-86995000D02*
X256514600Y-86995000D01*
X256514600Y-86995000D02*
X257149600Y-87630000D01*
X262769001Y-93369000D02*
X262869001Y-93269000D01*
X261569001Y-93369000D02*
X262769001Y-93369000D01*
X261979001Y-92049000D02*
X262508400Y-92049000D01*
X262869001Y-92409601D02*
X262869001Y-93269000D01*
X262508400Y-92049000D02*
X262869001Y-92409601D01*
X262769001Y-99369000D02*
X262869001Y-99469000D01*
X261569001Y-99369000D02*
X262769001Y-99369000D01*
X261979001Y-100509000D02*
X261979001Y-100689000D01*
X262869001Y-99469000D02*
X262869001Y-99619000D01*
X253469200Y-103428800D02*
X253898400Y-103428800D01*
X251968000Y-104775000D02*
X252123000Y-104775000D01*
X263452017Y-106592488D02*
X263452017Y-107344888D01*
X225145600Y-106133901D02*
X225145600Y-106476800D01*
X225145600Y-106476800D02*
X225501200Y-106832400D01*
X225501200Y-106832400D02*
X226110800Y-106832400D01*
X226441000Y-106502200D02*
X226441000Y-105228652D01*
X226110800Y-106832400D02*
X226441000Y-106502200D01*
X217703400Y-90805000D02*
X217830400Y-90678000D01*
X216789000Y-90805000D02*
X217779600Y-91795600D01*
X209321400Y-90805000D02*
X209296000Y-90779600D01*
X233363000Y-92130000D02*
X233038000Y-92130000D01*
X235338000Y-93980000D02*
X235213000Y-93980000D01*
X233038000Y-89768000D02*
X232805000Y-89535000D01*
X237744000Y-85118000D02*
X235887200Y-85118000D01*
X235887200Y-85118000D02*
X235864400Y-85140800D01*
X241300000Y-85118000D02*
X241300000Y-83362800D01*
X210883500Y-84723000D02*
X209056000Y-84723000D01*
X209056000Y-84723000D02*
X209016600Y-84683600D01*
X215963500Y-84723000D02*
X218149200Y-84723000D01*
X218149200Y-84723000D02*
X218160600Y-84734400D01*
X214356100Y-83058000D02*
X214553800Y-83058000D01*
X213423500Y-84723000D02*
X213423500Y-83990600D01*
X213423500Y-83990600D02*
X214356100Y-83058000D01*
D47*
X261569001Y-100279000D02*
X261979001Y-100689000D01*
X261569001Y-99369000D02*
X261569001Y-100279000D01*
D46*
X225145600Y-106133901D02*
X225145600Y-105714800D01*
D48*
X248540000Y-66478000D02*
X249430000Y-67368000D01*
X248210000Y-66478000D02*
X248540000Y-66478000D01*
X249020000Y-67778000D02*
X249430000Y-67368000D01*
X248110000Y-67778000D02*
X249020000Y-67778000D01*
X241200000Y-67778000D02*
X240790000Y-67368000D01*
X242110000Y-67778000D02*
X241200000Y-67778000D01*
X241680000Y-66478000D02*
X240790000Y-67368000D01*
X242010000Y-66478000D02*
X241680000Y-66478000D01*
X238216800Y-105750000D02*
X238201200Y-105765600D01*
X241640000Y-105750000D02*
X238216800Y-105750000D01*
D45*
X263452017Y-108403983D02*
X263398000Y-108458000D01*
X263452017Y-106592488D02*
X263452017Y-108403983D01*
X226720400Y-103733600D02*
X227736400Y-103733600D01*
X226441000Y-105228652D02*
X226441000Y-104013000D01*
X226441000Y-104013000D02*
X226720400Y-103733600D01*
X225182400Y-102768400D02*
X225030000Y-102616000D01*
X226618800Y-102768400D02*
X225182400Y-102768400D01*
X227838000Y-100076000D02*
X227685600Y-100228400D01*
X229548000Y-100076000D02*
X227838000Y-100076000D01*
X218835000Y-102616000D02*
X217068400Y-102616000D01*
X218835000Y-106934000D02*
X217017600Y-106934000D01*
X234555000Y-96520000D02*
X236931200Y-96520000D01*
X230500800Y-92130000D02*
X230479600Y-92151200D01*
X233038000Y-92130000D02*
X230500800Y-92130000D01*
X232805000Y-88098600D02*
X232918000Y-87985600D01*
X232805000Y-89535000D02*
X232805000Y-88098600D01*
X236661400Y-93980000D02*
X236813800Y-94132400D01*
X235338000Y-93980000D02*
X236661400Y-93980000D01*
X250190000Y-112674400D02*
X248970800Y-113893600D01*
X250190000Y-111365000D02*
X250190000Y-112674400D01*
X248405115Y-113893600D02*
X248970800Y-113893600D01*
X247638600Y-113893600D02*
X248405115Y-113893600D01*
X246445000Y-112700000D02*
X247638600Y-113893600D01*
X246445000Y-112141000D02*
X246445000Y-112700000D01*
X241235000Y-112141000D02*
X246445000Y-112141000D01*
X245336000Y-110871000D02*
X246445000Y-110871000D01*
X243614000Y-110871000D02*
X245336000Y-110871000D01*
X242344000Y-109601000D02*
X243614000Y-110871000D01*
X241235000Y-109601000D02*
X242344000Y-109601000D01*
X251968000Y-104042600D02*
X251968000Y-104775000D01*
X253898400Y-103428800D02*
X252581800Y-103428800D01*
X252581800Y-103428800D02*
X251968000Y-104042600D01*
X255291200Y-103428800D02*
X255905000Y-104042600D01*
X253898400Y-103428800D02*
X255291200Y-103428800D01*
X255905000Y-104042600D02*
X255905000Y-104775000D01*
X255242000Y-99900800D02*
X255219200Y-99923600D01*
X255242000Y-98298000D02*
X255242000Y-99900800D01*
X255219200Y-101577200D02*
X255242000Y-101600000D01*
X255219200Y-99923600D02*
X255219200Y-101577200D01*
X250164600Y-89789000D02*
X250393200Y-90017600D01*
X248440000Y-89789000D02*
X250164600Y-89789000D01*
X227910652Y-110671348D02*
X228701600Y-109880400D01*
X226441000Y-110671348D02*
X227910652Y-110671348D01*
D46*
X237758967Y-69904171D02*
X239703171Y-69904171D01*
X239703171Y-69904171D02*
X239903000Y-70104000D01*
D45*
G04 #@! TO.N,Net-(C3-Pad1)*
X235471800Y-89535000D02*
X235909400Y-89972600D01*
X234555000Y-89535000D02*
X235471800Y-89535000D01*
X235909400Y-89972600D02*
X235909400Y-90881200D01*
X235909400Y-90881200D02*
X235338000Y-91452600D01*
X235338000Y-91452600D02*
X235338000Y-92130000D01*
X237617000Y-91059000D02*
X239240000Y-91059000D01*
X235338000Y-92130000D02*
X236546000Y-92130000D01*
X236546000Y-92130000D02*
X237617000Y-91059000D01*
G04 #@! TO.N,Net-(C4-Pad1)*
X232805000Y-96520000D02*
X231394000Y-96520000D01*
X231394000Y-96520000D02*
X231089200Y-96215200D01*
X231089200Y-96215200D02*
X231089200Y-94386400D01*
X231495600Y-93980000D02*
X233038000Y-93980000D01*
X231089200Y-94386400D02*
X231495600Y-93980000D01*
X237667800Y-92329000D02*
X239240000Y-92329000D01*
X233038000Y-94759000D02*
X233529000Y-95250000D01*
X233038000Y-93980000D02*
X233038000Y-94759000D01*
X233529000Y-95250000D02*
X236931200Y-95250000D01*
X236931200Y-95250000D02*
X237540800Y-94640400D01*
X237540800Y-94640400D02*
X237540800Y-92456000D01*
X237540800Y-92456000D02*
X237667800Y-92329000D01*
D46*
G04 #@! TO.N,Net-(C5-Pad1)*
X252632600Y-86995000D02*
X251307600Y-88320000D01*
X253365000Y-86995000D02*
X252632600Y-86995000D01*
X251307600Y-88320000D02*
X251278000Y-88320000D01*
X251278000Y-88320000D02*
X250748800Y-88849200D01*
X250748800Y-88849200D02*
X247294400Y-88849200D01*
X247294400Y-88849200D02*
X246126000Y-90017600D01*
X246126000Y-90017600D02*
X246126000Y-93370400D01*
X246354600Y-93599000D02*
X248440000Y-93599000D01*
X246126000Y-93370400D02*
X246354600Y-93599000D01*
D49*
G04 #@! TO.N,+5V*
X218095500Y-86473000D02*
X216344500Y-86473000D01*
X227253400Y-86473000D02*
X218095500Y-86473000D01*
X235737400Y-81805000D02*
X231921400Y-81805000D01*
X231921400Y-81805000D02*
X227253400Y-86473000D01*
D45*
X235737400Y-79832200D02*
X235737400Y-81805000D01*
X229387400Y-78740000D02*
X234645200Y-78740000D01*
X234645200Y-78740000D02*
X235737400Y-79832200D01*
X235218967Y-70851033D02*
X234238800Y-71831200D01*
X235218967Y-69870171D02*
X235218967Y-70851033D01*
X234238800Y-71831200D02*
X227736400Y-71831200D01*
X227736400Y-71831200D02*
X226669600Y-72898000D01*
X226669600Y-72898000D02*
X226669600Y-78232000D01*
X226669600Y-78232000D02*
X227177600Y-78740000D01*
X227177600Y-78740000D02*
X229387400Y-78740000D01*
G04 #@! TO.N,Net-(C12-Pad1)*
X247019000Y-105100000D02*
X247853200Y-105934200D01*
X246040000Y-105100000D02*
X247019000Y-105100000D01*
X247853200Y-105934200D02*
X247853200Y-105968800D01*
X247554000Y-108331000D02*
X246445000Y-108331000D01*
X247853200Y-108031800D02*
X247554000Y-108331000D01*
X250176000Y-109601000D02*
X250190000Y-109615000D01*
X246445000Y-109601000D02*
X250176000Y-109601000D01*
X247853200Y-106832400D02*
X249072400Y-106832400D01*
X247853200Y-106832400D02*
X247853200Y-108031800D01*
X247853200Y-105934200D02*
X247853200Y-106832400D01*
X250190000Y-107950000D02*
X250190000Y-109615000D01*
X249072400Y-106832400D02*
X250190000Y-107950000D01*
G04 #@! TO.N,Net-(D1-Pad2)*
X249383920Y-78655640D02*
X251759920Y-78655640D01*
X248779920Y-78655640D02*
X249383920Y-78655640D01*
D46*
G04 #@! TO.N,Net-(D1-Pad1)*
X255502760Y-75865640D02*
X256971920Y-75865640D01*
X255219200Y-76149200D02*
X255502760Y-75865640D01*
X255219200Y-78232000D02*
X255219200Y-76149200D01*
X253859920Y-78655640D02*
X254795560Y-78655640D01*
X254795560Y-78655640D02*
X255219200Y-78232000D01*
G04 #@! TO.N,Net-(D2-Pad1)*
X264019920Y-72428480D02*
X264019920Y-71069640D01*
X263194800Y-73253600D02*
X264019920Y-72428480D01*
X260036560Y-73253600D02*
X263194800Y-73253600D01*
X259181920Y-74655640D02*
X259181920Y-74108240D01*
X259181920Y-74108240D02*
X260036560Y-73253600D01*
D45*
G04 #@! TO.N,Net-(D2-Pad2)*
X264019920Y-65955640D02*
X264019920Y-68969640D01*
G04 #@! TO.N,Net-(D3-Pad2)*
X253224920Y-65955640D02*
X253224920Y-68935640D01*
D46*
G04 #@! TO.N,Net-(D3-Pad1)*
X257681920Y-73938320D02*
X257681920Y-74655640D01*
X257352800Y-73609200D02*
X257681920Y-73938320D01*
X255046080Y-73609200D02*
X257352800Y-73609200D01*
X253224920Y-71035640D02*
X253224920Y-71788040D01*
X253224920Y-71788040D02*
X255046080Y-73609200D01*
G04 #@! TO.N,Net-(D4-Pad1)*
X253859920Y-74845640D02*
X255490440Y-74845640D01*
X256010440Y-75365640D02*
X256971920Y-75365640D01*
X255490440Y-74845640D02*
X256010440Y-75365640D01*
D45*
G04 #@! TO.N,Net-(D4-Pad2)*
X249383920Y-74845640D02*
X251759920Y-74845640D01*
X248779920Y-74845640D02*
X249383920Y-74845640D01*
D46*
G04 #@! TO.N,Net-(D5-Pad2)*
X234315000Y-100076000D02*
X231648000Y-100076000D01*
D45*
G04 #@! TO.N,Net-(D6-Pad2)*
X263425017Y-104465488D02*
X263452017Y-104492488D01*
X260223000Y-104465488D02*
X263425017Y-104465488D01*
D49*
G04 #@! TO.N,Net-(D7-Pad1)*
X213360000Y-103930000D02*
X213360000Y-102164000D01*
X213360000Y-102164000D02*
X213360000Y-92456000D01*
D46*
X213360000Y-103930000D02*
X213360000Y-106230000D01*
D45*
G04 #@! TO.N,Net-(D8-Pad2)*
X237758967Y-67804171D02*
X236589429Y-67804171D01*
X236423429Y-67970171D02*
X235218967Y-67970171D01*
X236589429Y-67804171D02*
X236423429Y-67970171D01*
G04 #@! TO.N,Net-(J1-PadA5)*
X257034920Y-66559640D02*
X257034920Y-69135640D01*
X257034920Y-65955640D02*
X257034920Y-66559640D01*
D46*
X246110000Y-68452225D02*
X246126000Y-68468225D01*
X246110000Y-67778000D02*
X246110000Y-68452225D01*
X246110000Y-68452225D02*
X246110000Y-70125246D01*
X246110000Y-70125246D02*
X245883000Y-70352246D01*
X247337000Y-70375933D02*
X250680067Y-70375933D01*
X250680067Y-70375933D02*
X251079000Y-69977000D01*
X251079000Y-69977000D02*
X254889000Y-69977000D01*
X255730360Y-69135640D02*
X257034920Y-69135640D01*
X254889000Y-69977000D02*
X255730360Y-69135640D01*
D45*
G04 #@! TO.N,Net-(J1-PadB5)*
X260844920Y-66559640D02*
X260844920Y-69196640D01*
X260844920Y-65955640D02*
X260844920Y-66559640D01*
D46*
X244360000Y-65975600D02*
X244360000Y-66478000D01*
X244360000Y-65833240D02*
X244360000Y-65975600D01*
X245042240Y-65151000D02*
X244360000Y-65833240D01*
X245169240Y-65024000D02*
X245042240Y-65151000D01*
X259110880Y-65024000D02*
X245169240Y-65024000D01*
X260844920Y-65955640D02*
X260042520Y-65955640D01*
X260042520Y-65955640D02*
X259110880Y-65024000D01*
D47*
G04 #@! TO.N,Net-(J2-PadA4)*
X262372201Y-97619000D02*
X262869001Y-97619000D01*
X262122201Y-97869000D02*
X262372201Y-97619000D01*
X261569001Y-97869000D02*
X262122201Y-97869000D01*
X262065801Y-94869000D02*
X261569001Y-94869000D01*
X262315801Y-95119000D02*
X262065801Y-94869000D01*
X262869001Y-95119000D02*
X262315801Y-95119000D01*
D46*
X258775001Y-97742000D02*
X257908800Y-97742000D01*
X257908800Y-97742000D02*
X257657600Y-97993200D01*
D50*
X257759200Y-94742000D02*
X256492000Y-94742000D01*
D48*
X258926001Y-94893000D02*
X261660000Y-94893000D01*
X258775001Y-94742000D02*
X258926001Y-94893000D01*
X258775001Y-94742000D02*
X257759200Y-94742000D01*
D46*
X258926001Y-97893000D02*
X261660000Y-97893000D01*
X258775001Y-97742000D02*
X258926001Y-97893000D01*
D45*
G04 #@! TO.N,/D-*
X249644000Y-92329000D02*
X250393200Y-93078200D01*
X248440000Y-92329000D02*
X249644000Y-92329000D01*
X250393200Y-93078200D02*
X250393200Y-96113600D01*
X250393200Y-96113600D02*
X250850400Y-96570800D01*
D46*
X261769001Y-95869000D02*
X261569001Y-95869000D01*
X262071401Y-96171400D02*
X261769001Y-95869000D01*
X262071401Y-96371400D02*
X262071401Y-96171400D01*
X262319001Y-96619000D02*
X262071401Y-96371400D01*
X262869001Y-96619000D02*
X262319001Y-96619000D01*
X257556000Y-95885000D02*
X258445000Y-95885000D01*
X254762000Y-96266000D02*
X257046423Y-96266000D01*
X257046423Y-96266000D02*
X257556000Y-95885000D01*
X258453000Y-95893000D02*
X261660000Y-95893000D01*
X258445000Y-95885000D02*
X258453000Y-95893000D01*
D45*
G04 #@! TO.N,/D+*
X248440000Y-91059000D02*
X249090000Y-91059000D01*
X249090000Y-91059000D02*
X249115400Y-91084400D01*
X251968000Y-95707200D02*
X251968000Y-95793800D01*
X251968000Y-95707200D02*
X251968000Y-97246200D01*
X251968000Y-97246200D02*
X252069600Y-97347800D01*
D46*
X257283200Y-96742000D02*
X256743200Y-97282000D01*
X258775001Y-96742000D02*
X257283200Y-96742000D01*
D45*
X249936000Y-91059000D02*
X251968000Y-93091000D01*
X248440000Y-91059000D02*
X249936000Y-91059000D01*
X251968000Y-93091000D02*
X251968000Y-95707200D01*
D46*
X258926001Y-96893000D02*
X261660000Y-96893000D01*
X258775001Y-96742000D02*
X258926001Y-96893000D01*
X256743200Y-101752400D02*
X256743200Y-97282000D01*
X263462400Y-96143000D02*
X264160000Y-96840600D01*
X262960000Y-96143000D02*
X263462400Y-96143000D01*
X264160000Y-96840600D02*
X264160000Y-101092000D01*
X264160000Y-101092000D02*
X263245600Y-102006400D01*
X263245600Y-102006400D02*
X256997200Y-102006400D01*
X256997200Y-102006400D02*
X256743200Y-101752400D01*
D45*
G04 #@! TO.N,Net-(JP1-Pad2)*
X248285000Y-83032600D02*
X248285000Y-84455000D01*
X247954800Y-82702400D02*
X248285000Y-83032600D01*
X246583200Y-82702400D02*
X247954800Y-82702400D01*
X244983000Y-85095000D02*
X244983000Y-84302600D01*
X244983000Y-84302600D02*
X246583200Y-82702400D01*
X245887000Y-85095000D02*
X246430800Y-85638800D01*
X244983000Y-85095000D02*
X245887000Y-85095000D01*
X246430800Y-85638800D02*
X246430800Y-88747600D01*
X241579400Y-93599000D02*
X239240000Y-93599000D01*
X246430800Y-88747600D02*
X241579400Y-93599000D01*
G04 #@! TO.N,Net-(JP2-Pad1)*
X237297630Y-114935000D02*
X239268000Y-114935000D01*
X236220000Y-114935000D02*
X237297630Y-114935000D01*
X236220000Y-116012630D02*
X236220000Y-119380000D01*
X236220000Y-114935000D02*
X236220000Y-116012630D01*
G04 #@! TO.N,Net-(JP3-Pad1)*
X233680000Y-109728000D02*
X233680000Y-114935000D01*
D46*
G04 #@! TO.N,Net-(JP3-Pad2)*
X225171000Y-112141000D02*
X225171000Y-110490000D01*
D45*
X231140000Y-106764000D02*
X231140000Y-109728000D01*
X231140000Y-105664000D02*
X231140000Y-106764000D01*
X225171000Y-112141000D02*
X225425000Y-112395000D01*
X225171000Y-110671348D02*
X225171000Y-112141000D01*
X228473000Y-112395000D02*
X231140000Y-109728000D01*
X225425000Y-112395000D02*
X228473000Y-112395000D01*
G04 #@! TO.N,Net-(JP4-Pad1)*
X247019000Y-103800000D02*
X246040000Y-103800000D01*
X247142000Y-103923000D02*
X247019000Y-103800000D01*
X247142000Y-104394000D02*
X247142000Y-103923000D01*
X247086000Y-104450000D02*
X247142000Y-104394000D01*
X246040000Y-104450000D02*
X247086000Y-104450000D01*
X234604263Y-106588263D02*
X233680000Y-105664000D01*
X242922737Y-106588263D02*
X234604263Y-106588263D01*
X245061000Y-104450000D02*
X242922737Y-106588263D01*
X246040000Y-104450000D02*
X245061000Y-104450000D01*
G04 #@! TO.N,Net-(Q1-Pad3)*
X223901000Y-111652797D02*
X223031797Y-112522000D01*
X223901000Y-110671348D02*
X223901000Y-111652797D01*
X223031797Y-112522000D02*
X215392000Y-112522000D01*
X213995000Y-111125000D02*
X213995000Y-109405000D01*
X215392000Y-112522000D02*
X213995000Y-111125000D01*
G04 #@! TO.N,Net-(Q1-Pad2)*
X222631000Y-111652797D02*
X222320597Y-111963200D01*
X222631000Y-110671348D02*
X222631000Y-111652797D01*
X222320597Y-111963200D02*
X216763600Y-111963200D01*
X215265000Y-110464600D02*
X215265000Y-109405000D01*
X216763600Y-111963200D02*
X215265000Y-110464600D01*
D46*
G04 #@! TO.N,Net-(R4-Pad2)*
X255891920Y-77356080D02*
X255891920Y-81830640D01*
X256387600Y-76860400D02*
X255891920Y-77356080D01*
X256641600Y-76860400D02*
X256387600Y-76860400D01*
X256971920Y-76865640D02*
X256646840Y-76865640D01*
X256646840Y-76865640D02*
X256641600Y-76860400D01*
D45*
X256795920Y-81830640D02*
X259842000Y-81830640D01*
X255891920Y-81830640D02*
X256795920Y-81830640D01*
D46*
G04 #@! TO.N,Net-(R6-Pad1)*
X257034920Y-71035640D02*
X257034920Y-72681720D01*
X258181920Y-73828720D02*
X258181920Y-74655640D01*
X257034920Y-72681720D02*
X258181920Y-73828720D01*
G04 #@! TO.N,Net-(R7-Pad2)*
X258681920Y-74108240D02*
X258681920Y-74655640D01*
X258681920Y-73762040D02*
X258681920Y-74108240D01*
X260844920Y-71599040D02*
X258681920Y-73762040D01*
X260844920Y-71096640D02*
X260844920Y-71599040D01*
G04 #@! TO.N,Net-(R13-Pad1)*
X239240000Y-98679000D02*
X238590000Y-98679000D01*
D45*
X238137600Y-98679000D02*
X236740600Y-100076000D01*
X236740600Y-100076000D02*
X236215000Y-100076000D01*
X238137600Y-98679000D02*
X239240000Y-98679000D01*
D46*
G04 #@! TO.N,Net-(R14-Pad2)*
X259891920Y-75865640D02*
X260582760Y-75865640D01*
X261391400Y-75057000D02*
X262942920Y-75057000D01*
X260582760Y-75865640D02*
X261391400Y-75057000D01*
G04 #@! TO.N,Net-(R15-Pad2)*
X260439320Y-76365640D02*
X259891920Y-76365640D01*
X261606760Y-77432440D02*
X260539960Y-76365640D01*
X260539960Y-76365640D02*
X260439320Y-76365640D01*
X261620000Y-78536800D02*
X261620000Y-77470000D01*
X262942920Y-78655640D02*
X261738840Y-78655640D01*
X261738840Y-78655640D02*
X261620000Y-78536800D01*
D48*
G04 #@! TO.N,/MOSI*
X237540800Y-100448200D02*
X237540800Y-103479600D01*
X238040000Y-99949000D02*
X237540800Y-100448200D01*
X239240000Y-99949000D02*
X238040000Y-99949000D01*
X239161200Y-105100000D02*
X241640000Y-105100000D01*
X237540800Y-103479600D02*
X239161200Y-105100000D01*
G04 #@! TO.N,/SCK*
X244088800Y-104450000D02*
X244500400Y-104038400D01*
X241640000Y-104450000D02*
X244088800Y-104450000D01*
X244500400Y-104038400D02*
X244500400Y-103225600D01*
X244500400Y-103225600D02*
X246507000Y-101219000D01*
X246507000Y-101219000D02*
X248440000Y-101219000D01*
G04 #@! TO.N,/CS_DAC*
X247218200Y-94869000D02*
X248440000Y-94869000D01*
X246532400Y-100304600D02*
X246532400Y-95554800D01*
X246532400Y-95554800D02*
X247218200Y-94869000D01*
D45*
X241640000Y-103321000D02*
X241935000Y-103026000D01*
X241640000Y-103800000D02*
X241640000Y-103321000D01*
X243811000Y-103026000D02*
X246532400Y-100304600D01*
X241935000Y-103026000D02*
X243811000Y-103026000D01*
D50*
G04 #@! TO.N,VCC*
X253492000Y-90805000D02*
X253492000Y-94742000D01*
X253492000Y-94742000D02*
X253492000Y-98298000D01*
X253492000Y-98298000D02*
X253492000Y-101600000D01*
X236067600Y-111506000D02*
X237998000Y-113436400D01*
X253492000Y-90422798D02*
X255167198Y-88747600D01*
X253492000Y-90805000D02*
X253492000Y-90422798D01*
X255167198Y-88747600D02*
X258419600Y-88747600D01*
X264363200Y-88747600D02*
X267411200Y-85699600D01*
X267411200Y-63906400D02*
X265531600Y-62026800D01*
X259029200Y-88747600D02*
X259029200Y-87630000D01*
X259029200Y-88747600D02*
X264363200Y-88747600D01*
X258419600Y-88747600D02*
X259029200Y-88747600D01*
X259029200Y-87630000D02*
X256540000Y-85140800D01*
X256540000Y-85140800D02*
X252374400Y-85140800D01*
X252374400Y-85140800D02*
X248666000Y-81432400D01*
X244398800Y-81432400D02*
X243128800Y-82702400D01*
X241168000Y-113466800D02*
X241168000Y-114935000D01*
X241198400Y-113436400D02*
X241168000Y-113466800D01*
X241554000Y-119380000D02*
X238760000Y-119380000D01*
X242468400Y-118465600D02*
X241554000Y-119380000D01*
X242468400Y-115265200D02*
X242468400Y-118465600D01*
X241168000Y-114935000D02*
X242138200Y-114935000D01*
X242138200Y-114935000D02*
X242468400Y-115265200D01*
D45*
X239661400Y-108331000D02*
X241235000Y-108331000D01*
X238099600Y-108903800D02*
X239088600Y-108903800D01*
X239088600Y-108903800D02*
X239661400Y-108331000D01*
X241235000Y-110871000D02*
X240685000Y-110871000D01*
X240126000Y-110871000D02*
X239572800Y-111424200D01*
X241235000Y-110871000D02*
X240126000Y-110871000D01*
X239572800Y-111424200D02*
X239572800Y-113436400D01*
D50*
X237998000Y-113436400D02*
X239572800Y-113436400D01*
X239572800Y-113436400D02*
X241198400Y-113436400D01*
D45*
X237099200Y-108915200D02*
X236067600Y-108915200D01*
X237110600Y-108903800D02*
X237099200Y-108915200D01*
X238099600Y-108903800D02*
X237110600Y-108903800D01*
D50*
X236067600Y-108915200D02*
X236067600Y-111506000D01*
D45*
X267165360Y-81830640D02*
X262890000Y-81830640D01*
X267411200Y-81584800D02*
X267165360Y-81830640D01*
D50*
X267411200Y-85699600D02*
X267411200Y-81584800D01*
D46*
X259181920Y-78943520D02*
X259181920Y-77575640D01*
X259486400Y-79248000D02*
X259181920Y-78943520D01*
X261569200Y-79248000D02*
X259486400Y-79248000D01*
X262890000Y-80568800D02*
X261569200Y-79248000D01*
X262890000Y-80568800D02*
X262890000Y-81830640D01*
D45*
X267377640Y-78655640D02*
X267411200Y-78689200D01*
X264842920Y-78655640D02*
X267377640Y-78655640D01*
D50*
X267411200Y-81584800D02*
X267411200Y-78689200D01*
D45*
X267385800Y-75057000D02*
X267411200Y-75031600D01*
X264842920Y-75057000D02*
X267385800Y-75057000D01*
D50*
X267411200Y-78689200D02*
X267411200Y-75031600D01*
X267411200Y-75031600D02*
X267411200Y-63906400D01*
D45*
X264007600Y-63439320D02*
X264007600Y-62026800D01*
X264019920Y-63451640D02*
X264007600Y-63439320D01*
X264019920Y-64055640D02*
X264019920Y-63451640D01*
D50*
X265531600Y-62026800D02*
X264007600Y-62026800D01*
X264007600Y-62026800D02*
X253238000Y-62026800D01*
D45*
X253224920Y-62039880D02*
X253224920Y-64055640D01*
X253238000Y-62026800D02*
X253224920Y-62039880D01*
X244053600Y-86969600D02*
X243128800Y-86969600D01*
X244079000Y-86995000D02*
X244053600Y-86969600D01*
X244983000Y-86995000D02*
X244079000Y-86995000D01*
D50*
X243128800Y-82702400D02*
X243128800Y-86969600D01*
X243128800Y-86969600D02*
X243128800Y-89357200D01*
D45*
X222631000Y-104247203D02*
X222992203Y-103886000D01*
X222631000Y-105228652D02*
X222631000Y-104247203D01*
X223280000Y-103605000D02*
X223280000Y-102616000D01*
X222999000Y-103886000D02*
X223280000Y-103605000D01*
X222992203Y-103886000D02*
X222999000Y-103886000D01*
X220585000Y-102616000D02*
X220585000Y-104507000D01*
X221306652Y-105228652D02*
X222631000Y-105228652D01*
X220585000Y-104507000D02*
X221306652Y-105228652D01*
X243938000Y-108331000D02*
X241235000Y-108331000D01*
X246040000Y-105750000D02*
X246040000Y-106229000D01*
X246040000Y-106229000D02*
X243938000Y-108331000D01*
X252957000Y-106525000D02*
X255905000Y-106525000D01*
X251968000Y-106525000D02*
X252957000Y-106525000D01*
X260063488Y-106525000D02*
X260223000Y-106365488D01*
D50*
X244271800Y-114935000D02*
X242773200Y-113436400D01*
X242773200Y-113436400D02*
X241198400Y-113436400D01*
X249859800Y-114935000D02*
X244271800Y-114935000D01*
X251815600Y-101600000D02*
X249936000Y-103479600D01*
X253492000Y-101600000D02*
X251815600Y-101600000D01*
X249936000Y-106874328D02*
X251722872Y-108661200D01*
X251722872Y-113071928D02*
X251561600Y-113233200D01*
X251561600Y-113233200D02*
X249859800Y-114935000D01*
X249936000Y-103479600D02*
X249936000Y-106874328D01*
X253282000Y-110236000D02*
X251722872Y-110236000D01*
X255905000Y-107613000D02*
X253282000Y-110236000D01*
X255905000Y-106525000D02*
X255905000Y-107613000D01*
X251722872Y-108661200D02*
X251722872Y-110236000D01*
X251722872Y-110236000D02*
X251722872Y-113071928D01*
D45*
X255905000Y-106525000D02*
X258523800Y-106525000D01*
X258683312Y-106365488D02*
X260223000Y-106365488D01*
X258523800Y-106525000D02*
X258683312Y-106365488D01*
D50*
X248666000Y-81432400D02*
X246888000Y-81432400D01*
X246888000Y-81432400D02*
X244398800Y-81432400D01*
D45*
X246879920Y-81424320D02*
X246879920Y-78655640D01*
X246888000Y-81432400D02*
X246879920Y-81424320D01*
X246879920Y-78655640D02*
X246879920Y-74845640D01*
D50*
X223280000Y-101373000D02*
X223280000Y-102616000D01*
X223280000Y-96359678D02*
X223280000Y-101373000D01*
X232771678Y-86868000D02*
X223280000Y-96359678D01*
X237744000Y-86868000D02*
X232771678Y-86868000D01*
X242697000Y-89789000D02*
X239240000Y-89789000D01*
X243128800Y-89357200D02*
X242697000Y-89789000D01*
X239240000Y-89789000D02*
X239240000Y-87023000D01*
X239085000Y-86868000D02*
X239240000Y-87023000D01*
X237744000Y-86868000D02*
X239085000Y-86868000D01*
X239395000Y-86868000D02*
X241300000Y-86868000D01*
X239240000Y-87023000D02*
X239395000Y-86868000D01*
D45*
X222123000Y-106934000D02*
X220585000Y-106934000D01*
X222631000Y-105228652D02*
X222631000Y-106426000D01*
X222631000Y-106426000D02*
X222123000Y-106934000D01*
G04 #@! TO.N,Net-(C6-Pad1)*
X229387400Y-76200000D02*
X235244800Y-76200000D01*
X235244800Y-76200000D02*
X235737400Y-75707400D01*
X235737400Y-75707400D02*
X235737400Y-74405000D01*
X243610000Y-67174000D02*
X243610000Y-67778000D01*
X243610000Y-67159000D02*
X243610000Y-67174000D01*
X243613999Y-67155001D02*
X243610000Y-67159000D01*
X243771601Y-67155001D02*
X243613999Y-67155001D01*
X243860000Y-67066602D02*
X243771601Y-67155001D01*
X243860000Y-66478000D02*
X243860000Y-67066602D01*
X246610000Y-67189398D02*
X246610000Y-67778000D01*
X246521601Y-67100999D02*
X246610000Y-67189398D01*
X246380000Y-67100999D02*
X246521601Y-67100999D01*
X246360000Y-67080999D02*
X246380000Y-67100999D01*
X246360000Y-66478000D02*
X246360000Y-67080999D01*
D49*
X235737400Y-72239000D02*
X235840400Y-72136000D01*
X235737400Y-74405000D02*
X235737400Y-72239000D01*
D45*
X242519200Y-72085200D02*
X242468400Y-72136000D01*
X243840000Y-72136000D02*
X243840000Y-74055000D01*
X240792000Y-72237600D02*
X240792000Y-74055000D01*
X240893600Y-72136000D02*
X240792000Y-72237600D01*
D49*
X240893600Y-72136000D02*
X242468400Y-72136000D01*
D45*
X235737400Y-75809000D02*
X235737400Y-74405000D01*
X240141600Y-80213200D02*
X235737400Y-75809000D01*
D48*
X240141600Y-80213200D02*
X245821200Y-80213200D01*
X245821200Y-80213200D02*
X245872000Y-80264000D01*
D45*
X251648280Y-80391000D02*
X247904000Y-80391000D01*
X254987920Y-83730640D02*
X251648280Y-80391000D01*
X255891920Y-83730640D02*
X254987920Y-83730640D01*
D49*
X235840400Y-72136000D02*
X240893600Y-72136000D01*
D45*
X243610000Y-67778000D02*
X243610000Y-71982200D01*
X246610000Y-70890000D02*
X245414800Y-72085200D01*
X246610000Y-67778000D02*
X246610000Y-70890000D01*
D49*
X242468400Y-72136000D02*
X245364000Y-72136000D01*
G04 #@! TD*
D45*
G04 #@! TO.N,Net-(R18-Pad2)*
G36*
X219205000Y-114649250D02*
X219363750Y-114808000D01*
X221488000Y-114808000D01*
X221488000Y-114788000D01*
X221742000Y-114788000D01*
X221742000Y-114808000D01*
X221762000Y-114808000D01*
X221762000Y-115062000D01*
X221742000Y-115062000D01*
X221742000Y-117011250D01*
X221900750Y-117170000D01*
X223393000Y-117170000D01*
X223393000Y-118415000D01*
X221900750Y-118415000D01*
X221742000Y-118573750D01*
X221742000Y-120523000D01*
X221762000Y-120523000D01*
X221762000Y-120777000D01*
X221742000Y-120777000D01*
X221742000Y-120797000D01*
X221488000Y-120797000D01*
X221488000Y-120777000D01*
X219363750Y-120777000D01*
X219205000Y-120935750D01*
X219205000Y-122376310D01*
X219226411Y-122428000D01*
X217738679Y-122428000D01*
X217760090Y-122376310D01*
X217760090Y-120935750D01*
X217601340Y-120777000D01*
X215477090Y-120777000D01*
X215477090Y-120797000D01*
X215223090Y-120797000D01*
X215223090Y-120777000D01*
X215203090Y-120777000D01*
X215203090Y-120523000D01*
X215223090Y-120523000D01*
X215223090Y-118573750D01*
X215477090Y-118573750D01*
X215477090Y-120523000D01*
X217601340Y-120523000D01*
X217760090Y-120364250D01*
X217760090Y-118923690D01*
X219205000Y-118923690D01*
X219205000Y-120364250D01*
X219363750Y-120523000D01*
X221488000Y-120523000D01*
X221488000Y-118573750D01*
X221329250Y-118415000D01*
X219713691Y-118415000D01*
X219480302Y-118511673D01*
X219301673Y-118690301D01*
X219205000Y-118923690D01*
X217760090Y-118923690D01*
X217663417Y-118690301D01*
X217484788Y-118511673D01*
X217251399Y-118415000D01*
X215635840Y-118415000D01*
X215477090Y-118573750D01*
X215223090Y-118573750D01*
X215064340Y-118415000D01*
X213487000Y-118415000D01*
X213487000Y-117184116D01*
X215064340Y-117184116D01*
X215223090Y-117025366D01*
X215223090Y-115076116D01*
X215477090Y-115076116D01*
X215477090Y-117025366D01*
X215635840Y-117184116D01*
X217251399Y-117184116D01*
X217484788Y-117087443D01*
X217663417Y-116908815D01*
X217760090Y-116675426D01*
X217760090Y-115234866D01*
X217745974Y-115220750D01*
X219205000Y-115220750D01*
X219205000Y-116661310D01*
X219301673Y-116894699D01*
X219480302Y-117073327D01*
X219713691Y-117170000D01*
X221329250Y-117170000D01*
X221488000Y-117011250D01*
X221488000Y-115062000D01*
X219363750Y-115062000D01*
X219205000Y-115220750D01*
X217745974Y-115220750D01*
X217601340Y-115076116D01*
X215477090Y-115076116D01*
X215223090Y-115076116D01*
X215203090Y-115076116D01*
X215203090Y-114822116D01*
X215223090Y-114822116D01*
X215223090Y-114802116D01*
X215477090Y-114802116D01*
X215477090Y-114822116D01*
X217601340Y-114822116D01*
X217760090Y-114663366D01*
X217760090Y-113284000D01*
X219205000Y-113284000D01*
X219205000Y-114649250D01*
X219205000Y-114649250D01*
G37*
X219205000Y-114649250D02*
X219363750Y-114808000D01*
X221488000Y-114808000D01*
X221488000Y-114788000D01*
X221742000Y-114788000D01*
X221742000Y-114808000D01*
X221762000Y-114808000D01*
X221762000Y-115062000D01*
X221742000Y-115062000D01*
X221742000Y-117011250D01*
X221900750Y-117170000D01*
X223393000Y-117170000D01*
X223393000Y-118415000D01*
X221900750Y-118415000D01*
X221742000Y-118573750D01*
X221742000Y-120523000D01*
X221762000Y-120523000D01*
X221762000Y-120777000D01*
X221742000Y-120777000D01*
X221742000Y-120797000D01*
X221488000Y-120797000D01*
X221488000Y-120777000D01*
X219363750Y-120777000D01*
X219205000Y-120935750D01*
X219205000Y-122376310D01*
X219226411Y-122428000D01*
X217738679Y-122428000D01*
X217760090Y-122376310D01*
X217760090Y-120935750D01*
X217601340Y-120777000D01*
X215477090Y-120777000D01*
X215477090Y-120797000D01*
X215223090Y-120797000D01*
X215223090Y-120777000D01*
X215203090Y-120777000D01*
X215203090Y-120523000D01*
X215223090Y-120523000D01*
X215223090Y-118573750D01*
X215477090Y-118573750D01*
X215477090Y-120523000D01*
X217601340Y-120523000D01*
X217760090Y-120364250D01*
X217760090Y-118923690D01*
X219205000Y-118923690D01*
X219205000Y-120364250D01*
X219363750Y-120523000D01*
X221488000Y-120523000D01*
X221488000Y-118573750D01*
X221329250Y-118415000D01*
X219713691Y-118415000D01*
X219480302Y-118511673D01*
X219301673Y-118690301D01*
X219205000Y-118923690D01*
X217760090Y-118923690D01*
X217663417Y-118690301D01*
X217484788Y-118511673D01*
X217251399Y-118415000D01*
X215635840Y-118415000D01*
X215477090Y-118573750D01*
X215223090Y-118573750D01*
X215064340Y-118415000D01*
X213487000Y-118415000D01*
X213487000Y-117184116D01*
X215064340Y-117184116D01*
X215223090Y-117025366D01*
X215223090Y-115076116D01*
X215477090Y-115076116D01*
X215477090Y-117025366D01*
X215635840Y-117184116D01*
X217251399Y-117184116D01*
X217484788Y-117087443D01*
X217663417Y-116908815D01*
X217760090Y-116675426D01*
X217760090Y-115234866D01*
X217745974Y-115220750D01*
X219205000Y-115220750D01*
X219205000Y-116661310D01*
X219301673Y-116894699D01*
X219480302Y-117073327D01*
X219713691Y-117170000D01*
X221329250Y-117170000D01*
X221488000Y-117011250D01*
X221488000Y-115062000D01*
X219363750Y-115062000D01*
X219205000Y-115220750D01*
X217745974Y-115220750D01*
X217601340Y-115076116D01*
X215477090Y-115076116D01*
X215223090Y-115076116D01*
X215203090Y-115076116D01*
X215203090Y-114822116D01*
X215223090Y-114822116D01*
X215223090Y-114802116D01*
X215477090Y-114802116D01*
X215477090Y-114822116D01*
X217601340Y-114822116D01*
X217760090Y-114663366D01*
X217760090Y-113284000D01*
X219205000Y-113284000D01*
X219205000Y-114649250D01*
G04 #@! TO.N,GND*
G36*
X230796058Y-113221880D02*
X231247525Y-113408884D01*
X231445385Y-113560707D01*
X231347698Y-113525856D01*
X230792632Y-113553638D01*
X230408857Y-113712603D01*
X230339392Y-113954787D01*
X231140000Y-114755395D01*
X231154143Y-114741253D01*
X231333748Y-114920858D01*
X231319605Y-114935000D01*
X231333748Y-114949143D01*
X231154143Y-115128748D01*
X231140000Y-115114605D01*
X230339392Y-115915213D01*
X230408857Y-116157397D01*
X230932302Y-116344144D01*
X231483856Y-116316538D01*
X230337301Y-117463093D01*
X230326799Y-117474999D01*
X230020701Y-117869149D01*
X230004538Y-117896407D01*
X229805552Y-118354068D01*
X229796641Y-118384479D01*
X229717154Y-118877157D01*
X229715610Y-118892957D01*
X229658353Y-120534335D01*
X229549219Y-121106540D01*
X229276872Y-121610266D01*
X228864960Y-122008060D01*
X228575000Y-122152001D01*
X228575000Y-120935750D01*
X228416250Y-120777000D01*
X226292000Y-120777000D01*
X226292000Y-120797000D01*
X226038000Y-120797000D01*
X226038000Y-120777000D01*
X226018000Y-120777000D01*
X226018000Y-120523000D01*
X226038000Y-120523000D01*
X226038000Y-118573750D01*
X226292000Y-118573750D01*
X226292000Y-120523000D01*
X228416250Y-120523000D01*
X228575000Y-120364250D01*
X228575000Y-118923690D01*
X228478327Y-118690301D01*
X228299698Y-118511673D01*
X228066309Y-118415000D01*
X226450750Y-118415000D01*
X226292000Y-118573750D01*
X226038000Y-118573750D01*
X225879250Y-118415000D01*
X224263691Y-118415000D01*
X224194700Y-118443577D01*
X224215563Y-117150065D01*
X224263691Y-117170000D01*
X225879250Y-117170000D01*
X226038000Y-117011250D01*
X226038000Y-115062000D01*
X226292000Y-115062000D01*
X226292000Y-117011250D01*
X226450750Y-117170000D01*
X228066309Y-117170000D01*
X228299698Y-117073327D01*
X228478327Y-116894699D01*
X228575000Y-116661310D01*
X228575000Y-115220750D01*
X228416250Y-115062000D01*
X226292000Y-115062000D01*
X226038000Y-115062000D01*
X226018000Y-115062000D01*
X226018000Y-114808000D01*
X226038000Y-114808000D01*
X226038000Y-114788000D01*
X226292000Y-114788000D01*
X226292000Y-114808000D01*
X228416250Y-114808000D01*
X228496948Y-114727302D01*
X229730856Y-114727302D01*
X229758638Y-115282368D01*
X229917603Y-115666143D01*
X230159787Y-115735608D01*
X230960395Y-114935000D01*
X230159787Y-114134392D01*
X229917603Y-114203857D01*
X229730856Y-114727302D01*
X228496948Y-114727302D01*
X228575000Y-114649250D01*
X228575000Y-113208690D01*
X228553589Y-113157000D01*
X230303245Y-113157000D01*
X230796058Y-113221880D01*
X230796058Y-113221880D01*
G37*
X230796058Y-113221880D02*
X231247525Y-113408884D01*
X231445385Y-113560707D01*
X231347698Y-113525856D01*
X230792632Y-113553638D01*
X230408857Y-113712603D01*
X230339392Y-113954787D01*
X231140000Y-114755395D01*
X231154143Y-114741253D01*
X231333748Y-114920858D01*
X231319605Y-114935000D01*
X231333748Y-114949143D01*
X231154143Y-115128748D01*
X231140000Y-115114605D01*
X230339392Y-115915213D01*
X230408857Y-116157397D01*
X230932302Y-116344144D01*
X231483856Y-116316538D01*
X230337301Y-117463093D01*
X230326799Y-117474999D01*
X230020701Y-117869149D01*
X230004538Y-117896407D01*
X229805552Y-118354068D01*
X229796641Y-118384479D01*
X229717154Y-118877157D01*
X229715610Y-118892957D01*
X229658353Y-120534335D01*
X229549219Y-121106540D01*
X229276872Y-121610266D01*
X228864960Y-122008060D01*
X228575000Y-122152001D01*
X228575000Y-120935750D01*
X228416250Y-120777000D01*
X226292000Y-120777000D01*
X226292000Y-120797000D01*
X226038000Y-120797000D01*
X226038000Y-120777000D01*
X226018000Y-120777000D01*
X226018000Y-120523000D01*
X226038000Y-120523000D01*
X226038000Y-118573750D01*
X226292000Y-118573750D01*
X226292000Y-120523000D01*
X228416250Y-120523000D01*
X228575000Y-120364250D01*
X228575000Y-118923690D01*
X228478327Y-118690301D01*
X228299698Y-118511673D01*
X228066309Y-118415000D01*
X226450750Y-118415000D01*
X226292000Y-118573750D01*
X226038000Y-118573750D01*
X225879250Y-118415000D01*
X224263691Y-118415000D01*
X224194700Y-118443577D01*
X224215563Y-117150065D01*
X224263691Y-117170000D01*
X225879250Y-117170000D01*
X226038000Y-117011250D01*
X226038000Y-115062000D01*
X226292000Y-115062000D01*
X226292000Y-117011250D01*
X226450750Y-117170000D01*
X228066309Y-117170000D01*
X228299698Y-117073327D01*
X228478327Y-116894699D01*
X228575000Y-116661310D01*
X228575000Y-115220750D01*
X228416250Y-115062000D01*
X226292000Y-115062000D01*
X226038000Y-115062000D01*
X226018000Y-115062000D01*
X226018000Y-114808000D01*
X226038000Y-114808000D01*
X226038000Y-114788000D01*
X226292000Y-114788000D01*
X226292000Y-114808000D01*
X228416250Y-114808000D01*
X228496948Y-114727302D01*
X229730856Y-114727302D01*
X229758638Y-115282368D01*
X229917603Y-115666143D01*
X230159787Y-115735608D01*
X230960395Y-114935000D01*
X230159787Y-114134392D01*
X229917603Y-114203857D01*
X229730856Y-114727302D01*
X228496948Y-114727302D01*
X228575000Y-114649250D01*
X228575000Y-113208690D01*
X228553589Y-113157000D01*
X230303245Y-113157000D01*
X230796058Y-113221880D01*
G04 #@! TO.N,Net-(Q1-Pad3)*
G36*
X210470000Y-109119250D02*
X210628750Y-109278000D01*
X211328000Y-109278000D01*
X211328000Y-109258000D01*
X211582000Y-109258000D01*
X211582000Y-109278000D01*
X212598000Y-109278000D01*
X212598000Y-109258000D01*
X212852000Y-109258000D01*
X212852000Y-109278000D01*
X213868000Y-109278000D01*
X213868000Y-109258000D01*
X214122000Y-109258000D01*
X214122000Y-109278000D01*
X214142000Y-109278000D01*
X214142000Y-109532000D01*
X214122000Y-109532000D01*
X214122000Y-110456250D01*
X214280750Y-110615000D01*
X214459982Y-110615000D01*
X214438120Y-110781058D01*
X214251116Y-111232525D01*
X213948527Y-111626867D01*
X213220983Y-112354411D01*
X213210030Y-112366901D01*
X212892193Y-112781114D01*
X212886587Y-112790824D01*
X212701399Y-112714116D01*
X211085840Y-112714116D01*
X210927090Y-112872866D01*
X210927090Y-114822116D01*
X210947090Y-114822116D01*
X210947090Y-115076116D01*
X210927090Y-115076116D01*
X210927090Y-117025366D01*
X211085840Y-117184116D01*
X212598000Y-117184116D01*
X212598000Y-118415000D01*
X211085840Y-118415000D01*
X210927090Y-118573750D01*
X210927090Y-120523000D01*
X210947090Y-120523000D01*
X210947090Y-120777000D01*
X210927090Y-120777000D01*
X210927090Y-120797000D01*
X210673090Y-120797000D01*
X210673090Y-120777000D01*
X208548840Y-120777000D01*
X208390090Y-120935750D01*
X208390090Y-122376310D01*
X208411501Y-122428000D01*
X208383328Y-122428000D01*
X207890515Y-122363120D01*
X207439048Y-122176116D01*
X207051364Y-121878636D01*
X206753884Y-121490952D01*
X206566880Y-121039485D01*
X206502000Y-120546672D01*
X206502000Y-118923690D01*
X208390090Y-118923690D01*
X208390090Y-120364250D01*
X208548840Y-120523000D01*
X210673090Y-120523000D01*
X210673090Y-118573750D01*
X210514340Y-118415000D01*
X208898781Y-118415000D01*
X208665392Y-118511673D01*
X208486763Y-118690301D01*
X208390090Y-118923690D01*
X206502000Y-118923690D01*
X206502000Y-115234866D01*
X208390090Y-115234866D01*
X208390090Y-116675426D01*
X208486763Y-116908815D01*
X208665392Y-117087443D01*
X208898781Y-117184116D01*
X210514340Y-117184116D01*
X210673090Y-117025366D01*
X210673090Y-115076116D01*
X208548840Y-115076116D01*
X208390090Y-115234866D01*
X206502000Y-115234866D01*
X206502000Y-113222806D01*
X208390090Y-113222806D01*
X208390090Y-114663366D01*
X208548840Y-114822116D01*
X210673090Y-114822116D01*
X210673090Y-112872866D01*
X210514340Y-112714116D01*
X208898781Y-112714116D01*
X208665392Y-112810789D01*
X208486763Y-112989417D01*
X208390090Y-113222806D01*
X206502000Y-113222806D01*
X206502000Y-111483086D01*
X206518691Y-111490000D01*
X207359250Y-111490000D01*
X207518000Y-111331250D01*
X207518000Y-109982000D01*
X207772000Y-109982000D01*
X207772000Y-111331250D01*
X207930750Y-111490000D01*
X208771309Y-111490000D01*
X209004698Y-111393327D01*
X209183327Y-111214699D01*
X209280000Y-110981310D01*
X209280000Y-110140750D01*
X209121250Y-109982000D01*
X207772000Y-109982000D01*
X207518000Y-109982000D01*
X207498000Y-109982000D01*
X207498000Y-109728000D01*
X207518000Y-109728000D01*
X207518000Y-109708000D01*
X207772000Y-109708000D01*
X207772000Y-109728000D01*
X209121250Y-109728000D01*
X209158500Y-109690750D01*
X210470000Y-109690750D01*
X210470000Y-110106310D01*
X210566673Y-110339699D01*
X210745302Y-110518327D01*
X210978691Y-110615000D01*
X211169250Y-110615000D01*
X211328000Y-110456250D01*
X211328000Y-109532000D01*
X211582000Y-109532000D01*
X211582000Y-110456250D01*
X211740750Y-110615000D01*
X211931309Y-110615000D01*
X212090000Y-110549268D01*
X212248691Y-110615000D01*
X212439250Y-110615000D01*
X212598000Y-110456250D01*
X212598000Y-109532000D01*
X212852000Y-109532000D01*
X212852000Y-110456250D01*
X213010750Y-110615000D01*
X213201309Y-110615000D01*
X213360000Y-110549268D01*
X213518691Y-110615000D01*
X213709250Y-110615000D01*
X213868000Y-110456250D01*
X213868000Y-109532000D01*
X212852000Y-109532000D01*
X212598000Y-109532000D01*
X211582000Y-109532000D01*
X211328000Y-109532000D01*
X210628750Y-109532000D01*
X210470000Y-109690750D01*
X209158500Y-109690750D01*
X209280000Y-109569250D01*
X209280000Y-108728690D01*
X209273087Y-108712000D01*
X210470000Y-108712000D01*
X210470000Y-109119250D01*
X210470000Y-109119250D01*
G37*
X210470000Y-109119250D02*
X210628750Y-109278000D01*
X211328000Y-109278000D01*
X211328000Y-109258000D01*
X211582000Y-109258000D01*
X211582000Y-109278000D01*
X212598000Y-109278000D01*
X212598000Y-109258000D01*
X212852000Y-109258000D01*
X212852000Y-109278000D01*
X213868000Y-109278000D01*
X213868000Y-109258000D01*
X214122000Y-109258000D01*
X214122000Y-109278000D01*
X214142000Y-109278000D01*
X214142000Y-109532000D01*
X214122000Y-109532000D01*
X214122000Y-110456250D01*
X214280750Y-110615000D01*
X214459982Y-110615000D01*
X214438120Y-110781058D01*
X214251116Y-111232525D01*
X213948527Y-111626867D01*
X213220983Y-112354411D01*
X213210030Y-112366901D01*
X212892193Y-112781114D01*
X212886587Y-112790824D01*
X212701399Y-112714116D01*
X211085840Y-112714116D01*
X210927090Y-112872866D01*
X210927090Y-114822116D01*
X210947090Y-114822116D01*
X210947090Y-115076116D01*
X210927090Y-115076116D01*
X210927090Y-117025366D01*
X211085840Y-117184116D01*
X212598000Y-117184116D01*
X212598000Y-118415000D01*
X211085840Y-118415000D01*
X210927090Y-118573750D01*
X210927090Y-120523000D01*
X210947090Y-120523000D01*
X210947090Y-120777000D01*
X210927090Y-120777000D01*
X210927090Y-120797000D01*
X210673090Y-120797000D01*
X210673090Y-120777000D01*
X208548840Y-120777000D01*
X208390090Y-120935750D01*
X208390090Y-122376310D01*
X208411501Y-122428000D01*
X208383328Y-122428000D01*
X207890515Y-122363120D01*
X207439048Y-122176116D01*
X207051364Y-121878636D01*
X206753884Y-121490952D01*
X206566880Y-121039485D01*
X206502000Y-120546672D01*
X206502000Y-118923690D01*
X208390090Y-118923690D01*
X208390090Y-120364250D01*
X208548840Y-120523000D01*
X210673090Y-120523000D01*
X210673090Y-118573750D01*
X210514340Y-118415000D01*
X208898781Y-118415000D01*
X208665392Y-118511673D01*
X208486763Y-118690301D01*
X208390090Y-118923690D01*
X206502000Y-118923690D01*
X206502000Y-115234866D01*
X208390090Y-115234866D01*
X208390090Y-116675426D01*
X208486763Y-116908815D01*
X208665392Y-117087443D01*
X208898781Y-117184116D01*
X210514340Y-117184116D01*
X210673090Y-117025366D01*
X210673090Y-115076116D01*
X208548840Y-115076116D01*
X208390090Y-115234866D01*
X206502000Y-115234866D01*
X206502000Y-113222806D01*
X208390090Y-113222806D01*
X208390090Y-114663366D01*
X208548840Y-114822116D01*
X210673090Y-114822116D01*
X210673090Y-112872866D01*
X210514340Y-112714116D01*
X208898781Y-112714116D01*
X208665392Y-112810789D01*
X208486763Y-112989417D01*
X208390090Y-113222806D01*
X206502000Y-113222806D01*
X206502000Y-111483086D01*
X206518691Y-111490000D01*
X207359250Y-111490000D01*
X207518000Y-111331250D01*
X207518000Y-109982000D01*
X207772000Y-109982000D01*
X207772000Y-111331250D01*
X207930750Y-111490000D01*
X208771309Y-111490000D01*
X209004698Y-111393327D01*
X209183327Y-111214699D01*
X209280000Y-110981310D01*
X209280000Y-110140750D01*
X209121250Y-109982000D01*
X207772000Y-109982000D01*
X207518000Y-109982000D01*
X207498000Y-109982000D01*
X207498000Y-109728000D01*
X207518000Y-109728000D01*
X207518000Y-109708000D01*
X207772000Y-109708000D01*
X207772000Y-109728000D01*
X209121250Y-109728000D01*
X209158500Y-109690750D01*
X210470000Y-109690750D01*
X210470000Y-110106310D01*
X210566673Y-110339699D01*
X210745302Y-110518327D01*
X210978691Y-110615000D01*
X211169250Y-110615000D01*
X211328000Y-110456250D01*
X211328000Y-109532000D01*
X211582000Y-109532000D01*
X211582000Y-110456250D01*
X211740750Y-110615000D01*
X211931309Y-110615000D01*
X212090000Y-110549268D01*
X212248691Y-110615000D01*
X212439250Y-110615000D01*
X212598000Y-110456250D01*
X212598000Y-109532000D01*
X212852000Y-109532000D01*
X212852000Y-110456250D01*
X213010750Y-110615000D01*
X213201309Y-110615000D01*
X213360000Y-110549268D01*
X213518691Y-110615000D01*
X213709250Y-110615000D01*
X213868000Y-110456250D01*
X213868000Y-109532000D01*
X212852000Y-109532000D01*
X212598000Y-109532000D01*
X211582000Y-109532000D01*
X211328000Y-109532000D01*
X210628750Y-109532000D01*
X210470000Y-109690750D01*
X209158500Y-109690750D01*
X209280000Y-109569250D01*
X209280000Y-108728690D01*
X209273087Y-108712000D01*
X210470000Y-108712000D01*
X210470000Y-109119250D01*
G04 #@! TO.N,+5V*
G36*
X214752250Y-86346000D02*
X215836500Y-86346000D01*
X215836500Y-86326000D01*
X216090500Y-86326000D01*
X216090500Y-86346000D01*
X216110500Y-86346000D01*
X216110500Y-86600000D01*
X216090500Y-86600000D01*
X216090500Y-87529250D01*
X216249250Y-87688000D01*
X216427573Y-87688000D01*
X216222925Y-87970583D01*
X215478579Y-88643554D01*
X215344698Y-88509673D01*
X215111309Y-88413000D01*
X213645750Y-88413000D01*
X213487000Y-88571750D01*
X213487000Y-89168000D01*
X213507000Y-89168000D01*
X213507000Y-89179400D01*
X213213000Y-89179400D01*
X213213000Y-89168000D01*
X213233000Y-89168000D01*
X213233000Y-88571750D01*
X213074250Y-88413000D01*
X211608691Y-88413000D01*
X211375302Y-88509673D01*
X211342834Y-88542141D01*
X211253064Y-88458023D01*
X210974348Y-88104268D01*
X210694025Y-87591725D01*
X210756500Y-87529250D01*
X210756500Y-86600000D01*
X211010500Y-86600000D01*
X211010500Y-87529250D01*
X211169250Y-87688000D01*
X211744810Y-87688000D01*
X211978199Y-87591327D01*
X212153500Y-87416025D01*
X212328801Y-87591327D01*
X212562190Y-87688000D01*
X213137750Y-87688000D01*
X213296500Y-87529250D01*
X213296500Y-86600000D01*
X213550500Y-86600000D01*
X213550500Y-87529250D01*
X213709250Y-87688000D01*
X214284810Y-87688000D01*
X214518199Y-87591327D01*
X214693500Y-87416025D01*
X214868801Y-87591327D01*
X215102190Y-87688000D01*
X215677750Y-87688000D01*
X215836500Y-87529250D01*
X215836500Y-86600000D01*
X214752250Y-86600000D01*
X214693500Y-86658750D01*
X214634750Y-86600000D01*
X213550500Y-86600000D01*
X213296500Y-86600000D01*
X212212250Y-86600000D01*
X212153500Y-86658750D01*
X212094750Y-86600000D01*
X211010500Y-86600000D01*
X210756500Y-86600000D01*
X210736500Y-86600000D01*
X210736500Y-86346000D01*
X210756500Y-86346000D01*
X210756500Y-86326000D01*
X211010500Y-86326000D01*
X211010500Y-86346000D01*
X212094750Y-86346000D01*
X212153500Y-86287250D01*
X212212250Y-86346000D01*
X213296500Y-86346000D01*
X213296500Y-86326000D01*
X213550500Y-86326000D01*
X213550500Y-86346000D01*
X214634750Y-86346000D01*
X214693500Y-86287250D01*
X214752250Y-86346000D01*
X214752250Y-86346000D01*
G37*
X214752250Y-86346000D02*
X215836500Y-86346000D01*
X215836500Y-86326000D01*
X216090500Y-86326000D01*
X216090500Y-86346000D01*
X216110500Y-86346000D01*
X216110500Y-86600000D01*
X216090500Y-86600000D01*
X216090500Y-87529250D01*
X216249250Y-87688000D01*
X216427573Y-87688000D01*
X216222925Y-87970583D01*
X215478579Y-88643554D01*
X215344698Y-88509673D01*
X215111309Y-88413000D01*
X213645750Y-88413000D01*
X213487000Y-88571750D01*
X213487000Y-89168000D01*
X213507000Y-89168000D01*
X213507000Y-89179400D01*
X213213000Y-89179400D01*
X213213000Y-89168000D01*
X213233000Y-89168000D01*
X213233000Y-88571750D01*
X213074250Y-88413000D01*
X211608691Y-88413000D01*
X211375302Y-88509673D01*
X211342834Y-88542141D01*
X211253064Y-88458023D01*
X210974348Y-88104268D01*
X210694025Y-87591725D01*
X210756500Y-87529250D01*
X210756500Y-86600000D01*
X211010500Y-86600000D01*
X211010500Y-87529250D01*
X211169250Y-87688000D01*
X211744810Y-87688000D01*
X211978199Y-87591327D01*
X212153500Y-87416025D01*
X212328801Y-87591327D01*
X212562190Y-87688000D01*
X213137750Y-87688000D01*
X213296500Y-87529250D01*
X213296500Y-86600000D01*
X213550500Y-86600000D01*
X213550500Y-87529250D01*
X213709250Y-87688000D01*
X214284810Y-87688000D01*
X214518199Y-87591327D01*
X214693500Y-87416025D01*
X214868801Y-87591327D01*
X215102190Y-87688000D01*
X215677750Y-87688000D01*
X215836500Y-87529250D01*
X215836500Y-86600000D01*
X214752250Y-86600000D01*
X214693500Y-86658750D01*
X214634750Y-86600000D01*
X213550500Y-86600000D01*
X213296500Y-86600000D01*
X212212250Y-86600000D01*
X212153500Y-86658750D01*
X212094750Y-86600000D01*
X211010500Y-86600000D01*
X210756500Y-86600000D01*
X210736500Y-86600000D01*
X210736500Y-86346000D01*
X210756500Y-86346000D01*
X210756500Y-86326000D01*
X211010500Y-86326000D01*
X211010500Y-86346000D01*
X212094750Y-86346000D01*
X212153500Y-86287250D01*
X212212250Y-86346000D01*
X213296500Y-86346000D01*
X213296500Y-86326000D01*
X213550500Y-86326000D01*
X213550500Y-86346000D01*
X214634750Y-86346000D01*
X214693500Y-86287250D01*
X214752250Y-86346000D01*
G04 #@! TO.N,GND*
G36*
X209849916Y-89095751D02*
X210142935Y-89291541D01*
X210564304Y-89712910D01*
X210583549Y-89728704D01*
X210907972Y-89945477D01*
X210953754Y-89964440D01*
X211100000Y-89993530D01*
X211100000Y-90392250D01*
X211258750Y-90551000D01*
X213233000Y-90551000D01*
X213233000Y-90531000D01*
X213487000Y-90531000D01*
X213487000Y-90551000D01*
X215461250Y-90551000D01*
X215620000Y-90392250D01*
X215620000Y-89993530D01*
X215766246Y-89964440D01*
X215812028Y-89945477D01*
X216136451Y-89728704D01*
X216155696Y-89712910D01*
X216577065Y-89291541D01*
X216870084Y-89095751D01*
X217215723Y-89027000D01*
X217808491Y-89027000D01*
X218154130Y-89095752D01*
X218436545Y-89284455D01*
X218625248Y-89566870D01*
X218694000Y-89912509D01*
X218694000Y-91443491D01*
X218625248Y-91789130D01*
X218436545Y-92071545D01*
X218154130Y-92260248D01*
X217808491Y-92329000D01*
X217215723Y-92329000D01*
X216870084Y-92260249D01*
X216577065Y-92064459D01*
X215989803Y-91477197D01*
X215948601Y-91449667D01*
X215641996Y-91322667D01*
X215620000Y-91318292D01*
X215620000Y-90963750D01*
X215461250Y-90805000D01*
X213487000Y-90805000D01*
X213487000Y-90825000D01*
X213233000Y-90825000D01*
X213233000Y-90805000D01*
X211258750Y-90805000D01*
X211100000Y-90963750D01*
X211100000Y-91362470D01*
X210953754Y-91391560D01*
X210907972Y-91410523D01*
X210583549Y-91627296D01*
X210564304Y-91643090D01*
X210142935Y-92064459D01*
X209849916Y-92260249D01*
X209504277Y-92329000D01*
X208657509Y-92329000D01*
X208311870Y-92260248D01*
X208029455Y-92071545D01*
X207840752Y-91789130D01*
X207772000Y-91443491D01*
X207772000Y-89912509D01*
X207840752Y-89566870D01*
X208029455Y-89284455D01*
X208311870Y-89095752D01*
X208657509Y-89027000D01*
X209504277Y-89027000D01*
X209849916Y-89095751D01*
X209849916Y-89095751D01*
G37*
X209849916Y-89095751D02*
X210142935Y-89291541D01*
X210564304Y-89712910D01*
X210583549Y-89728704D01*
X210907972Y-89945477D01*
X210953754Y-89964440D01*
X211100000Y-89993530D01*
X211100000Y-90392250D01*
X211258750Y-90551000D01*
X213233000Y-90551000D01*
X213233000Y-90531000D01*
X213487000Y-90531000D01*
X213487000Y-90551000D01*
X215461250Y-90551000D01*
X215620000Y-90392250D01*
X215620000Y-89993530D01*
X215766246Y-89964440D01*
X215812028Y-89945477D01*
X216136451Y-89728704D01*
X216155696Y-89712910D01*
X216577065Y-89291541D01*
X216870084Y-89095751D01*
X217215723Y-89027000D01*
X217808491Y-89027000D01*
X218154130Y-89095752D01*
X218436545Y-89284455D01*
X218625248Y-89566870D01*
X218694000Y-89912509D01*
X218694000Y-91443491D01*
X218625248Y-91789130D01*
X218436545Y-92071545D01*
X218154130Y-92260248D01*
X217808491Y-92329000D01*
X217215723Y-92329000D01*
X216870084Y-92260249D01*
X216577065Y-92064459D01*
X215989803Y-91477197D01*
X215948601Y-91449667D01*
X215641996Y-91322667D01*
X215620000Y-91318292D01*
X215620000Y-90963750D01*
X215461250Y-90805000D01*
X213487000Y-90805000D01*
X213487000Y-90825000D01*
X213233000Y-90825000D01*
X213233000Y-90805000D01*
X211258750Y-90805000D01*
X211100000Y-90963750D01*
X211100000Y-91362470D01*
X210953754Y-91391560D01*
X210907972Y-91410523D01*
X210583549Y-91627296D01*
X210564304Y-91643090D01*
X210142935Y-92064459D01*
X209849916Y-92260249D01*
X209504277Y-92329000D01*
X208657509Y-92329000D01*
X208311870Y-92260248D01*
X208029455Y-92071545D01*
X207840752Y-91789130D01*
X207772000Y-91443491D01*
X207772000Y-89912509D01*
X207840752Y-89566870D01*
X208029455Y-89284455D01*
X208311870Y-89095752D01*
X208657509Y-89027000D01*
X209504277Y-89027000D01*
X209849916Y-89095751D01*
G04 #@! TD*
M02*
