M48
;DRILL file {KiCad (5.0.0)} date 04/23/20 16:22:12
;FORMAT={-:-/ absolute / inch / decimal}
FMAT,2
INCH,TZ
T1C0.0118
T2C0.0157
T3C0.0236
T4C0.0300
T5C0.0402
T6C0.2008
%
G90
G05
M72
T1
X10.164Y-2.986
X10.186Y-3.008
T2
X8.22Y-3.532
X8.22Y-3.574
X8.22Y-3.62
X8.229Y-3.334
X8.447Y-3.27
X8.544Y-4.21
X8.546Y-4.04
X8.574Y-3.614
X8.576Y-3.57
X8.578Y-3.526
X8.589Y-3.336
X8.922Y-4.046
X8.964Y-3.946
X8.966Y-4.084
X9.004Y-4.326
X9.074Y-3.628
X9.17Y-3.464
X9.286Y-3.352
X9.3234Y-3.706
X9.328Y-3.8
X9.378Y-4.164
X9.394Y-4.418
X9.445Y-2.76
X9.5Y-3.282
X9.516Y-3.07
X9.64Y-3.07
X9.68Y-3.16
X9.6804Y-2.7698
X9.7377Y-2.7707
X9.76Y-3.165
X9.802Y-4.484
X9.858Y-3.544
X9.876Y-3.802
X9.924Y-3.8326
X9.996Y-4.072
X10.03Y-3.79
X10.048Y-3.934
X10.108Y-3.83
X10.124Y-3.45
X10.128Y-3.55
X10.144Y-3.858
X10.148Y-3.73
X10.164Y-2.476
X10.17Y-3.12
X10.23Y-3.358
X10.298Y-2.476
X10.348Y-3.364
X10.37Y-4.27
T4
X9.1Y-4.525
X9.2Y-4.525
X9.3Y-4.525
T5
X9.1Y-4.32
X9.2Y-4.32
X9.135Y-4.755
X8.1Y-3.9
X9.1Y-4.16
X9.2Y-4.16
X8.7Y-3.1
X9.295Y-2.54
X9.031Y-3.
X9.031Y-3.1
X9.3Y-4.7
X9.4Y-4.7
X8.175Y-4.325
X9.775Y-3.325
X9.775Y-3.425
T6
X8.3Y-2.63
X10.3Y-4.63
T3
X10.298Y-3.6249G85X10.3374Y-3.6249
G05
X10.298Y-3.9651G85X10.3374Y-3.9651
G05
X10.4992Y-3.6249G85X10.5583Y-3.6249
G05
X10.4992Y-3.9651G85X10.5583Y-3.9651
G05
X9.4799Y-2.4708G85X9.4799Y-2.4117
G05
X9.4799Y-2.672G85X9.4799Y-2.6326
G05
X9.8201Y-2.4708G85X9.8201Y-2.4117
G05
X9.8201Y-2.672G85X9.8201Y-2.6326
G05
T0
M30
