M48
;DRILL file {KiCad (5.0.0)} date 05/11/20 19:06:44
;FORMAT={-:-/ absolute / inch / decimal}
FMAT,2
INCH,TZ
T1C0.0157
T2C0.0197
T3C0.0236
T4C0.0300
T5C0.0402
T6C0.1772
T7C0.2008
%
G90
G05
M72
T1
X8.251Y-3.687
X8.251Y-3.729
X8.251Y-3.775
X8.275Y-3.38
X8.275Y-3.475
X8.275Y-3.575
X8.544Y-4.21
X8.546Y-4.04
X8.605Y-3.769
X8.607Y-3.725
X8.609Y-3.681
X8.922Y-4.046
X8.986Y-3.904
X9.Y-4.3964
X9.074Y-3.588
X9.092Y-3.932
X9.219Y-2.736
X9.25Y-4.155
X9.285Y-3.76
X9.285Y-4.235
X9.2984Y-3.666
X9.431Y-3.277
X9.435Y-4.13
X9.468Y-4.438
X9.471Y-3.1856
X9.529Y-4.528
X9.595Y-3.1856
X9.628Y-4.592
X9.64Y-2.885
X9.645Y-3.207
X9.838Y-4.588
X9.858Y-3.504
X9.895Y-4.065
X9.91Y-4.223
X9.916Y-4.548
X9.94Y-2.704
X9.9742Y-3.7827
X10.Y-3.815
X10.075Y-3.815
X10.125Y-3.795
X10.17Y-3.602
X10.176Y-3.88
X10.178Y-3.71
X10.34Y-3.745
X10.43Y-4.27
T4
X9.105Y-4.76
X9.205Y-4.76
X9.305Y-4.76
T5
X9.81Y-4.77
X10.26Y-2.78
X8.775Y-2.81
X8.875Y-2.81
X10.26Y-3.36
X9.305Y-4.53
X9.405Y-4.53
X9.15Y-4.225
X9.15Y-4.325
X9.25Y-4.325
X10.26Y-3.076
X8.97Y-3.78
X8.97Y-3.88
X8.175Y-4.325
T6
X8.0315Y-3.3465
X8.0315Y-4.1339
X8.8189Y-3.3465
T7
X8.3Y-2.63
X10.3Y-4.63
T2
X10.5462Y-3.6701G85X10.5738Y-3.6701
G05
X10.5462Y-3.9299G85X10.5738Y-3.9299
G05
T3
X9.4799Y-2.4708G85X9.4799Y-2.4117
G05
X9.4799Y-2.672G85X9.4799Y-2.6326
G05
X9.8201Y-2.4708G85X9.8201Y-2.4117
G05
X9.8201Y-2.672G85X9.8201Y-2.6326
G05
T0
M30
