G04 #@! TF.GenerationSoftware,KiCad,Pcbnew,(5.0.0)*
G04 #@! TF.CreationDate,2020-04-23T16:21:58-04:00*
G04 #@! TF.ProjectId,Lighting,4C69676874696E672E6B696361645F70,1*
G04 #@! TF.SameCoordinates,Original*
G04 #@! TF.FileFunction,Soldermask,Top*
G04 #@! TF.FilePolarity,Negative*
%FSLAX46Y46*%
G04 Gerber Fmt 4.6, Leading zero omitted, Abs format (unit mm)*
G04 Created by KiCad (PCBNEW (5.0.0)) date 04/23/20 16:21:58*
%MOMM*%
%LPD*%
G01*
G04 APERTURE LIST*
%ADD10R,1.870000X1.560000*%
%ADD11R,1.600000X1.600000*%
%ADD12R,3.650000X1.700000*%
%ADD13R,3.650000X0.880000*%
%ADD14C,0.100000*%
%ADD15C,2.400000*%
%ADD16R,5.100000X1.900000*%
%ADD17R,4.600000X3.500000*%
%ADD18R,1.100000X1.550000*%
%ADD19R,1.700000X1.100000*%
%ADD20R,1.100000X1.700000*%
%ADD21R,3.950000X3.600000*%
%ADD22C,1.924000*%
%ADD23R,1.700000X1.450000*%
%ADD24R,0.968000X1.854899*%
%ADD25R,1.560000X1.870000*%
%ADD26O,3.000000X1.700000*%
%ADD27O,2.600000X1.500000*%
%ADD28R,1.100000X1.400000*%
%ADD29R,1.100000X0.700000*%
%ADD30R,0.700000X1.100000*%
%ADD31R,1.400000X1.100000*%
%ADD32O,1.500000X2.600000*%
%ADD33O,1.700000X3.000000*%
%ADD34R,6.000000X2.700000*%
%ADD35R,1.500000X2.300000*%
%ADD36R,1.190000X0.660000*%
%ADD37R,0.660000X1.190000*%
%ADD38R,1.500000X1.500000*%
%ADD39R,1.850000X0.850000*%
%ADD40R,2.110000X1.010000*%
%ADD41R,2.300000X1.000000*%
G04 APERTURE END LIST*
D10*
G04 #@! TO.C,C12*
X250190000Y-111365000D03*
X250190000Y-109615000D03*
G04 #@! TD*
D11*
G04 #@! TO.C,D5*
X231648000Y-100076000D03*
X229548000Y-100076000D03*
G04 #@! TD*
G04 #@! TO.C,D6*
X263452017Y-104492488D03*
X263452017Y-106592488D03*
G04 #@! TD*
D12*
G04 #@! TO.C,D7*
X213360000Y-90678000D03*
D13*
X213360000Y-92068000D03*
X213360000Y-89288000D03*
G04 #@! TD*
D11*
G04 #@! TO.C,D8*
X237758967Y-67804171D03*
X237758967Y-69904171D03*
G04 #@! TD*
D14*
G04 #@! TO.C,JP1*
G36*
X248943810Y-83257889D02*
X249002054Y-83266529D01*
X249059171Y-83280836D01*
X249114610Y-83300672D01*
X249167838Y-83325847D01*
X249218342Y-83356118D01*
X249265636Y-83391194D01*
X249309264Y-83430736D01*
X249348806Y-83474364D01*
X249383882Y-83521658D01*
X249414153Y-83572162D01*
X249439328Y-83625390D01*
X249459164Y-83680829D01*
X249473471Y-83737946D01*
X249482111Y-83796190D01*
X249485000Y-83855000D01*
X249485000Y-85055000D01*
X249482111Y-85113810D01*
X249473471Y-85172054D01*
X249459164Y-85229171D01*
X249439328Y-85284610D01*
X249414153Y-85337838D01*
X249383882Y-85388342D01*
X249348806Y-85435636D01*
X249309264Y-85479264D01*
X249265636Y-85518806D01*
X249218342Y-85553882D01*
X249167838Y-85584153D01*
X249114610Y-85609328D01*
X249059171Y-85629164D01*
X249002054Y-85643471D01*
X248943810Y-85652111D01*
X248885000Y-85655000D01*
X247685000Y-85655000D01*
X247626190Y-85652111D01*
X247567946Y-85643471D01*
X247510829Y-85629164D01*
X247455390Y-85609328D01*
X247402162Y-85584153D01*
X247351658Y-85553882D01*
X247304364Y-85518806D01*
X247260736Y-85479264D01*
X247221194Y-85435636D01*
X247186118Y-85388342D01*
X247155847Y-85337838D01*
X247130672Y-85284610D01*
X247110836Y-85229171D01*
X247096529Y-85172054D01*
X247087889Y-85113810D01*
X247085000Y-85055000D01*
X247085000Y-83855000D01*
X247087889Y-83796190D01*
X247096529Y-83737946D01*
X247110836Y-83680829D01*
X247130672Y-83625390D01*
X247155847Y-83572162D01*
X247186118Y-83521658D01*
X247221194Y-83474364D01*
X247260736Y-83430736D01*
X247304364Y-83391194D01*
X247351658Y-83356118D01*
X247402162Y-83325847D01*
X247455390Y-83300672D01*
X247510829Y-83280836D01*
X247567946Y-83266529D01*
X247626190Y-83257889D01*
X247685000Y-83255000D01*
X248885000Y-83255000D01*
X248943810Y-83257889D01*
X248943810Y-83257889D01*
G37*
D15*
X248285000Y-84455000D03*
D14*
G36*
X248943810Y-85797889D02*
X249002054Y-85806529D01*
X249059171Y-85820836D01*
X249114610Y-85840672D01*
X249167838Y-85865847D01*
X249218342Y-85896118D01*
X249265636Y-85931194D01*
X249309264Y-85970736D01*
X249348806Y-86014364D01*
X249383882Y-86061658D01*
X249414153Y-86112162D01*
X249439328Y-86165390D01*
X249459164Y-86220829D01*
X249473471Y-86277946D01*
X249482111Y-86336190D01*
X249485000Y-86395000D01*
X249485000Y-87595000D01*
X249482111Y-87653810D01*
X249473471Y-87712054D01*
X249459164Y-87769171D01*
X249439328Y-87824610D01*
X249414153Y-87877838D01*
X249383882Y-87928342D01*
X249348806Y-87975636D01*
X249309264Y-88019264D01*
X249265636Y-88058806D01*
X249218342Y-88093882D01*
X249167838Y-88124153D01*
X249114610Y-88149328D01*
X249059171Y-88169164D01*
X249002054Y-88183471D01*
X248943810Y-88192111D01*
X248885000Y-88195000D01*
X247685000Y-88195000D01*
X247626190Y-88192111D01*
X247567946Y-88183471D01*
X247510829Y-88169164D01*
X247455390Y-88149328D01*
X247402162Y-88124153D01*
X247351658Y-88093882D01*
X247304364Y-88058806D01*
X247260736Y-88019264D01*
X247221194Y-87975636D01*
X247186118Y-87928342D01*
X247155847Y-87877838D01*
X247130672Y-87824610D01*
X247110836Y-87769171D01*
X247096529Y-87712054D01*
X247087889Y-87653810D01*
X247085000Y-87595000D01*
X247085000Y-86395000D01*
X247087889Y-86336190D01*
X247096529Y-86277946D01*
X247110836Y-86220829D01*
X247130672Y-86165390D01*
X247155847Y-86112162D01*
X247186118Y-86061658D01*
X247221194Y-86014364D01*
X247260736Y-85970736D01*
X247304364Y-85931194D01*
X247351658Y-85896118D01*
X247402162Y-85865847D01*
X247455390Y-85840672D01*
X247510829Y-85820836D01*
X247567946Y-85806529D01*
X247626190Y-85797889D01*
X247685000Y-85795000D01*
X248885000Y-85795000D01*
X248943810Y-85797889D01*
X248943810Y-85797889D01*
G37*
D15*
X248285000Y-86995000D03*
G04 #@! TD*
D14*
G04 #@! TO.C,JP2*
G36*
X239418810Y-118182889D02*
X239477054Y-118191529D01*
X239534171Y-118205836D01*
X239589610Y-118225672D01*
X239642838Y-118250847D01*
X239693342Y-118281118D01*
X239740636Y-118316194D01*
X239784264Y-118355736D01*
X239823806Y-118399364D01*
X239858882Y-118446658D01*
X239889153Y-118497162D01*
X239914328Y-118550390D01*
X239934164Y-118605829D01*
X239948471Y-118662946D01*
X239957111Y-118721190D01*
X239960000Y-118780000D01*
X239960000Y-119980000D01*
X239957111Y-120038810D01*
X239948471Y-120097054D01*
X239934164Y-120154171D01*
X239914328Y-120209610D01*
X239889153Y-120262838D01*
X239858882Y-120313342D01*
X239823806Y-120360636D01*
X239784264Y-120404264D01*
X239740636Y-120443806D01*
X239693342Y-120478882D01*
X239642838Y-120509153D01*
X239589610Y-120534328D01*
X239534171Y-120554164D01*
X239477054Y-120568471D01*
X239418810Y-120577111D01*
X239360000Y-120580000D01*
X238160000Y-120580000D01*
X238101190Y-120577111D01*
X238042946Y-120568471D01*
X237985829Y-120554164D01*
X237930390Y-120534328D01*
X237877162Y-120509153D01*
X237826658Y-120478882D01*
X237779364Y-120443806D01*
X237735736Y-120404264D01*
X237696194Y-120360636D01*
X237661118Y-120313342D01*
X237630847Y-120262838D01*
X237605672Y-120209610D01*
X237585836Y-120154171D01*
X237571529Y-120097054D01*
X237562889Y-120038810D01*
X237560000Y-119980000D01*
X237560000Y-118780000D01*
X237562889Y-118721190D01*
X237571529Y-118662946D01*
X237585836Y-118605829D01*
X237605672Y-118550390D01*
X237630847Y-118497162D01*
X237661118Y-118446658D01*
X237696194Y-118399364D01*
X237735736Y-118355736D01*
X237779364Y-118316194D01*
X237826658Y-118281118D01*
X237877162Y-118250847D01*
X237930390Y-118225672D01*
X237985829Y-118205836D01*
X238042946Y-118191529D01*
X238101190Y-118182889D01*
X238160000Y-118180000D01*
X239360000Y-118180000D01*
X239418810Y-118182889D01*
X239418810Y-118182889D01*
G37*
D15*
X238760000Y-119380000D03*
D14*
G36*
X236878810Y-118182889D02*
X236937054Y-118191529D01*
X236994171Y-118205836D01*
X237049610Y-118225672D01*
X237102838Y-118250847D01*
X237153342Y-118281118D01*
X237200636Y-118316194D01*
X237244264Y-118355736D01*
X237283806Y-118399364D01*
X237318882Y-118446658D01*
X237349153Y-118497162D01*
X237374328Y-118550390D01*
X237394164Y-118605829D01*
X237408471Y-118662946D01*
X237417111Y-118721190D01*
X237420000Y-118780000D01*
X237420000Y-119980000D01*
X237417111Y-120038810D01*
X237408471Y-120097054D01*
X237394164Y-120154171D01*
X237374328Y-120209610D01*
X237349153Y-120262838D01*
X237318882Y-120313342D01*
X237283806Y-120360636D01*
X237244264Y-120404264D01*
X237200636Y-120443806D01*
X237153342Y-120478882D01*
X237102838Y-120509153D01*
X237049610Y-120534328D01*
X236994171Y-120554164D01*
X236937054Y-120568471D01*
X236878810Y-120577111D01*
X236820000Y-120580000D01*
X235620000Y-120580000D01*
X235561190Y-120577111D01*
X235502946Y-120568471D01*
X235445829Y-120554164D01*
X235390390Y-120534328D01*
X235337162Y-120509153D01*
X235286658Y-120478882D01*
X235239364Y-120443806D01*
X235195736Y-120404264D01*
X235156194Y-120360636D01*
X235121118Y-120313342D01*
X235090847Y-120262838D01*
X235065672Y-120209610D01*
X235045836Y-120154171D01*
X235031529Y-120097054D01*
X235022889Y-120038810D01*
X235020000Y-119980000D01*
X235020000Y-118780000D01*
X235022889Y-118721190D01*
X235031529Y-118662946D01*
X235045836Y-118605829D01*
X235065672Y-118550390D01*
X235090847Y-118497162D01*
X235121118Y-118446658D01*
X235156194Y-118399364D01*
X235195736Y-118355736D01*
X235239364Y-118316194D01*
X235286658Y-118281118D01*
X235337162Y-118250847D01*
X235390390Y-118225672D01*
X235445829Y-118205836D01*
X235502946Y-118191529D01*
X235561190Y-118182889D01*
X235620000Y-118180000D01*
X236820000Y-118180000D01*
X236878810Y-118182889D01*
X236878810Y-118182889D01*
G37*
D15*
X236220000Y-119380000D03*
G04 #@! TD*
D14*
G04 #@! TO.C,JP3*
G36*
X231798810Y-108530889D02*
X231857054Y-108539529D01*
X231914171Y-108553836D01*
X231969610Y-108573672D01*
X232022838Y-108598847D01*
X232073342Y-108629118D01*
X232120636Y-108664194D01*
X232164264Y-108703736D01*
X232203806Y-108747364D01*
X232238882Y-108794658D01*
X232269153Y-108845162D01*
X232294328Y-108898390D01*
X232314164Y-108953829D01*
X232328471Y-109010946D01*
X232337111Y-109069190D01*
X232340000Y-109128000D01*
X232340000Y-110328000D01*
X232337111Y-110386810D01*
X232328471Y-110445054D01*
X232314164Y-110502171D01*
X232294328Y-110557610D01*
X232269153Y-110610838D01*
X232238882Y-110661342D01*
X232203806Y-110708636D01*
X232164264Y-110752264D01*
X232120636Y-110791806D01*
X232073342Y-110826882D01*
X232022838Y-110857153D01*
X231969610Y-110882328D01*
X231914171Y-110902164D01*
X231857054Y-110916471D01*
X231798810Y-110925111D01*
X231740000Y-110928000D01*
X230540000Y-110928000D01*
X230481190Y-110925111D01*
X230422946Y-110916471D01*
X230365829Y-110902164D01*
X230310390Y-110882328D01*
X230257162Y-110857153D01*
X230206658Y-110826882D01*
X230159364Y-110791806D01*
X230115736Y-110752264D01*
X230076194Y-110708636D01*
X230041118Y-110661342D01*
X230010847Y-110610838D01*
X229985672Y-110557610D01*
X229965836Y-110502171D01*
X229951529Y-110445054D01*
X229942889Y-110386810D01*
X229940000Y-110328000D01*
X229940000Y-109128000D01*
X229942889Y-109069190D01*
X229951529Y-109010946D01*
X229965836Y-108953829D01*
X229985672Y-108898390D01*
X230010847Y-108845162D01*
X230041118Y-108794658D01*
X230076194Y-108747364D01*
X230115736Y-108703736D01*
X230159364Y-108664194D01*
X230206658Y-108629118D01*
X230257162Y-108598847D01*
X230310390Y-108573672D01*
X230365829Y-108553836D01*
X230422946Y-108539529D01*
X230481190Y-108530889D01*
X230540000Y-108528000D01*
X231740000Y-108528000D01*
X231798810Y-108530889D01*
X231798810Y-108530889D01*
G37*
D15*
X231140000Y-109728000D03*
D14*
G36*
X234338810Y-108530889D02*
X234397054Y-108539529D01*
X234454171Y-108553836D01*
X234509610Y-108573672D01*
X234562838Y-108598847D01*
X234613342Y-108629118D01*
X234660636Y-108664194D01*
X234704264Y-108703736D01*
X234743806Y-108747364D01*
X234778882Y-108794658D01*
X234809153Y-108845162D01*
X234834328Y-108898390D01*
X234854164Y-108953829D01*
X234868471Y-109010946D01*
X234877111Y-109069190D01*
X234880000Y-109128000D01*
X234880000Y-110328000D01*
X234877111Y-110386810D01*
X234868471Y-110445054D01*
X234854164Y-110502171D01*
X234834328Y-110557610D01*
X234809153Y-110610838D01*
X234778882Y-110661342D01*
X234743806Y-110708636D01*
X234704264Y-110752264D01*
X234660636Y-110791806D01*
X234613342Y-110826882D01*
X234562838Y-110857153D01*
X234509610Y-110882328D01*
X234454171Y-110902164D01*
X234397054Y-110916471D01*
X234338810Y-110925111D01*
X234280000Y-110928000D01*
X233080000Y-110928000D01*
X233021190Y-110925111D01*
X232962946Y-110916471D01*
X232905829Y-110902164D01*
X232850390Y-110882328D01*
X232797162Y-110857153D01*
X232746658Y-110826882D01*
X232699364Y-110791806D01*
X232655736Y-110752264D01*
X232616194Y-110708636D01*
X232581118Y-110661342D01*
X232550847Y-110610838D01*
X232525672Y-110557610D01*
X232505836Y-110502171D01*
X232491529Y-110445054D01*
X232482889Y-110386810D01*
X232480000Y-110328000D01*
X232480000Y-109128000D01*
X232482889Y-109069190D01*
X232491529Y-109010946D01*
X232505836Y-108953829D01*
X232525672Y-108898390D01*
X232550847Y-108845162D01*
X232581118Y-108794658D01*
X232616194Y-108747364D01*
X232655736Y-108703736D01*
X232699364Y-108664194D01*
X232746658Y-108629118D01*
X232797162Y-108598847D01*
X232850390Y-108573672D01*
X232905829Y-108553836D01*
X232962946Y-108539529D01*
X233021190Y-108530889D01*
X233080000Y-108528000D01*
X234280000Y-108528000D01*
X234338810Y-108530889D01*
X234338810Y-108530889D01*
G37*
D15*
X233680000Y-109728000D03*
G04 #@! TD*
D14*
G04 #@! TO.C,JP4*
G36*
X231798810Y-104466889D02*
X231857054Y-104475529D01*
X231914171Y-104489836D01*
X231969610Y-104509672D01*
X232022838Y-104534847D01*
X232073342Y-104565118D01*
X232120636Y-104600194D01*
X232164264Y-104639736D01*
X232203806Y-104683364D01*
X232238882Y-104730658D01*
X232269153Y-104781162D01*
X232294328Y-104834390D01*
X232314164Y-104889829D01*
X232328471Y-104946946D01*
X232337111Y-105005190D01*
X232340000Y-105064000D01*
X232340000Y-106264000D01*
X232337111Y-106322810D01*
X232328471Y-106381054D01*
X232314164Y-106438171D01*
X232294328Y-106493610D01*
X232269153Y-106546838D01*
X232238882Y-106597342D01*
X232203806Y-106644636D01*
X232164264Y-106688264D01*
X232120636Y-106727806D01*
X232073342Y-106762882D01*
X232022838Y-106793153D01*
X231969610Y-106818328D01*
X231914171Y-106838164D01*
X231857054Y-106852471D01*
X231798810Y-106861111D01*
X231740000Y-106864000D01*
X230540000Y-106864000D01*
X230481190Y-106861111D01*
X230422946Y-106852471D01*
X230365829Y-106838164D01*
X230310390Y-106818328D01*
X230257162Y-106793153D01*
X230206658Y-106762882D01*
X230159364Y-106727806D01*
X230115736Y-106688264D01*
X230076194Y-106644636D01*
X230041118Y-106597342D01*
X230010847Y-106546838D01*
X229985672Y-106493610D01*
X229965836Y-106438171D01*
X229951529Y-106381054D01*
X229942889Y-106322810D01*
X229940000Y-106264000D01*
X229940000Y-105064000D01*
X229942889Y-105005190D01*
X229951529Y-104946946D01*
X229965836Y-104889829D01*
X229985672Y-104834390D01*
X230010847Y-104781162D01*
X230041118Y-104730658D01*
X230076194Y-104683364D01*
X230115736Y-104639736D01*
X230159364Y-104600194D01*
X230206658Y-104565118D01*
X230257162Y-104534847D01*
X230310390Y-104509672D01*
X230365829Y-104489836D01*
X230422946Y-104475529D01*
X230481190Y-104466889D01*
X230540000Y-104464000D01*
X231740000Y-104464000D01*
X231798810Y-104466889D01*
X231798810Y-104466889D01*
G37*
D15*
X231140000Y-105664000D03*
D14*
G36*
X234338810Y-104466889D02*
X234397054Y-104475529D01*
X234454171Y-104489836D01*
X234509610Y-104509672D01*
X234562838Y-104534847D01*
X234613342Y-104565118D01*
X234660636Y-104600194D01*
X234704264Y-104639736D01*
X234743806Y-104683364D01*
X234778882Y-104730658D01*
X234809153Y-104781162D01*
X234834328Y-104834390D01*
X234854164Y-104889829D01*
X234868471Y-104946946D01*
X234877111Y-105005190D01*
X234880000Y-105064000D01*
X234880000Y-106264000D01*
X234877111Y-106322810D01*
X234868471Y-106381054D01*
X234854164Y-106438171D01*
X234834328Y-106493610D01*
X234809153Y-106546838D01*
X234778882Y-106597342D01*
X234743806Y-106644636D01*
X234704264Y-106688264D01*
X234660636Y-106727806D01*
X234613342Y-106762882D01*
X234562838Y-106793153D01*
X234509610Y-106818328D01*
X234454171Y-106838164D01*
X234397054Y-106852471D01*
X234338810Y-106861111D01*
X234280000Y-106864000D01*
X233080000Y-106864000D01*
X233021190Y-106861111D01*
X232962946Y-106852471D01*
X232905829Y-106838164D01*
X232850390Y-106818328D01*
X232797162Y-106793153D01*
X232746658Y-106762882D01*
X232699364Y-106727806D01*
X232655736Y-106688264D01*
X232616194Y-106644636D01*
X232581118Y-106597342D01*
X232550847Y-106546838D01*
X232525672Y-106493610D01*
X232505836Y-106438171D01*
X232491529Y-106381054D01*
X232482889Y-106322810D01*
X232480000Y-106264000D01*
X232480000Y-105064000D01*
X232482889Y-105005190D01*
X232491529Y-104946946D01*
X232505836Y-104889829D01*
X232525672Y-104834390D01*
X232550847Y-104781162D01*
X232581118Y-104730658D01*
X232616194Y-104683364D01*
X232655736Y-104639736D01*
X232699364Y-104600194D01*
X232746658Y-104565118D01*
X232797162Y-104534847D01*
X232850390Y-104509672D01*
X232905829Y-104489836D01*
X232962946Y-104475529D01*
X233021190Y-104466889D01*
X233080000Y-104464000D01*
X234280000Y-104464000D01*
X234338810Y-104466889D01*
X234338810Y-104466889D01*
G37*
D15*
X233680000Y-105664000D03*
G04 #@! TD*
D14*
G04 #@! TO.C,JP5*
G36*
X230046210Y-77542889D02*
X230104454Y-77551529D01*
X230161571Y-77565836D01*
X230217010Y-77585672D01*
X230270238Y-77610847D01*
X230320742Y-77641118D01*
X230368036Y-77676194D01*
X230411664Y-77715736D01*
X230451206Y-77759364D01*
X230486282Y-77806658D01*
X230516553Y-77857162D01*
X230541728Y-77910390D01*
X230561564Y-77965829D01*
X230575871Y-78022946D01*
X230584511Y-78081190D01*
X230587400Y-78140000D01*
X230587400Y-79340000D01*
X230584511Y-79398810D01*
X230575871Y-79457054D01*
X230561564Y-79514171D01*
X230541728Y-79569610D01*
X230516553Y-79622838D01*
X230486282Y-79673342D01*
X230451206Y-79720636D01*
X230411664Y-79764264D01*
X230368036Y-79803806D01*
X230320742Y-79838882D01*
X230270238Y-79869153D01*
X230217010Y-79894328D01*
X230161571Y-79914164D01*
X230104454Y-79928471D01*
X230046210Y-79937111D01*
X229987400Y-79940000D01*
X228787400Y-79940000D01*
X228728590Y-79937111D01*
X228670346Y-79928471D01*
X228613229Y-79914164D01*
X228557790Y-79894328D01*
X228504562Y-79869153D01*
X228454058Y-79838882D01*
X228406764Y-79803806D01*
X228363136Y-79764264D01*
X228323594Y-79720636D01*
X228288518Y-79673342D01*
X228258247Y-79622838D01*
X228233072Y-79569610D01*
X228213236Y-79514171D01*
X228198929Y-79457054D01*
X228190289Y-79398810D01*
X228187400Y-79340000D01*
X228187400Y-78140000D01*
X228190289Y-78081190D01*
X228198929Y-78022946D01*
X228213236Y-77965829D01*
X228233072Y-77910390D01*
X228258247Y-77857162D01*
X228288518Y-77806658D01*
X228323594Y-77759364D01*
X228363136Y-77715736D01*
X228406764Y-77676194D01*
X228454058Y-77641118D01*
X228504562Y-77610847D01*
X228557790Y-77585672D01*
X228613229Y-77565836D01*
X228670346Y-77551529D01*
X228728590Y-77542889D01*
X228787400Y-77540000D01*
X229987400Y-77540000D01*
X230046210Y-77542889D01*
X230046210Y-77542889D01*
G37*
D15*
X229387400Y-78740000D03*
D14*
G36*
X230046210Y-75002889D02*
X230104454Y-75011529D01*
X230161571Y-75025836D01*
X230217010Y-75045672D01*
X230270238Y-75070847D01*
X230320742Y-75101118D01*
X230368036Y-75136194D01*
X230411664Y-75175736D01*
X230451206Y-75219364D01*
X230486282Y-75266658D01*
X230516553Y-75317162D01*
X230541728Y-75370390D01*
X230561564Y-75425829D01*
X230575871Y-75482946D01*
X230584511Y-75541190D01*
X230587400Y-75600000D01*
X230587400Y-76800000D01*
X230584511Y-76858810D01*
X230575871Y-76917054D01*
X230561564Y-76974171D01*
X230541728Y-77029610D01*
X230516553Y-77082838D01*
X230486282Y-77133342D01*
X230451206Y-77180636D01*
X230411664Y-77224264D01*
X230368036Y-77263806D01*
X230320742Y-77298882D01*
X230270238Y-77329153D01*
X230217010Y-77354328D01*
X230161571Y-77374164D01*
X230104454Y-77388471D01*
X230046210Y-77397111D01*
X229987400Y-77400000D01*
X228787400Y-77400000D01*
X228728590Y-77397111D01*
X228670346Y-77388471D01*
X228613229Y-77374164D01*
X228557790Y-77354328D01*
X228504562Y-77329153D01*
X228454058Y-77298882D01*
X228406764Y-77263806D01*
X228363136Y-77224264D01*
X228323594Y-77180636D01*
X228288518Y-77133342D01*
X228258247Y-77082838D01*
X228233072Y-77029610D01*
X228213236Y-76974171D01*
X228198929Y-76917054D01*
X228190289Y-76858810D01*
X228187400Y-76800000D01*
X228187400Y-75600000D01*
X228190289Y-75541190D01*
X228198929Y-75482946D01*
X228213236Y-75425829D01*
X228233072Y-75370390D01*
X228258247Y-75317162D01*
X228288518Y-75266658D01*
X228323594Y-75219364D01*
X228363136Y-75175736D01*
X228406764Y-75136194D01*
X228454058Y-75101118D01*
X228504562Y-75070847D01*
X228557790Y-75045672D01*
X228613229Y-75025836D01*
X228670346Y-75011529D01*
X228728590Y-75002889D01*
X228787400Y-75000000D01*
X229987400Y-75000000D01*
X230046210Y-75002889D01*
X230046210Y-75002889D01*
G37*
D15*
X229387400Y-76200000D03*
G04 #@! TD*
D16*
G04 #@! TO.C,Q1*
X213360000Y-103930000D03*
D17*
X213360000Y-106230000D03*
D18*
X213995000Y-109405000D03*
X212725000Y-109405000D03*
X215265000Y-109405000D03*
X211455000Y-109405000D03*
G04 #@! TD*
D19*
G04 #@! TO.C,R1*
X244983000Y-85095000D03*
X244983000Y-86995000D03*
G04 #@! TD*
G04 #@! TO.C,R2*
X257034920Y-64055640D03*
X257034920Y-65955640D03*
G04 #@! TD*
G04 #@! TO.C,R3*
X260844920Y-64055640D03*
X260844920Y-65955640D03*
G04 #@! TD*
G04 #@! TO.C,R4*
X255891920Y-81830640D03*
X255891920Y-83730640D03*
G04 #@! TD*
G04 #@! TO.C,R5*
X259842000Y-83730640D03*
X259842000Y-81830640D03*
G04 #@! TD*
G04 #@! TO.C,R6*
X257034920Y-69135640D03*
X257034920Y-71035640D03*
G04 #@! TD*
G04 #@! TO.C,R7*
X260844920Y-71096640D03*
X260844920Y-69196640D03*
G04 #@! TD*
D20*
G04 #@! TO.C,R13*
X234315000Y-100076000D03*
X236215000Y-100076000D03*
G04 #@! TD*
G04 #@! TO.C,R17*
X239268000Y-114935000D03*
X241168000Y-114935000D03*
G04 #@! TD*
D21*
G04 #@! TO.C,R18*
X210800090Y-114949116D03*
X215350090Y-114949116D03*
G04 #@! TD*
G04 #@! TO.C,R19*
X221615000Y-114935000D03*
X226165000Y-114935000D03*
G04 #@! TD*
D19*
G04 #@! TO.C,R20*
X260223000Y-104465488D03*
X260223000Y-106365488D03*
G04 #@! TD*
D21*
G04 #@! TO.C,R21*
X210800090Y-120650000D03*
X215350090Y-120650000D03*
G04 #@! TD*
G04 #@! TO.C,R22*
X221615000Y-120650000D03*
X226165000Y-120650000D03*
G04 #@! TD*
D19*
G04 #@! TO.C,R23*
X235218967Y-67970171D03*
X235218967Y-69870171D03*
G04 #@! TD*
D22*
G04 #@! TO.C,RV1*
X231140000Y-114935000D03*
X233680000Y-114935000D03*
X236220000Y-114935000D03*
G04 #@! TD*
D14*
G04 #@! TO.C,TP1*
G36*
X206398810Y-97862889D02*
X206457054Y-97871529D01*
X206514171Y-97885836D01*
X206569610Y-97905672D01*
X206622838Y-97930847D01*
X206673342Y-97961118D01*
X206720636Y-97996194D01*
X206764264Y-98035736D01*
X206803806Y-98079364D01*
X206838882Y-98126658D01*
X206869153Y-98177162D01*
X206894328Y-98230390D01*
X206914164Y-98285829D01*
X206928471Y-98342946D01*
X206937111Y-98401190D01*
X206940000Y-98460000D01*
X206940000Y-99660000D01*
X206937111Y-99718810D01*
X206928471Y-99777054D01*
X206914164Y-99834171D01*
X206894328Y-99889610D01*
X206869153Y-99942838D01*
X206838882Y-99993342D01*
X206803806Y-100040636D01*
X206764264Y-100084264D01*
X206720636Y-100123806D01*
X206673342Y-100158882D01*
X206622838Y-100189153D01*
X206569610Y-100214328D01*
X206514171Y-100234164D01*
X206457054Y-100248471D01*
X206398810Y-100257111D01*
X206340000Y-100260000D01*
X205140000Y-100260000D01*
X205081190Y-100257111D01*
X205022946Y-100248471D01*
X204965829Y-100234164D01*
X204910390Y-100214328D01*
X204857162Y-100189153D01*
X204806658Y-100158882D01*
X204759364Y-100123806D01*
X204715736Y-100084264D01*
X204676194Y-100040636D01*
X204641118Y-99993342D01*
X204610847Y-99942838D01*
X204585672Y-99889610D01*
X204565836Y-99834171D01*
X204551529Y-99777054D01*
X204542889Y-99718810D01*
X204540000Y-99660000D01*
X204540000Y-98460000D01*
X204542889Y-98401190D01*
X204551529Y-98342946D01*
X204565836Y-98285829D01*
X204585672Y-98230390D01*
X204610847Y-98177162D01*
X204641118Y-98126658D01*
X204676194Y-98079364D01*
X204715736Y-98035736D01*
X204759364Y-97996194D01*
X204806658Y-97961118D01*
X204857162Y-97930847D01*
X204910390Y-97905672D01*
X204965829Y-97885836D01*
X205022946Y-97871529D01*
X205081190Y-97862889D01*
X205140000Y-97860000D01*
X206340000Y-97860000D01*
X206398810Y-97862889D01*
X206398810Y-97862889D01*
G37*
D15*
X205740000Y-99060000D03*
G04 #@! TD*
D14*
G04 #@! TO.C,TP2*
G36*
X236751810Y-63318889D02*
X236810054Y-63327529D01*
X236867171Y-63341836D01*
X236922610Y-63361672D01*
X236975838Y-63386847D01*
X237026342Y-63417118D01*
X237073636Y-63452194D01*
X237117264Y-63491736D01*
X237156806Y-63535364D01*
X237191882Y-63582658D01*
X237222153Y-63633162D01*
X237247328Y-63686390D01*
X237267164Y-63741829D01*
X237281471Y-63798946D01*
X237290111Y-63857190D01*
X237293000Y-63916000D01*
X237293000Y-65116000D01*
X237290111Y-65174810D01*
X237281471Y-65233054D01*
X237267164Y-65290171D01*
X237247328Y-65345610D01*
X237222153Y-65398838D01*
X237191882Y-65449342D01*
X237156806Y-65496636D01*
X237117264Y-65540264D01*
X237073636Y-65579806D01*
X237026342Y-65614882D01*
X236975838Y-65645153D01*
X236922610Y-65670328D01*
X236867171Y-65690164D01*
X236810054Y-65704471D01*
X236751810Y-65713111D01*
X236693000Y-65716000D01*
X235493000Y-65716000D01*
X235434190Y-65713111D01*
X235375946Y-65704471D01*
X235318829Y-65690164D01*
X235263390Y-65670328D01*
X235210162Y-65645153D01*
X235159658Y-65614882D01*
X235112364Y-65579806D01*
X235068736Y-65540264D01*
X235029194Y-65496636D01*
X234994118Y-65449342D01*
X234963847Y-65398838D01*
X234938672Y-65345610D01*
X234918836Y-65290171D01*
X234904529Y-65233054D01*
X234895889Y-65174810D01*
X234893000Y-65116000D01*
X234893000Y-63916000D01*
X234895889Y-63857190D01*
X234904529Y-63798946D01*
X234918836Y-63741829D01*
X234938672Y-63686390D01*
X234963847Y-63633162D01*
X234994118Y-63582658D01*
X235029194Y-63535364D01*
X235068736Y-63491736D01*
X235112364Y-63452194D01*
X235159658Y-63417118D01*
X235210162Y-63386847D01*
X235263390Y-63361672D01*
X235318829Y-63341836D01*
X235375946Y-63327529D01*
X235434190Y-63318889D01*
X235493000Y-63316000D01*
X236693000Y-63316000D01*
X236751810Y-63318889D01*
X236751810Y-63318889D01*
G37*
D15*
X236093000Y-64516000D03*
G04 #@! TD*
D14*
G04 #@! TO.C,TP3*
G36*
X232687810Y-119579889D02*
X232746054Y-119588529D01*
X232803171Y-119602836D01*
X232858610Y-119622672D01*
X232911838Y-119647847D01*
X232962342Y-119678118D01*
X233009636Y-119713194D01*
X233053264Y-119752736D01*
X233092806Y-119796364D01*
X233127882Y-119843658D01*
X233158153Y-119894162D01*
X233183328Y-119947390D01*
X233203164Y-120002829D01*
X233217471Y-120059946D01*
X233226111Y-120118190D01*
X233229000Y-120177000D01*
X233229000Y-121377000D01*
X233226111Y-121435810D01*
X233217471Y-121494054D01*
X233203164Y-121551171D01*
X233183328Y-121606610D01*
X233158153Y-121659838D01*
X233127882Y-121710342D01*
X233092806Y-121757636D01*
X233053264Y-121801264D01*
X233009636Y-121840806D01*
X232962342Y-121875882D01*
X232911838Y-121906153D01*
X232858610Y-121931328D01*
X232803171Y-121951164D01*
X232746054Y-121965471D01*
X232687810Y-121974111D01*
X232629000Y-121977000D01*
X231429000Y-121977000D01*
X231370190Y-121974111D01*
X231311946Y-121965471D01*
X231254829Y-121951164D01*
X231199390Y-121931328D01*
X231146162Y-121906153D01*
X231095658Y-121875882D01*
X231048364Y-121840806D01*
X231004736Y-121801264D01*
X230965194Y-121757636D01*
X230930118Y-121710342D01*
X230899847Y-121659838D01*
X230874672Y-121606610D01*
X230854836Y-121551171D01*
X230840529Y-121494054D01*
X230831889Y-121435810D01*
X230829000Y-121377000D01*
X230829000Y-120177000D01*
X230831889Y-120118190D01*
X230840529Y-120059946D01*
X230854836Y-120002829D01*
X230874672Y-119947390D01*
X230899847Y-119894162D01*
X230930118Y-119843658D01*
X230965194Y-119796364D01*
X231004736Y-119752736D01*
X231048364Y-119713194D01*
X231095658Y-119678118D01*
X231146162Y-119647847D01*
X231199390Y-119622672D01*
X231254829Y-119602836D01*
X231311946Y-119588529D01*
X231370190Y-119579889D01*
X231429000Y-119577000D01*
X232629000Y-119577000D01*
X232687810Y-119579889D01*
X232687810Y-119579889D01*
G37*
D15*
X232029000Y-120777000D03*
G04 #@! TD*
D14*
G04 #@! TO.C,TP4*
G36*
X221638810Y-77542889D02*
X221697054Y-77551529D01*
X221754171Y-77565836D01*
X221809610Y-77585672D01*
X221862838Y-77610847D01*
X221913342Y-77641118D01*
X221960636Y-77676194D01*
X222004264Y-77715736D01*
X222043806Y-77759364D01*
X222078882Y-77806658D01*
X222109153Y-77857162D01*
X222134328Y-77910390D01*
X222154164Y-77965829D01*
X222168471Y-78022946D01*
X222177111Y-78081190D01*
X222180000Y-78140000D01*
X222180000Y-79340000D01*
X222177111Y-79398810D01*
X222168471Y-79457054D01*
X222154164Y-79514171D01*
X222134328Y-79569610D01*
X222109153Y-79622838D01*
X222078882Y-79673342D01*
X222043806Y-79720636D01*
X222004264Y-79764264D01*
X221960636Y-79803806D01*
X221913342Y-79838882D01*
X221862838Y-79869153D01*
X221809610Y-79894328D01*
X221754171Y-79914164D01*
X221697054Y-79928471D01*
X221638810Y-79937111D01*
X221580000Y-79940000D01*
X220380000Y-79940000D01*
X220321190Y-79937111D01*
X220262946Y-79928471D01*
X220205829Y-79914164D01*
X220150390Y-79894328D01*
X220097162Y-79869153D01*
X220046658Y-79838882D01*
X219999364Y-79803806D01*
X219955736Y-79764264D01*
X219916194Y-79720636D01*
X219881118Y-79673342D01*
X219850847Y-79622838D01*
X219825672Y-79569610D01*
X219805836Y-79514171D01*
X219791529Y-79457054D01*
X219782889Y-79398810D01*
X219780000Y-79340000D01*
X219780000Y-78140000D01*
X219782889Y-78081190D01*
X219791529Y-78022946D01*
X219805836Y-77965829D01*
X219825672Y-77910390D01*
X219850847Y-77857162D01*
X219881118Y-77806658D01*
X219916194Y-77759364D01*
X219955736Y-77715736D01*
X219999364Y-77676194D01*
X220046658Y-77641118D01*
X220097162Y-77610847D01*
X220150390Y-77585672D01*
X220205829Y-77565836D01*
X220262946Y-77551529D01*
X220321190Y-77542889D01*
X220380000Y-77540000D01*
X221580000Y-77540000D01*
X221638810Y-77542889D01*
X221638810Y-77542889D01*
G37*
D15*
X220980000Y-78740000D03*
G04 #@! TD*
D23*
G04 #@! TO.C,Y1*
X235338000Y-93980000D03*
X233038000Y-92130000D03*
X233038000Y-93980000D03*
X235338000Y-92130000D03*
G04 #@! TD*
D14*
G04 #@! TO.C,Vs1*
G36*
X208303810Y-108657889D02*
X208362054Y-108666529D01*
X208419171Y-108680836D01*
X208474610Y-108700672D01*
X208527838Y-108725847D01*
X208578342Y-108756118D01*
X208625636Y-108791194D01*
X208669264Y-108830736D01*
X208708806Y-108874364D01*
X208743882Y-108921658D01*
X208774153Y-108972162D01*
X208799328Y-109025390D01*
X208819164Y-109080829D01*
X208833471Y-109137946D01*
X208842111Y-109196190D01*
X208845000Y-109255000D01*
X208845000Y-110455000D01*
X208842111Y-110513810D01*
X208833471Y-110572054D01*
X208819164Y-110629171D01*
X208799328Y-110684610D01*
X208774153Y-110737838D01*
X208743882Y-110788342D01*
X208708806Y-110835636D01*
X208669264Y-110879264D01*
X208625636Y-110918806D01*
X208578342Y-110953882D01*
X208527838Y-110984153D01*
X208474610Y-111009328D01*
X208419171Y-111029164D01*
X208362054Y-111043471D01*
X208303810Y-111052111D01*
X208245000Y-111055000D01*
X207045000Y-111055000D01*
X206986190Y-111052111D01*
X206927946Y-111043471D01*
X206870829Y-111029164D01*
X206815390Y-111009328D01*
X206762162Y-110984153D01*
X206711658Y-110953882D01*
X206664364Y-110918806D01*
X206620736Y-110879264D01*
X206581194Y-110835636D01*
X206546118Y-110788342D01*
X206515847Y-110737838D01*
X206490672Y-110684610D01*
X206470836Y-110629171D01*
X206456529Y-110572054D01*
X206447889Y-110513810D01*
X206445000Y-110455000D01*
X206445000Y-109255000D01*
X206447889Y-109196190D01*
X206456529Y-109137946D01*
X206470836Y-109080829D01*
X206490672Y-109025390D01*
X206515847Y-108972162D01*
X206546118Y-108921658D01*
X206581194Y-108874364D01*
X206620736Y-108830736D01*
X206664364Y-108791194D01*
X206711658Y-108756118D01*
X206762162Y-108725847D01*
X206815390Y-108700672D01*
X206870829Y-108680836D01*
X206927946Y-108666529D01*
X206986190Y-108657889D01*
X207045000Y-108655000D01*
X208245000Y-108655000D01*
X208303810Y-108657889D01*
X208303810Y-108657889D01*
G37*
D15*
X207645000Y-109855000D03*
G04 #@! TD*
D24*
G04 #@! TO.C,U4*
X222631000Y-105228652D03*
X223901000Y-105228652D03*
X225171000Y-105228652D03*
X226441000Y-105228652D03*
X226441000Y-110671348D03*
X225171000Y-110671348D03*
X223901000Y-110671348D03*
X222631000Y-110671348D03*
G04 #@! TD*
D25*
G04 #@! TO.C,C16*
X223280000Y-102616000D03*
X225030000Y-102616000D03*
G04 #@! TD*
G04 #@! TO.C,C17*
X220585000Y-102616000D03*
X218835000Y-102616000D03*
G04 #@! TD*
G04 #@! TO.C,C19*
X218835000Y-106934000D03*
X220585000Y-106934000D03*
G04 #@! TD*
G04 #@! TO.C,C13*
X255242000Y-101600000D03*
X253492000Y-101600000D03*
G04 #@! TD*
G04 #@! TO.C,C14*
X255242000Y-98298000D03*
X253492000Y-98298000D03*
G04 #@! TD*
G04 #@! TO.C,C15*
X253492000Y-90805000D03*
X255242000Y-90805000D03*
G04 #@! TD*
D26*
G04 #@! TO.C,J2*
X267430000Y-92073000D03*
X267430000Y-100713000D03*
D27*
X262070000Y-92073000D03*
X262070000Y-100713000D03*
D28*
X262960000Y-99493000D03*
D29*
X262960000Y-98643000D03*
X262960000Y-98143000D03*
X262960000Y-97643000D03*
X262960000Y-97143000D03*
X262960000Y-96643000D03*
X262960000Y-96143000D03*
X262960000Y-95643000D03*
X262960000Y-95143000D03*
X262960000Y-94643000D03*
X262960000Y-94143000D03*
D28*
X262960000Y-93293000D03*
D29*
X261660000Y-93393000D03*
X261660000Y-93893000D03*
X261660000Y-94393000D03*
X261660000Y-94893000D03*
X261660000Y-95393000D03*
X261660000Y-95893000D03*
X261660000Y-96893000D03*
X261660000Y-97393000D03*
X261660000Y-97893000D03*
X261660000Y-98393000D03*
X261660000Y-98893000D03*
X261660000Y-99393000D03*
G04 #@! TD*
D30*
G04 #@! TO.C,J1*
X248110000Y-67778000D03*
X247610000Y-67778000D03*
X247110000Y-67778000D03*
X246610000Y-67778000D03*
X246110000Y-67778000D03*
X245610000Y-67778000D03*
X244610000Y-67778000D03*
X244110000Y-67778000D03*
X243610000Y-67778000D03*
X243110000Y-67778000D03*
X242610000Y-67778000D03*
X242110000Y-67778000D03*
D31*
X242010000Y-66478000D03*
D30*
X242860000Y-66478000D03*
X243360000Y-66478000D03*
X243860000Y-66478000D03*
X244360000Y-66478000D03*
X244860000Y-66478000D03*
X245360000Y-66478000D03*
X245860000Y-66478000D03*
X246360000Y-66478000D03*
X246860000Y-66478000D03*
X247360000Y-66478000D03*
D31*
X248210000Y-66478000D03*
D32*
X249430000Y-67368000D03*
X240790000Y-67368000D03*
D33*
X249430000Y-62008000D03*
X240790000Y-62008000D03*
G04 #@! TD*
D34*
G04 #@! TO.C,R11*
X235737400Y-74405000D03*
X235737400Y-81805000D03*
G04 #@! TD*
D35*
G04 #@! TO.C,R16*
X256492000Y-94742000D03*
X253492000Y-94742000D03*
G04 #@! TD*
D10*
G04 #@! TO.C,C6*
X243840000Y-75805000D03*
X243840000Y-74055000D03*
G04 #@! TD*
G04 #@! TO.C,C7*
X240792000Y-74055000D03*
X240792000Y-75805000D03*
G04 #@! TD*
G04 #@! TO.C,C8*
X262890000Y-83580640D03*
X262890000Y-81830640D03*
G04 #@! TD*
D11*
G04 #@! TO.C,D1*
X253859920Y-78655640D03*
X251759920Y-78655640D03*
G04 #@! TD*
G04 #@! TO.C,D2*
X264019920Y-68969640D03*
X264019920Y-71069640D03*
G04 #@! TD*
G04 #@! TO.C,D3*
X253224920Y-71035640D03*
X253224920Y-68935640D03*
G04 #@! TD*
G04 #@! TO.C,D4*
X251759920Y-74845640D03*
X253859920Y-74845640D03*
G04 #@! TD*
D20*
G04 #@! TO.C,R8*
X246879920Y-78655640D03*
X248779920Y-78655640D03*
G04 #@! TD*
D19*
G04 #@! TO.C,R9*
X264019920Y-65955640D03*
X264019920Y-64055640D03*
G04 #@! TD*
G04 #@! TO.C,R10*
X253224920Y-64055640D03*
X253224920Y-65955640D03*
G04 #@! TD*
D20*
G04 #@! TO.C,R12*
X248779920Y-74845640D03*
X246879920Y-74845640D03*
G04 #@! TD*
G04 #@! TO.C,R14*
X264842920Y-75057000D03*
X262942920Y-75057000D03*
G04 #@! TD*
G04 #@! TO.C,R15*
X262942920Y-78655640D03*
X264842920Y-78655640D03*
G04 #@! TD*
D36*
G04 #@! TO.C,U2*
X259891920Y-76865640D03*
X259891920Y-76365640D03*
X259891920Y-75865640D03*
X259891920Y-75365640D03*
D37*
X259181920Y-74655640D03*
X258681920Y-74655640D03*
X258181920Y-74655640D03*
X257681920Y-74655640D03*
D36*
X256971920Y-75365640D03*
X256971920Y-75865640D03*
X256971920Y-76365640D03*
X256971920Y-76865640D03*
D37*
X257681920Y-77575640D03*
X258181920Y-77575640D03*
X258681920Y-77575640D03*
X259181920Y-77575640D03*
D38*
X258431920Y-76115640D03*
G04 #@! TD*
D10*
G04 #@! TO.C,C18*
X215963500Y-84723000D03*
X215963500Y-86473000D03*
G04 #@! TD*
G04 #@! TO.C,C20*
X210883500Y-86473000D03*
X210883500Y-84723000D03*
G04 #@! TD*
G04 #@! TO.C,C21*
X213423500Y-86473000D03*
X213423500Y-84723000D03*
G04 #@! TD*
D39*
G04 #@! TO.C,U3*
X246040000Y-105750000D03*
X246040000Y-105100000D03*
X246040000Y-104450000D03*
X246040000Y-103800000D03*
X241640000Y-103800000D03*
X241640000Y-104450000D03*
X241640000Y-105750000D03*
X241640000Y-105100000D03*
G04 #@! TD*
D40*
G04 #@! TO.C,U5*
X241235000Y-108331000D03*
X241235000Y-109601000D03*
X241235000Y-110871000D03*
X241235000Y-112141000D03*
X246445000Y-112141000D03*
X246445000Y-110871000D03*
X246445000Y-109601000D03*
X246445000Y-108331000D03*
G04 #@! TD*
D10*
G04 #@! TO.C,C9*
X255905000Y-106525000D03*
X255905000Y-104775000D03*
G04 #@! TD*
G04 #@! TO.C,C10*
X251968000Y-104775000D03*
X251968000Y-106525000D03*
G04 #@! TD*
G04 #@! TO.C,C11*
X238099600Y-108903800D03*
X238099600Y-110653800D03*
G04 #@! TD*
D25*
G04 #@! TO.C,C3*
X234555000Y-89535000D03*
X232805000Y-89535000D03*
G04 #@! TD*
G04 #@! TO.C,C4*
X234555000Y-96520000D03*
X232805000Y-96520000D03*
G04 #@! TD*
D10*
G04 #@! TO.C,C1*
X241300000Y-85118000D03*
X241300000Y-86868000D03*
G04 #@! TD*
G04 #@! TO.C,C2*
X237744000Y-86868000D03*
X237744000Y-85118000D03*
G04 #@! TD*
D25*
G04 #@! TO.C,C5*
X255115000Y-86995000D03*
X253365000Y-86995000D03*
G04 #@! TD*
D41*
G04 #@! TO.C,U1*
X239240000Y-89789000D03*
X239240000Y-91059000D03*
X239240000Y-92329000D03*
X239240000Y-93599000D03*
X239240000Y-94869000D03*
X239240000Y-96139000D03*
X239240000Y-97409000D03*
X239240000Y-98679000D03*
X239240000Y-99949000D03*
X239240000Y-101219000D03*
X248440000Y-101219000D03*
X248440000Y-99949000D03*
X248440000Y-98679000D03*
X248440000Y-97409000D03*
X248440000Y-96139000D03*
X248440000Y-94869000D03*
X248440000Y-93599000D03*
X248440000Y-92329000D03*
X248440000Y-91059000D03*
X248440000Y-89789000D03*
G04 #@! TD*
M02*
